G04 ================== begin FILE IDENTIFICATION RECORD ==================*
G04 Layout Name:  D:/OrCAD_Projects/Digital_Voltmeter/BOARD/board1.brd*
G04 Film Name:    SMTOP*
G04 File Format:  Gerber RS274X*
G04 File Origin:  Cadence Allegro 25.1-S020*
G04 Origin Date:  Fri Mar 20 17:14:16 2026*
G04 *
G04 Layer:  VIA CLASS/SOLDERMASK_TOP*
G04 Layer:  PIN/SOLDERMASK_TOP*
G04 Layer:  BOARD GEOMETRY/OUTLINE*
G04 *
G04 Offset:    (0.000 0.000)*
G04 Mirror:    No*
G04 Mode:      Positive*
G04 Rotation:  0*
G04 FullContactRelief:  No*
G04 UndefLineWidth:     0.000*
G04 ================== end FILE IDENTIFICATION RECORD ====================*
%FSLAX25Y25*MOIN*%
%IR0*IPPOS*OFA0.00000B0.00000*MIA0B0*SFA1.00000B1.00000*%
%ADD21C,.051181*%
%ADD19C,.08189*%
%ADD16C,.110236*%
%ADD22R,.051181X.051181*%
%ADD11C,.044016*%
%ADD17C,.072835*%
%ADD10C,.05937*%
%ADD20R,.08189X.08189*%
%ADD18R,.072835X.072835*%
%ADD14C,.073858*%
%ADD13C,.059016*%
%ADD15R,.073858X.073858*%
%ADD12O,.065984X.105984*%
%ADD23C,.019685*%
G75*
%LPD*%
G75*
G54D10*
X22047Y11024D03*
X29921D03*
X75984Y14173D03*
X83858D03*
X139370Y13386D03*
X147244D03*
X178346Y14173D03*
X186220D03*
X278740Y11811D03*
X286614D03*
G54D20*
X353543Y158661D03*
G54D11*
X32677Y70472D03*
Y422441D03*
X62598Y1575D03*
X76378Y14173D03*
X84646Y59843D03*
X94882Y461417D03*
X87402Y449213D03*
X125197Y101575D03*
X145669Y148031D03*
X163780Y70472D03*
X216929Y268504D03*
Y459055D03*
X226378Y124803D03*
X229528Y256299D03*
Y255118D03*
X259528Y165118D03*
X317717Y93307D03*
X363543Y158661D03*
X373622Y424409D03*
X375197Y415748D03*
X394488D03*
X382283Y466929D03*
X377559Y468898D03*
X472638Y447047D03*
X499213Y416142D03*
X506693Y419685D03*
X571260Y424409D03*
G54D12*
X32677Y422441D03*
Y461417D03*
X99213Y424016D03*
X79173Y422441D03*
X96811Y461417D03*
X79173D03*
X145709Y424016D03*
X143307Y461417D03*
G54D21*
X462638Y392579D03*
X452638D03*
Y447579D03*
X462638D03*
X492638Y392579D03*
X482638D03*
X472638D03*
Y447579D03*
X482638D03*
X492638D03*
X522638Y392579D03*
X512638D03*
X502638D03*
Y447579D03*
X512638D03*
X522638D03*
X552638Y392579D03*
X542638D03*
X532638D03*
Y447579D03*
X542638D03*
X552638D03*
X582638Y392579D03*
X572638D03*
X562638D03*
Y447579D03*
X572638D03*
X582638D03*
X612638Y392579D03*
X602638D03*
X592638D03*
Y447579D03*
X602638D03*
X612638D03*
X642638Y392579D03*
X632638D03*
X622638D03*
Y447579D03*
X632638D03*
G54D13*
X68685Y337402D03*
X89583D03*
G54D22*
X642638Y447579D03*
G54D23*
G01X0Y0D02*
X669291D01*
Y472441D01*
X0D01*
Y0D01*
G54D14*
X229528Y165118D03*
Y175118D03*
Y185118D03*
Y195118D03*
Y205118D03*
Y215118D03*
Y225118D03*
Y235118D03*
Y245118D03*
Y255118D03*
X259528Y185118D03*
Y175118D03*
Y215118D03*
Y205118D03*
Y195118D03*
Y245118D03*
Y235118D03*
Y225118D03*
Y255118D03*
G54D15*
Y165118D03*
G54D16*
X331890Y36614D03*
Y158661D03*
X627165Y36614D03*
Y158661D03*
G54D17*
X337402Y200000D03*
X327559Y209843D03*
G54D18*
X317717Y200000D03*
G54D19*
X373543Y158661D03*
X363543D03*
X403543D03*
X393543D03*
X383543D03*
X433543D03*
X423543D03*
X413543D03*
X463543D03*
X453543D03*
X443543D03*
X493543D03*
X483543D03*
X473543D03*
X503543D03*
M02*
