M48
METRIC
T01C.2
T02C.63
T03C.83
T04C.9
T05C.99
T06C1.016
T07C1.24
T08C2.3
T09C1.
T10C2.
;LEADER: 12 
;HEADER: 
;CODE  : ASCII 
;FILE  : 8051-1-2.drl for  ... layers TOP and BOTTOM
;DESIGN: 8051.brd
;T01 Holesize 1. = 0.200000 Tolerance = +0.000000/-0.000000 PLATED MM Quantity = 11
;T02 Holesize 2. = 0.630000 Tolerance = +0.000000/-0.000000 PLATED MM Quantity = 2
;T03 Holesize 3. = 0.830000 Tolerance = +0.000000/-0.000000 PLATED MM Quantity = 40
;T04 Holesize 4. = 0.900000 Tolerance = +0.000000/-0.000000 PLATED MM Quantity = 4
;T05 Holesize 5. = 0.990000 Tolerance = +0.000000/-0.000000 PLATED MM Quantity = 12
;T06 Holesize 6. = 1.016000 Tolerance = +0.076200/-0.076200 PLATED MM Quantity = 49
;T07 Holesize 7. = 1.240000 Tolerance = +0.000000/-0.000000 PLATED MM Quantity = 3
;T08 Holesize 8. = 2.300000 Tolerance = +0.000000/-0.000000 PLATED MM Quantity = 2
;T09 Holesize 9. = 1.000000 Tolerance = +0.000000/-0.000000 NON_PLATED MM Quantity = 3
;T10 Holesize 10. = 2.000000 Tolerance = +0.000000/-0.000000 NON_PLATED MM Quantity = 3
%
G90
T01
X4132300Y0909050
X3134200Y3699850
X3254740Y3835000
X3656000Y3478450
X9023000Y3434050
X2610470Y3585000
X2172300Y5940000
X3437200Y5720940
X2485400Y5940000
X4730000Y3981950
X9188250Y0295540
T02
X6526000Y0510000
X7014000Y0510000
T03
X5972100Y6053000
R19Y-0254000
X7527900Y1227000
R19Y0254000
T04
X1640000Y3585000
X1640000Y3835000
X1440000Y3835000
X1440000Y3585000
T05
X3255000Y1095000
X3255000Y0645000
X3905000Y1095000
X3905000Y0645000
X0585000Y1115000
X0585000Y0665000
X1235000Y1115000
X1235000Y0665000
X1795000Y1095000
X1795000Y0645000
X2445000Y1095000
X2445000Y0645000
T06
X4603000Y5713000
X4857000Y5713000
X4603000Y5459000
X4857000Y5459000
X4603000Y5205000
X4857000Y5205000
X4603000Y4951000
X4857000Y4951000
X4603000Y4697000
X4857000Y4697000
X4603000Y3103000
X4857000Y3103000
X4603000Y2849000
X4857000Y2849000
X4603000Y2595000
X4857000Y2595000
X4603000Y2341000
X4857000Y2341000
X4603000Y2087000
X4857000Y2087000
X9023000Y5673000
X9277000Y5673000
X9023000Y5419000
X9277000Y5419000
X9023000Y5165000
X9277000Y5165000
X9023000Y4911000
X9277000Y4911000
X9023000Y4657000
X9277000Y4657000
X9347000Y2007000
X9093000Y2007000
X9347000Y2261000
X9093000Y2261000
X9347000Y2515000
X9093000Y2515000
X9347000Y2769000
X9093000Y2769000
X9347000Y3023000
X9093000Y3023000
X8090000Y6050000
R08Y-0254000
T07
X2206000Y6390000
R02X0254000
T08
X1170000Y4312000
X1170000Y3108000
T09
X0885000Y6260000
X1225000Y5780000
X1515000Y6260000
T10
X3320000Y5840000
X9490000Y0450000
X8850000Y0440000
M30
