G04 ================== begin FILE IDENTIFICATION RECORD ==================*
G04 Layout Name:  C:/PCB DESIGN INTENSIVE/demo/Footprint/8051FINAL.brd*
G04 Film Name:    PASTET*
G04 File Format:  Gerber RS274X*
G04 File Origin:  Cadence Allegro 17.2-P019*
G04 Origin Date:  Sun Apr 10 22:33:56 2022*
G04 *
G04 Layer:  VIA CLASS/PASTEMASK_TOP*
G04 Layer:  PIN/PASTEMASK_TOP*
G04 Layer:  PACKAGE GEOMETRY/PASTEMASK_TOP*
G04 Layer:  DRC ERROR CLASS/PASTEMASK_TOP*
G04 Layer:  BOARD GEOMETRY/DESIGN_OUTLINE*
G04 *
G04 Offset:    (0.0000 0.0000)*
G04 Mirror:    No*
G04 Mode:      Positive*
G04 Rotation:  0*
G04 FullContactRelief:  No*
G04 UndefLineWidth:     2.0000*
G04 ================== end FILE IDENTIFICATION RECORD ====================*
%FSLAX25Y25*MOMM*%
%IR0*IPPOS*OFA0.00000B0.00000*MIA0B0*SFA1.00000B1.00000*%
%ADD13R,1.5X.4*%
%ADD15R,1.3X.7*%
%ADD10R,.7X1.3*%
%ADD16R,1.2X2.*%
%ADD12R,2.X1.2*%
%ADD14R,1.59X1.5*%
%ADD18R,1.5X1.59*%
%ADD17R,1.74X1.18*%
%ADD11R,1.18X1.74*%
%ADD19C,2.*%
G75*
%LPD*%
G75*
G36*
G01X1225000Y5730000D02*
Y5705000D01*
X1335000D01*
G03X1410000Y5780000I-10J75010D01*
G03X1335000Y5855000I-75010J-10D01*
G01X1225000D01*
Y5830000D01*
X1335000D01*
G02X1385000Y5780000I16J-49984D01*
G02X1335000Y5730000I-49984J-16D01*
G01X1225000D01*
G37*
G36*
G01Y5830000D02*
Y5855000D01*
X1115000D01*
G03X1040000Y5780000I10J-75010D01*
G03X1115000Y5705000I75010J10D01*
G01X1225000D01*
Y5730000D01*
X1115000D01*
G02X1065000Y5780000I-16J49984D01*
G02X1115000Y5830000I49984J16D01*
G01X1225000D01*
G37*
G36*
G01X835000Y6260000D02*
X810000D01*
Y6150000D01*
G03X885000Y6075000I75010J10D01*
G03X960000Y6150000I-10J75010D01*
G01Y6260000D01*
X935000D01*
Y6150000D01*
G02X885000Y6100000I-49984J-16D01*
G02X835000Y6150000I-16J49984D01*
G01Y6260000D01*
G37*
G36*
G01X935000D02*
X960000D01*
Y6370000D01*
G03X885000Y6445000I-75010J-10D01*
G03X810000Y6370000I10J-75010D01*
G01Y6260000D01*
X835000D01*
Y6370000D01*
G02X885000Y6420000I49984J16D01*
G02X935000Y6370000I16J-49984D01*
G01Y6260000D01*
G37*
G36*
G01X1465000D02*
X1440000D01*
Y6130000D01*
G03X1515000Y6055000I75010J10D01*
G03X1590000Y6130000I-10J75010D01*
G01Y6260000D01*
X1565000D01*
Y6130000D01*
G02X1515000Y6080000I-49984J-16D01*
G02X1465000Y6130000I-16J49984D01*
G01Y6260000D01*
G37*
G36*
G01X1565000D02*
X1590000D01*
Y6390000D01*
G03X1515000Y6465000I-75010J-10D01*
G03X1440000Y6390000I10J-75010D01*
G01Y6260000D01*
X1465000D01*
Y6390000D01*
G02X1515000Y6440000I49984J16D01*
G02X1565000Y6390000I16J-49984D01*
G01Y6260000D01*
G37*
G54D10*
X1015000Y420000D03*
X825000D03*
X2025000D03*
X2215000D03*
X3515000D03*
X3705000D03*
X8195000Y3620000D03*
X8005000D03*
X8205000Y3350000D03*
X8015000D03*
X8905000Y860000D03*
X8715000D03*
X9505000Y870000D03*
X9315000D03*
G54D11*
X2134000Y2930000D03*
X2124000Y3260000D03*
X2426000Y2930000D03*
X2416000Y3260000D03*
X2694000Y5670000D03*
X2986000D03*
X6836000Y6450000D03*
X6544000D03*
G54D12*
X2030000Y5940000D03*
X2310000D03*
X2660000D03*
X2940000D03*
G54D13*
X2767500Y3197500D03*
Y3522500D03*
Y3587500D03*
Y3652500D03*
Y3717500D03*
Y3782500D03*
Y3847500D03*
Y3912500D03*
Y3262500D03*
Y3327500D03*
Y3392500D03*
Y3457500D03*
Y3977500D03*
Y4042500D03*
X3492500Y3197500D03*
Y3912500D03*
Y3847500D03*
Y3782500D03*
Y3717500D03*
Y3652500D03*
Y3587500D03*
Y3522500D03*
Y3457500D03*
Y3392500D03*
Y3327500D03*
Y3262500D03*
Y4042500D03*
Y3977500D03*
G54D14*
X3320000Y6019500D03*
Y5660500D03*
G54D15*
X3310000Y6515000D03*
Y6325000D03*
G54D16*
X4230000Y790000D03*
Y1070000D03*
G54D17*
X5840000Y354000D03*
Y646000D03*
X7600000Y334000D03*
Y626000D03*
G54D18*
X9029500Y440000D03*
X8670500D03*
X9669500Y450000D03*
X9310500D03*
G54D19*
G01X10000000Y0D02*
Y7500000D01*
X0D01*
Y0D01*
X10000000D01*
M02*
