G04 ================== begin FILE IDENTIFICATION RECORD ==================*
G04 Layout Name:  C:/PCB DESIGN INTENSIVE/demo/Footprint/8051FINAL.brd*
G04 Film Name:    SST*
G04 File Format:  Gerber RS274X*
G04 File Origin:  Cadence Allegro 17.2-P019*
G04 Origin Date:  Sun Apr 10 22:33:56 2022*
G04 *
G04 Layer:  USER PART NUMBER/SILKSCREEN_TOP*
G04 Layer:  TOLERANCE/SILKSCREEN_TOP*
G04 Layer:  REF DES/SILKSCREEN_TOP*
G04 Layer:  PACKAGE GEOMETRY/SILKSCREEN_TOP*
G04 Layer:  DEVICE TYPE/SILKSCREEN_TOP*
G04 Layer:  COMPONENT VALUE/SILKSCREEN_TOP*
G04 Layer:  BOARD GEOMETRY/SILKSCREEN_TOP*
G04 Layer:  BOARD GEOMETRY/DESIGN_OUTLINE*
G04 *
G04 Offset:    (0.0000 0.0000)*
G04 Mirror:    No*
G04 Mode:      Positive*
G04 Rotation:  0*
G04 FullContactRelief:  No*
G04 UndefLineWidth:     0.0000*
G04 ================== end FILE IDENTIFICATION RECORD ====================*
%FSLAX25Y25*MOMM*%
%IR0*IPPOS*OFA0.00000B0.00000*MIA0B0*SFA1.00000B1.00000*%
%ADD10C,.2*%
%ADD11C,.4*%
%ADD12C,.2032*%
%ADD13C,.127*%
G75*
%LPD*%
G75*
G36*
G01X2990000Y1530000D02*
Y150000D01*
X4440000D01*
Y1530000D01*
X2990000D01*
G37*
G36*
G01X4984000Y3230000D02*
X4476000D01*
Y1960000D01*
X4984000D01*
Y3230000D01*
G37*
G36*
G01Y5840000D02*
X4476000D01*
Y4570000D01*
X4984000D01*
Y5840000D01*
G37*
G36*
G01X8560000Y6260000D02*
Y1460000D01*
X9840000D01*
Y6260000D01*
X8560000D01*
G37*
G36*
G01X8966000Y1880000D02*
X9474000D01*
Y3150000D01*
X8966000D01*
Y1880000D01*
G37*
G36*
G01X9404000Y5800000D02*
X8896000D01*
Y4530000D01*
X9404000D01*
Y5800000D01*
G37*
G54D10*
G01X969000Y3105000D02*
X130000D01*
Y4315000D01*
X969000D01*
G01X1575000Y6505000D02*
Y6710000D01*
X145000D01*
Y5810000D01*
X1000000D01*
G01X1371000Y4315000D02*
X1750000D01*
Y3105000D01*
X1371000D01*
G01X1650000Y3035000D02*
G03I-10000J0D01*
G01X1575000Y6015000D02*
Y5810000D01*
X1450000D01*
G01X1886000Y6390000D02*
G03I-10000J0D01*
G01X2480000Y5850000D02*
G03I-10000J0D01*
G01X2510000Y6030000D02*
G03I-10000J0D01*
G01X4150000Y630000D02*
G03I-10000J0D01*
G01X5819600Y6053000D02*
G03I-10000J0D01*
G54D11*
G01X455000Y1115000D02*
G03I-20000J0D01*
G01X1665000Y1095000D02*
G03I-20000J0D01*
G01X3125000D02*
G03I-20000J0D01*
G54D12*
G01X2870000Y4130000D02*
Y3110000D01*
X3390000D01*
Y4130000D01*
X2870000D01*
G01X7963000Y3891000D02*
Y6177000D01*
G01X8217000Y3891000D02*
X7963000D01*
G01X8217000Y6177000D02*
Y3891000D01*
G01X8236000Y5187820D02*
X8363000D01*
Y5145480D01*
X8356650Y5131940D01*
X8348180Y5123470D01*
X8331250Y5120080D01*
X8314320Y5123470D01*
X8303730Y5133630D01*
X8297380Y5145480D01*
Y5187820D01*
G01Y5145480D02*
X8236000Y5120080D01*
G01Y5047270D02*
X8363000D01*
X8337600Y5067590D01*
G01X8236000D02*
Y5026950D01*
G01X7963000Y6177000D02*
X8217000D01*
G01X7950300Y6189700D02*
X7963000Y6177000D01*
G54D13*
G01X610000Y990000D02*
Y790000D01*
G01X1085000Y890000D02*
G03I-175000J0D01*
G01X710000Y590000D02*
X1110000D01*
G01X1210000Y990000D02*
Y790000D01*
G01X710000Y1190000D02*
X1110000D01*
G01X2295000Y870000D02*
G03I-175000J0D01*
G01X1920000Y570000D02*
X2320000D01*
G01X1820000Y970000D02*
Y770000D01*
G01X1920000Y1170000D02*
X2320000D01*
G01X2330000Y6020000D02*
X2010000D01*
G01X2330000Y5860000D02*
X2010000D01*
G01X1933000Y6676000D02*
Y6206000D01*
X2987000D01*
Y6676000D01*
X1933000D01*
G01X2420000Y970000D02*
Y770000D01*
G01X2225000Y2844000D02*
X2335000D01*
G01X2225000Y3016000D02*
X2335000D01*
G01X2215000Y3174000D02*
X2325000D01*
G01X2215000Y3346000D02*
X2325000D01*
G01X2640000Y5860000D02*
X2960000D01*
G01X2640000Y6020000D02*
X2960000D01*
G01X2895000Y5756000D02*
X2785000D01*
G01X2895000Y5584000D02*
X2785000D01*
G01X3755000Y870000D02*
G03I-175000J0D01*
G01X3380000Y570000D02*
X3780000D01*
G01X3280000Y970000D02*
Y770000D01*
G01X3380000Y1170000D02*
X3780000D01*
G01X3006060Y4040000D02*
G03I-36060J0D01*
G01X3256000Y5552000D02*
X3376000D01*
G01X4150000Y770000D02*
Y1090000D01*
G01X3880000Y970000D02*
Y770000D01*
G01X4310000D02*
Y1090000D01*
G01X4425200Y3153800D02*
Y3052200D01*
X4476000Y3103000D01*
X4425200Y3153800D01*
G01X4680580Y3305240D02*
X4685880Y3297620D01*
X4692220Y3292540D01*
X4699630Y3290000D01*
X4708100Y3292540D01*
X4714450Y3297620D01*
X4720800Y3305240D01*
X4722920Y3315400D01*
Y3366200D01*
G01X4749590Y3301430D02*
X4755940Y3295080D01*
X4763340Y3291270D01*
X4772870Y3290000D01*
X4782400Y3292540D01*
X4789800Y3297620D01*
X4795100Y3306510D01*
X4796150Y3316670D01*
X4794040Y3326830D01*
X4788740Y3333180D01*
X4781340Y3338260D01*
X4773930Y3339530D01*
X4766520Y3338260D01*
X4757000Y3333180D01*
X4760170Y3366200D01*
X4788740D01*
G01X4700580Y5895240D02*
X4705880Y5887620D01*
X4712220Y5882540D01*
X4719630Y5880000D01*
X4728100Y5882540D01*
X4734450Y5887620D01*
X4740800Y5895240D01*
X4742920Y5905400D01*
Y5956200D01*
G01X4772760Y5943500D02*
X4779110Y5951120D01*
X4786520Y5954930D01*
X4794990Y5956200D01*
X4805570Y5953660D01*
X4812980Y5947310D01*
X4815100Y5939690D01*
X4814040Y5932070D01*
X4809800Y5925720D01*
X4788640Y5913020D01*
X4779110Y5904130D01*
X4772760Y5891430D01*
X4770640Y5880000D01*
X4815100D01*
G01X4425200Y5763800D02*
Y5662200D01*
X4476000Y5713000D01*
X4425200Y5763800D01*
G01X6435000Y277000D02*
G02X6202500Y492500I-8525J223973D01*
G01X5754000Y555000D02*
Y445000D01*
G01X5926000Y555000D02*
Y445000D01*
G01X6064200Y1023800D02*
X7435800D01*
G01X6064200Y1132500D02*
Y1023800D01*
X7435800D01*
Y1132500D01*
G01X6202500Y492500D02*
G02X6435000Y743000I241559J8945D01*
G01X7105000D01*
G01X6064200Y6256200D02*
X7435800D01*
G01X6064200Y6147500D02*
Y6256200D01*
X7435800D01*
Y6147500D01*
G01X7337500Y492500D02*
G02X7105000Y277000I-223975J8473D01*
G01X6435000D01*
G01X6635000Y6364000D02*
X6745000D01*
G01X6635000Y6536000D02*
X6745000D01*
G01X7514000Y535000D02*
Y425000D01*
G01X7686000Y535000D02*
Y425000D01*
G01X7105000Y743000D02*
G02X7337500Y492500I-9059J-241555D01*
G01X9202000Y514000D02*
Y394000D01*
G01X8562000Y504000D02*
Y384000D01*
G01X9160580Y3205240D02*
X9165880Y3197620D01*
X9172220Y3192540D01*
X9179630Y3190000D01*
X9188100Y3192540D01*
X9194450Y3197620D01*
X9200800Y3205240D01*
X9202920Y3215400D01*
Y3266200D01*
G01X9229590Y3205240D02*
X9235940Y3196350D01*
X9244400Y3191270D01*
X9253930Y3190000D01*
X9262400Y3191270D01*
X9270860Y3197620D01*
X9276150Y3205240D01*
X9277210Y3212860D01*
X9275100Y3221750D01*
X9267690Y3228100D01*
X9260280Y3230640D01*
X9250750D01*
G01X9260280D02*
X9266630Y3234450D01*
X9271920Y3240800D01*
X9274040Y3248420D01*
X9271920Y3256040D01*
X9266630Y3262390D01*
X9257100Y3266200D01*
X9247580Y3264930D01*
X9238050Y3259850D01*
G01X9110580Y5875240D02*
X9115880Y5867620D01*
X9122220Y5862540D01*
X9129630Y5860000D01*
X9138100Y5862540D01*
X9144450Y5867620D01*
X9150800Y5875240D01*
X9152920Y5885400D01*
Y5936200D01*
G01X9202870Y5860000D02*
Y5936200D01*
X9190170Y5920960D01*
G01Y5860000D02*
X9215570D01*
G01X8845200Y5723800D02*
Y5622200D01*
X8896000Y5673000D01*
X8845200Y5723800D01*
G01X9524800Y1956200D02*
Y2057800D01*
X9474000Y2007000D01*
X9524800Y1956200D01*
M02*
