%TF.GenerationSoftware,KiCad,Pcbnew,10.0.0*%
%TF.CreationDate,2026-03-31T14:31:39+05:30*%
%TF.ProjectId,4_LAYER_8051,345f4c41-5945-4525-9f38-3035312e6b69,rev?*%
%TF.SameCoordinates,Original*%
%TF.FileFunction,Soldermask,Top*%
%TF.FilePolarity,Negative*%
%FSLAX46Y46*%
G04 Gerber Fmt 4.6, Leading zero omitted, Abs format (unit mm)*
G04 Created by KiCad (PCBNEW 10.0.0) date 2026-03-31 14:31:39*
%MOMM*%
%LPD*%
G01*
G04 APERTURE LIST*
G04 Aperture macros list*
%AMRoundRect*
0 Rectangle with rounded corners*
0 $1 Rounding radius*
0 $2 $3 $4 $5 $6 $7 $8 $9 X,Y pos of 4 corners*
0 Add a 4 corners polygon primitive as box body*
4,1,4,$2,$3,$4,$5,$6,$7,$8,$9,$2,$3,0*
0 Add four circle primitives for the rounded corners*
1,1,$1+$1,$2,$3*
1,1,$1+$1,$4,$5*
1,1,$1+$1,$6,$7*
1,1,$1+$1,$8,$9*
0 Add four rect primitives between the rounded corners*
20,1,$1+$1,$2,$3,$4,$5,0*
20,1,$1+$1,$4,$5,$6,$7,0*
20,1,$1+$1,$6,$7,$8,$9,0*
20,1,$1+$1,$8,$9,$2,$3,0*%
G04 Aperture macros list end*
%ADD10R,0.350000X0.500000*%
%ADD11C,0.600000*%
%ADD12R,3.900000X3.900000*%
%ADD13R,1.500000X0.900000*%
%ADD14R,0.900000X1.500000*%
%ADD15RoundRect,0.250000X-0.262500X-0.450000X0.262500X-0.450000X0.262500X0.450000X-0.262500X0.450000X0*%
%ADD16RoundRect,0.225000X0.375000X-0.225000X0.375000X0.225000X-0.375000X0.225000X-0.375000X-0.225000X0*%
%ADD17RoundRect,0.050000X-0.150000X-0.300000X0.150000X-0.300000X0.150000X0.300000X-0.150000X0.300000X0*%
%ADD18RoundRect,0.250000X-0.250000X-0.475000X0.250000X-0.475000X0.250000X0.475000X-0.250000X0.475000X0*%
%ADD19RoundRect,0.250000X0.475000X-0.250000X0.475000X0.250000X-0.475000X0.250000X-0.475000X-0.250000X0*%
%ADD20RoundRect,0.250000X0.250000X0.475000X-0.250000X0.475000X-0.250000X-0.475000X0.250000X-0.475000X0*%
%ADD21RoundRect,0.375000X0.375000X-0.625000X0.375000X0.625000X-0.375000X0.625000X-0.375000X-0.625000X0*%
%ADD22RoundRect,0.500000X1.400000X-0.500000X1.400000X0.500000X-1.400000X0.500000X-1.400000X-0.500000X0*%
%ADD23C,1.700000*%
%ADD24R,1.700000X1.700000*%
%ADD25RoundRect,0.050000X0.150000X0.300000X-0.150000X0.300000X-0.150000X-0.300000X0.150000X-0.300000X0*%
%ADD26RoundRect,0.243750X-0.243750X-0.456250X0.243750X-0.456250X0.243750X0.456250X-0.243750X0.456250X0*%
%ADD27RoundRect,0.102000X-0.575000X-0.325000X0.575000X-0.325000X0.575000X0.325000X-0.575000X0.325000X0*%
%ADD28R,1.500000X1.000000*%
%ADD29O,1.600000X1.000000*%
%ADD30O,2.100000X1.000000*%
%ADD31RoundRect,0.150000X-0.575000X0.150000X-0.575000X-0.150000X0.575000X-0.150000X0.575000X0.150000X0*%
%ADD32RoundRect,0.075000X-0.650000X0.075000X-0.650000X-0.075000X0.650000X-0.075000X0.650000X0.075000X0*%
%ADD33C,0.650000*%
%ADD34R,1.500000X1.500000*%
%ADD35C,1.500000*%
%ADD36RoundRect,0.250000X-0.800000X-0.450000X0.800000X-0.450000X0.800000X0.450000X-0.800000X0.450000X0*%
G04 APERTURE END LIST*
D10*
%TO.C,U6*%
X189601200Y-107556200D03*
X190251200Y-107556200D03*
X190901200Y-107556200D03*
X191551200Y-107556200D03*
X191551200Y-105956200D03*
X190901200Y-105956200D03*
X190251200Y-105956200D03*
X189601200Y-105956200D03*
%TD*%
D11*
%TO.C,U1*%
X175274600Y-60921800D03*
X175274600Y-59521800D03*
X174574600Y-61621800D03*
X174574600Y-60221800D03*
X174574600Y-58821800D03*
X173874600Y-60921800D03*
D12*
X173874600Y-60221800D03*
D11*
X173874600Y-59521800D03*
X173174600Y-61621800D03*
X173174600Y-60221800D03*
X173174600Y-58821800D03*
X172474600Y-60921800D03*
X172474600Y-59521800D03*
D13*
X184124600Y-52501800D03*
X184124600Y-53771800D03*
X184124600Y-55041800D03*
X184124600Y-56311800D03*
X184124600Y-57581800D03*
X184124600Y-58851800D03*
X184124600Y-60121800D03*
X184124600Y-61391800D03*
X184124600Y-62661800D03*
X184124600Y-63931800D03*
X184124600Y-65201800D03*
X184124600Y-66471800D03*
X184124600Y-67741800D03*
X184124600Y-69011800D03*
D14*
X182359600Y-70261800D03*
X181089600Y-70261800D03*
X179819600Y-70261800D03*
X178549600Y-70261800D03*
X177279600Y-70261800D03*
X176009600Y-70261800D03*
X174739600Y-70261800D03*
X173469600Y-70261800D03*
X172199600Y-70261800D03*
X170929600Y-70261800D03*
X169659600Y-70261800D03*
X168389600Y-70261800D03*
D13*
X166624600Y-69011800D03*
X166624600Y-67741800D03*
X166624600Y-66471800D03*
X166624600Y-65201800D03*
X166624600Y-63931800D03*
X166624600Y-62661800D03*
X166624600Y-61391800D03*
X166624600Y-60121800D03*
X166624600Y-58851800D03*
X166624600Y-57581800D03*
X166624600Y-56311800D03*
X166624600Y-55041800D03*
X166624600Y-53771800D03*
X166624600Y-52501800D03*
%TD*%
D15*
%TO.C,R3*%
X192225300Y-88087200D03*
X190400300Y-88087200D03*
%TD*%
%TO.C,R2*%
X196494400Y-93167200D03*
X194669400Y-93167200D03*
%TD*%
D16*
%TO.C,D1*%
X180797200Y-109346000D03*
X180797200Y-106046000D03*
%TD*%
D17*
%TO.C,D4*%
X175784800Y-105156000D03*
X176484800Y-105156000D03*
%TD*%
D15*
%TO.C,R5*%
X184178700Y-87731600D03*
X182353700Y-87731600D03*
%TD*%
D18*
%TO.C,C5*%
X174630000Y-88747600D03*
X176530000Y-88747600D03*
%TD*%
D19*
%TO.C,C4*%
X177165000Y-109215000D03*
X177165000Y-107315000D03*
%TD*%
D20*
%TO.C,C2*%
X182295800Y-78689200D03*
X184195800Y-78689200D03*
%TD*%
D18*
%TO.C,C1*%
X184206000Y-83413600D03*
X182306000Y-83413600D03*
%TD*%
D15*
%TO.C,R7*%
X202082400Y-93167200D03*
X200257400Y-93167200D03*
%TD*%
D18*
%TO.C,C10*%
X187889000Y-87782400D03*
X185989000Y-87782400D03*
%TD*%
%TO.C,C6*%
X174630000Y-92100400D03*
X176530000Y-92100400D03*
%TD*%
%TO.C,C11*%
X185953400Y-83413600D03*
X187853400Y-83413600D03*
%TD*%
D15*
%TO.C,R6*%
X200257400Y-88087200D03*
X202082400Y-88087200D03*
%TD*%
%TO.C,R4*%
X172772700Y-81737200D03*
X174597700Y-81737200D03*
%TD*%
D21*
%TO.C,U4*%
X167255200Y-97333200D03*
X169555200Y-97333200D03*
D22*
X169555200Y-91033200D03*
D21*
X171855200Y-97333200D03*
%TD*%
D23*
%TO.C,J2*%
X185120000Y-74168000D03*
X182580000Y-74168000D03*
X180040000Y-74168000D03*
X177500000Y-74168000D03*
X174960000Y-74168000D03*
X172420000Y-74168000D03*
X169880000Y-74168000D03*
D24*
X167340000Y-74168000D03*
%TD*%
D17*
%TO.C,D3*%
X178008800Y-104089200D03*
X178708800Y-104089200D03*
%TD*%
D18*
%TO.C,C8*%
X176545200Y-98552000D03*
X174645200Y-98552000D03*
%TD*%
%TO.C,C7*%
X176616400Y-95504000D03*
X174716400Y-95504000D03*
%TD*%
D25*
%TO.C,D2*%
X176372000Y-100939600D03*
X175672000Y-100939600D03*
%TD*%
D26*
%TO.C,D6*%
X167284400Y-81737200D03*
X169159400Y-81737200D03*
%TD*%
D27*
%TO.C,U2*%
X194429200Y-100717600D03*
X194429200Y-101717600D03*
X194429200Y-102717600D03*
X194429200Y-103717600D03*
X194429200Y-104717600D03*
X196629200Y-104717600D03*
X196629200Y-103717600D03*
X196629200Y-102717600D03*
X196629200Y-101717600D03*
X196629200Y-100717600D03*
%TD*%
D15*
%TO.C,R1*%
X196494400Y-88087200D03*
X194669400Y-88087200D03*
%TD*%
D28*
%TO.C,D5*%
X189343200Y-97713600D03*
X189343200Y-94513600D03*
X184443200Y-94513600D03*
X184443200Y-97713600D03*
%TD*%
D29*
%TO.C,J1*%
X168260000Y-109297000D03*
D30*
X172440000Y-109297000D03*
D29*
X168260000Y-100657000D03*
D30*
X172440000Y-100657000D03*
D31*
X173355000Y-101727000D03*
X173355000Y-102527000D03*
D32*
X173355000Y-103227000D03*
X173355000Y-104227000D03*
X173355000Y-105727000D03*
X173355000Y-106727000D03*
D31*
X173355000Y-107427000D03*
X173355000Y-108227000D03*
X173355000Y-108227000D03*
X173355000Y-107427000D03*
D32*
X173355000Y-106227000D03*
X173355000Y-105227000D03*
X173355000Y-104727000D03*
X173355000Y-103727000D03*
D31*
X173355000Y-102527000D03*
X173355000Y-101727000D03*
D33*
X171910000Y-107867000D03*
X171910000Y-102087000D03*
%TD*%
D34*
%TO.C,U3*%
X200710800Y-99872800D03*
D35*
X200710800Y-102412800D03*
X200710800Y-104952800D03*
X200710800Y-107492800D03*
%TD*%
D20*
%TO.C,C3*%
X185902600Y-78689200D03*
X187802600Y-78689200D03*
%TD*%
D36*
%TO.C,SW3*%
X201246800Y-71966600D03*
X192146800Y-71966600D03*
X201246800Y-67466600D03*
X192146800Y-67466600D03*
%TD*%
%TO.C,SW4*%
X192042800Y-74173400D03*
X201142800Y-74173400D03*
X192042800Y-78673400D03*
X201142800Y-78673400D03*
%TD*%
%TO.C,SW2*%
X192096800Y-60716600D03*
X201196800Y-60716600D03*
X192096800Y-65216600D03*
X201196800Y-65216600D03*
%TD*%
%TO.C,SW1*%
X192096800Y-54216600D03*
X201196800Y-54216600D03*
X192096800Y-58716600D03*
X201196800Y-58716600D03*
%TD*%
M02*
