%TF.GenerationSoftware,KiCad,Pcbnew,10.0.0*%
%TF.CreationDate,2026-03-31T14:31:39+05:30*%
%TF.ProjectId,4_LAYER_8051,345f4c41-5945-4525-9f38-3035312e6b69,rev?*%
%TF.SameCoordinates,Original*%
%TF.FileFunction,Copper,L2,Inr*%
%TF.FilePolarity,Positive*%
%FSLAX46Y46*%
G04 Gerber Fmt 4.6, Leading zero omitted, Abs format (unit mm)*
G04 Created by KiCad (PCBNEW 10.0.0) date 2026-03-31 14:31:39*
%MOMM*%
%LPD*%
G01*
G04 APERTURE LIST*
%TA.AperFunction,HeatsinkPad*%
%ADD10C,0.600000*%
%TD*%
%TA.AperFunction,ComponentPad*%
%ADD11C,1.700000*%
%TD*%
%TA.AperFunction,ComponentPad*%
%ADD12R,1.700000X1.700000*%
%TD*%
%TA.AperFunction,ComponentPad*%
%ADD13O,1.600000X1.000000*%
%TD*%
%TA.AperFunction,ComponentPad*%
%ADD14O,2.100000X1.000000*%
%TD*%
%TA.AperFunction,ComponentPad*%
%ADD15R,1.500000X1.500000*%
%TD*%
%TA.AperFunction,ComponentPad*%
%ADD16C,1.500000*%
%TD*%
%TA.AperFunction,ViaPad*%
%ADD17C,0.600000*%
%TD*%
%TA.AperFunction,Conductor*%
%ADD18C,0.200000*%
%TD*%
G04 APERTURE END LIST*
D10*
%TO.N,GND*%
%TO.C,U1*%
X175274600Y-60921800D03*
X175274600Y-59521800D03*
X174574600Y-61621800D03*
X174574600Y-60221800D03*
X174574600Y-58821800D03*
X173874600Y-60921800D03*
X173874600Y-59521800D03*
X173174600Y-61621800D03*
X173174600Y-60221800D03*
X173174600Y-58821800D03*
X172474600Y-60921800D03*
X172474600Y-59521800D03*
%TD*%
D11*
%TO.N,/BL*%
%TO.C,J2*%
X185120000Y-74168000D03*
%TO.N,/RST*%
X182580000Y-74168000D03*
%TO.N,/DC*%
X180040000Y-74168000D03*
%TO.N,/CS*%
X177500000Y-74168000D03*
%TO.N,/CLK*%
X174960000Y-74168000D03*
%TO.N,/DIN*%
X172420000Y-74168000D03*
%TO.N,GND*%
X169880000Y-74168000D03*
D12*
%TO.N,/VCC_3V3*%
X167340000Y-74168000D03*
%TD*%
D13*
%TO.N,GND*%
%TO.C,J1*%
X168260000Y-109297000D03*
D14*
X172440000Y-109297000D03*
D13*
X168260000Y-100657000D03*
D14*
X172440000Y-100657000D03*
%TD*%
D15*
%TO.N,/VCC_3V3*%
%TO.C,U3*%
X200710800Y-99872800D03*
D16*
%TO.N,/GPIO4*%
X200710800Y-102412800D03*
%TO.N,unconnected-(U3-NC-Pad3)*%
X200710800Y-104952800D03*
%TO.N,GND*%
X200710800Y-107492800D03*
%TD*%
D17*
%TO.N,/SDA*%
X188194300Y-64886200D03*
X191177100Y-105131100D03*
X193162900Y-102198500D03*
X165371900Y-62660900D03*
%TO.N,Net-(SW1-Pad1)*%
X192986300Y-63997800D03*
X191541200Y-55845000D03*
%TO.N,/GPIO4*%
X199420600Y-54817800D03*
X165371900Y-56551900D03*
%TO.N,/DIN*%
X168143800Y-67027900D03*
%TO.N,Net-(J1-CC2)*%
X199197900Y-99230400D03*
X175056400Y-105506600D03*
%TO.N,Net-(J1-CC1)*%
X176747100Y-102725400D03*
X194402800Y-94811100D03*
%TO.N,/SCL*%
X169539600Y-65534400D03*
X187771600Y-65800100D03*
X189049700Y-93416800D03*
%TO.N,/D+*%
X171534200Y-104951700D03*
X165800100Y-69980200D03*
%TO.N,/D-*%
X169302600Y-68031500D03*
X171354300Y-103616500D03*
%TO.N,/GPIO0*%
X185398200Y-68873700D03*
X185398200Y-85763800D03*
%TO.N,/VCC_5V*%
X175433700Y-108564500D03*
X174393200Y-99810000D03*
%TO.N,/CHIP_PU*%
X189076200Y-62443300D03*
X168726900Y-59079000D03*
%TO.N,GND*%
X191945100Y-108902000D03*
X174646200Y-109420800D03*
X190744200Y-63027200D03*
%TO.N,/VCC_3V3*%
X193312300Y-103997700D03*
X181903000Y-77439200D03*
%TD*%
%TO.N,/SDA*%
D18*
X169740200Y-64886200D02*
X188194300Y-64886200D01*
X167514900Y-62660900D02*
X169740200Y-64886200D01*
X165371900Y-62660900D02*
X167514900Y-62660900D01*
%TO.N,/GPIO4*%
X167106000Y-54817800D02*
X165371900Y-56551900D01*
X199420600Y-54817800D02*
X167106000Y-54817800D01*
%TO.N,/DIN*%
X168143800Y-69891800D02*
X168143800Y-67027900D01*
X172420000Y-74168000D02*
X168143800Y-69891800D01*
X168143800Y-67027900D02*
X167880800Y-66764900D01*
X167880800Y-66764900D02*
X168143800Y-67027900D01*
%TO.N,Net-(J1-CC2)*%
X181332600Y-99230400D02*
X175056400Y-105506600D01*
X199197900Y-99230400D02*
X181332600Y-99230400D01*
X175056400Y-105506600D02*
X175058000Y-105506600D01*
X175058000Y-105506600D02*
X175056400Y-105506600D01*
%TO.N,Net-(J1-CC1)*%
X184661400Y-94811100D02*
X194402800Y-94811100D01*
X176747100Y-102725400D02*
X184661400Y-94811100D01*
X194402800Y-94811100D02*
X194669400Y-94544500D01*
X194669400Y-94544500D02*
X194402800Y-94811100D01*
%TO.N,/SCL*%
X187505900Y-65534400D02*
X187771600Y-65800100D01*
X169539600Y-65534400D02*
X187505900Y-65534400D01*
%TO.N,/CHIP_PU*%
X169593500Y-58212400D02*
X168726900Y-59079000D01*
X184845300Y-58212400D02*
X169593500Y-58212400D01*
X189076200Y-62443300D02*
X184845300Y-58212400D01*
%TO.N,GND*%
X173174600Y-58821800D02*
X174574600Y-58821800D01*
X168260000Y-100657000D02*
X172440000Y-100657000D01*
X168260000Y-109297000D02*
X172440000Y-109297000D01*
X172474600Y-60921800D02*
X173874600Y-60921800D01*
X174574600Y-60221800D02*
X173592000Y-60221800D01*
X173592000Y-60221800D02*
X173174600Y-60221800D01*
X173592000Y-59521800D02*
X173592000Y-60221800D01*
X172474600Y-59521800D02*
X173592000Y-59521800D01*
X173592000Y-59521800D02*
X173874600Y-59521800D01*
X175274600Y-59521800D02*
X174574600Y-60221800D01*
X174522400Y-109297000D02*
X174646200Y-109420800D01*
X172440000Y-109297000D02*
X174522400Y-109297000D01*
X175997900Y-63045100D02*
X174574600Y-61621800D01*
X190726300Y-63045100D02*
X175997900Y-63045100D01*
X190744200Y-63027200D02*
X190726300Y-63045100D01*
X191426300Y-109420800D02*
X191945100Y-108902000D01*
X174646200Y-109420800D02*
X191426300Y-109420800D01*
%TO.N,/VCC_3V3*%
X200710800Y-99872800D02*
X199659100Y-99872800D01*
X168491700Y-74456000D02*
X168491700Y-74168000D01*
X171474900Y-77439200D02*
X168491700Y-74456000D01*
X181903000Y-77439200D02*
X171474900Y-77439200D01*
X167340000Y-74168000D02*
X168491700Y-74168000D01*
X199659100Y-100830400D02*
X199659100Y-99872800D01*
X200189800Y-101361100D02*
X199659100Y-100830400D01*
X201146500Y-101361100D02*
X200189800Y-101361100D01*
X201762500Y-101977100D02*
X201146500Y-101361100D01*
X201762500Y-102848500D02*
X201762500Y-101977100D01*
X201146500Y-103464500D02*
X201762500Y-102848500D01*
X200710700Y-103464500D02*
X201146500Y-103464500D01*
X199659100Y-104516100D02*
X200710700Y-103464500D01*
X199659100Y-105450000D02*
X199659100Y-104516100D01*
X200650200Y-106441100D02*
X199659100Y-105450000D01*
X201146500Y-106441100D02*
X200650200Y-106441100D01*
X201762500Y-107057100D02*
X201146500Y-106441100D01*
X201762500Y-107928500D02*
X201762500Y-107057100D01*
X201146500Y-108544500D02*
X201762500Y-107928500D01*
X197859100Y-108544500D02*
X201146500Y-108544500D01*
X193312300Y-103997700D02*
X197859100Y-108544500D01*
%TD*%
%TA.AperFunction,Conductor*%
%TO.N,GND*%
G36*
X204010205Y-52051128D02*
G01*
X204025203Y-52055532D01*
X204083954Y-52093277D01*
X204085141Y-52094646D01*
X204105006Y-52138109D01*
X204108462Y-52137013D01*
X204111294Y-52145940D01*
X204112681Y-52154899D01*
X204114186Y-52158192D01*
X204113707Y-52161528D01*
X204117099Y-52183436D01*
X204117099Y-109981942D01*
X204112074Y-110016886D01*
X204107669Y-110031884D01*
X204069926Y-110090627D01*
X204068557Y-110091814D01*
X204013696Y-110119290D01*
X204006138Y-110120935D01*
X203979767Y-110123772D01*
X173890077Y-110123772D01*
X173855137Y-110118748D01*
X173842068Y-110114910D01*
X173783292Y-110077133D01*
X173754269Y-110013576D01*
X173761221Y-109951559D01*
X173764181Y-109943834D01*
X173776862Y-109919331D01*
X173779051Y-109916055D01*
X173876185Y-109770684D01*
X173876192Y-109770671D01*
X173951569Y-109588692D01*
X173951569Y-109588690D01*
X173959862Y-109547000D01*
X173395195Y-109547000D01*
X173328156Y-109527315D01*
X173282401Y-109474511D01*
X173272457Y-109405353D01*
X173275415Y-109390926D01*
X173290000Y-109336496D01*
X173290000Y-109257504D01*
X173275420Y-109203089D01*
X173277083Y-109133244D01*
X173316245Y-109075381D01*
X173380473Y-109047877D01*
X173395195Y-109047000D01*
X173959862Y-109047000D01*
X173959862Y-109046999D01*
X173953952Y-109017288D01*
X173953951Y-109017283D01*
X173953951Y-109017284D01*
X173951569Y-109005309D01*
X173951569Y-109005307D01*
X173913424Y-108913215D01*
X173876195Y-108823334D01*
X173876190Y-108823325D01*
X173876185Y-108823315D01*
X173766751Y-108659537D01*
X173766748Y-108659533D01*
X173766743Y-108659527D01*
X173750564Y-108643348D01*
X174633199Y-108643348D01*
X174663957Y-108797971D01*
X174663964Y-108798002D01*
X174724298Y-108943665D01*
X174724303Y-108943674D01*
X174724313Y-108943691D01*
X174811912Y-109074791D01*
X174811917Y-109074797D01*
X174923401Y-109186281D01*
X174923407Y-109186286D01*
X174923411Y-109186289D01*
X175054514Y-109273890D01*
X175054527Y-109273897D01*
X175200198Y-109334235D01*
X175200203Y-109334237D01*
X175354853Y-109364999D01*
X175354856Y-109365000D01*
X175354858Y-109365000D01*
X175512544Y-109365000D01*
X175512545Y-109364999D01*
X175667197Y-109334237D01*
X175812879Y-109273894D01*
X175943989Y-109186289D01*
X176055489Y-109074789D01*
X176143094Y-108943679D01*
X176203437Y-108797997D01*
X176234200Y-108643342D01*
X176234200Y-108485658D01*
X176234200Y-108485655D01*
X176234200Y-108485471D01*
X176233764Y-108483466D01*
X176225409Y-108441463D01*
X176223260Y-108430661D01*
X176203437Y-108331003D01*
X176201991Y-108327513D01*
X176143097Y-108185327D01*
X176143090Y-108185314D01*
X176055489Y-108054211D01*
X176055486Y-108054207D01*
X176055481Y-108054201D01*
X175943997Y-107942717D01*
X175943991Y-107942712D01*
X175943990Y-107942711D01*
X175812891Y-107855113D01*
X175812890Y-107855112D01*
X175812885Y-107855109D01*
X175812872Y-107855102D01*
X175812865Y-107855098D01*
X175667202Y-107794764D01*
X175667171Y-107794757D01*
X175512547Y-107764000D01*
X175512545Y-107764000D01*
X175512542Y-107764000D01*
X175354858Y-107764000D01*
X175354855Y-107764000D01*
X175354853Y-107764000D01*
X175200227Y-107794757D01*
X175200196Y-107794764D01*
X175054533Y-107855098D01*
X175054524Y-107855103D01*
X175054507Y-107855113D01*
X174923408Y-107942711D01*
X174923407Y-107942712D01*
X174923401Y-107942717D01*
X174811917Y-108054201D01*
X174811912Y-108054207D01*
X174811911Y-108054208D01*
X174724313Y-108185307D01*
X174724303Y-108185324D01*
X174724298Y-108185333D01*
X174663964Y-108330996D01*
X174663957Y-108331027D01*
X174633200Y-108485650D01*
X174633200Y-108485653D01*
X174633200Y-108643346D01*
X174633200Y-108643348D01*
X174633199Y-108643348D01*
X173750564Y-108643348D01*
X173627471Y-108520255D01*
X173627465Y-108520250D01*
X173627464Y-108520249D01*
X173463690Y-108410818D01*
X173463689Y-108410817D01*
X173463684Y-108410814D01*
X173463671Y-108410807D01*
X173463664Y-108410803D01*
X173281694Y-108335430D01*
X173281655Y-108335421D01*
X173088498Y-108297000D01*
X173088495Y-108297000D01*
X172690000Y-108297000D01*
X172690000Y-108873000D01*
X172670315Y-108940039D01*
X172617511Y-108985794D01*
X172566000Y-108997000D01*
X172314000Y-108997000D01*
X172246961Y-108977315D01*
X172201206Y-108924511D01*
X172190000Y-108873000D01*
X172190000Y-108459292D01*
X172195023Y-108424358D01*
X172200324Y-108406304D01*
X172233728Y-108351498D01*
X172241268Y-108344308D01*
X172256975Y-108332552D01*
X172256911Y-108332468D01*
X172263359Y-108327519D01*
X172263360Y-108327517D01*
X172263365Y-108327515D01*
X172370515Y-108220365D01*
X172370860Y-108219766D01*
X172371375Y-108218875D01*
X172371377Y-108218876D01*
X172371393Y-108218842D01*
X172391721Y-108183637D01*
X172444302Y-108092560D01*
X172445877Y-108090026D01*
X172446279Y-108089138D01*
X172446281Y-108089135D01*
X172485500Y-107942766D01*
X172485500Y-107791234D01*
X172446281Y-107644865D01*
X172370515Y-107513635D01*
X172263365Y-107406485D01*
X172197750Y-107368602D01*
X172132136Y-107330719D01*
X172058950Y-107311109D01*
X172058949Y-107311108D01*
X171985767Y-107291500D01*
X171985766Y-107291500D01*
X171834234Y-107291500D01*
X171687859Y-107330720D01*
X171687857Y-107330721D01*
X171556645Y-107406478D01*
X171556631Y-107406487D01*
X171556626Y-107406491D01*
X171449491Y-107513626D01*
X171449487Y-107513631D01*
X171449478Y-107513645D01*
X171373720Y-107644859D01*
X171364369Y-107679762D01*
X171364368Y-107679764D01*
X171334500Y-107791234D01*
X171334500Y-107942767D01*
X171354108Y-108015949D01*
X171354109Y-108015949D01*
X171354109Y-108015950D01*
X171373719Y-108089136D01*
X171374233Y-108090026D01*
X171411602Y-108154750D01*
X171411601Y-108154750D01*
X171411603Y-108154752D01*
X171428614Y-108184217D01*
X171429766Y-108188967D01*
X171459011Y-108242524D01*
X171473863Y-108310797D01*
X171449447Y-108376262D01*
X171449446Y-108376262D01*
X171444021Y-108383509D01*
X171411338Y-108413806D01*
X171384856Y-108430661D01*
X171378139Y-108436323D01*
X171252533Y-108520249D01*
X171113255Y-108659527D01*
X171113250Y-108659533D01*
X171113249Y-108659534D01*
X171003818Y-108823308D01*
X171003808Y-108823325D01*
X171003803Y-108823334D01*
X170928431Y-109005303D01*
X170926048Y-109017284D01*
X170920137Y-109046999D01*
X170920138Y-109047000D01*
X171484805Y-109047000D01*
X171551844Y-109066685D01*
X171597599Y-109119489D01*
X171607543Y-109188647D01*
X171604584Y-109203073D01*
X171590000Y-109257504D01*
X171590000Y-109336496D01*
X171604579Y-109390910D01*
X171602917Y-109460756D01*
X171563755Y-109518619D01*
X171499527Y-109546123D01*
X171484805Y-109547000D01*
X170920138Y-109547000D01*
X170926048Y-109576713D01*
X170926048Y-109576715D01*
X170928431Y-109588695D01*
X171003803Y-109770664D01*
X171003808Y-109770673D01*
X171003818Y-109770690D01*
X171100949Y-109916055D01*
X171116184Y-109947901D01*
X171120253Y-109960899D01*
X171121496Y-110030757D01*
X171084772Y-110090198D01*
X171029365Y-110118868D01*
X171027506Y-110119290D01*
X171021307Y-110120696D01*
X170993863Y-110123772D01*
X169460077Y-110123772D01*
X169425137Y-110118748D01*
X169412068Y-110114910D01*
X169353292Y-110077133D01*
X169324269Y-110013576D01*
X169331221Y-109951559D01*
X169334181Y-109943834D01*
X169346862Y-109919331D01*
X169349051Y-109916055D01*
X169446185Y-109770684D01*
X169446192Y-109770671D01*
X169521569Y-109588692D01*
X169521569Y-109588690D01*
X169529862Y-109547000D01*
X168965195Y-109547000D01*
X168898156Y-109527315D01*
X168852401Y-109474511D01*
X168842457Y-109405353D01*
X168845415Y-109390926D01*
X168860000Y-109336496D01*
X168860000Y-109257504D01*
X168845420Y-109203089D01*
X168847083Y-109133244D01*
X168886245Y-109075381D01*
X168950473Y-109047877D01*
X168965195Y-109047000D01*
X169529862Y-109047000D01*
X169529862Y-109046999D01*
X169523952Y-109017288D01*
X169523951Y-109017283D01*
X169523951Y-109017284D01*
X169521569Y-109005309D01*
X169521569Y-109005307D01*
X169483424Y-108913215D01*
X169446195Y-108823334D01*
X169446190Y-108823325D01*
X169446185Y-108823315D01*
X169336751Y-108659537D01*
X169336748Y-108659533D01*
X169336743Y-108659527D01*
X169197471Y-108520255D01*
X169197465Y-108520250D01*
X169197464Y-108520249D01*
X169033690Y-108410818D01*
X169033689Y-108410817D01*
X169033684Y-108410814D01*
X169033671Y-108410807D01*
X169033664Y-108410803D01*
X168851694Y-108335430D01*
X168851655Y-108335421D01*
X168658498Y-108297000D01*
X168658495Y-108297000D01*
X168510000Y-108297000D01*
X168510000Y-108873000D01*
X168490315Y-108940039D01*
X168437511Y-108985794D01*
X168386000Y-108997000D01*
X168134000Y-108997000D01*
X168066961Y-108977315D01*
X168021206Y-108924511D01*
X168010000Y-108873000D01*
X168010000Y-108297000D01*
X167861504Y-108297000D01*
X167861500Y-108297000D01*
X167668343Y-108335421D01*
X167668304Y-108335430D01*
X167486334Y-108410803D01*
X167486325Y-108410808D01*
X167486308Y-108410818D01*
X167322534Y-108520249D01*
X167322533Y-108520250D01*
X167322527Y-108520255D01*
X167183255Y-108659527D01*
X167183250Y-108659533D01*
X167183249Y-108659534D01*
X167073818Y-108823308D01*
X167073808Y-108823325D01*
X167073803Y-108823334D01*
X166998431Y-109005303D01*
X166996048Y-109017284D01*
X166990137Y-109046999D01*
X166990138Y-109047000D01*
X167554805Y-109047000D01*
X167621844Y-109066685D01*
X167667599Y-109119489D01*
X167677543Y-109188647D01*
X167674584Y-109203073D01*
X167660000Y-109257504D01*
X167660000Y-109336496D01*
X167674579Y-109390910D01*
X167672917Y-109460756D01*
X167633755Y-109518619D01*
X167569527Y-109546123D01*
X167554805Y-109547000D01*
X166990138Y-109547000D01*
X166996048Y-109576713D01*
X166996048Y-109576715D01*
X166998431Y-109588695D01*
X167073803Y-109770664D01*
X167073808Y-109770673D01*
X167073818Y-109770690D01*
X167170949Y-109916055D01*
X167186184Y-109947901D01*
X167190253Y-109960899D01*
X167191496Y-110030757D01*
X167154772Y-110090198D01*
X167099365Y-110118868D01*
X167097506Y-110119290D01*
X167091307Y-110120696D01*
X167063863Y-110123772D01*
X164797901Y-110123772D01*
X164762960Y-110118747D01*
X164747961Y-110114342D01*
X164689215Y-110076599D01*
X164688028Y-110075230D01*
X164660548Y-110020355D01*
X164658903Y-110012793D01*
X164656071Y-109986440D01*
X164656071Y-103537650D01*
X170553800Y-103537650D01*
X170553800Y-103695348D01*
X170584557Y-103849971D01*
X170584564Y-103850002D01*
X170644898Y-103995665D01*
X170644902Y-103995672D01*
X170644908Y-103995684D01*
X170644913Y-103995691D01*
X170732511Y-104126790D01*
X170732512Y-104126791D01*
X170732517Y-104126797D01*
X170844001Y-104238281D01*
X170844007Y-104238286D01*
X170844017Y-104238293D01*
X170867267Y-104253829D01*
X170893523Y-104277414D01*
X170903020Y-104288778D01*
X170930905Y-104352842D01*
X170920920Y-104419246D01*
X170912091Y-104438835D01*
X170902145Y-104456774D01*
X170824813Y-104572507D01*
X170824803Y-104572524D01*
X170824798Y-104572533D01*
X170764464Y-104718196D01*
X170764457Y-104718227D01*
X170733700Y-104872850D01*
X170733700Y-104872853D01*
X170733700Y-105030546D01*
X170733700Y-105030548D01*
X170733699Y-105030548D01*
X170764457Y-105185171D01*
X170764464Y-105185202D01*
X170824798Y-105330865D01*
X170824803Y-105330874D01*
X170824813Y-105330891D01*
X170912411Y-105461990D01*
X170912412Y-105461991D01*
X170912417Y-105461997D01*
X171023901Y-105573481D01*
X171023907Y-105573486D01*
X171023911Y-105573489D01*
X171155014Y-105661090D01*
X171155027Y-105661097D01*
X171300698Y-105721435D01*
X171300703Y-105721437D01*
X171394513Y-105740097D01*
X171447732Y-105750683D01*
X171450454Y-105751404D01*
X171455355Y-105752200D01*
X171613044Y-105752200D01*
X171617164Y-105752200D01*
X171625014Y-105749818D01*
X171767697Y-105721437D01*
X171913379Y-105661094D01*
X172026591Y-105585448D01*
X174255899Y-105585448D01*
X174286657Y-105740071D01*
X174286661Y-105740089D01*
X174286663Y-105740096D01*
X174286663Y-105740100D01*
X174346998Y-105885765D01*
X174347003Y-105885774D01*
X174347013Y-105885791D01*
X174434611Y-106016890D01*
X174434612Y-106016891D01*
X174434617Y-106016897D01*
X174546101Y-106128381D01*
X174546107Y-106128386D01*
X174546111Y-106128389D01*
X174677214Y-106215990D01*
X174677227Y-106215997D01*
X174822898Y-106276335D01*
X174822903Y-106276337D01*
X174977553Y-106307099D01*
X174977556Y-106307100D01*
X174977558Y-106307100D01*
X175135244Y-106307100D01*
X175135245Y-106307099D01*
X175289897Y-106276337D01*
X175435579Y-106215994D01*
X175566689Y-106128389D01*
X175678189Y-106016889D01*
X175765794Y-105885779D01*
X175826137Y-105740097D01*
X175852372Y-105608205D01*
X175853562Y-105602221D01*
X175853574Y-105602197D01*
X175865301Y-105568954D01*
X175880668Y-105539577D01*
X175902859Y-105509374D01*
X176359983Y-105052250D01*
X190376600Y-105052250D01*
X190376600Y-105209946D01*
X190407357Y-105364571D01*
X190407364Y-105364601D01*
X190467698Y-105510265D01*
X190467703Y-105510274D01*
X190467713Y-105510291D01*
X190555311Y-105641390D01*
X190555312Y-105641391D01*
X190555317Y-105641397D01*
X190666801Y-105752881D01*
X190666807Y-105752886D01*
X190666811Y-105752889D01*
X190797914Y-105840490D01*
X190797927Y-105840497D01*
X190943598Y-105900835D01*
X190943603Y-105900837D01*
X191092829Y-105930520D01*
X191098253Y-105931599D01*
X191098256Y-105931600D01*
X191098258Y-105931600D01*
X191255944Y-105931600D01*
X191255945Y-105931599D01*
X191410597Y-105900837D01*
X191556279Y-105840494D01*
X191687389Y-105752889D01*
X191798889Y-105641389D01*
X191886494Y-105510279D01*
X191946837Y-105364597D01*
X191977600Y-105209942D01*
X191977600Y-105052258D01*
X191977600Y-105052255D01*
X191977600Y-105052073D01*
X191977165Y-105050072D01*
X191966471Y-104996311D01*
X191966471Y-104996310D01*
X191946838Y-104897609D01*
X191946837Y-104897603D01*
X191941539Y-104884813D01*
X191886497Y-104751927D01*
X191886490Y-104751914D01*
X191798889Y-104620811D01*
X191798886Y-104620807D01*
X191798881Y-104620801D01*
X191687397Y-104509317D01*
X191687391Y-104509312D01*
X191687390Y-104509311D01*
X191556291Y-104421713D01*
X191556290Y-104421712D01*
X191556285Y-104421709D01*
X191556272Y-104421702D01*
X191556265Y-104421698D01*
X191410602Y-104361364D01*
X191410571Y-104361357D01*
X191255947Y-104330600D01*
X191255945Y-104330600D01*
X191255942Y-104330600D01*
X191098258Y-104330600D01*
X191098255Y-104330600D01*
X191098253Y-104330600D01*
X190943627Y-104361357D01*
X190943596Y-104361364D01*
X190797933Y-104421698D01*
X190797924Y-104421703D01*
X190797907Y-104421713D01*
X190666808Y-104509311D01*
X190666807Y-104509312D01*
X190666801Y-104509317D01*
X190555317Y-104620801D01*
X190555312Y-104620807D01*
X190555311Y-104620808D01*
X190467713Y-104751907D01*
X190467703Y-104751924D01*
X190467702Y-104751927D01*
X190467699Y-104751931D01*
X190407364Y-104897596D01*
X190407357Y-104897627D01*
X190376600Y-105052250D01*
X176359983Y-105052250D01*
X181532411Y-99879823D01*
X181560661Y-99858675D01*
X181583753Y-99846067D01*
X181643178Y-99830900D01*
X198600304Y-99830900D01*
X198635236Y-99835921D01*
X198667050Y-99845263D01*
X198700998Y-99861135D01*
X198818714Y-99939790D01*
X198818727Y-99939797D01*
X198927982Y-99985051D01*
X198940631Y-99990290D01*
X198942356Y-99991005D01*
X198952311Y-99995656D01*
X198969422Y-100004594D01*
X198969422Y-100004595D01*
X198988381Y-100014499D01*
X199038680Y-100062976D01*
X199042314Y-100069348D01*
X199058600Y-100130778D01*
X199058600Y-100743730D01*
X199058599Y-100743748D01*
X199058599Y-100820756D01*
X199058599Y-100867361D01*
X199052701Y-100887446D01*
X199099522Y-101062183D01*
X199099526Y-101062191D01*
X199102065Y-101066588D01*
X199102069Y-101066605D01*
X199102074Y-101066603D01*
X199139059Y-101130664D01*
X199178576Y-101199111D01*
X199178577Y-101199112D01*
X199178582Y-101199118D01*
X199178588Y-101199125D01*
X199299414Y-101319951D01*
X199299459Y-101319994D01*
X199597227Y-101617762D01*
X199618379Y-101646018D01*
X199625871Y-101659739D01*
X199640723Y-101728003D01*
X199639981Y-101738386D01*
X199626781Y-101785842D01*
X199609713Y-101819340D01*
X199551917Y-101932770D01*
X199491090Y-102119973D01*
X199491089Y-102119976D01*
X199491089Y-102119978D01*
X199460300Y-102314371D01*
X199460300Y-102511227D01*
X199491089Y-102705620D01*
X199491090Y-102705626D01*
X199551917Y-102892829D01*
X199619370Y-103025212D01*
X199641276Y-103068205D01*
X199756972Y-103227446D01*
X199756974Y-103227448D01*
X199827456Y-103297930D01*
X199848609Y-103326188D01*
X199856100Y-103339908D01*
X199870951Y-103408161D01*
X199870822Y-103409968D01*
X199851454Y-103468176D01*
X199847273Y-103474682D01*
X199830637Y-103495325D01*
X199290386Y-104035577D01*
X199178582Y-104147380D01*
X199178574Y-104147392D01*
X199131179Y-104229484D01*
X199131178Y-104229486D01*
X199107685Y-104270175D01*
X199099522Y-104284312D01*
X199079061Y-104360678D01*
X199058599Y-104437043D01*
X199058599Y-104607500D01*
X199058600Y-104607551D01*
X199058600Y-105363330D01*
X199058599Y-105363348D01*
X199058599Y-105427750D01*
X199058599Y-105486961D01*
X199052701Y-105507046D01*
X199058598Y-105529054D01*
X199093979Y-105661097D01*
X199099524Y-105681789D01*
X199107683Y-105695921D01*
X199107686Y-105695925D01*
X199122414Y-105721434D01*
X199122415Y-105721436D01*
X199148979Y-105767447D01*
X199178581Y-105818718D01*
X199299414Y-105939551D01*
X199299459Y-105939594D01*
X200164285Y-106804420D01*
X200164306Y-106804442D01*
X200165349Y-106805485D01*
X200169679Y-106809815D01*
X200169680Y-106809816D01*
X200281484Y-106921620D01*
X200368295Y-106971739D01*
X200368297Y-106971741D01*
X200406351Y-106993711D01*
X200417193Y-106999971D01*
X200465408Y-107050537D01*
X200478632Y-107119144D01*
X200452664Y-107184009D01*
X200442875Y-107195038D01*
X200390719Y-107247194D01*
X200369370Y-107284173D01*
X200318802Y-107332388D01*
X200250195Y-107345610D01*
X200185331Y-107319642D01*
X200174302Y-107309853D01*
X199667120Y-106802671D01*
X199653651Y-106808250D01*
X199647435Y-106829423D01*
X199643419Y-106835295D01*
X199642237Y-106836921D01*
X199641753Y-106837575D01*
X199641698Y-106837663D01*
X199552385Y-107012953D01*
X199552382Y-107012960D01*
X199542792Y-107042475D01*
X199491578Y-107200094D01*
X199491577Y-107200097D01*
X199491577Y-107200099D01*
X199460800Y-107394417D01*
X199460800Y-107591181D01*
X199488941Y-107768858D01*
X199490417Y-107784701D01*
X199491239Y-107813362D01*
X199473484Y-107880938D01*
X199422026Y-107928182D01*
X199415759Y-107931265D01*
X199361023Y-107944000D01*
X198177027Y-107944000D01*
X198142091Y-107938977D01*
X198116849Y-107931565D01*
X198064104Y-107900269D01*
X194159481Y-103995646D01*
X194138331Y-103967393D01*
X194122444Y-103938299D01*
X194109659Y-103903066D01*
X194082695Y-103767515D01*
X194082283Y-103765103D01*
X194082037Y-103764204D01*
X194053514Y-103695341D01*
X194021702Y-103618540D01*
X194021699Y-103618533D01*
X194021697Y-103618527D01*
X194021690Y-103618514D01*
X193934089Y-103487411D01*
X193934086Y-103487407D01*
X193934085Y-103487405D01*
X193822597Y-103375917D01*
X193822591Y-103375912D01*
X193822584Y-103375907D01*
X193691491Y-103288313D01*
X193691490Y-103288312D01*
X193691485Y-103288309D01*
X193691472Y-103288302D01*
X193691465Y-103288298D01*
X193545823Y-103227972D01*
X193545809Y-103227967D01*
X193545801Y-103227964D01*
X193545791Y-103227961D01*
X193545786Y-103227959D01*
X193439661Y-103206850D01*
X193384993Y-103180926D01*
X193376335Y-103173791D01*
X193376377Y-103173739D01*
X193367707Y-103169202D01*
X193333147Y-103108478D01*
X193336903Y-103038710D01*
X193353265Y-103007447D01*
X193354635Y-103005546D01*
X193407743Y-102963536D01*
X193447531Y-102947056D01*
X193494614Y-102927555D01*
X193538024Y-102909574D01*
X193540642Y-102908596D01*
X193542051Y-102907905D01*
X193542073Y-102907897D01*
X193542076Y-102907895D01*
X193542079Y-102907894D01*
X193673189Y-102820289D01*
X193784689Y-102708789D01*
X193872294Y-102577679D01*
X193932637Y-102431997D01*
X193963400Y-102277342D01*
X193963400Y-102119658D01*
X193963400Y-102119655D01*
X193963400Y-102119473D01*
X193962968Y-102117486D01*
X193960209Y-102103617D01*
X193960208Y-102103610D01*
X193932637Y-101965003D01*
X193928768Y-101955663D01*
X193928766Y-101955659D01*
X193901912Y-101890825D01*
X193872297Y-101819327D01*
X193872290Y-101819314D01*
X193784689Y-101688211D01*
X193784686Y-101688207D01*
X193784681Y-101688201D01*
X193673197Y-101576717D01*
X193673191Y-101576712D01*
X193673190Y-101576711D01*
X193542091Y-101489113D01*
X193542090Y-101489112D01*
X193542085Y-101489109D01*
X193542072Y-101489102D01*
X193542065Y-101489098D01*
X193396402Y-101428764D01*
X193396371Y-101428757D01*
X193241747Y-101398000D01*
X193241745Y-101398000D01*
X193241742Y-101398000D01*
X193084058Y-101398000D01*
X193084055Y-101398000D01*
X193084053Y-101398000D01*
X192929427Y-101428757D01*
X192929396Y-101428764D01*
X192783733Y-101489098D01*
X192783724Y-101489103D01*
X192783707Y-101489113D01*
X192652608Y-101576711D01*
X192652607Y-101576712D01*
X192652601Y-101576717D01*
X192541117Y-101688201D01*
X192541112Y-101688207D01*
X192541111Y-101688208D01*
X192453513Y-101819307D01*
X192453503Y-101819324D01*
X192453498Y-101819333D01*
X192393164Y-101964996D01*
X192393157Y-101965027D01*
X192362400Y-102119650D01*
X192362400Y-102119653D01*
X192362400Y-102277346D01*
X192362400Y-102277348D01*
X192362399Y-102277348D01*
X192393157Y-102431971D01*
X192393164Y-102432002D01*
X192453498Y-102577665D01*
X192453503Y-102577674D01*
X192453513Y-102577691D01*
X192541111Y-102708790D01*
X192541112Y-102708791D01*
X192541117Y-102708797D01*
X192652601Y-102820281D01*
X192652607Y-102820286D01*
X192652611Y-102820289D01*
X192783714Y-102907890D01*
X192783727Y-102907897D01*
X192926885Y-102967194D01*
X192929403Y-102968237D01*
X193007794Y-102983830D01*
X193035540Y-102989349D01*
X193068814Y-103001086D01*
X193078840Y-103006331D01*
X193129120Y-103054844D01*
X193145190Y-103122841D01*
X193121948Y-103188731D01*
X193121947Y-103188733D01*
X193120582Y-103190626D01*
X193067455Y-103232662D01*
X192933128Y-103288300D01*
X192933118Y-103288305D01*
X192802015Y-103375907D01*
X192802007Y-103375912D01*
X192802001Y-103375917D01*
X192690517Y-103487401D01*
X192690514Y-103487405D01*
X192602913Y-103618507D01*
X192602903Y-103618524D01*
X192602898Y-103618533D01*
X192542564Y-103764196D01*
X192542557Y-103764227D01*
X192511800Y-103918850D01*
X192511800Y-103918853D01*
X192511800Y-104076546D01*
X192511800Y-104076548D01*
X192511799Y-104076548D01*
X192542557Y-104231171D01*
X192542564Y-104231202D01*
X192602898Y-104376865D01*
X192602903Y-104376874D01*
X192602913Y-104376891D01*
X192690511Y-104507990D01*
X192690512Y-104507991D01*
X192690517Y-104507997D01*
X192802001Y-104619481D01*
X192802007Y-104619486D01*
X192802011Y-104619489D01*
X192933114Y-104707090D01*
X192933127Y-104707097D01*
X193041358Y-104751927D01*
X193078803Y-104767437D01*
X193143447Y-104780295D01*
X193216664Y-104794859D01*
X193249944Y-104806601D01*
X193279321Y-104821968D01*
X193309527Y-104844162D01*
X197373185Y-108907820D01*
X197373206Y-108907842D01*
X197374249Y-108908885D01*
X197378579Y-108913215D01*
X197378580Y-108913216D01*
X197490384Y-109025020D01*
X197576587Y-109074789D01*
X197627315Y-109104077D01*
X197780042Y-109145000D01*
X197780043Y-109145000D01*
X201057880Y-109145000D01*
X201057943Y-109145001D01*
X201059847Y-109145001D01*
X201067443Y-109145001D01*
X201225554Y-109145001D01*
X201225557Y-109145001D01*
X201378285Y-109104077D01*
X201429013Y-109074789D01*
X201515216Y-109025020D01*
X201627020Y-108913216D01*
X201627020Y-108913215D01*
X201644454Y-108895781D01*
X201644458Y-108895774D01*
X202243020Y-108297216D01*
X202322077Y-108160284D01*
X202363001Y-108007557D01*
X202363001Y-107849442D01*
X202363001Y-107841847D01*
X202363001Y-107840163D01*
X202363000Y-107840089D01*
X202363000Y-107148552D01*
X202363001Y-107148501D01*
X202363001Y-106978046D01*
X202363001Y-106978044D01*
X202322076Y-106825314D01*
X202322073Y-106825309D01*
X202322073Y-106825308D01*
X202322049Y-106825251D01*
X202321568Y-106824434D01*
X202304353Y-106794617D01*
X202243024Y-106688390D01*
X202243018Y-106688382D01*
X202243014Y-106688378D01*
X202243014Y-106688377D01*
X201644461Y-106089826D01*
X201644460Y-106089825D01*
X201627020Y-106072384D01*
X201593642Y-106039006D01*
X201593641Y-106039004D01*
X201572492Y-106010754D01*
X201565834Y-105998561D01*
X201565845Y-105998554D01*
X201565809Y-105998516D01*
X201564976Y-105996989D01*
X201561189Y-105979572D01*
X201560158Y-105977683D01*
X201560311Y-105975533D01*
X201550147Y-105928776D01*
X201550276Y-105926967D01*
X201569642Y-105868766D01*
X201573835Y-105862242D01*
X201590458Y-105841615D01*
X201613358Y-105818716D01*
X201664628Y-105767446D01*
X201780324Y-105608205D01*
X201869684Y-105432825D01*
X201930509Y-105245626D01*
X201936160Y-105209946D01*
X201961300Y-105051222D01*
X201961300Y-104854377D01*
X201930509Y-104659973D01*
X201869682Y-104472770D01*
X201869680Y-104472767D01*
X201869680Y-104472765D01*
X201802725Y-104341360D01*
X201802724Y-104341359D01*
X201780324Y-104297395D01*
X201780322Y-104297392D01*
X201780321Y-104297390D01*
X201746508Y-104250852D01*
X201664628Y-104138154D01*
X201593643Y-104067169D01*
X201572491Y-104038913D01*
X201564999Y-104025192D01*
X201550146Y-103956944D01*
X201550276Y-103955129D01*
X201569649Y-103896915D01*
X201573828Y-103890413D01*
X201590461Y-103869774D01*
X201627020Y-103833216D01*
X201627020Y-103833215D01*
X201637222Y-103823014D01*
X201637229Y-103823004D01*
X202243020Y-103217216D01*
X202322077Y-103080284D01*
X202363001Y-102927557D01*
X202363001Y-102769442D01*
X202363001Y-102761847D01*
X202363001Y-102760163D01*
X202363000Y-102760089D01*
X202363000Y-102068552D01*
X202363001Y-102068501D01*
X202363001Y-101898044D01*
X202361067Y-101890825D01*
X202322077Y-101745316D01*
X202322075Y-101745313D01*
X202322076Y-101745313D01*
X202315331Y-101733631D01*
X202315329Y-101733629D01*
X202310364Y-101725029D01*
X202243024Y-101608390D01*
X202243018Y-101608382D01*
X202243014Y-101608377D01*
X201815840Y-101181205D01*
X201794691Y-101152955D01*
X201788036Y-101140767D01*
X201773185Y-101072497D01*
X201797600Y-101007034D01*
X201809983Y-100990492D01*
X201815603Y-100984009D01*
X201818344Y-100980347D01*
X201818346Y-100980346D01*
X201904596Y-100865131D01*
X201954891Y-100730283D01*
X201961300Y-100670673D01*
X201961299Y-99074928D01*
X201954891Y-99015317D01*
X201952721Y-99009500D01*
X201904597Y-98880471D01*
X201904593Y-98880464D01*
X201818347Y-98765255D01*
X201818344Y-98765252D01*
X201818342Y-98765250D01*
X201760416Y-98721886D01*
X201703135Y-98679006D01*
X201703132Y-98679004D01*
X201703130Y-98679003D01*
X201703128Y-98679002D01*
X201568282Y-98628708D01*
X201568283Y-98628708D01*
X201508683Y-98622301D01*
X201508681Y-98622300D01*
X201508673Y-98622300D01*
X201508664Y-98622300D01*
X201507641Y-98622300D01*
X199912923Y-98622300D01*
X199912343Y-98622347D01*
X199911973Y-98622403D01*
X199853316Y-98628708D01*
X199841591Y-98633081D01*
X199828881Y-98635010D01*
X199825955Y-98634612D01*
X199819131Y-98636097D01*
X199806019Y-98637035D01*
X199803545Y-98637211D01*
X199735272Y-98622361D01*
X199735271Y-98622360D01*
X199714220Y-98610865D01*
X199714219Y-98610865D01*
X199704535Y-98605577D01*
X199695083Y-98599853D01*
X199577085Y-98521009D01*
X199577072Y-98521002D01*
X199577065Y-98520998D01*
X199431402Y-98460664D01*
X199431371Y-98460657D01*
X199276747Y-98429900D01*
X199276745Y-98429900D01*
X199276742Y-98429900D01*
X199119058Y-98429900D01*
X199119055Y-98429900D01*
X199119053Y-98429900D01*
X198964427Y-98460657D01*
X198964396Y-98460664D01*
X198818733Y-98520998D01*
X198818724Y-98521003D01*
X198818697Y-98521019D01*
X198701849Y-98599095D01*
X198670015Y-98614327D01*
X198638378Y-98624234D01*
X198601322Y-98629900D01*
X182009027Y-98629900D01*
X181974092Y-98624877D01*
X181963238Y-98621690D01*
X181904460Y-98583916D01*
X181875435Y-98520360D01*
X181885375Y-98451211D01*
X181888565Y-98444224D01*
X181913674Y-98408060D01*
X184861211Y-95460523D01*
X184889461Y-95439375D01*
X184912553Y-95426767D01*
X184971978Y-95411600D01*
X193805204Y-95411600D01*
X193840136Y-95416621D01*
X193871950Y-95425963D01*
X193905898Y-95441835D01*
X194023614Y-95520490D01*
X194023627Y-95520497D01*
X194169298Y-95580835D01*
X194169303Y-95580837D01*
X194323953Y-95611599D01*
X194323956Y-95611600D01*
X194323958Y-95611600D01*
X194481644Y-95611600D01*
X194481645Y-95611599D01*
X194636297Y-95580837D01*
X194781979Y-95520494D01*
X194913089Y-95432889D01*
X195024589Y-95321389D01*
X195112194Y-95190279D01*
X195172537Y-95044597D01*
X195203300Y-94889942D01*
X195203300Y-94870307D01*
X195207524Y-94838217D01*
X195215690Y-94807742D01*
X195227286Y-94779749D01*
X195227252Y-94779732D01*
X195227494Y-94779246D01*
X195228075Y-94777844D01*
X195228973Y-94776290D01*
X195228975Y-94776287D01*
X195228976Y-94776285D01*
X195269900Y-94623558D01*
X195269900Y-94465443D01*
X195228976Y-94312716D01*
X195228972Y-94312709D01*
X195149923Y-94175790D01*
X195149917Y-94175782D01*
X195149913Y-94175778D01*
X195149912Y-94175776D01*
X195038122Y-94063986D01*
X195038120Y-94063985D01*
X195038117Y-94063982D01*
X195038109Y-94063976D01*
X194998931Y-94041357D01*
X194902064Y-93985431D01*
X194901249Y-93984951D01*
X194901185Y-93984924D01*
X194850276Y-93971281D01*
X194850276Y-93971282D01*
X194799366Y-93957641D01*
X194748457Y-93944000D01*
X194748456Y-93944000D01*
X194590340Y-93944000D01*
X194529250Y-93960368D01*
X194529251Y-93960369D01*
X194437610Y-93984924D01*
X194428380Y-93989101D01*
X194427994Y-93988249D01*
X194405722Y-93998325D01*
X194375685Y-94006374D01*
X194343593Y-94010600D01*
X194323953Y-94010600D01*
X194169327Y-94041357D01*
X194169296Y-94041364D01*
X194023633Y-94101698D01*
X194023624Y-94101703D01*
X194023597Y-94101719D01*
X193906749Y-94179795D01*
X193874915Y-94195027D01*
X193843278Y-94204934D01*
X193806222Y-94210600D01*
X189705171Y-94210600D01*
X189670236Y-94205577D01*
X189659382Y-94202390D01*
X189600604Y-94164616D01*
X189571579Y-94101060D01*
X189581522Y-94031903D01*
X189584712Y-94024920D01*
X189609821Y-93988758D01*
X189671487Y-93927092D01*
X189671489Y-93927089D01*
X189759094Y-93795979D01*
X189819437Y-93650297D01*
X189850200Y-93495642D01*
X189850200Y-93337958D01*
X189850200Y-93337955D01*
X189850200Y-93337773D01*
X189849765Y-93335772D01*
X189820097Y-93186624D01*
X189819694Y-93184267D01*
X189819438Y-93183308D01*
X189819437Y-93183306D01*
X189819437Y-93183303D01*
X189819435Y-93183298D01*
X189759097Y-93037627D01*
X189759090Y-93037614D01*
X189671489Y-92906511D01*
X189671486Y-92906507D01*
X189671481Y-92906501D01*
X189559997Y-92795017D01*
X189559991Y-92795012D01*
X189559990Y-92795011D01*
X189428891Y-92707413D01*
X189428890Y-92707412D01*
X189428885Y-92707409D01*
X189428872Y-92707402D01*
X189428865Y-92707398D01*
X189283202Y-92647064D01*
X189283171Y-92647057D01*
X189128547Y-92616300D01*
X189128545Y-92616300D01*
X189128542Y-92616300D01*
X188970858Y-92616300D01*
X188970855Y-92616300D01*
X188970853Y-92616300D01*
X188816227Y-92647057D01*
X188816196Y-92647064D01*
X188670533Y-92707398D01*
X188670524Y-92707403D01*
X188670507Y-92707413D01*
X188539408Y-92795011D01*
X188539407Y-92795012D01*
X188539401Y-92795017D01*
X188427917Y-92906501D01*
X188427912Y-92906507D01*
X188427911Y-92906508D01*
X188340313Y-93037607D01*
X188340303Y-93037624D01*
X188340298Y-93037633D01*
X188279964Y-93183296D01*
X188279957Y-93183327D01*
X188249200Y-93337950D01*
X188249200Y-93337953D01*
X188249200Y-93495646D01*
X188249200Y-93495648D01*
X188249199Y-93495648D01*
X188279957Y-93650271D01*
X188279964Y-93650302D01*
X188340298Y-93795965D01*
X188340303Y-93795974D01*
X188340313Y-93795991D01*
X188427910Y-93927089D01*
X188427913Y-93927092D01*
X188487135Y-93986314D01*
X188508284Y-94014566D01*
X188513704Y-94024492D01*
X188528556Y-94092765D01*
X188504139Y-94158229D01*
X188448206Y-94200101D01*
X188441018Y-94202782D01*
X188397684Y-94210600D01*
X184582339Y-94210600D01*
X184491105Y-94235043D01*
X184491031Y-94235066D01*
X184429614Y-94251523D01*
X184429609Y-94251526D01*
X184417204Y-94258687D01*
X184417200Y-94258689D01*
X184292698Y-94330570D01*
X184292694Y-94330572D01*
X184292690Y-94330575D01*
X184292682Y-94330581D01*
X184292678Y-94330584D01*
X184292676Y-94330585D01*
X176745046Y-101878217D01*
X176716793Y-101899367D01*
X176687699Y-101915254D01*
X176652463Y-101928040D01*
X176513615Y-101955659D01*
X176513609Y-101955660D01*
X176513608Y-101955661D01*
X176513598Y-101955664D01*
X176513593Y-101955665D01*
X176513575Y-101955672D01*
X176367933Y-102015998D01*
X176367924Y-102016003D01*
X176367907Y-102016013D01*
X176236811Y-102103610D01*
X176236809Y-102103611D01*
X176236801Y-102103617D01*
X176125317Y-102215101D01*
X176125312Y-102215107D01*
X176125311Y-102215108D01*
X176037713Y-102346207D01*
X176037703Y-102346224D01*
X176037702Y-102346227D01*
X176037699Y-102346231D01*
X175977364Y-102491896D01*
X175977357Y-102491927D01*
X175946600Y-102646550D01*
X175946600Y-102646553D01*
X175946600Y-102804246D01*
X175946600Y-102804248D01*
X175946599Y-102804248D01*
X175977357Y-102958871D01*
X175977364Y-102958902D01*
X176037698Y-103104565D01*
X176037703Y-103104574D01*
X176037713Y-103104591D01*
X176120844Y-103229005D01*
X176125310Y-103235688D01*
X176125313Y-103235692D01*
X176201406Y-103311785D01*
X176222557Y-103340041D01*
X176230048Y-103353761D01*
X176244899Y-103422019D01*
X176244770Y-103423825D01*
X176225402Y-103482027D01*
X176221943Y-103487411D01*
X176221221Y-103488534D01*
X176204585Y-103509177D01*
X175054346Y-104659417D01*
X175026093Y-104680567D01*
X174996999Y-104696454D01*
X174961763Y-104709240D01*
X174822915Y-104736859D01*
X174822909Y-104736860D01*
X174822908Y-104736861D01*
X174822898Y-104736864D01*
X174822893Y-104736865D01*
X174822875Y-104736872D01*
X174677233Y-104797198D01*
X174677224Y-104797203D01*
X174677207Y-104797213D01*
X174546109Y-104884811D01*
X174546101Y-104884817D01*
X174434617Y-104996301D01*
X174434612Y-104996307D01*
X174434611Y-104996308D01*
X174347013Y-105127407D01*
X174347003Y-105127424D01*
X174346998Y-105127433D01*
X174286664Y-105273096D01*
X174286657Y-105273127D01*
X174255900Y-105427750D01*
X174255900Y-105427753D01*
X174255900Y-105585446D01*
X174255900Y-105585448D01*
X174255899Y-105585448D01*
X172026591Y-105585448D01*
X172044489Y-105573489D01*
X172155989Y-105461989D01*
X172221062Y-105364601D01*
X172228964Y-105352775D01*
X172234927Y-105343848D01*
X172234950Y-105343828D01*
X172234944Y-105343824D01*
X172243589Y-105330886D01*
X172243594Y-105330879D01*
X172303937Y-105185197D01*
X172334700Y-105030542D01*
X172334700Y-104872858D01*
X172334700Y-104872855D01*
X172334700Y-104872671D01*
X172334264Y-104870666D01*
X172319877Y-104798338D01*
X172310645Y-104751927D01*
X172303937Y-104718203D01*
X172298866Y-104705961D01*
X172243597Y-104572527D01*
X172243590Y-104572514D01*
X172155989Y-104441411D01*
X172155986Y-104441407D01*
X172155981Y-104441401D01*
X172044505Y-104329925D01*
X172044494Y-104329915D01*
X172044492Y-104329913D01*
X172044486Y-104329908D01*
X172044473Y-104329899D01*
X172021227Y-104314366D01*
X171994976Y-104290785D01*
X171985499Y-104279445D01*
X171957614Y-104215385D01*
X171967643Y-104148882D01*
X171974726Y-104133204D01*
X171974725Y-104133203D01*
X171976613Y-104129025D01*
X171986509Y-104111193D01*
X172060747Y-104000088D01*
X172062764Y-103997333D01*
X172064279Y-103994925D01*
X172066010Y-103990085D01*
X172124037Y-103849997D01*
X172154800Y-103695342D01*
X172154800Y-103537658D01*
X172154800Y-103537655D01*
X172154800Y-103537473D01*
X172154365Y-103535472D01*
X172149134Y-103509177D01*
X172144804Y-103487407D01*
X172124037Y-103383003D01*
X172121100Y-103375913D01*
X172063697Y-103237327D01*
X172063690Y-103237314D01*
X171976089Y-103106211D01*
X171976086Y-103106207D01*
X171976081Y-103106201D01*
X171864597Y-102994717D01*
X171864591Y-102994712D01*
X171864590Y-102994711D01*
X171733491Y-102907113D01*
X171733490Y-102907112D01*
X171733485Y-102907109D01*
X171733472Y-102907102D01*
X171733465Y-102907099D01*
X171624935Y-102862145D01*
X171624581Y-102861999D01*
X171605101Y-102846349D01*
X171593979Y-102846879D01*
X171593766Y-102847950D01*
X171587183Y-102846640D01*
X171587157Y-102846634D01*
X171433148Y-102816000D01*
X171433145Y-102816000D01*
X171433142Y-102816000D01*
X171275458Y-102816000D01*
X171275455Y-102816000D01*
X171275453Y-102816000D01*
X171120827Y-102846757D01*
X171120796Y-102846764D01*
X170975133Y-102907098D01*
X170975124Y-102907103D01*
X170975107Y-102907113D01*
X170844008Y-102994711D01*
X170844007Y-102994712D01*
X170844001Y-102994717D01*
X170732517Y-103106201D01*
X170732512Y-103106207D01*
X170732511Y-103106208D01*
X170644913Y-103237307D01*
X170644903Y-103237324D01*
X170644898Y-103237333D01*
X170584564Y-103382996D01*
X170584557Y-103383027D01*
X170553800Y-103537650D01*
X164656071Y-103537650D01*
X164656071Y-100407000D01*
X166990138Y-100407000D01*
X167554805Y-100407000D01*
X167621844Y-100426685D01*
X167667599Y-100479489D01*
X167677543Y-100548647D01*
X167674584Y-100563073D01*
X167660000Y-100617504D01*
X167660000Y-100696496D01*
X167674579Y-100750910D01*
X167672917Y-100820756D01*
X167633755Y-100878619D01*
X167569527Y-100906123D01*
X167554805Y-100907000D01*
X166990138Y-100907000D01*
X166996048Y-100936713D01*
X166996048Y-100936715D01*
X166998431Y-100948695D01*
X167073803Y-101130664D01*
X167073808Y-101130673D01*
X167073818Y-101130690D01*
X167183249Y-101294464D01*
X167183250Y-101294465D01*
X167183255Y-101294471D01*
X167322527Y-101433743D01*
X167322533Y-101433748D01*
X167322537Y-101433751D01*
X167486315Y-101543185D01*
X167486328Y-101543192D01*
X167486330Y-101543192D01*
X167486334Y-101543195D01*
X167567265Y-101576717D01*
X167668306Y-101618569D01*
X167668318Y-101618572D01*
X167853862Y-101655479D01*
X167858533Y-101656408D01*
X167860768Y-101656909D01*
X167861506Y-101657000D01*
X167861508Y-101657000D01*
X168010000Y-101657000D01*
X168010000Y-101081000D01*
X168029685Y-101013961D01*
X168082489Y-100968206D01*
X168134000Y-100957000D01*
X168386000Y-100957000D01*
X168453039Y-100976685D01*
X168498794Y-101029489D01*
X168510000Y-101081000D01*
X168510000Y-101657000D01*
X168658492Y-101657000D01*
X168658493Y-101657000D01*
X168663401Y-101656203D01*
X168666130Y-101655480D01*
X168851681Y-101618572D01*
X168851693Y-101618569D01*
X169033671Y-101543192D01*
X169033684Y-101543185D01*
X169197462Y-101433751D01*
X169197466Y-101433748D01*
X169336748Y-101294466D01*
X169336751Y-101294462D01*
X169446185Y-101130684D01*
X169446192Y-101130671D01*
X169521569Y-100948692D01*
X169521569Y-100948690D01*
X169529862Y-100907000D01*
X168965195Y-100907000D01*
X168898156Y-100887315D01*
X168852401Y-100834511D01*
X168842457Y-100765353D01*
X168845415Y-100750926D01*
X168860000Y-100696496D01*
X168860000Y-100617504D01*
X168845420Y-100563089D01*
X168847083Y-100493244D01*
X168886245Y-100435381D01*
X168950473Y-100407877D01*
X168965195Y-100407000D01*
X169529862Y-100407000D01*
X169529862Y-100406999D01*
X170920137Y-100406999D01*
X170920138Y-100407000D01*
X171484805Y-100407000D01*
X171551844Y-100426685D01*
X171597599Y-100479489D01*
X171607543Y-100548647D01*
X171604584Y-100563073D01*
X171590000Y-100617504D01*
X171590000Y-100696496D01*
X171604579Y-100750910D01*
X171602917Y-100820756D01*
X171563755Y-100878619D01*
X171499527Y-100906123D01*
X171484805Y-100907000D01*
X170920138Y-100907000D01*
X170926048Y-100936713D01*
X170926048Y-100936715D01*
X170928431Y-100948695D01*
X171003803Y-101130664D01*
X171003808Y-101130673D01*
X171003818Y-101130690D01*
X171113249Y-101294464D01*
X171113250Y-101294465D01*
X171113255Y-101294471D01*
X171252527Y-101433743D01*
X171252533Y-101433748D01*
X171252537Y-101433751D01*
X171404153Y-101535058D01*
X171422143Y-101549687D01*
X171437197Y-101564471D01*
X171471236Y-101625489D01*
X171466882Y-101695223D01*
X171466880Y-101695230D01*
X171463734Y-101703902D01*
X171441476Y-101742124D01*
X171439056Y-101744957D01*
X171437335Y-101754294D01*
X171434055Y-101760358D01*
X171373720Y-101864859D01*
X171373719Y-101864863D01*
X171334500Y-102011234D01*
X171334500Y-102162765D01*
X171348523Y-102215101D01*
X171373719Y-102309137D01*
X171395122Y-102346207D01*
X171395134Y-102346227D01*
X171449485Y-102440365D01*
X171449487Y-102440367D01*
X171556635Y-102547515D01*
X171557324Y-102548011D01*
X171559828Y-102549359D01*
X171668386Y-102612035D01*
X171668388Y-102612036D01*
X171680796Y-102619200D01*
X171685533Y-102624168D01*
X171703946Y-102627589D01*
X171834234Y-102662500D01*
X171835342Y-102662500D01*
X171985764Y-102662500D01*
X171985766Y-102662500D01*
X172132135Y-102623281D01*
X172263365Y-102547515D01*
X172370515Y-102440365D01*
X172446281Y-102309135D01*
X172485500Y-102162766D01*
X172485500Y-102011234D01*
X172446281Y-101864865D01*
X172370515Y-101733635D01*
X172263365Y-101626485D01*
X172263364Y-101626484D01*
X172256917Y-101621537D01*
X172257383Y-101620929D01*
X172239696Y-101607019D01*
X172226707Y-101593397D01*
X172195949Y-101537061D01*
X172193494Y-101526939D01*
X172190000Y-101497711D01*
X172190000Y-101081000D01*
X172209685Y-101013961D01*
X172262489Y-100968206D01*
X172314000Y-100957000D01*
X172566000Y-100957000D01*
X172633039Y-100976685D01*
X172678794Y-101029489D01*
X172690000Y-101081000D01*
X172690000Y-101657000D01*
X173088492Y-101657000D01*
X173088493Y-101657000D01*
X173093401Y-101656203D01*
X173096130Y-101655480D01*
X173281681Y-101618572D01*
X173281693Y-101618569D01*
X173463671Y-101543192D01*
X173463684Y-101543185D01*
X173627462Y-101433751D01*
X173627466Y-101433748D01*
X173766748Y-101294466D01*
X173766751Y-101294462D01*
X173876185Y-101130684D01*
X173876192Y-101130671D01*
X173951569Y-100948692D01*
X173951569Y-100948690D01*
X173959862Y-100907000D01*
X173395195Y-100907000D01*
X173328156Y-100887315D01*
X173282401Y-100834511D01*
X173272457Y-100765353D01*
X173275415Y-100750926D01*
X173290000Y-100696496D01*
X173290000Y-100617504D01*
X173275420Y-100563089D01*
X173277083Y-100493244D01*
X173316245Y-100435381D01*
X173380473Y-100407877D01*
X173395195Y-100407000D01*
X173790507Y-100407000D01*
X173825442Y-100412023D01*
X173854738Y-100420625D01*
X173892766Y-100439340D01*
X173905953Y-100448936D01*
X173919300Y-100456104D01*
X174014014Y-100519390D01*
X174014027Y-100519397D01*
X174066675Y-100541204D01*
X174159703Y-100579737D01*
X174159705Y-100579737D01*
X174159710Y-100579739D01*
X174243479Y-100596401D01*
X174314353Y-100610499D01*
X174314356Y-100610500D01*
X174314358Y-100610500D01*
X174472044Y-100610500D01*
X174472045Y-100610499D01*
X174626697Y-100579737D01*
X174772379Y-100519394D01*
X174903489Y-100431789D01*
X175014989Y-100320289D01*
X175102594Y-100189179D01*
X175162937Y-100043497D01*
X175193700Y-99888842D01*
X175193700Y-99731158D01*
X175193700Y-99731155D01*
X175193700Y-99730973D01*
X175193265Y-99728972D01*
X175164118Y-99582442D01*
X175164101Y-99582323D01*
X175163003Y-99576837D01*
X175162938Y-99576510D01*
X175162938Y-99576508D01*
X175162937Y-99576503D01*
X175162935Y-99576498D01*
X175102597Y-99430827D01*
X175102590Y-99430814D01*
X175014989Y-99299711D01*
X175014986Y-99299707D01*
X175014981Y-99299701D01*
X174903497Y-99188217D01*
X174903491Y-99188212D01*
X174903490Y-99188211D01*
X174772391Y-99100613D01*
X174772390Y-99100612D01*
X174772385Y-99100609D01*
X174772372Y-99100602D01*
X174772365Y-99100598D01*
X174626702Y-99040264D01*
X174626671Y-99040257D01*
X174472047Y-99009500D01*
X174472045Y-99009500D01*
X174472042Y-99009500D01*
X174314358Y-99009500D01*
X174314355Y-99009500D01*
X174314353Y-99009500D01*
X174159727Y-99040257D01*
X174159696Y-99040264D01*
X174014033Y-99100598D01*
X174014024Y-99100603D01*
X174014007Y-99100613D01*
X173882908Y-99188211D01*
X173882907Y-99188212D01*
X173882901Y-99188217D01*
X173771417Y-99299701D01*
X173771412Y-99299707D01*
X173771411Y-99299708D01*
X173683813Y-99430807D01*
X173683803Y-99430824D01*
X173683798Y-99430833D01*
X173623472Y-99576475D01*
X173623464Y-99576499D01*
X173623459Y-99576513D01*
X173608546Y-99651488D01*
X173596806Y-99684767D01*
X173590373Y-99697066D01*
X173541859Y-99747347D01*
X173473863Y-99763417D01*
X173462868Y-99762828D01*
X173422051Y-99753567D01*
X173281693Y-99695430D01*
X173281694Y-99695430D01*
X173281691Y-99695429D01*
X173281655Y-99695421D01*
X173088498Y-99657000D01*
X173088495Y-99657000D01*
X172690000Y-99657000D01*
X172690000Y-100233000D01*
X172670315Y-100300039D01*
X172617511Y-100345794D01*
X172566000Y-100357000D01*
X172314000Y-100357000D01*
X172246961Y-100337315D01*
X172201206Y-100284511D01*
X172190000Y-100233000D01*
X172190000Y-99657000D01*
X171791504Y-99657000D01*
X171791500Y-99657000D01*
X171598343Y-99695421D01*
X171598304Y-99695430D01*
X171416334Y-99770803D01*
X171416325Y-99770808D01*
X171416308Y-99770818D01*
X171252534Y-99880249D01*
X171252533Y-99880250D01*
X171252527Y-99880255D01*
X171113255Y-100019527D01*
X171113250Y-100019533D01*
X171113249Y-100019534D01*
X171003818Y-100183308D01*
X171003808Y-100183325D01*
X171003803Y-100183334D01*
X170928431Y-100365303D01*
X170926048Y-100377284D01*
X170920137Y-100406999D01*
X169529862Y-100406999D01*
X169523952Y-100377288D01*
X169523951Y-100377283D01*
X169523951Y-100377284D01*
X169521569Y-100365309D01*
X169521569Y-100365307D01*
X169488103Y-100284511D01*
X169446195Y-100183334D01*
X169446190Y-100183325D01*
X169446185Y-100183315D01*
X169336751Y-100019537D01*
X169336748Y-100019533D01*
X169336743Y-100019527D01*
X169197471Y-99880255D01*
X169197465Y-99880250D01*
X169197464Y-99880249D01*
X169033690Y-99770818D01*
X169033689Y-99770817D01*
X169033684Y-99770814D01*
X169033671Y-99770807D01*
X169033664Y-99770803D01*
X168851694Y-99695430D01*
X168851655Y-99695421D01*
X168658498Y-99657000D01*
X168658495Y-99657000D01*
X168510000Y-99657000D01*
X168510000Y-100233000D01*
X168490315Y-100300039D01*
X168437511Y-100345794D01*
X168386000Y-100357000D01*
X168134000Y-100357000D01*
X168066961Y-100337315D01*
X168021206Y-100284511D01*
X168010000Y-100233000D01*
X168010000Y-99657000D01*
X167861504Y-99657000D01*
X167861500Y-99657000D01*
X167668343Y-99695421D01*
X167668304Y-99695430D01*
X167486334Y-99770803D01*
X167486325Y-99770808D01*
X167486308Y-99770818D01*
X167322534Y-99880249D01*
X167322533Y-99880250D01*
X167322527Y-99880255D01*
X167183255Y-100019527D01*
X167183250Y-100019533D01*
X167183249Y-100019534D01*
X167073818Y-100183308D01*
X167073808Y-100183325D01*
X167073803Y-100183334D01*
X167004143Y-100351511D01*
X167004143Y-100351512D01*
X166998430Y-100365307D01*
X166998430Y-100365309D01*
X166990138Y-100407000D01*
X164656071Y-100407000D01*
X164656071Y-85842648D01*
X184597699Y-85842648D01*
X184628457Y-85997271D01*
X184628464Y-85997302D01*
X184688798Y-86142965D01*
X184688803Y-86142974D01*
X184688813Y-86142991D01*
X184776411Y-86274090D01*
X184776412Y-86274091D01*
X184776417Y-86274097D01*
X184887901Y-86385581D01*
X184887907Y-86385586D01*
X184887911Y-86385589D01*
X185019014Y-86473190D01*
X185019027Y-86473197D01*
X185164698Y-86533535D01*
X185164703Y-86533537D01*
X185319353Y-86564299D01*
X185319356Y-86564300D01*
X185319358Y-86564300D01*
X185477044Y-86564300D01*
X185477045Y-86564299D01*
X185631697Y-86533537D01*
X185777379Y-86473194D01*
X185908489Y-86385589D01*
X186019989Y-86274089D01*
X186107594Y-86142979D01*
X186167937Y-85997297D01*
X186198700Y-85842642D01*
X186198700Y-85684958D01*
X186198700Y-85684955D01*
X186198700Y-85684773D01*
X186198265Y-85682772D01*
X186168597Y-85533624D01*
X186168194Y-85531267D01*
X186167938Y-85530308D01*
X186167937Y-85530306D01*
X186167937Y-85530303D01*
X186167935Y-85530298D01*
X186107597Y-85384627D01*
X186107590Y-85384614D01*
X186019989Y-85253511D01*
X186019986Y-85253507D01*
X186019981Y-85253501D01*
X185908497Y-85142017D01*
X185908491Y-85142012D01*
X185908490Y-85142011D01*
X185777391Y-85054413D01*
X185777390Y-85054412D01*
X185777385Y-85054409D01*
X185777372Y-85054402D01*
X185777365Y-85054398D01*
X185631702Y-84994064D01*
X185631671Y-84994057D01*
X185477047Y-84963300D01*
X185477045Y-84963300D01*
X185477042Y-84963300D01*
X185319358Y-84963300D01*
X185319355Y-84963300D01*
X185319353Y-84963300D01*
X185164727Y-84994057D01*
X185164696Y-84994064D01*
X185019033Y-85054398D01*
X185019024Y-85054403D01*
X185019007Y-85054413D01*
X184887908Y-85142011D01*
X184887907Y-85142012D01*
X184887901Y-85142017D01*
X184776417Y-85253501D01*
X184776412Y-85253507D01*
X184776411Y-85253508D01*
X184688813Y-85384607D01*
X184688803Y-85384624D01*
X184688798Y-85384633D01*
X184628464Y-85530296D01*
X184628457Y-85530327D01*
X184597700Y-85684950D01*
X184597700Y-85684953D01*
X184597700Y-85842646D01*
X184597700Y-85842648D01*
X184597699Y-85842648D01*
X164656071Y-85842648D01*
X164656071Y-73270115D01*
X165989500Y-73270115D01*
X165989500Y-75065876D01*
X165989659Y-75067806D01*
X165989885Y-75069454D01*
X165995907Y-75125482D01*
X166022670Y-75197235D01*
X166046202Y-75260328D01*
X166046206Y-75260335D01*
X166089086Y-75317616D01*
X166132450Y-75375542D01*
X166132456Y-75375548D01*
X166161419Y-75397229D01*
X166247664Y-75461793D01*
X166247671Y-75461797D01*
X166382517Y-75512091D01*
X166382516Y-75512091D01*
X166389444Y-75512835D01*
X166442127Y-75518500D01*
X168237872Y-75518499D01*
X168297483Y-75512091D01*
X168432331Y-75461796D01*
X168455528Y-75444429D01*
X168486501Y-75427515D01*
X168501152Y-75422050D01*
X168570840Y-75417065D01*
X168577042Y-75418414D01*
X168638363Y-75451898D01*
X170988985Y-77802520D01*
X170989006Y-77802542D01*
X170990049Y-77803585D01*
X170994379Y-77807915D01*
X170994380Y-77807916D01*
X171106184Y-77919720D01*
X171157745Y-77949488D01*
X171192995Y-77969839D01*
X171192997Y-77969841D01*
X171231046Y-77991808D01*
X171231049Y-77991811D01*
X171231050Y-77991811D01*
X171243111Y-77998775D01*
X171243112Y-77998775D01*
X171243115Y-77998777D01*
X171395843Y-78039701D01*
X171395846Y-78039701D01*
X171561553Y-78039701D01*
X171563457Y-78039701D01*
X171563520Y-78039700D01*
X181305404Y-78039700D01*
X181340336Y-78044721D01*
X181372150Y-78054063D01*
X181406098Y-78069935D01*
X181523814Y-78148590D01*
X181523827Y-78148597D01*
X181669498Y-78208935D01*
X181669503Y-78208937D01*
X181824153Y-78239699D01*
X181824156Y-78239700D01*
X181824158Y-78239700D01*
X181981844Y-78239700D01*
X181981845Y-78239699D01*
X182136497Y-78208937D01*
X182282179Y-78148594D01*
X182413289Y-78060989D01*
X182524789Y-77949489D01*
X182612394Y-77818379D01*
X182672737Y-77672697D01*
X182703500Y-77518042D01*
X182703500Y-77360358D01*
X182703500Y-77360355D01*
X182703500Y-77360173D01*
X182703065Y-77358172D01*
X182673397Y-77209024D01*
X182672994Y-77206667D01*
X182672738Y-77205708D01*
X182672737Y-77205706D01*
X182672737Y-77205703D01*
X182672735Y-77205698D01*
X182612397Y-77060027D01*
X182612390Y-77060014D01*
X182524789Y-76928911D01*
X182524786Y-76928907D01*
X182524781Y-76928901D01*
X182413297Y-76817417D01*
X182413291Y-76817412D01*
X182413290Y-76817411D01*
X182282191Y-76729813D01*
X182282190Y-76729812D01*
X182282185Y-76729809D01*
X182282172Y-76729802D01*
X182282165Y-76729798D01*
X182136502Y-76669464D01*
X182136471Y-76669457D01*
X181981847Y-76638700D01*
X181981845Y-76638700D01*
X181981842Y-76638700D01*
X181824158Y-76638700D01*
X181824155Y-76638700D01*
X181824153Y-76638700D01*
X181669527Y-76669457D01*
X181669496Y-76669464D01*
X181523833Y-76729798D01*
X181523824Y-76729803D01*
X181523797Y-76729819D01*
X181406949Y-76807895D01*
X181375115Y-76823127D01*
X181343478Y-76833034D01*
X181306422Y-76838700D01*
X171792827Y-76838700D01*
X171757891Y-76833677D01*
X171732649Y-76826265D01*
X171679904Y-76794969D01*
X170469112Y-75584177D01*
X170447963Y-75555927D01*
X170441308Y-75543739D01*
X170426457Y-75475469D01*
X170450871Y-75410008D01*
X170455071Y-75404398D01*
X170498031Y-75368237D01*
X170587554Y-75322622D01*
X170594694Y-75317433D01*
X170609121Y-75306953D01*
X170635858Y-75297412D01*
X170641717Y-75283269D01*
X170136149Y-74777702D01*
X170102664Y-74716379D01*
X170107648Y-74646688D01*
X170149519Y-74590754D01*
X170161822Y-74582639D01*
X170187007Y-74568099D01*
X170280099Y-74475007D01*
X170294634Y-74449830D01*
X170345199Y-74401616D01*
X170413805Y-74388391D01*
X170478671Y-74414358D01*
X170489702Y-74424149D01*
X170995269Y-74929717D01*
X170995269Y-74929716D01*
X170995270Y-74929717D01*
X170995270Y-74929716D01*
X171008738Y-74924137D01*
X171014955Y-74902968D01*
X171018057Y-74898369D01*
X171018474Y-74897779D01*
X171034622Y-74875555D01*
X171035694Y-74873450D01*
X171039676Y-74867825D01*
X171041521Y-74866365D01*
X171050733Y-74854327D01*
X171060363Y-74844131D01*
X171120703Y-74808907D01*
X171190508Y-74811897D01*
X171244227Y-74848066D01*
X171250297Y-74855071D01*
X171261752Y-74872056D01*
X171262401Y-74871659D01*
X171264944Y-74875809D01*
X171264947Y-74875813D01*
X171264949Y-74875817D01*
X171389890Y-75047786D01*
X171389891Y-75047787D01*
X171389892Y-75047788D01*
X171540216Y-75198112D01*
X171712169Y-75323042D01*
X171712200Y-75323060D01*
X171712442Y-75323182D01*
X171901588Y-75419557D01*
X172103757Y-75485246D01*
X172313713Y-75518500D01*
X172313714Y-75518500D01*
X172526286Y-75518500D01*
X172526287Y-75518500D01*
X172736243Y-75485246D01*
X172938412Y-75419557D01*
X173127816Y-75323051D01*
X173214138Y-75260335D01*
X173299786Y-75198109D01*
X173299788Y-75198106D01*
X173299792Y-75198104D01*
X173299799Y-75198096D01*
X173299849Y-75198061D01*
X173300605Y-75197290D01*
X173450104Y-75047792D01*
X173450106Y-75047788D01*
X173450109Y-75047786D01*
X173575048Y-74875820D01*
X173575050Y-74875817D01*
X173575051Y-74875816D01*
X173575487Y-74874959D01*
X173580653Y-74867652D01*
X173584158Y-74864875D01*
X173591756Y-74854091D01*
X173600647Y-74844678D01*
X173634911Y-74824677D01*
X173635424Y-74824271D01*
X173635644Y-74824249D01*
X173660985Y-74809457D01*
X173730791Y-74812447D01*
X173784503Y-74848612D01*
X173790707Y-74855771D01*
X173802729Y-74872193D01*
X173804949Y-74875817D01*
X173804951Y-74875820D01*
X173929890Y-75047786D01*
X173929891Y-75047787D01*
X173929892Y-75047788D01*
X174080216Y-75198112D01*
X174252169Y-75323042D01*
X174252200Y-75323060D01*
X174252442Y-75323182D01*
X174441588Y-75419557D01*
X174643757Y-75485246D01*
X174853713Y-75518500D01*
X174853714Y-75518500D01*
X175066286Y-75518500D01*
X175066287Y-75518500D01*
X175276243Y-75485246D01*
X175478412Y-75419557D01*
X175667816Y-75323051D01*
X175754138Y-75260335D01*
X175839786Y-75198109D01*
X175839788Y-75198106D01*
X175839792Y-75198104D01*
X175839799Y-75198096D01*
X175839849Y-75198061D01*
X175840605Y-75197290D01*
X175990104Y-75047792D01*
X175990106Y-75047788D01*
X175990109Y-75047786D01*
X176115048Y-74875820D01*
X176115050Y-74875817D01*
X176115051Y-74875816D01*
X176115487Y-74874959D01*
X176120653Y-74867652D01*
X176124158Y-74864875D01*
X176131756Y-74854091D01*
X176140647Y-74844678D01*
X176174911Y-74824677D01*
X176175424Y-74824271D01*
X176175644Y-74824249D01*
X176200985Y-74809457D01*
X176270791Y-74812447D01*
X176324503Y-74848612D01*
X176330707Y-74855771D01*
X176342729Y-74872193D01*
X176344949Y-74875817D01*
X176344951Y-74875820D01*
X176469890Y-75047786D01*
X176469891Y-75047787D01*
X176469892Y-75047788D01*
X176620216Y-75198112D01*
X176792169Y-75323042D01*
X176792200Y-75323060D01*
X176792442Y-75323182D01*
X176981588Y-75419557D01*
X177183757Y-75485246D01*
X177393713Y-75518500D01*
X177393714Y-75518500D01*
X177606286Y-75518500D01*
X177606287Y-75518500D01*
X177816243Y-75485246D01*
X178018412Y-75419557D01*
X178207816Y-75323051D01*
X178294138Y-75260335D01*
X178379786Y-75198109D01*
X178379788Y-75198106D01*
X178379792Y-75198104D01*
X178379799Y-75198096D01*
X178379849Y-75198061D01*
X178380605Y-75197290D01*
X178530104Y-75047792D01*
X178530106Y-75047788D01*
X178530109Y-75047786D01*
X178655048Y-74875820D01*
X178655050Y-74875817D01*
X178655051Y-74875816D01*
X178655487Y-74874959D01*
X178660653Y-74867652D01*
X178664158Y-74864875D01*
X178671756Y-74854091D01*
X178680647Y-74844678D01*
X178714911Y-74824677D01*
X178715424Y-74824271D01*
X178715644Y-74824249D01*
X178740985Y-74809457D01*
X178810791Y-74812447D01*
X178864503Y-74848612D01*
X178870707Y-74855771D01*
X178882729Y-74872193D01*
X178884949Y-74875817D01*
X178884951Y-74875820D01*
X179009890Y-75047786D01*
X179009891Y-75047787D01*
X179009892Y-75047788D01*
X179160216Y-75198112D01*
X179332169Y-75323042D01*
X179332200Y-75323060D01*
X179332442Y-75323182D01*
X179521588Y-75419557D01*
X179723757Y-75485246D01*
X179933713Y-75518500D01*
X179933714Y-75518500D01*
X180146286Y-75518500D01*
X180146287Y-75518500D01*
X180356243Y-75485246D01*
X180558412Y-75419557D01*
X180747816Y-75323051D01*
X180834138Y-75260335D01*
X180919786Y-75198109D01*
X180919788Y-75198106D01*
X180919792Y-75198104D01*
X180919799Y-75198096D01*
X180919849Y-75198061D01*
X180920605Y-75197290D01*
X181070104Y-75047792D01*
X181070106Y-75047788D01*
X181070109Y-75047786D01*
X181195048Y-74875820D01*
X181195050Y-74875817D01*
X181195051Y-74875816D01*
X181195487Y-74874959D01*
X181200653Y-74867652D01*
X181204158Y-74864875D01*
X181211756Y-74854091D01*
X181220647Y-74844678D01*
X181254911Y-74824677D01*
X181255424Y-74824271D01*
X181255644Y-74824249D01*
X181280985Y-74809457D01*
X181350791Y-74812447D01*
X181404503Y-74848612D01*
X181410707Y-74855771D01*
X181422729Y-74872193D01*
X181424949Y-74875817D01*
X181424951Y-74875820D01*
X181549890Y-75047786D01*
X181549891Y-75047787D01*
X181549892Y-75047788D01*
X181700216Y-75198112D01*
X181872169Y-75323042D01*
X181872200Y-75323060D01*
X181872442Y-75323182D01*
X182061588Y-75419557D01*
X182263757Y-75485246D01*
X182473713Y-75518500D01*
X182473714Y-75518500D01*
X182686286Y-75518500D01*
X182686287Y-75518500D01*
X182896243Y-75485246D01*
X183098412Y-75419557D01*
X183287816Y-75323051D01*
X183374138Y-75260335D01*
X183459786Y-75198109D01*
X183459788Y-75198106D01*
X183459792Y-75198104D01*
X183459799Y-75198096D01*
X183459849Y-75198061D01*
X183460605Y-75197290D01*
X183610104Y-75047792D01*
X183610106Y-75047788D01*
X183610109Y-75047786D01*
X183735048Y-74875820D01*
X183735050Y-74875817D01*
X183735051Y-74875816D01*
X183735487Y-74874959D01*
X183740653Y-74867652D01*
X183744158Y-74864875D01*
X183751756Y-74854091D01*
X183760647Y-74844678D01*
X183794911Y-74824677D01*
X183795424Y-74824271D01*
X183795644Y-74824249D01*
X183820985Y-74809457D01*
X183890791Y-74812447D01*
X183944503Y-74848612D01*
X183950707Y-74855771D01*
X183962729Y-74872193D01*
X183964949Y-74875817D01*
X183964951Y-74875820D01*
X184089890Y-75047786D01*
X184089891Y-75047787D01*
X184089892Y-75047788D01*
X184240216Y-75198112D01*
X184412169Y-75323042D01*
X184412200Y-75323060D01*
X184412442Y-75323182D01*
X184601588Y-75419557D01*
X184803757Y-75485246D01*
X185013713Y-75518500D01*
X185013714Y-75518500D01*
X185226286Y-75518500D01*
X185226287Y-75518500D01*
X185436243Y-75485246D01*
X185638412Y-75419557D01*
X185827816Y-75323051D01*
X185914138Y-75260335D01*
X185999786Y-75198109D01*
X185999788Y-75198106D01*
X185999792Y-75198104D01*
X185999799Y-75198096D01*
X185999849Y-75198061D01*
X186000605Y-75197290D01*
X186150104Y-75047792D01*
X186150106Y-75047788D01*
X186150109Y-75047786D01*
X186275048Y-74875820D01*
X186275050Y-74875817D01*
X186275051Y-74875816D01*
X186371557Y-74686412D01*
X186437246Y-74484243D01*
X186470500Y-74274287D01*
X186470500Y-74061713D01*
X186437246Y-73851757D01*
X186371557Y-73649588D01*
X186275051Y-73460184D01*
X186275049Y-73460181D01*
X186275048Y-73460179D01*
X186274702Y-73459703D01*
X186274700Y-73459699D01*
X186150112Y-73288216D01*
X185999788Y-73137892D01*
X185999786Y-73137890D01*
X185827820Y-73012951D01*
X185724781Y-72960450D01*
X185660245Y-72927567D01*
X185660240Y-72927565D01*
X185638414Y-72916444D01*
X185638413Y-72916443D01*
X185638412Y-72916443D01*
X185541550Y-72884970D01*
X185445074Y-72853623D01*
X185440552Y-72851770D01*
X185431362Y-72849600D01*
X185426599Y-72849226D01*
X185331988Y-72834241D01*
X185274957Y-72825208D01*
X185254985Y-72822045D01*
X185226290Y-72817500D01*
X185226287Y-72817500D01*
X185013713Y-72817500D01*
X185013709Y-72817500D01*
X184981560Y-72822592D01*
X184965042Y-72825208D01*
X184927654Y-72831129D01*
X184803763Y-72850752D01*
X184601582Y-72916445D01*
X184412182Y-73012949D01*
X184240210Y-73137892D01*
X184089892Y-73288210D01*
X184089890Y-73288213D01*
X183964952Y-73460179D01*
X183964945Y-73460188D01*
X183964634Y-73460696D01*
X183963499Y-73462177D01*
X183962085Y-73464125D01*
X183962036Y-73464089D01*
X183949060Y-73481041D01*
X183939353Y-73491319D01*
X183879011Y-73526542D01*
X183809205Y-73523550D01*
X183755488Y-73487378D01*
X183749285Y-73480219D01*
X183737274Y-73463811D01*
X183735053Y-73460187D01*
X183735051Y-73460184D01*
X183735050Y-73460182D01*
X183610109Y-73288213D01*
X183459786Y-73137890D01*
X183287820Y-73012951D01*
X183184781Y-72960450D01*
X183120245Y-72927567D01*
X183120240Y-72927565D01*
X183098414Y-72916444D01*
X183098413Y-72916443D01*
X183098412Y-72916443D01*
X183001550Y-72884970D01*
X182905074Y-72853623D01*
X182900552Y-72851770D01*
X182891362Y-72849600D01*
X182886599Y-72849226D01*
X182791988Y-72834241D01*
X182734957Y-72825208D01*
X182714985Y-72822045D01*
X182686290Y-72817500D01*
X182686287Y-72817500D01*
X182473713Y-72817500D01*
X182473709Y-72817500D01*
X182441560Y-72822592D01*
X182425042Y-72825208D01*
X182387654Y-72831129D01*
X182263763Y-72850752D01*
X182061582Y-72916445D01*
X181872182Y-73012949D01*
X181700210Y-73137892D01*
X181549892Y-73288210D01*
X181549890Y-73288213D01*
X181424952Y-73460179D01*
X181424945Y-73460188D01*
X181424634Y-73460696D01*
X181423499Y-73462177D01*
X181422085Y-73464125D01*
X181422036Y-73464089D01*
X181409060Y-73481041D01*
X181399353Y-73491319D01*
X181339011Y-73526542D01*
X181269205Y-73523550D01*
X181215488Y-73487378D01*
X181209285Y-73480219D01*
X181197274Y-73463811D01*
X181195053Y-73460187D01*
X181195051Y-73460184D01*
X181195050Y-73460182D01*
X181070109Y-73288213D01*
X180919786Y-73137890D01*
X180747820Y-73012951D01*
X180644781Y-72960450D01*
X180580245Y-72927567D01*
X180580240Y-72927565D01*
X180558414Y-72916444D01*
X180558413Y-72916443D01*
X180558412Y-72916443D01*
X180461550Y-72884970D01*
X180365074Y-72853623D01*
X180360552Y-72851770D01*
X180351362Y-72849600D01*
X180346599Y-72849226D01*
X180251988Y-72834241D01*
X180194957Y-72825208D01*
X180174985Y-72822045D01*
X180146290Y-72817500D01*
X180146287Y-72817500D01*
X179933713Y-72817500D01*
X179933709Y-72817500D01*
X179901560Y-72822592D01*
X179885042Y-72825208D01*
X179847654Y-72831129D01*
X179723763Y-72850752D01*
X179521582Y-72916445D01*
X179332182Y-73012949D01*
X179160210Y-73137892D01*
X179009892Y-73288210D01*
X179009890Y-73288213D01*
X178884952Y-73460179D01*
X178884945Y-73460188D01*
X178884634Y-73460696D01*
X178883499Y-73462177D01*
X178882085Y-73464125D01*
X178882036Y-73464089D01*
X178869060Y-73481041D01*
X178859353Y-73491319D01*
X178799011Y-73526542D01*
X178729205Y-73523550D01*
X178675488Y-73487378D01*
X178669285Y-73480219D01*
X178657274Y-73463811D01*
X178655053Y-73460187D01*
X178655051Y-73460184D01*
X178655050Y-73460182D01*
X178530109Y-73288213D01*
X178379786Y-73137890D01*
X178207820Y-73012951D01*
X178104781Y-72960450D01*
X178040245Y-72927567D01*
X178040240Y-72927565D01*
X178018414Y-72916444D01*
X178018413Y-72916443D01*
X178018412Y-72916443D01*
X177921550Y-72884970D01*
X177825074Y-72853623D01*
X177820552Y-72851770D01*
X177811362Y-72849600D01*
X177806599Y-72849226D01*
X177711988Y-72834241D01*
X177654957Y-72825208D01*
X177634985Y-72822045D01*
X177606290Y-72817500D01*
X177606287Y-72817500D01*
X177393713Y-72817500D01*
X177393709Y-72817500D01*
X177361560Y-72822592D01*
X177345042Y-72825208D01*
X177307654Y-72831129D01*
X177183763Y-72850752D01*
X176981582Y-72916445D01*
X176792182Y-73012949D01*
X176620210Y-73137892D01*
X176469892Y-73288210D01*
X176469890Y-73288213D01*
X176344952Y-73460179D01*
X176344945Y-73460188D01*
X176344634Y-73460696D01*
X176343499Y-73462177D01*
X176342085Y-73464125D01*
X176342036Y-73464089D01*
X176329060Y-73481041D01*
X176319353Y-73491319D01*
X176259011Y-73526542D01*
X176189205Y-73523550D01*
X176135488Y-73487378D01*
X176129285Y-73480219D01*
X176117274Y-73463811D01*
X176115053Y-73460187D01*
X176115051Y-73460184D01*
X176115050Y-73460182D01*
X175990109Y-73288213D01*
X175839786Y-73137890D01*
X175667820Y-73012951D01*
X175564781Y-72960450D01*
X175500245Y-72927567D01*
X175500240Y-72927565D01*
X175478414Y-72916444D01*
X175478413Y-72916443D01*
X175478412Y-72916443D01*
X175381550Y-72884970D01*
X175285074Y-72853623D01*
X175280552Y-72851770D01*
X175271362Y-72849600D01*
X175266599Y-72849226D01*
X175171988Y-72834241D01*
X175114957Y-72825208D01*
X175094985Y-72822045D01*
X175066290Y-72817500D01*
X175066287Y-72817500D01*
X174853713Y-72817500D01*
X174853709Y-72817500D01*
X174821560Y-72822592D01*
X174805042Y-72825208D01*
X174767654Y-72831129D01*
X174643763Y-72850752D01*
X174441582Y-72916445D01*
X174252182Y-73012949D01*
X174080210Y-73137892D01*
X173929892Y-73288210D01*
X173929890Y-73288213D01*
X173804952Y-73460179D01*
X173804945Y-73460188D01*
X173804634Y-73460696D01*
X173803499Y-73462177D01*
X173802085Y-73464125D01*
X173802036Y-73464089D01*
X173789060Y-73481041D01*
X173779353Y-73491319D01*
X173719011Y-73526542D01*
X173649205Y-73523550D01*
X173595488Y-73487378D01*
X173589285Y-73480219D01*
X173577274Y-73463811D01*
X173575053Y-73460187D01*
X173575051Y-73460184D01*
X173575050Y-73460182D01*
X173450109Y-73288213D01*
X173299786Y-73137890D01*
X173127820Y-73012951D01*
X173024781Y-72960450D01*
X172960245Y-72927567D01*
X172960240Y-72927565D01*
X172938414Y-72916444D01*
X172938413Y-72916443D01*
X172938412Y-72916443D01*
X172841550Y-72884970D01*
X172745074Y-72853623D01*
X172740552Y-72851770D01*
X172731362Y-72849600D01*
X172726599Y-72849226D01*
X172631988Y-72834241D01*
X172574957Y-72825208D01*
X172554985Y-72822045D01*
X172526290Y-72817500D01*
X172526287Y-72817500D01*
X172313713Y-72817500D01*
X172313712Y-72817500D01*
X172285005Y-72822046D01*
X172285004Y-72822045D01*
X172103760Y-72850752D01*
X172103754Y-72850753D01*
X172078424Y-72858983D01*
X172043648Y-72865000D01*
X172026588Y-72865488D01*
X171961307Y-72849073D01*
X171949765Y-72842446D01*
X171923827Y-72822592D01*
X168793226Y-69691991D01*
X168772074Y-69663735D01*
X168759467Y-69640646D01*
X168744300Y-69581221D01*
X168744300Y-68952548D01*
X184597699Y-68952548D01*
X184628457Y-69107171D01*
X184628464Y-69107202D01*
X184688798Y-69252865D01*
X184688803Y-69252874D01*
X184688813Y-69252891D01*
X184776411Y-69383990D01*
X184776412Y-69383991D01*
X184776417Y-69383997D01*
X184887901Y-69495481D01*
X184887907Y-69495486D01*
X184887911Y-69495489D01*
X185019014Y-69583090D01*
X185019027Y-69583097D01*
X185103439Y-69618061D01*
X185164703Y-69643437D01*
X185315620Y-69673456D01*
X185316936Y-69673807D01*
X185319355Y-69674200D01*
X185477044Y-69674200D01*
X185481164Y-69674200D01*
X185489014Y-69671818D01*
X185631697Y-69643437D01*
X185777379Y-69583094D01*
X185908489Y-69495489D01*
X186019989Y-69383989D01*
X186107594Y-69252879D01*
X186167937Y-69107197D01*
X186198700Y-68952542D01*
X186198700Y-68794858D01*
X186198700Y-68794855D01*
X186198700Y-68794673D01*
X186198265Y-68792671D01*
X186187708Y-68739598D01*
X186167938Y-68640208D01*
X186167937Y-68640207D01*
X186167937Y-68640203D01*
X186153471Y-68605278D01*
X186127175Y-68541792D01*
X186107600Y-68494533D01*
X186107595Y-68494524D01*
X186107590Y-68494514D01*
X186019989Y-68363411D01*
X186019986Y-68363407D01*
X186019981Y-68363401D01*
X185908497Y-68251917D01*
X185908491Y-68251912D01*
X185908490Y-68251911D01*
X185777391Y-68164313D01*
X185777390Y-68164312D01*
X185777385Y-68164309D01*
X185777372Y-68164302D01*
X185777365Y-68164298D01*
X185631702Y-68103964D01*
X185631671Y-68103957D01*
X185477047Y-68073200D01*
X185477045Y-68073200D01*
X185477042Y-68073200D01*
X185319358Y-68073200D01*
X185319355Y-68073200D01*
X185319353Y-68073200D01*
X185164727Y-68103957D01*
X185164696Y-68103964D01*
X185019033Y-68164298D01*
X185019024Y-68164303D01*
X185019007Y-68164313D01*
X184887908Y-68251911D01*
X184887907Y-68251912D01*
X184887901Y-68251917D01*
X184776417Y-68363401D01*
X184776412Y-68363407D01*
X184776411Y-68363408D01*
X184688813Y-68494507D01*
X184688803Y-68494524D01*
X184688798Y-68494533D01*
X184628464Y-68640196D01*
X184628457Y-68640227D01*
X184597700Y-68794850D01*
X184597700Y-68794853D01*
X184597700Y-68952546D01*
X184597700Y-68952548D01*
X184597699Y-68952548D01*
X168744300Y-68952548D01*
X168744300Y-68869862D01*
X168749322Y-68834929D01*
X168750182Y-68832000D01*
X168753233Y-68821610D01*
X168791006Y-68762833D01*
X168854556Y-68733808D01*
X168857222Y-68733425D01*
X168913517Y-68738337D01*
X168917362Y-68739599D01*
X168917362Y-68739598D01*
X168926985Y-68742755D01*
X168935766Y-68746008D01*
X169069098Y-68801235D01*
X169069103Y-68801237D01*
X169069106Y-68801237D01*
X169069107Y-68801238D01*
X169117059Y-68810776D01*
X169223753Y-68831999D01*
X169223756Y-68832000D01*
X169223758Y-68832000D01*
X169381444Y-68832000D01*
X169381445Y-68831999D01*
X169536097Y-68801237D01*
X169660434Y-68749735D01*
X169681772Y-68740897D01*
X169681772Y-68740896D01*
X169681779Y-68740894D01*
X169681784Y-68740890D01*
X169681787Y-68740889D01*
X169699136Y-68729297D01*
X169699137Y-68729296D01*
X169764438Y-68685663D01*
X169764552Y-68685587D01*
X169781767Y-68674084D01*
X169792141Y-68667151D01*
X169812889Y-68653289D01*
X169924389Y-68541789D01*
X170011994Y-68410679D01*
X170072337Y-68264997D01*
X170103100Y-68110342D01*
X170103100Y-67952658D01*
X170103100Y-67952655D01*
X170103100Y-67952473D01*
X170102665Y-67950472D01*
X170072997Y-67801324D01*
X170072594Y-67798967D01*
X170072338Y-67798008D01*
X170072337Y-67798006D01*
X170072337Y-67798003D01*
X170072335Y-67797998D01*
X170011997Y-67652327D01*
X170011990Y-67652314D01*
X169924389Y-67521211D01*
X169924386Y-67521207D01*
X169924381Y-67521201D01*
X169812897Y-67409717D01*
X169812891Y-67409712D01*
X169812890Y-67409711D01*
X169681791Y-67322113D01*
X169681790Y-67322112D01*
X169681785Y-67322109D01*
X169681772Y-67322102D01*
X169681765Y-67322098D01*
X169536102Y-67261764D01*
X169536071Y-67261757D01*
X169381447Y-67231000D01*
X169381445Y-67231000D01*
X169381442Y-67231000D01*
X169223758Y-67231000D01*
X169223753Y-67231000D01*
X169223750Y-67231000D01*
X169106553Y-67254312D01*
X169071311Y-67256202D01*
X169057486Y-67254965D01*
X168992468Y-67229384D01*
X168951601Y-67172712D01*
X168949854Y-67167761D01*
X168945947Y-67113025D01*
X168943703Y-67112804D01*
X168944300Y-67106742D01*
X168944300Y-66948873D01*
X168943865Y-66946872D01*
X168914197Y-66797724D01*
X168913794Y-66795367D01*
X168913538Y-66794408D01*
X168913537Y-66794406D01*
X168913537Y-66794403D01*
X168913535Y-66794398D01*
X168853197Y-66648727D01*
X168853190Y-66648714D01*
X168765589Y-66517611D01*
X168765586Y-66517607D01*
X168765581Y-66517601D01*
X168654097Y-66406117D01*
X168654091Y-66406112D01*
X168654090Y-66406111D01*
X168522991Y-66318513D01*
X168522990Y-66318512D01*
X168522985Y-66318509D01*
X168522972Y-66318502D01*
X168522965Y-66318498D01*
X168377302Y-66258164D01*
X168377271Y-66258157D01*
X168222647Y-66227400D01*
X168222645Y-66227400D01*
X168222642Y-66227400D01*
X168200376Y-66227400D01*
X168168280Y-66223174D01*
X168137818Y-66215011D01*
X168117799Y-66206719D01*
X168051493Y-66188953D01*
X168051492Y-66188952D01*
X167984410Y-66170978D01*
X167959857Y-66164399D01*
X167959856Y-66164399D01*
X167801743Y-66164399D01*
X167706163Y-66190009D01*
X167706163Y-66190010D01*
X167649014Y-66205323D01*
X167649012Y-66205323D01*
X167649008Y-66205325D01*
X167512094Y-66284374D01*
X167512080Y-66284383D01*
X167512075Y-66284387D01*
X167400287Y-66396175D01*
X167400284Y-66396179D01*
X167400283Y-66396181D01*
X167400281Y-66396184D01*
X167321223Y-66533114D01*
X167321223Y-66533115D01*
X167280299Y-66685843D01*
X167280299Y-66685845D01*
X167280299Y-66843954D01*
X167280298Y-66843954D01*
X167280299Y-66843957D01*
X167284372Y-66859159D01*
X167284373Y-66859166D01*
X167321222Y-66996683D01*
X167324333Y-67004193D01*
X167323683Y-67004461D01*
X167330909Y-67021910D01*
X167339074Y-67052380D01*
X167343300Y-67084473D01*
X167343300Y-67106746D01*
X167343300Y-67106748D01*
X167343299Y-67106748D01*
X167374057Y-67261371D01*
X167374064Y-67261402D01*
X167434398Y-67407065D01*
X167434402Y-67407072D01*
X167434409Y-67407085D01*
X167512497Y-67523950D01*
X167527728Y-67555786D01*
X167537634Y-67587422D01*
X167543300Y-67624475D01*
X167543300Y-69803390D01*
X167543299Y-69803464D01*
X167543299Y-69805148D01*
X167543299Y-69970854D01*
X167543298Y-69970854D01*
X167543299Y-69970857D01*
X167547372Y-69986060D01*
X167547373Y-69986065D01*
X167566927Y-70059040D01*
X167583944Y-70122544D01*
X167584198Y-70123525D01*
X167584224Y-70123589D01*
X167627598Y-70198716D01*
X167627602Y-70198720D01*
X167663276Y-70260511D01*
X167663277Y-70260512D01*
X167663282Y-70260518D01*
X167663288Y-70260525D01*
X167784114Y-70381351D01*
X167784159Y-70381394D01*
X169996476Y-72593711D01*
X170017625Y-72621961D01*
X170023046Y-72631888D01*
X170037900Y-72700161D01*
X170013486Y-72765626D01*
X169957554Y-72807499D01*
X169957550Y-72807501D01*
X169950362Y-72810182D01*
X169907028Y-72818000D01*
X169773749Y-72818000D01*
X169573513Y-72849715D01*
X169573505Y-72849715D01*
X169573506Y-72849716D01*
X169563865Y-72851242D01*
X169361784Y-72916903D01*
X169172438Y-73013380D01*
X169118282Y-73052727D01*
X169118282Y-73052728D01*
X169623850Y-73558296D01*
X169657335Y-73619619D01*
X169652351Y-73689311D01*
X169610479Y-73745244D01*
X169598173Y-73753362D01*
X169572996Y-73767898D01*
X169572990Y-73767903D01*
X169479903Y-73860990D01*
X169479898Y-73860996D01*
X169465362Y-73886173D01*
X169414793Y-73934387D01*
X169346185Y-73947607D01*
X169281322Y-73921637D01*
X169270296Y-73911850D01*
X168739425Y-73380979D01*
X168718273Y-73352723D01*
X168705666Y-73329634D01*
X168691763Y-73275164D01*
X168691612Y-73275176D01*
X168691348Y-73275221D01*
X168691344Y-73275199D01*
X168690922Y-73275234D01*
X168690509Y-73270250D01*
X168690499Y-73270209D01*
X168690499Y-73270122D01*
X168690339Y-73268197D01*
X168690112Y-73266538D01*
X168684091Y-73210517D01*
X168684091Y-73210516D01*
X168633796Y-73075669D01*
X168633795Y-73075668D01*
X168633793Y-73075664D01*
X168633782Y-73075649D01*
X168631392Y-73071929D01*
X168631391Y-73071928D01*
X168628489Y-73068579D01*
X168547547Y-72960455D01*
X168547544Y-72960452D01*
X168547542Y-72960450D01*
X168478641Y-72908871D01*
X168432335Y-72874206D01*
X168432332Y-72874204D01*
X168432330Y-72874203D01*
X168432328Y-72874202D01*
X168297482Y-72823908D01*
X168297483Y-72823908D01*
X168237883Y-72817501D01*
X168237881Y-72817500D01*
X168237873Y-72817500D01*
X168237864Y-72817500D01*
X168236841Y-72817500D01*
X166442123Y-72817500D01*
X166440192Y-72817659D01*
X166438545Y-72817885D01*
X166382516Y-72823908D01*
X166271035Y-72865488D01*
X166247666Y-72874204D01*
X166247665Y-72874205D01*
X166132456Y-72960450D01*
X166132450Y-72960456D01*
X166046205Y-73075665D01*
X166046203Y-73075668D01*
X165995908Y-73210516D01*
X165989500Y-73270115D01*
X164656071Y-73270115D01*
X164656071Y-69901350D01*
X164999600Y-69901350D01*
X164999600Y-70059048D01*
X165030357Y-70213671D01*
X165030364Y-70213702D01*
X165090698Y-70359365D01*
X165090703Y-70359374D01*
X165090713Y-70359391D01*
X165178311Y-70490490D01*
X165178312Y-70490491D01*
X165178317Y-70490497D01*
X165289801Y-70601981D01*
X165289807Y-70601986D01*
X165289811Y-70601989D01*
X165420914Y-70689590D01*
X165420927Y-70689597D01*
X165566598Y-70749935D01*
X165566603Y-70749937D01*
X165721253Y-70780699D01*
X165721256Y-70780700D01*
X165721258Y-70780700D01*
X165878944Y-70780700D01*
X165878945Y-70780699D01*
X166033597Y-70749937D01*
X166179279Y-70689594D01*
X166310389Y-70601989D01*
X166421889Y-70490489D01*
X166509494Y-70359379D01*
X166569837Y-70213697D01*
X166600600Y-70059042D01*
X166600600Y-69901358D01*
X166600600Y-69901355D01*
X166600600Y-69901173D01*
X166600165Y-69899172D01*
X166582972Y-69812740D01*
X166582972Y-69812736D01*
X166569838Y-69746707D01*
X166569834Y-69746696D01*
X166541953Y-69679384D01*
X166527064Y-69643438D01*
X166509497Y-69601027D01*
X166509490Y-69601014D01*
X166421889Y-69469911D01*
X166421886Y-69469907D01*
X166421881Y-69469901D01*
X166310397Y-69358417D01*
X166310391Y-69358412D01*
X166310390Y-69358411D01*
X166179291Y-69270813D01*
X166179290Y-69270812D01*
X166179285Y-69270809D01*
X166179272Y-69270802D01*
X166179265Y-69270798D01*
X166033602Y-69210464D01*
X166033571Y-69210457D01*
X165878947Y-69179700D01*
X165878945Y-69179700D01*
X165878942Y-69179700D01*
X165721258Y-69179700D01*
X165721255Y-69179700D01*
X165721253Y-69179700D01*
X165566627Y-69210457D01*
X165566596Y-69210464D01*
X165420933Y-69270798D01*
X165420924Y-69270803D01*
X165420907Y-69270813D01*
X165289808Y-69358411D01*
X165289807Y-69358412D01*
X165289801Y-69358417D01*
X165178317Y-69469901D01*
X165178312Y-69469907D01*
X165178311Y-69469908D01*
X165090713Y-69601007D01*
X165090703Y-69601024D01*
X165090698Y-69601033D01*
X165030364Y-69746696D01*
X165030357Y-69746727D01*
X164999600Y-69901350D01*
X164656071Y-69901350D01*
X164656071Y-63394012D01*
X164661093Y-63359079D01*
X164664432Y-63347708D01*
X164702204Y-63288932D01*
X164765760Y-63259905D01*
X164833402Y-63269167D01*
X164846918Y-63275123D01*
X164865803Y-63285490D01*
X164992714Y-63370290D01*
X164992727Y-63370297D01*
X165138398Y-63430635D01*
X165138403Y-63430637D01*
X165293053Y-63461399D01*
X165293056Y-63461400D01*
X165293058Y-63461400D01*
X165450744Y-63461400D01*
X165450745Y-63461399D01*
X165605397Y-63430637D01*
X165751079Y-63370294D01*
X165751085Y-63370290D01*
X165867955Y-63292199D01*
X165899785Y-63276971D01*
X165919474Y-63270806D01*
X165931429Y-63267064D01*
X165968478Y-63261400D01*
X167196973Y-63261400D01*
X167231905Y-63266421D01*
X167257149Y-63273834D01*
X167309895Y-63305130D01*
X168877731Y-64872966D01*
X168898883Y-64901222D01*
X168906375Y-64914943D01*
X168921227Y-64983199D01*
X168920704Y-64990524D01*
X168900121Y-65050584D01*
X168830213Y-65155207D01*
X168830203Y-65155224D01*
X168830198Y-65155233D01*
X168769864Y-65300896D01*
X168769857Y-65300927D01*
X168739100Y-65455550D01*
X168739100Y-65455553D01*
X168739100Y-65613246D01*
X168739100Y-65613248D01*
X168739099Y-65613248D01*
X168769857Y-65767871D01*
X168769864Y-65767902D01*
X168830198Y-65913565D01*
X168830203Y-65913574D01*
X168830213Y-65913591D01*
X168917810Y-66044688D01*
X168917812Y-66044691D01*
X168917816Y-66044696D01*
X169029301Y-66156181D01*
X169029307Y-66156186D01*
X169029311Y-66156189D01*
X169160414Y-66243790D01*
X169160427Y-66243797D01*
X169258407Y-66284381D01*
X169306103Y-66304137D01*
X169306105Y-66304137D01*
X169306110Y-66304139D01*
X169389879Y-66320801D01*
X169460753Y-66334899D01*
X169460756Y-66334900D01*
X169460758Y-66334900D01*
X169618444Y-66334900D01*
X169618445Y-66334899D01*
X169773097Y-66304137D01*
X169918779Y-66243794D01*
X169943314Y-66227400D01*
X170035653Y-66165701D01*
X170067487Y-66150471D01*
X170087850Y-66144095D01*
X170099129Y-66140564D01*
X170136178Y-66134900D01*
X186948444Y-66134900D01*
X186983376Y-66139921D01*
X187003510Y-66145834D01*
X187055469Y-66176349D01*
X187060261Y-66181056D01*
X187076470Y-66200627D01*
X187145634Y-66304139D01*
X187149808Y-66310385D01*
X187149811Y-66310390D01*
X187149816Y-66310396D01*
X187261301Y-66421881D01*
X187261307Y-66421886D01*
X187261311Y-66421889D01*
X187392414Y-66509490D01*
X187392427Y-66509497D01*
X187538098Y-66569835D01*
X187538103Y-66569837D01*
X187692753Y-66600599D01*
X187692756Y-66600600D01*
X187692758Y-66600600D01*
X187850444Y-66600600D01*
X187850445Y-66600599D01*
X188005097Y-66569837D01*
X188150779Y-66509494D01*
X188281889Y-66421889D01*
X188393389Y-66310389D01*
X188473824Y-66190010D01*
X188480993Y-66179281D01*
X188480996Y-66179274D01*
X188487157Y-66164402D01*
X188536739Y-66044696D01*
X188536743Y-66044688D01*
X188541335Y-66033603D01*
X188541338Y-66033591D01*
X188565211Y-65913574D01*
X188572100Y-65878942D01*
X188572100Y-65721258D01*
X188569840Y-65709901D01*
X188567950Y-65674660D01*
X188569343Y-65659084D01*
X188594922Y-65594070D01*
X188603278Y-65583312D01*
X188632309Y-65556284D01*
X188704589Y-65507989D01*
X188816089Y-65396489D01*
X188903694Y-65265379D01*
X188964037Y-65119697D01*
X188994800Y-64965042D01*
X188994800Y-64807358D01*
X188994800Y-64807355D01*
X188994800Y-64807176D01*
X188994378Y-64805238D01*
X188986879Y-64767535D01*
X188974874Y-64707185D01*
X188964039Y-64652710D01*
X188964036Y-64652701D01*
X188950317Y-64619581D01*
X188904138Y-64508092D01*
X188903697Y-64507027D01*
X188903690Y-64507014D01*
X188816089Y-64375911D01*
X188816086Y-64375907D01*
X188816081Y-64375901D01*
X188704597Y-64264417D01*
X188704591Y-64264412D01*
X188704590Y-64264411D01*
X188573491Y-64176813D01*
X188573490Y-64176812D01*
X188573485Y-64176809D01*
X188573472Y-64176802D01*
X188573465Y-64176798D01*
X188427802Y-64116464D01*
X188427771Y-64116457D01*
X188273147Y-64085700D01*
X188273145Y-64085700D01*
X188273142Y-64085700D01*
X188115458Y-64085700D01*
X188115455Y-64085700D01*
X188115453Y-64085700D01*
X187960827Y-64116457D01*
X187960796Y-64116464D01*
X187815133Y-64176798D01*
X187815124Y-64176803D01*
X187815097Y-64176819D01*
X187698249Y-64254895D01*
X187666415Y-64270127D01*
X187634778Y-64280034D01*
X187597722Y-64285700D01*
X170058127Y-64285700D01*
X170023191Y-64280677D01*
X169997949Y-64273265D01*
X169945204Y-64241969D01*
X169779883Y-64076648D01*
X192185799Y-64076648D01*
X192216557Y-64231271D01*
X192216564Y-64231302D01*
X192276898Y-64376965D01*
X192276903Y-64376974D01*
X192276913Y-64376991D01*
X192364511Y-64508090D01*
X192364512Y-64508091D01*
X192364517Y-64508097D01*
X192476001Y-64619581D01*
X192476007Y-64619586D01*
X192476011Y-64619589D01*
X192607114Y-64707190D01*
X192607127Y-64707197D01*
X192752798Y-64767535D01*
X192752803Y-64767537D01*
X192907453Y-64798299D01*
X192907456Y-64798300D01*
X192907458Y-64798300D01*
X193065144Y-64798300D01*
X193065145Y-64798299D01*
X193219797Y-64767537D01*
X193365479Y-64707194D01*
X193496589Y-64619589D01*
X193608089Y-64508089D01*
X193695694Y-64376979D01*
X193756037Y-64231297D01*
X193786800Y-64076642D01*
X193786800Y-63918958D01*
X193786800Y-63918955D01*
X193786800Y-63918773D01*
X193786365Y-63916772D01*
X193756697Y-63767624D01*
X193756294Y-63765267D01*
X193756038Y-63764308D01*
X193756037Y-63764306D01*
X193756037Y-63764303D01*
X193756035Y-63764298D01*
X193695697Y-63618627D01*
X193695690Y-63618614D01*
X193608089Y-63487511D01*
X193608086Y-63487507D01*
X193608081Y-63487501D01*
X193496597Y-63376017D01*
X193496591Y-63376012D01*
X193496590Y-63376011D01*
X193365491Y-63288413D01*
X193365490Y-63288412D01*
X193365485Y-63288409D01*
X193365472Y-63288402D01*
X193365465Y-63288398D01*
X193219802Y-63228064D01*
X193219771Y-63228057D01*
X193065147Y-63197300D01*
X193065145Y-63197300D01*
X193065142Y-63197300D01*
X192907458Y-63197300D01*
X192907455Y-63197300D01*
X192907453Y-63197300D01*
X192752827Y-63228057D01*
X192752796Y-63228064D01*
X192607133Y-63288398D01*
X192607124Y-63288403D01*
X192607107Y-63288413D01*
X192476008Y-63376011D01*
X192476007Y-63376012D01*
X192476001Y-63376017D01*
X192364517Y-63487501D01*
X192364512Y-63487507D01*
X192364511Y-63487508D01*
X192276913Y-63618607D01*
X192276903Y-63618624D01*
X192276898Y-63618633D01*
X192216564Y-63764296D01*
X192216557Y-63764327D01*
X192185800Y-63918950D01*
X192185800Y-63918953D01*
X192185800Y-64076646D01*
X192185800Y-64076648D01*
X192185799Y-64076648D01*
X169779883Y-64076648D01*
X168006828Y-62303593D01*
X168002490Y-62299255D01*
X168002488Y-62299252D01*
X167883617Y-62180381D01*
X167883616Y-62180380D01*
X167883615Y-62180379D01*
X167883612Y-62180377D01*
X167817698Y-62142321D01*
X167817698Y-62142322D01*
X167781743Y-62121564D01*
X167781742Y-62121563D01*
X167746686Y-62101323D01*
X167708503Y-62091092D01*
X167593957Y-62060399D01*
X167593954Y-62060399D01*
X167426343Y-62060399D01*
X167426280Y-62060400D01*
X165969496Y-62060400D01*
X165934561Y-62055377D01*
X165902752Y-62046037D01*
X165868798Y-62030163D01*
X165751085Y-61951509D01*
X165751072Y-61951502D01*
X165751065Y-61951498D01*
X165605402Y-61891164D01*
X165605371Y-61891157D01*
X165450747Y-61860400D01*
X165450745Y-61860400D01*
X165450742Y-61860400D01*
X165293058Y-61860400D01*
X165293055Y-61860400D01*
X165293053Y-61860400D01*
X165138427Y-61891157D01*
X165138396Y-61891164D01*
X164992733Y-61951498D01*
X164992724Y-61951503D01*
X164992707Y-61951513D01*
X164866622Y-62035761D01*
X164846193Y-62046797D01*
X164831407Y-62053075D01*
X164762006Y-62061156D01*
X164699253Y-62030434D01*
X164663510Y-61972270D01*
X164660633Y-61961962D01*
X164656071Y-61928638D01*
X164656071Y-59157848D01*
X167926399Y-59157848D01*
X167957157Y-59312471D01*
X167957164Y-59312502D01*
X168017498Y-59458165D01*
X168017503Y-59458174D01*
X168017513Y-59458191D01*
X168105111Y-59589290D01*
X168105112Y-59589291D01*
X168105117Y-59589297D01*
X168216601Y-59700781D01*
X168216607Y-59700786D01*
X168216611Y-59700789D01*
X168347714Y-59788390D01*
X168347727Y-59788397D01*
X168493398Y-59848735D01*
X168493403Y-59848737D01*
X168648053Y-59879499D01*
X168648056Y-59879500D01*
X168648058Y-59879500D01*
X168805744Y-59879500D01*
X168805745Y-59879499D01*
X168960397Y-59848737D01*
X169106079Y-59788394D01*
X169237189Y-59700789D01*
X169348689Y-59589289D01*
X169436294Y-59458179D01*
X169496637Y-59312497D01*
X169516013Y-59215085D01*
X169524059Y-59174634D01*
X169535800Y-59141355D01*
X169551166Y-59111979D01*
X169573358Y-59081775D01*
X169793311Y-58861823D01*
X169821561Y-58840675D01*
X169844653Y-58828067D01*
X169904078Y-58812900D01*
X184527373Y-58812900D01*
X184562305Y-58817921D01*
X184587549Y-58825334D01*
X184640295Y-58856630D01*
X188229017Y-62445352D01*
X188250167Y-62473605D01*
X188266054Y-62502699D01*
X188278840Y-62537935D01*
X188306459Y-62676784D01*
X188306460Y-62676788D01*
X188306461Y-62676791D01*
X188306464Y-62676801D01*
X188306467Y-62676809D01*
X188306472Y-62676823D01*
X188366798Y-62822465D01*
X188366803Y-62822474D01*
X188366813Y-62822491D01*
X188454411Y-62953590D01*
X188454412Y-62953591D01*
X188454417Y-62953597D01*
X188565901Y-63065081D01*
X188565907Y-63065086D01*
X188565911Y-63065089D01*
X188697014Y-63152690D01*
X188697027Y-63152697D01*
X188804710Y-63197300D01*
X188842703Y-63213037D01*
X188842705Y-63213037D01*
X188842710Y-63213039D01*
X188918213Y-63228057D01*
X188997353Y-63243799D01*
X188997356Y-63243800D01*
X188997358Y-63243800D01*
X189155044Y-63243800D01*
X189155045Y-63243799D01*
X189309697Y-63213037D01*
X189455379Y-63152694D01*
X189586489Y-63065089D01*
X189697989Y-62953589D01*
X189785594Y-62822479D01*
X189845937Y-62676797D01*
X189876700Y-62522142D01*
X189876700Y-62364458D01*
X189876700Y-62364455D01*
X189876700Y-62364273D01*
X189876265Y-62362271D01*
X189863730Y-62299254D01*
X189845938Y-62209810D01*
X189845937Y-62209803D01*
X189833749Y-62180379D01*
X189821419Y-62150610D01*
X189801004Y-62101323D01*
X189785597Y-62064127D01*
X189785590Y-62064114D01*
X189697989Y-61933011D01*
X189697986Y-61933007D01*
X189697981Y-61933001D01*
X189586497Y-61821517D01*
X189586491Y-61821512D01*
X189586490Y-61821511D01*
X189455391Y-61733913D01*
X189455390Y-61733912D01*
X189455385Y-61733909D01*
X189455372Y-61733902D01*
X189455365Y-61733898D01*
X189309723Y-61673572D01*
X189309709Y-61673567D01*
X189309701Y-61673564D01*
X189309691Y-61673561D01*
X189309686Y-61673560D01*
X189309683Y-61673559D01*
X189171836Y-61646139D01*
X189138554Y-61634398D01*
X189109180Y-61619033D01*
X189078973Y-61596838D01*
X185337228Y-57855093D01*
X185337219Y-57855083D01*
X185332888Y-57850752D01*
X185214017Y-57731881D01*
X185214016Y-57731880D01*
X185146014Y-57692620D01*
X185143953Y-57691320D01*
X185139789Y-57686597D01*
X185134730Y-57682198D01*
X185112142Y-57673063D01*
X185077086Y-57652823D01*
X185038903Y-57642592D01*
X184924357Y-57611899D01*
X184924354Y-57611899D01*
X184756743Y-57611899D01*
X184756680Y-57611900D01*
X169514434Y-57611900D01*
X169435417Y-57633071D01*
X169435340Y-57633094D01*
X169361714Y-57652823D01*
X169361709Y-57652826D01*
X169348990Y-57660169D01*
X169348984Y-57660171D01*
X169224798Y-57731870D01*
X169224793Y-57731872D01*
X169224790Y-57731875D01*
X169224786Y-57731878D01*
X169224777Y-57731884D01*
X168724846Y-58231817D01*
X168696593Y-58252967D01*
X168667499Y-58268854D01*
X168632263Y-58281640D01*
X168493415Y-58309259D01*
X168493409Y-58309260D01*
X168493408Y-58309261D01*
X168493398Y-58309264D01*
X168493393Y-58309265D01*
X168493375Y-58309272D01*
X168347733Y-58369598D01*
X168347724Y-58369603D01*
X168347707Y-58369613D01*
X168216608Y-58457211D01*
X168216607Y-58457212D01*
X168216601Y-58457217D01*
X168105117Y-58568701D01*
X168105112Y-58568707D01*
X168105111Y-58568708D01*
X168017513Y-58699807D01*
X168017503Y-58699824D01*
X168017498Y-58699833D01*
X167957164Y-58845496D01*
X167957157Y-58845527D01*
X167926400Y-59000150D01*
X167926400Y-59000153D01*
X167926400Y-59157846D01*
X167926400Y-59157848D01*
X167926399Y-59157848D01*
X164656071Y-59157848D01*
X164656071Y-57285012D01*
X164661093Y-57250079D01*
X164664432Y-57238708D01*
X164702204Y-57179932D01*
X164765760Y-57150905D01*
X164833402Y-57160167D01*
X164846918Y-57166123D01*
X164865803Y-57176490D01*
X164992714Y-57261290D01*
X164992727Y-57261297D01*
X165138398Y-57321635D01*
X165138403Y-57321637D01*
X165293053Y-57352399D01*
X165293056Y-57352400D01*
X165293058Y-57352400D01*
X165450744Y-57352400D01*
X165450745Y-57352399D01*
X165605397Y-57321637D01*
X165751079Y-57261294D01*
X165882189Y-57173689D01*
X165993689Y-57062189D01*
X166081294Y-56931079D01*
X166141637Y-56785397D01*
X166161013Y-56687985D01*
X166169059Y-56647534D01*
X166180800Y-56614255D01*
X166196165Y-56584881D01*
X166218357Y-56554677D01*
X167305812Y-55467223D01*
X167334062Y-55446075D01*
X167357154Y-55433467D01*
X167416579Y-55418300D01*
X190648081Y-55418300D01*
X190683013Y-55423321D01*
X190696332Y-55427232D01*
X190755110Y-55465006D01*
X190784136Y-55528561D01*
X190784137Y-55528571D01*
X190784882Y-55533755D01*
X190776710Y-55598833D01*
X190771463Y-55611503D01*
X190771462Y-55611506D01*
X190771372Y-55611773D01*
X190771034Y-55613649D01*
X190740700Y-55766148D01*
X190740700Y-55766153D01*
X190740700Y-55923846D01*
X190740700Y-55923848D01*
X190740699Y-55923848D01*
X190771457Y-56078471D01*
X190771464Y-56078502D01*
X190831798Y-56224165D01*
X190831803Y-56224174D01*
X190831813Y-56224191D01*
X190919411Y-56355290D01*
X190919412Y-56355291D01*
X190919417Y-56355297D01*
X191030901Y-56466781D01*
X191030907Y-56466786D01*
X191030911Y-56466789D01*
X191162014Y-56554390D01*
X191162027Y-56554397D01*
X191307698Y-56614735D01*
X191307703Y-56614737D01*
X191462353Y-56645499D01*
X191462356Y-56645500D01*
X191462358Y-56645500D01*
X191620044Y-56645500D01*
X191620045Y-56645499D01*
X191774697Y-56614737D01*
X191920379Y-56554394D01*
X192051489Y-56466789D01*
X192162989Y-56355289D01*
X192250594Y-56224179D01*
X192310937Y-56078497D01*
X192341700Y-55923842D01*
X192341700Y-55766158D01*
X192341700Y-55766155D01*
X192341700Y-55765971D01*
X192341264Y-55763966D01*
X192312289Y-55618300D01*
X192312289Y-55618299D01*
X192310937Y-55611503D01*
X192308752Y-55606228D01*
X192300020Y-55572021D01*
X192298537Y-55558223D01*
X192310944Y-55489466D01*
X192358552Y-55438331D01*
X192363076Y-55435647D01*
X192426332Y-55418300D01*
X198823004Y-55418300D01*
X198857936Y-55423321D01*
X198889750Y-55432663D01*
X198923698Y-55448535D01*
X199041414Y-55527190D01*
X199041427Y-55527197D01*
X199120494Y-55559947D01*
X199187103Y-55587537D01*
X199307608Y-55611507D01*
X199334128Y-55616782D01*
X199336852Y-55617504D01*
X199341755Y-55618300D01*
X199499444Y-55618300D01*
X199503564Y-55618300D01*
X199511414Y-55615918D01*
X199654097Y-55587537D01*
X199799779Y-55527194D01*
X199930889Y-55439589D01*
X200042389Y-55328089D01*
X200129994Y-55196979D01*
X200190337Y-55051297D01*
X200221100Y-54896642D01*
X200221100Y-54738958D01*
X200221100Y-54738955D01*
X200221100Y-54738773D01*
X200220665Y-54736772D01*
X200190997Y-54587624D01*
X200190594Y-54585267D01*
X200190338Y-54584308D01*
X200190337Y-54584306D01*
X200190337Y-54584303D01*
X200190335Y-54584298D01*
X200129997Y-54438627D01*
X200129990Y-54438614D01*
X200042389Y-54307511D01*
X200042386Y-54307507D01*
X200042381Y-54307501D01*
X199930897Y-54196017D01*
X199930891Y-54196012D01*
X199930890Y-54196011D01*
X199799791Y-54108413D01*
X199799790Y-54108412D01*
X199799785Y-54108409D01*
X199799772Y-54108402D01*
X199799765Y-54108398D01*
X199654102Y-54048064D01*
X199654071Y-54048057D01*
X199499447Y-54017300D01*
X199499445Y-54017300D01*
X199499442Y-54017300D01*
X199341758Y-54017300D01*
X199341755Y-54017300D01*
X199341753Y-54017300D01*
X199187127Y-54048057D01*
X199187096Y-54048064D01*
X199041433Y-54108398D01*
X199041424Y-54108403D01*
X199041397Y-54108419D01*
X198924549Y-54186495D01*
X198892715Y-54201727D01*
X198861078Y-54211634D01*
X198824022Y-54217300D01*
X167194621Y-54217300D01*
X167194558Y-54217299D01*
X167192654Y-54217299D01*
X167185058Y-54217299D01*
X167026943Y-54217299D01*
X166950578Y-54237760D01*
X166950579Y-54237761D01*
X166874217Y-54258222D01*
X166874215Y-54258222D01*
X166874214Y-54258223D01*
X166874212Y-54258223D01*
X166874143Y-54258253D01*
X166873334Y-54258730D01*
X166737298Y-54337270D01*
X166737294Y-54337272D01*
X166737290Y-54337275D01*
X166737282Y-54337281D01*
X166737278Y-54337284D01*
X166737276Y-54337285D01*
X165369846Y-55704717D01*
X165341593Y-55725867D01*
X165312499Y-55741754D01*
X165277263Y-55754540D01*
X165138415Y-55782159D01*
X165138409Y-55782160D01*
X165138408Y-55782161D01*
X165138398Y-55782164D01*
X165138393Y-55782165D01*
X165138375Y-55782172D01*
X164992733Y-55842498D01*
X164992724Y-55842503D01*
X164992707Y-55842513D01*
X164866622Y-55926761D01*
X164846193Y-55937797D01*
X164831407Y-55944075D01*
X164762006Y-55952156D01*
X164699253Y-55921434D01*
X164663510Y-55863270D01*
X164660633Y-55852962D01*
X164656071Y-55819638D01*
X164656071Y-52187934D01*
X164661094Y-52152998D01*
X164665498Y-52138000D01*
X164703243Y-52079249D01*
X164704612Y-52078062D01*
X164759491Y-52050582D01*
X164767050Y-52048938D01*
X164793403Y-52046105D01*
X203975269Y-52046105D01*
X204010205Y-52051128D01*
G37*
%TD.AperFunction*%
%TD*%
M02*
