G04 ================== begin FILE IDENTIFICATION RECORD ==================*
G04 Layout Name:  D:/OrCAD_Projects/day-05/Board/demo1.brd*
G04 Film Name:    BOTTOM*
G04 File Format:  Gerber RS274X*
G04 File Origin:  Cadence Allegro 25.1-S020*
G04 Origin Date:  Sat Mar  7 01:28:26 2026*
G04 *
G04 Layer:  BOARD GEOMETRY/OUTLINE*
G04 Layer:  ETCH/BOTTOM*
G04 Layer:  PIN/BOTTOM*
G04 Layer:  VIA CLASS/BOTTOM*
G04 *
G04 Offset:    (0.0000 0.0000)*
G04 Mirror:    No*
G04 Mode:      Positive*
G04 Rotation:  0*
G04 FullContactRelief:  No*
G04 UndefLineWidth:     0.1270*
G04 ================== end FILE IDENTIFICATION RECORD ====================*
%FSLAX25Y25*MOMM*%
%IR0*IPPOS*OFA0.00000B0.00000*MIA0B0*SFA1.00000B1.00000*%
%ADD11C,.5*%
%ADD12R,.5X.5*%
%ADD13C,1.2*%
%ADD10C,3.*%
%ADD14C,.9004*%
%ADD15C,1.6004*%
%ADD16C,1.6068*%
G75*
%LPD*%
G75*
G36*
G01X314130Y2450000D02*
X2185870D01*
G02X2192300Y2431970I4J-10160D01*
G03X2129660Y2300000I107697J-131970D01*
G03X2300000Y2129660I170340J0D01*
G03X2422530Y2181670I0J170339D01*
G02X2440000Y2174610I7310J-7056D01*
G01Y325390D01*
G02X2422530Y318330I-10160J-4D01*
G03X2300000Y370340I-122530J-118329D01*
G03X2129660Y200000I0J-170340D01*
G03X2192300Y68030I170337J0D01*
G02X2185870Y50000I-6426J-7870D01*
G01X314130D01*
G02X307700Y68030I-4J10160D01*
G03X370340Y200000I-107697J131970D01*
G03X200000Y370340I-170340J0D01*
G03X49160Y279130I0J-170332D01*
G02X30000Y283850I-8999J4719D01*
G01Y2216150D01*
G02X49160Y2220870I10161J1D01*
G03X200000Y2129660I150840J79122D01*
G03X370340Y2300000I0J170340D01*
G03X307700Y2431970I-170337J0D01*
G02X314130Y2450000I6426J7870D01*
G37*
%LPC*%
G75*
G36*
G01X744660Y1685000D02*
Y1735000D01*
G02X765000Y1755340I20340J0D01*
G01X815000D01*
G02X835340Y1735000I0J-20340D01*
G01Y1685000D01*
G02X815000Y1664660I-20340J0D01*
G01X765000D01*
G02X744660Y1685000I0J20340D01*
G37*
G54D14*
X790000Y1456000D03*
G54D15*
X1860000D03*
G54D16*
Y1710000D03*
%LPD*%
G75*
G54D10*
X200000Y200000D03*
Y2300000D03*
D03*
X2300000Y200000D03*
Y2300000D03*
G54D11*
G01X0Y0D02*
X2500000D01*
Y2500000D01*
X0D01*
Y0D01*
X790000Y1456000D03*
G54D12*
Y1710000D03*
G54D13*
X1860000Y1456000D03*
Y1710000D03*
M02*
