G04 ================== begin FILE IDENTIFICATION RECORD ==================*
G04 Layout Name:  D:/OrCAD_Projects/day-05/Board/demo1.brd*
G04 Film Name:    SILKSCREENBOTTOM*
G04 File Format:  Gerber RS274X*
G04 File Origin:  Cadence Allegro 25.1-S020*
G04 Origin Date:  Sat Mar  7 01:28:26 2026*
G04 *
G04 Layer:  REF DES/SILKSCREEN_BOTTOM*
G04 Layer:  PACKAGE GEOMETRY/SILKSCREEN_BOTTOM*
G04 Layer:  BOARD GEOMETRY/OUTLINE*
G04 *
G04 Offset:    (0.0000 0.0000)*
G04 Mirror:    No*
G04 Mode:      Positive*
G04 Rotation:  0*
G04 FullContactRelief:  No*
G04 UndefLineWidth:     0.0000*
G04 ================== end FILE IDENTIFICATION RECORD ====================*
%FSLAX25Y25*MOMM*%
%IR0*IPPOS*OFA0.00000B0.00000*MIA0B0*SFA1.00000B1.00000*%
%ADD10C,.5*%
G75*
%LPD*%
G75*
G36*
G01X535250Y1590540D02*
Y1609190D01*
X615250D01*
Y1590540D01*
X615210Y1589230D01*
X614930Y1587070D01*
X614380Y1585060D01*
X613580Y1583200D01*
X612510Y1581480D01*
X611190Y1579920D01*
X610180Y1578950D01*
X608580Y1577760D01*
X606840Y1576840D01*
X604960Y1576170D01*
X602940Y1575780D01*
X600770Y1575650D01*
X549730D01*
X548230Y1575710D01*
X546160Y1576020D01*
X544240Y1576600D01*
X542450Y1577440D01*
X540810Y1578550D01*
X539310Y1579920D01*
X538520Y1580800D01*
X537340Y1582460D01*
X536430Y1584260D01*
X535770Y1586200D01*
X535380Y1588300D01*
X535250Y1590540D01*
G37*
G36*
G01Y1554390D02*
Y1560330D01*
X551920Y1564910D01*
X555250D01*
Y1561680D01*
X615250D01*
Y1554390D01*
X535250D01*
G37*
G36*
G01X1353700Y1256000D02*
X1334590D01*
Y1200000D01*
X1339620D01*
Y1251330D01*
X1352680D01*
Y1232670D01*
X1343640D01*
X1342910Y1231650D01*
X1353550Y1200000D01*
X1358880D01*
X1349030Y1228070D01*
X1349350D01*
X1349750Y1228050D01*
X1350560Y1228000D01*
X1352170D01*
X1353210Y1228090D01*
X1354160Y1228350D01*
X1354990Y1228800D01*
X1355710Y1229420D01*
X1356320Y1230220D01*
X1356820Y1231200D01*
X1357210Y1232360D01*
X1357490Y1233690D01*
X1357650Y1235200D01*
X1357710Y1236900D01*
Y1247100D01*
Y1247510D01*
X1357610Y1249260D01*
X1357390Y1250840D01*
X1357030Y1252260D01*
X1356540Y1253520D01*
X1356100Y1254380D01*
X1355580Y1255090D01*
X1355010Y1255590D01*
X1354380Y1255900D01*
X1353700Y1256000D01*
G37*
G36*
G01X1372950D02*
X1368800D01*
X1365590Y1244330D01*
Y1242000D01*
X1367850D01*
Y1200000D01*
X1372950D01*
Y1256000D01*
G37*
G36*
G01X1864650Y1284000D02*
X1859610D01*
Y1335330D01*
X1848390D01*
Y1321330D01*
X1843280D01*
Y1331100D01*
Y1331420D01*
X1843370Y1333190D01*
X1843580Y1334800D01*
X1843910Y1336250D01*
X1844370Y1337520D01*
X1844840Y1338380D01*
X1845390Y1339090D01*
X1846000Y1339590D01*
X1846650Y1339900D01*
X1847360Y1340000D01*
X1860640D01*
X1861280Y1339910D01*
X1861910Y1339620D01*
X1862490Y1339120D01*
X1863010Y1338420D01*
X1863480Y1337520D01*
X1863600Y1337260D01*
X1864060Y1335970D01*
X1864380Y1334510D01*
X1864580Y1332890D01*
X1864650Y1331100D01*
Y1284000D01*
G37*
G36*
G01X1878280D02*
X1874130D01*
X1870920Y1295670D01*
Y1298000D01*
X1873180D01*
Y1340000D01*
X1878280D01*
Y1284000D01*
G37*
%LPC*%
G75*
G36*
G01X541920Y1602000D02*
X608580D01*
Y1592310D01*
X608460Y1590460D01*
X608090Y1588770D01*
X607470Y1587260D01*
X606600Y1585910D01*
X606290Y1585540D01*
X605170Y1584490D01*
X603900Y1583700D01*
X602460Y1583160D01*
X600870Y1582880D01*
X599830Y1582830D01*
X550560D01*
X548910Y1582960D01*
X547400Y1583360D01*
X546040Y1584010D01*
X544820Y1584930D01*
X544310Y1585440D01*
X543330Y1586670D01*
X542610Y1588060D01*
X542140Y1589610D01*
X541930Y1591310D01*
X541920Y1591900D01*
Y1602000D01*
G37*
%LPD*%
G75*
G54D10*
G01X0Y0D02*
X2500000D01*
Y2500000D01*
X0D01*
Y0D01*
M02*
