%TF.GenerationSoftware,KiCad,Pcbnew,10.0.0*%
%TF.CreationDate,2026-03-22T18:45:35+05:30*%
%TF.ProjectId,LEC2,4c454332-2e6b-4696-9361-645f70636258,rev?*%
%TF.SameCoordinates,Original*%
%TF.FileFunction,Copper,L2,Bot*%
%TF.FilePolarity,Positive*%
%FSLAX46Y46*%
G04 Gerber Fmt 4.6, Leading zero omitted, Abs format (unit mm)*
G04 Created by KiCad (PCBNEW 10.0.0) date 2026-03-22 18:45:35*
%MOMM*%
%LPD*%
G01*
G04 APERTURE LIST*
G04 Aperture macros list*
%AMRoundRect*
0 Rectangle with rounded corners*
0 $1 Rounding radius*
0 $2 $3 $4 $5 $6 $7 $8 $9 X,Y pos of 4 corners*
0 Add a 4 corners polygon primitive as box body*
4,1,4,$2,$3,$4,$5,$6,$7,$8,$9,$2,$3,0*
0 Add four circle primitives for the rounded corners*
1,1,$1+$1,$2,$3*
1,1,$1+$1,$4,$5*
1,1,$1+$1,$6,$7*
1,1,$1+$1,$8,$9*
0 Add four rect primitives between the rounded corners*
20,1,$1+$1,$2,$3,$4,$5,0*
20,1,$1+$1,$4,$5,$6,$7,0*
20,1,$1+$1,$6,$7,$8,$9,0*
20,1,$1+$1,$8,$9,$2,$3,0*%
G04 Aperture macros list end*
%TA.AperFunction,ComponentPad*%
%ADD10C,1.600000*%
%TD*%
%TA.AperFunction,ComponentPad*%
%ADD11RoundRect,0.250000X-0.550000X0.550000X-0.550000X-0.550000X0.550000X-0.550000X0.550000X0.550000X0*%
%TD*%
%TA.AperFunction,ComponentPad*%
%ADD12C,1.500000*%
%TD*%
%TA.AperFunction,ComponentPad*%
%ADD13C,1.700000*%
%TD*%
%TA.AperFunction,ComponentPad*%
%ADD14R,1.700000X1.700000*%
%TD*%
%TA.AperFunction,ComponentPad*%
%ADD15RoundRect,0.875000X-0.875000X-0.875000X0.875000X-0.875000X0.875000X0.875000X-0.875000X0.875000X0*%
%TD*%
%TA.AperFunction,ComponentPad*%
%ADD16RoundRect,0.750000X-0.750000X-1.000000X0.750000X-1.000000X0.750000X1.000000X-0.750000X1.000000X0*%
%TD*%
%TA.AperFunction,ComponentPad*%
%ADD17R,3.500000X3.500000*%
%TD*%
%TA.AperFunction,ComponentPad*%
%ADD18RoundRect,0.250000X0.550000X-0.550000X0.550000X0.550000X-0.550000X0.550000X-0.550000X-0.550000X0*%
%TD*%
%TA.AperFunction,ComponentPad*%
%ADD19C,2.000000*%
%TD*%
%TA.AperFunction,ComponentPad*%
%ADD20R,1.800000X1.800000*%
%TD*%
%TA.AperFunction,ComponentPad*%
%ADD21C,1.800000*%
%TD*%
%TA.AperFunction,ViaPad*%
%ADD22C,0.600000*%
%TD*%
%TA.AperFunction,Conductor*%
%ADD23C,0.200000*%
%TD*%
G04 APERTURE END LIST*
D10*
%TO.P,C8,2*%
%TO.N,GND*%
X104946700Y-85500000D03*
D11*
%TO.P,C8,1*%
%TO.N,Net-(U2-VI)*%
X104946700Y-83500000D03*
%TD*%
D10*
%TO.P,C5,2*%
%TO.N,GND*%
X141000000Y-84000000D03*
%TO.P,C5,1*%
%TO.N,VCC*%
X141000000Y-86500000D03*
%TD*%
D12*
%TO.P,X1,2,2_2*%
%TO.N,/XTAL1*%
X152500000Y-89940000D03*
%TO.P,X1,1,1_1*%
%TO.N,/XTAL2*%
X152500000Y-85060000D03*
%TD*%
D11*
%TO.P,C7,1*%
%TO.N,VCC*%
X112500000Y-83500000D03*
D10*
%TO.P,C7,2*%
%TO.N,GND*%
X112500000Y-85500000D03*
%TD*%
%TO.P,C6,1*%
%TO.N,VCC*%
X146500000Y-86500000D03*
%TO.P,C6,2*%
%TO.N,GND*%
X146500000Y-84000000D03*
%TD*%
%TO.P,C4,1*%
%TO.N,VCC*%
X135000000Y-86500000D03*
%TO.P,C4,2*%
%TO.N,GND*%
X135000000Y-84000000D03*
%TD*%
D11*
%TO.P,C3,1*%
%TO.N,VCC*%
X118000000Y-83500000D03*
D10*
%TO.P,C3,2*%
%TO.N,/RST*%
X118000000Y-85500000D03*
%TD*%
%TO.P,C2,1*%
%TO.N,GND*%
X129500000Y-86500000D03*
%TO.P,C2,2*%
%TO.N,/XTAL2*%
X129500000Y-84000000D03*
%TD*%
%TO.P,C1,1*%
%TO.N,/XTAL1*%
X124000000Y-86500000D03*
%TO.P,C1,2*%
%TO.N,GND*%
X124000000Y-84000000D03*
%TD*%
D13*
%TO.P,J2,3,Pin_3_3*%
%TO.N,/3V3*%
X144350000Y-109000000D03*
%TO.P,J2,2,Pin_2_2*%
X141810000Y-109000000D03*
D14*
%TO.P,J2,1,Pin_1_1*%
X139270000Y-109000000D03*
%TD*%
D13*
%TO.P,J1,3,Pin_3_3*%
%TO.N,/5V*%
X129540000Y-109000000D03*
%TO.P,J1,2,Pin_2_2*%
X127000000Y-109000000D03*
D14*
%TO.P,J1,1,Pin_1_1*%
X124460000Y-109000000D03*
%TD*%
%TO.P,J4,1,Pin_1_1*%
%TO.N,/RX*%
X123190000Y-113000000D03*
D13*
%TO.P,J4,2,Pin_2_2*%
%TO.N,/TX*%
X125730000Y-113000000D03*
%TO.P,J4,3,Pin_3_3*%
%TO.N,GND*%
X128270000Y-113000000D03*
%TO.P,J4,4,Pin_4_4*%
%TO.N,VCC*%
X130810000Y-113000000D03*
%TD*%
D14*
%TO.P,J5,1,Pin_1_1*%
%TO.N,/SCL*%
X138000000Y-113000000D03*
D13*
%TO.P,J5,2,Pin_2_2*%
%TO.N,/SDA*%
X140540000Y-113000000D03*
%TO.P,J5,3,Pin_3_3*%
%TO.N,VCC*%
X143080000Y-113000000D03*
%TO.P,J5,4,Pin_4_4*%
%TO.N,GND*%
X145620000Y-113000000D03*
%TD*%
D15*
%TO.P,J6,3*%
%TO.N,GND*%
X113000000Y-112700000D03*
D16*
%TO.P,J6,2*%
X110000000Y-108000000D03*
D17*
%TO.P,J6,1*%
%TO.N,Net-(U2-VI)*%
X116000000Y-108000000D03*
%TD*%
D10*
%TO.P,R2,2*%
%TO.N,VCC*%
X136000000Y-103620000D03*
%TO.P,R2,1*%
%TO.N,/EA*%
X136000000Y-96000000D03*
%TD*%
%TO.P,R4,2*%
%TO.N,VCC*%
X127500000Y-103620000D03*
%TO.P,R4,1*%
%TO.N,/SCL*%
X127500000Y-96000000D03*
%TD*%
%TO.P,R3,2*%
%TO.N,VCC*%
X132000000Y-103620000D03*
%TO.P,R3,1*%
%TO.N,/SDA*%
X132000000Y-96000000D03*
%TD*%
%TO.P,R5,2*%
%TO.N,/RST*%
X122500000Y-103620000D03*
%TO.P,R5,1*%
%TO.N,GND*%
X122500000Y-96000000D03*
%TD*%
%TO.P,R1,1*%
%TO.N,/P1.0*%
X140000000Y-96000000D03*
%TO.P,R1,2*%
%TO.N,Net-(D1-A)*%
X140000000Y-103620000D03*
%TD*%
D13*
%TO.P,J3,3,Pin_3_3*%
%TO.N,GND*%
X153000000Y-107420000D03*
%TO.P,J3,2,Pin_2_2*%
X153000000Y-109960000D03*
D14*
%TO.P,J3,1,Pin_1_1*%
X153000000Y-112500000D03*
%TD*%
D18*
%TO.P,U1,1,P1.0_1*%
%TO.N,/P1.0*%
X105260000Y-132120000D03*
D10*
%TO.P,U1,2,P1.1_2*%
%TO.N,unconnected-(U1-P1.1-Pad2)*%
X107800000Y-132120000D03*
%TO.P,U1,3,P1.2_3*%
%TO.N,unconnected-(U1-P1.2-Pad3)*%
X110340000Y-132120000D03*
%TO.P,U1,4,P1.3_4*%
%TO.N,unconnected-(U1-P1.3-Pad4)*%
X112880000Y-132120000D03*
%TO.P,U1,5,P1.4_5*%
%TO.N,unconnected-(U1-P1.4-Pad5)*%
X115420000Y-132120000D03*
%TO.P,U1,6,P1.5_6*%
%TO.N,unconnected-(U1-P1.5-Pad6)*%
X117960000Y-132120000D03*
%TO.P,U1,7,P1.6_7*%
%TO.N,unconnected-(U1-P1.6-Pad7)*%
X120500000Y-132120000D03*
%TO.P,U1,8,P1.7/SCK_8*%
%TO.N,unconnected-(U1-P1.7{slash}SCK-Pad8)*%
X123040000Y-132120000D03*
%TO.P,U1,9,RST_9*%
%TO.N,/RST*%
X125580000Y-132120000D03*
%TO.P,U1,10,P3.0_10*%
%TO.N,/RX*%
X128120000Y-132120000D03*
%TO.P,U1,11,P3.1_11*%
%TO.N,/TX*%
X130660000Y-132120000D03*
%TO.P,U1,12,P3.2_12*%
%TO.N,unconnected-(U1-P3.2-Pad12)*%
X133200000Y-132120000D03*
%TO.P,U1,13,P3.3_13*%
%TO.N,unconnected-(U1-P3.3-Pad13)*%
X135740000Y-132120000D03*
%TO.P,U1,14,P3.4_14*%
%TO.N,unconnected-(U1-P3.4-Pad14)*%
X138280000Y-132120000D03*
%TO.P,U1,15,P3.5_15*%
%TO.N,unconnected-(U1-P3.5-Pad15)*%
X140820000Y-132120000D03*
%TO.P,U1,16,P3.6_16*%
%TO.N,/SCL*%
X143360000Y-132120000D03*
%TO.P,U1,17,P3.7_17*%
%TO.N,/SDA*%
X145900000Y-132120000D03*
%TO.P,U1,18,XTAL2_18*%
%TO.N,/XTAL2*%
X148440000Y-132120000D03*
%TO.P,U1,19,XTAL1_19*%
%TO.N,/XTAL1*%
X150980000Y-132120000D03*
%TO.P,U1,20,GND_20*%
%TO.N,GND*%
X153520000Y-132120000D03*
%TO.P,U1,21,P2.0/A8_21*%
%TO.N,unconnected-(U1-P2.0{slash}A8-Pad21)*%
X153520000Y-116880000D03*
%TO.P,U1,22,P2.1/A9_22*%
%TO.N,unconnected-(U1-P2.1{slash}A9-Pad22)*%
X150980000Y-116880000D03*
%TO.P,U1,23,P2.2/A10_23*%
%TO.N,unconnected-(U1-P2.2{slash}A10-Pad23)*%
X148440000Y-116880000D03*
%TO.P,U1,24,P2.3/A11_24*%
%TO.N,unconnected-(U1-P2.3{slash}A11-Pad24)*%
X145900000Y-116880000D03*
%TO.P,U1,25,P2.4/A12_25*%
%TO.N,unconnected-(U1-P2.4{slash}A12-Pad25)*%
X143360000Y-116880000D03*
%TO.P,U1,26,P2.5/A13_26*%
%TO.N,unconnected-(U1-P2.5{slash}A13-Pad26)*%
X140820000Y-116880000D03*
%TO.P,U1,27,P2.6/A14_27*%
%TO.N,unconnected-(U1-P2.6{slash}A14-Pad27)*%
X138280000Y-116880000D03*
%TO.P,U1,28,P2.7/A15_28*%
%TO.N,unconnected-(U1-P2.7{slash}A15-Pad28)*%
X135740000Y-116880000D03*
%TO.P,U1,29,~{PSEN}_29*%
%TO.N,unconnected-(U1-~{PSEN}-Pad29)*%
X133200000Y-116880000D03*
%TO.P,U1,30,ALE_30*%
%TO.N,unconnected-(U1-ALE-Pad30)*%
X130660000Y-116880000D03*
%TO.P,U1,31,~{EA}/V_{pp}_31*%
%TO.N,/EA*%
X128120000Y-116880000D03*
%TO.P,U1,32,P0.7/AD7_32*%
%TO.N,unconnected-(U1-P0.7{slash}AD7-Pad32)*%
X125580000Y-116880000D03*
%TO.P,U1,33,P0.6/AD6_33*%
%TO.N,unconnected-(U1-P0.6{slash}AD6-Pad33)*%
X123040000Y-116880000D03*
%TO.P,U1,34,P0.5/AD5_34*%
%TO.N,unconnected-(U1-P0.5{slash}AD5-Pad34)*%
X120500000Y-116880000D03*
%TO.P,U1,35,P0.4/AD4_35*%
%TO.N,unconnected-(U1-P0.4{slash}AD4-Pad35)*%
X117960000Y-116880000D03*
%TO.P,U1,36,P0.3/AD3_36*%
%TO.N,unconnected-(U1-P0.3{slash}AD3-Pad36)*%
X115420000Y-116880000D03*
%TO.P,U1,37,P0.2/AD2_37*%
%TO.N,unconnected-(U1-P0.2{slash}AD2-Pad37)*%
X112880000Y-116880000D03*
%TO.P,U1,38,P0.1/AD1_38*%
%TO.N,unconnected-(U1-P0.1{slash}AD1-Pad38)*%
X110340000Y-116880000D03*
%TO.P,U1,39,P0.0/AD0_39*%
%TO.N,unconnected-(U1-P0.0{slash}AD0-Pad39)*%
X107800000Y-116880000D03*
%TO.P,U1,40,V_{cc}_40*%
%TO.N,VCC*%
X105260000Y-116880000D03*
%TD*%
D19*
%TO.P,SW1,1,1_1*%
%TO.N,/RST*%
X117500000Y-98000000D03*
X111000000Y-98000000D03*
%TO.P,SW1,2,2_2*%
%TO.N,VCC*%
X117500000Y-93500000D03*
X111000000Y-93500000D03*
%TD*%
D20*
%TO.P,D1,1,K_1*%
%TO.N,GND*%
X104460000Y-96000000D03*
D21*
%TO.P,D1,2,A_2*%
%TO.N,Net-(D1-A)*%
X107000000Y-96000000D03*
%TD*%
D22*
%TO.N,/EA*%
X127544200Y-97869300D03*
%TO.N,/P1.0*%
X106172400Y-103262400D03*
%TO.N,Net-(D1-A)*%
X135702100Y-99099100D03*
%TO.N,Net-(U2-VI)*%
X114817200Y-100052300D03*
%TD*%
%TO.N,/EA*%
D23*
X126396300Y-99017200D02*
X127544200Y-97869300D01*
X126396300Y-105410600D02*
X126396300Y-99017200D01*
X128270000Y-107284300D02*
X126396300Y-105410600D01*
X128270000Y-110601900D02*
X128270000Y-107284300D01*
X129424900Y-111756800D02*
X128270000Y-110601900D01*
X129424900Y-115575100D02*
X129424900Y-111756800D01*
X128120000Y-116880000D02*
X129424900Y-115575100D01*
%TO.N,/P1.0*%
X104112100Y-105322700D02*
X106172400Y-103262400D01*
X104112100Y-130972100D02*
X104112100Y-105322700D01*
X105260000Y-132120000D02*
X104112100Y-130972100D01*
%TO.N,/SDA*%
X142090000Y-128310000D02*
X145900000Y-132120000D01*
X142090000Y-114550000D02*
X142090000Y-128310000D01*
X140540000Y-113000000D02*
X142090000Y-114550000D01*
X140540000Y-112396700D02*
X140540000Y-113000000D01*
X133864100Y-105720800D02*
X140540000Y-112396700D01*
X133864100Y-97864100D02*
X133864100Y-105720800D01*
X132000000Y-96000000D02*
X133864100Y-97864100D01*
%TO.N,/SCL*%
X139550000Y-128310000D02*
X143360000Y-132120000D01*
X139550000Y-115701700D02*
X139550000Y-128310000D01*
X138000000Y-114151700D02*
X139550000Y-115701700D01*
X138000000Y-113575800D02*
X138000000Y-114151700D01*
X138000000Y-113575800D02*
X138000000Y-113000000D01*
X133421100Y-105939300D02*
X137833700Y-110351900D01*
X133421100Y-101921100D02*
X133421100Y-105939300D01*
X127500000Y-96000000D02*
X133421100Y-101921100D01*
X138000000Y-110518200D02*
X138000000Y-113000000D01*
X137833700Y-110351900D02*
X138000000Y-110518200D01*
X137833700Y-110351900D02*
X138000000Y-110518200D01*
%TO.N,/TX*%
X126850000Y-128310000D02*
X130660000Y-132120000D01*
X126850000Y-114120000D02*
X126850000Y-128310000D01*
X125730000Y-113000000D02*
X126850000Y-114120000D01*
%TO.N,/RX*%
X124141700Y-115103400D02*
X123190000Y-114151700D01*
X124141700Y-128141700D02*
X124141700Y-115103400D01*
X128120000Y-132120000D02*
X124141700Y-128141700D01*
X123190000Y-113000000D02*
X123190000Y-114151700D01*
%TO.N,Net-(D1-A)*%
X140000000Y-103397000D02*
X135702100Y-99099100D01*
X140000000Y-103620000D02*
X140000000Y-103397000D01*
%TO.N,Net-(U2-VI)*%
X116000000Y-101235100D02*
X116000000Y-108000000D01*
X114817200Y-100052300D02*
X116000000Y-101235100D01*
X114817200Y-93370500D02*
X114817200Y-100052300D01*
X104946700Y-83500000D02*
X114817200Y-93370500D01*
%TO.N,/RST*%
X118815600Y-86315600D02*
X118815600Y-98000000D01*
X118000000Y-85500000D02*
X118815600Y-86315600D01*
X118815600Y-98000000D02*
X117500000Y-98000000D01*
X118815600Y-100574400D02*
X121861200Y-103620000D01*
X118815600Y-98000000D02*
X118815600Y-100574400D01*
X121861200Y-128401200D02*
X125580000Y-132120000D01*
X121861200Y-103620000D02*
X121861200Y-128401200D01*
X121861200Y-103620000D02*
X122500000Y-103620000D01*
%TO.N,VCC*%
X116889300Y-84610700D02*
X118000000Y-83500000D01*
X116889300Y-92889300D02*
X116889300Y-84610700D01*
X117500000Y-93500000D02*
X116889300Y-92889300D01*
X111000000Y-93900000D02*
X111000000Y-93500000D01*
X107751500Y-97148500D02*
X111000000Y-93900000D01*
X107751500Y-114388500D02*
X107751500Y-97148500D01*
X105260000Y-116880000D02*
X107751500Y-114388500D01*
X134875000Y-102495000D02*
X136000000Y-103620000D01*
X134875000Y-86625000D02*
X134875000Y-102495000D01*
X135000000Y-86500000D02*
X134875000Y-86625000D01*
X130810000Y-106930000D02*
X127500000Y-103620000D01*
X130810000Y-113000000D02*
X130810000Y-106930000D01*
%TO.N,/XTAL2*%
X149710000Y-130850000D02*
X148440000Y-132120000D01*
X149710000Y-87850000D02*
X149710000Y-130850000D01*
X152500000Y-85060000D02*
X149710000Y-87850000D01*
%TO.N,GND*%
X113000000Y-111000000D02*
X113000000Y-112700000D01*
X110000000Y-108000000D02*
X113000000Y-111000000D01*
X153000000Y-109960000D02*
X153000000Y-112500000D01*
X104460000Y-85986700D02*
X104946700Y-85500000D01*
X104460000Y-96000000D02*
X104460000Y-85986700D01*
X153000000Y-107420000D02*
X153000000Y-109960000D01*
X154634700Y-115286400D02*
X153000000Y-113651700D01*
X154634700Y-131005300D02*
X154634700Y-115286400D01*
X153520000Y-132120000D02*
X154634700Y-131005300D01*
X153000000Y-112500000D02*
X153000000Y-113651700D01*
X122500000Y-85500000D02*
X122500000Y-96000000D01*
X124000000Y-84000000D02*
X122500000Y-85500000D01*
X125642400Y-110372400D02*
X128270000Y-113000000D01*
X125642400Y-99142400D02*
X125642400Y-110372400D01*
X122500000Y-96000000D02*
X125642400Y-99142400D01*
%TO.N,/XTAL1*%
X151824200Y-90615800D02*
X152500000Y-89940000D01*
X151824200Y-114847600D02*
X151824200Y-90615800D01*
X152158000Y-115181400D02*
X151824200Y-114847600D01*
X152158000Y-130942000D02*
X152158000Y-115181400D01*
X150980000Y-132120000D02*
X152158000Y-130942000D01*
%TD*%
%TA.AperFunction,Conductor*%
%TO.N,GND*%
G36*
X104174750Y-82020185D02*
G01*
X104220505Y-82072989D01*
X104230449Y-82142147D01*
X104201424Y-82205703D01*
X104146717Y-82242205D01*
X104077369Y-82265185D01*
X104077366Y-82265186D01*
X104077363Y-82265187D01*
X103928042Y-82357289D01*
X103803989Y-82481342D01*
X103711887Y-82630663D01*
X103711886Y-82630666D01*
X103656701Y-82797203D01*
X103656701Y-82797204D01*
X103656700Y-82797204D01*
X103646200Y-82899983D01*
X103646200Y-84100001D01*
X103646201Y-84100018D01*
X103656700Y-84202796D01*
X103656701Y-84202799D01*
X103711885Y-84369331D01*
X103711887Y-84369336D01*
X103730801Y-84400000D01*
X103791999Y-84499219D01*
X103803989Y-84518657D01*
X103873210Y-84587878D01*
X103906695Y-84649201D01*
X103901711Y-84718893D01*
X103885848Y-84748444D01*
X103834839Y-84818651D01*
X103741944Y-85000968D01*
X103678709Y-85195582D01*
X103646700Y-85397682D01*
X103646700Y-85602317D01*
X103678709Y-85804417D01*
X103741944Y-85999031D01*
X103834841Y-86181350D01*
X103834847Y-86181359D01*
X103867223Y-86225921D01*
X103867224Y-86225922D01*
X104546700Y-85546446D01*
X104546700Y-85552661D01*
X104573959Y-85654394D01*
X104626620Y-85745606D01*
X104701094Y-85820080D01*
X104792306Y-85872741D01*
X104894039Y-85900000D01*
X104900253Y-85900000D01*
X104220776Y-86579474D01*
X104265350Y-86611859D01*
X104447668Y-86704755D01*
X104642282Y-86767990D01*
X104844383Y-86800000D01*
X105049017Y-86800000D01*
X105251117Y-86767990D01*
X105445731Y-86704755D01*
X105628049Y-86611859D01*
X105672621Y-86579474D01*
X104993147Y-85900000D01*
X104999361Y-85900000D01*
X105101094Y-85872741D01*
X105192306Y-85820080D01*
X105266780Y-85745606D01*
X105319441Y-85654394D01*
X105346700Y-85552661D01*
X105346700Y-85546447D01*
X106026174Y-86225921D01*
X106058559Y-86181349D01*
X106151454Y-85999031D01*
X106198067Y-85855576D01*
X106237505Y-85797901D01*
X106301864Y-85770703D01*
X106370710Y-85782618D01*
X106403679Y-85806214D01*
X114180381Y-93582916D01*
X114213866Y-93644239D01*
X114216700Y-93670597D01*
X114216700Y-99472534D01*
X114197015Y-99539573D01*
X114195802Y-99541425D01*
X114107809Y-99673114D01*
X114107802Y-99673127D01*
X114047464Y-99818798D01*
X114047461Y-99818810D01*
X114016700Y-99973453D01*
X114016700Y-100131146D01*
X114047461Y-100285789D01*
X114047464Y-100285801D01*
X114107802Y-100431472D01*
X114107809Y-100431485D01*
X114195410Y-100562588D01*
X114195413Y-100562592D01*
X114306907Y-100674086D01*
X114306911Y-100674089D01*
X114438014Y-100761690D01*
X114438027Y-100761697D01*
X114583698Y-100822035D01*
X114583703Y-100822037D01*
X114648347Y-100834895D01*
X114739049Y-100852938D01*
X114800960Y-100885323D01*
X114802539Y-100886874D01*
X115363181Y-101447516D01*
X115396666Y-101508839D01*
X115399500Y-101535197D01*
X115399500Y-105625500D01*
X115379815Y-105692539D01*
X115327011Y-105738294D01*
X115275500Y-105749500D01*
X114202129Y-105749500D01*
X114202123Y-105749501D01*
X114142516Y-105755908D01*
X114007671Y-105806202D01*
X114007664Y-105806206D01*
X113892455Y-105892452D01*
X113892452Y-105892455D01*
X113806206Y-106007664D01*
X113806202Y-106007671D01*
X113755908Y-106142517D01*
X113749501Y-106202116D01*
X113749500Y-106202129D01*
X113749500Y-109797870D01*
X113749501Y-109797876D01*
X113755908Y-109857483D01*
X113806202Y-109992328D01*
X113806206Y-109992335D01*
X113892452Y-110107544D01*
X113892455Y-110107547D01*
X114007664Y-110193793D01*
X114007673Y-110193798D01*
X114056506Y-110212011D01*
X114112440Y-110253881D01*
X114136858Y-110319345D01*
X114122007Y-110387618D01*
X114072603Y-110437024D01*
X114006598Y-110452018D01*
X113968625Y-110450001D01*
X113968579Y-110450000D01*
X113250000Y-110450000D01*
X113250000Y-112200000D01*
X112750000Y-112200000D01*
X112750000Y-110450000D01*
X112031423Y-110450000D01*
X112031411Y-110450001D01*
X111978808Y-110452794D01*
X111749012Y-110497237D01*
X111530024Y-110579879D01*
X111328158Y-110698339D01*
X111328151Y-110698344D01*
X111149213Y-110849211D01*
X111149211Y-110849213D01*
X110998344Y-111028151D01*
X110998339Y-111028158D01*
X110879879Y-111230024D01*
X110797237Y-111449012D01*
X110752794Y-111678808D01*
X110752794Y-111678809D01*
X110750001Y-111731382D01*
X110750000Y-111731421D01*
X110750000Y-112450000D01*
X111566988Y-112450000D01*
X111534075Y-112507007D01*
X111500000Y-112634174D01*
X111500000Y-112765826D01*
X111534075Y-112892993D01*
X111566988Y-112950000D01*
X110750001Y-112950000D01*
X110750001Y-113668588D01*
X110752794Y-113721191D01*
X110797237Y-113950987D01*
X110879879Y-114169975D01*
X110998339Y-114371841D01*
X110998344Y-114371848D01*
X111149211Y-114550786D01*
X111149213Y-114550788D01*
X111328151Y-114701655D01*
X111328158Y-114701660D01*
X111530024Y-114820120D01*
X111749012Y-114902762D01*
X111978809Y-114947205D01*
X112031382Y-114949998D01*
X112031421Y-114949999D01*
X112749999Y-114949999D01*
X112750000Y-114949998D01*
X112750000Y-113200000D01*
X113250000Y-113200000D01*
X113250000Y-114949999D01*
X113968576Y-114949999D01*
X113968588Y-114949998D01*
X114021191Y-114947205D01*
X114250987Y-114902762D01*
X114469975Y-114820120D01*
X114671841Y-114701660D01*
X114671848Y-114701655D01*
X114850786Y-114550788D01*
X114850788Y-114550786D01*
X115001655Y-114371848D01*
X115001660Y-114371841D01*
X115120120Y-114169975D01*
X115202762Y-113950987D01*
X115247205Y-113721191D01*
X115247205Y-113721190D01*
X115249998Y-113668617D01*
X115250000Y-113668578D01*
X115250000Y-112950000D01*
X114433012Y-112950000D01*
X114465925Y-112892993D01*
X114500000Y-112765826D01*
X114500000Y-112634174D01*
X114465925Y-112507007D01*
X114433012Y-112450000D01*
X115249999Y-112450000D01*
X115249999Y-111731423D01*
X115249998Y-111731411D01*
X115247205Y-111678808D01*
X115202762Y-111449012D01*
X115120120Y-111230024D01*
X115001660Y-111028158D01*
X115001655Y-111028151D01*
X114850788Y-110849213D01*
X114850786Y-110849211D01*
X114671848Y-110698344D01*
X114671841Y-110698339D01*
X114469975Y-110579879D01*
X114250984Y-110497236D01*
X114245840Y-110496241D01*
X114183760Y-110464180D01*
X114148869Y-110403646D01*
X114152244Y-110333858D01*
X114192814Y-110276973D01*
X114257697Y-110251052D01*
X114269374Y-110250499D01*
X117797872Y-110250499D01*
X117857483Y-110244091D01*
X117992331Y-110193796D01*
X118107546Y-110107546D01*
X118193796Y-109992331D01*
X118244091Y-109857483D01*
X118250500Y-109797873D01*
X118250499Y-106202128D01*
X118244091Y-106142517D01*
X118229442Y-106103242D01*
X118193797Y-106007671D01*
X118193793Y-106007664D01*
X118107547Y-105892455D01*
X118107544Y-105892452D01*
X117992335Y-105806206D01*
X117992328Y-105806202D01*
X117857482Y-105755908D01*
X117857483Y-105755908D01*
X117797883Y-105749501D01*
X117797881Y-105749500D01*
X117797873Y-105749500D01*
X117797865Y-105749500D01*
X116724500Y-105749500D01*
X116657461Y-105729815D01*
X116611706Y-105677011D01*
X116600500Y-105625500D01*
X116600500Y-101324160D01*
X116600501Y-101324147D01*
X116600501Y-101156045D01*
X116600501Y-101156043D01*
X116559577Y-101003315D01*
X116480520Y-100866384D01*
X115651773Y-100037637D01*
X115618288Y-99976314D01*
X115617837Y-99974147D01*
X115603038Y-99899747D01*
X115586937Y-99818803D01*
X115586935Y-99818798D01*
X115526597Y-99673127D01*
X115526590Y-99673114D01*
X115438598Y-99541425D01*
X115417720Y-99474747D01*
X115417700Y-99472534D01*
X115417700Y-93459559D01*
X115417701Y-93459546D01*
X115417701Y-93291445D01*
X115417701Y-93291443D01*
X115376777Y-93138715D01*
X115347839Y-93088595D01*
X115297720Y-93001784D01*
X115185916Y-92889980D01*
X115185915Y-92889979D01*
X115181585Y-92885649D01*
X115181574Y-92885639D01*
X106283518Y-83987583D01*
X106250033Y-83926260D01*
X106247199Y-83899902D01*
X106247199Y-82899998D01*
X106247198Y-82899981D01*
X106236699Y-82797203D01*
X106236698Y-82797200D01*
X106215096Y-82732009D01*
X106181514Y-82630666D01*
X106089412Y-82481344D01*
X105965356Y-82357288D01*
X105816034Y-82265186D01*
X105746683Y-82242205D01*
X105689239Y-82202433D01*
X105662416Y-82137917D01*
X105674731Y-82069142D01*
X105722274Y-82017942D01*
X105785688Y-82000500D01*
X111661011Y-82000500D01*
X111728050Y-82020185D01*
X111773805Y-82072989D01*
X111783749Y-82142147D01*
X111754724Y-82205703D01*
X111700017Y-82242205D01*
X111630669Y-82265185D01*
X111630666Y-82265186D01*
X111630663Y-82265187D01*
X111481342Y-82357289D01*
X111357289Y-82481342D01*
X111265187Y-82630663D01*
X111265186Y-82630666D01*
X111210001Y-82797203D01*
X111210001Y-82797204D01*
X111210000Y-82797204D01*
X111199500Y-82899983D01*
X111199500Y-84100001D01*
X111199501Y-84100018D01*
X111210000Y-84202796D01*
X111210001Y-84202799D01*
X111265185Y-84369331D01*
X111265187Y-84369336D01*
X111284101Y-84400000D01*
X111345299Y-84499219D01*
X111357289Y-84518657D01*
X111426510Y-84587878D01*
X111459995Y-84649201D01*
X111455011Y-84718893D01*
X111439148Y-84748444D01*
X111388139Y-84818651D01*
X111295244Y-85000968D01*
X111232009Y-85195582D01*
X111200000Y-85397682D01*
X111200000Y-85602317D01*
X111232009Y-85804417D01*
X111295244Y-85999031D01*
X111388141Y-86181350D01*
X111388147Y-86181359D01*
X111420523Y-86225921D01*
X111420524Y-86225922D01*
X112100000Y-85546446D01*
X112100000Y-85552661D01*
X112127259Y-85654394D01*
X112179920Y-85745606D01*
X112254394Y-85820080D01*
X112345606Y-85872741D01*
X112447339Y-85900000D01*
X112453553Y-85900000D01*
X111774076Y-86579474D01*
X111818650Y-86611859D01*
X112000968Y-86704755D01*
X112195582Y-86767990D01*
X112397683Y-86800000D01*
X112602317Y-86800000D01*
X112804417Y-86767990D01*
X112999031Y-86704755D01*
X113181349Y-86611859D01*
X113225921Y-86579474D01*
X112546447Y-85900000D01*
X112552661Y-85900000D01*
X112654394Y-85872741D01*
X112745606Y-85820080D01*
X112820080Y-85745606D01*
X112872741Y-85654394D01*
X112900000Y-85552661D01*
X112900000Y-85546447D01*
X113579474Y-86225921D01*
X113611859Y-86181349D01*
X113704755Y-85999031D01*
X113767990Y-85804417D01*
X113800000Y-85602317D01*
X113800000Y-85397682D01*
X113767990Y-85195582D01*
X113704755Y-85000968D01*
X113611857Y-84818646D01*
X113560853Y-84748446D01*
X113537372Y-84682640D01*
X113553197Y-84614586D01*
X113573489Y-84587879D01*
X113581398Y-84579970D01*
X113642712Y-84518656D01*
X113734814Y-84369334D01*
X113789999Y-84202797D01*
X113800500Y-84100009D01*
X113800499Y-82899992D01*
X113799288Y-82888141D01*
X113789999Y-82797203D01*
X113789998Y-82797200D01*
X113768396Y-82732009D01*
X113734814Y-82630666D01*
X113642712Y-82481344D01*
X113518656Y-82357288D01*
X113369334Y-82265186D01*
X113299983Y-82242205D01*
X113242539Y-82202433D01*
X113215716Y-82137917D01*
X113228031Y-82069142D01*
X113275574Y-82017942D01*
X113338988Y-82000500D01*
X117161011Y-82000500D01*
X117228050Y-82020185D01*
X117273805Y-82072989D01*
X117283749Y-82142147D01*
X117254724Y-82205703D01*
X117200017Y-82242205D01*
X117130669Y-82265185D01*
X117130666Y-82265186D01*
X117130663Y-82265187D01*
X116981342Y-82357289D01*
X116857289Y-82481342D01*
X116765187Y-82630663D01*
X116765186Y-82630666D01*
X116710001Y-82797203D01*
X116710001Y-82797204D01*
X116710000Y-82797204D01*
X116699500Y-82899983D01*
X116699500Y-83899902D01*
X116679815Y-83966941D01*
X116663181Y-83987583D01*
X116408781Y-84241982D01*
X116408779Y-84241984D01*
X116386042Y-84281366D01*
X116376432Y-84298013D01*
X116363692Y-84320080D01*
X116333288Y-84372741D01*
X116329723Y-84378915D01*
X116288799Y-84531643D01*
X116288799Y-84531645D01*
X116288799Y-84699746D01*
X116288800Y-84699759D01*
X116288800Y-92573980D01*
X116269115Y-92641019D01*
X116265118Y-92646865D01*
X116216659Y-92713563D01*
X116109433Y-92924003D01*
X116036446Y-93148631D01*
X115999500Y-93381902D01*
X115999500Y-93618097D01*
X116036446Y-93851368D01*
X116109433Y-94075996D01*
X116216657Y-94286433D01*
X116355483Y-94477510D01*
X116522490Y-94644517D01*
X116713567Y-94783343D01*
X116761294Y-94807661D01*
X116924003Y-94890566D01*
X116924005Y-94890566D01*
X116924008Y-94890568D01*
X117016200Y-94920523D01*
X117148631Y-94963553D01*
X117381903Y-95000500D01*
X117381908Y-95000500D01*
X117618097Y-95000500D01*
X117851368Y-94963553D01*
X118052783Y-94898108D01*
X118122622Y-94896114D01*
X118182455Y-94932194D01*
X118213284Y-94994895D01*
X118215100Y-95016040D01*
X118215100Y-96483959D01*
X118195415Y-96550998D01*
X118142611Y-96596753D01*
X118073453Y-96606697D01*
X118052782Y-96601890D01*
X117851370Y-96536447D01*
X117618097Y-96499500D01*
X117618092Y-96499500D01*
X117381908Y-96499500D01*
X117381903Y-96499500D01*
X117148631Y-96536446D01*
X116924003Y-96609433D01*
X116713566Y-96716657D01*
X116604550Y-96795862D01*
X116522490Y-96855483D01*
X116522488Y-96855485D01*
X116522487Y-96855485D01*
X116430129Y-96947844D01*
X116355483Y-97022490D01*
X116280350Y-97125902D01*
X116216657Y-97213566D01*
X116109433Y-97424003D01*
X116036446Y-97648631D01*
X115999500Y-97881902D01*
X115999500Y-98118097D01*
X116036446Y-98351368D01*
X116109433Y-98575996D01*
X116190600Y-98735294D01*
X116216657Y-98786433D01*
X116355483Y-98977510D01*
X116522490Y-99144517D01*
X116713567Y-99283343D01*
X116780206Y-99317297D01*
X116924003Y-99390566D01*
X116924005Y-99390566D01*
X116924008Y-99390568D01*
X117044412Y-99429689D01*
X117148631Y-99463553D01*
X117381903Y-99500500D01*
X117381908Y-99500500D01*
X117618097Y-99500500D01*
X117851368Y-99463553D01*
X118052783Y-99398108D01*
X118122622Y-99396114D01*
X118182455Y-99432194D01*
X118213284Y-99494895D01*
X118215100Y-99516040D01*
X118215100Y-100487730D01*
X118215099Y-100487748D01*
X118215099Y-100653454D01*
X118215098Y-100653454D01*
X118229906Y-100708716D01*
X118256023Y-100806185D01*
X118265175Y-100822037D01*
X118284958Y-100856300D01*
X118284959Y-100856304D01*
X118284960Y-100856304D01*
X118335079Y-100943114D01*
X118335081Y-100943117D01*
X118453949Y-101061985D01*
X118453955Y-101061990D01*
X121187040Y-103795075D01*
X121219743Y-103853028D01*
X121221008Y-103858152D01*
X121231523Y-103924534D01*
X121256014Y-103999909D01*
X121257084Y-104004242D01*
X121256848Y-104009652D01*
X121260700Y-104033970D01*
X121260700Y-115605661D01*
X121241015Y-115672700D01*
X121188211Y-115718455D01*
X121119053Y-115728399D01*
X121080405Y-115716146D01*
X120999223Y-115674782D01*
X120999222Y-115674781D01*
X120999219Y-115674780D01*
X120915180Y-115647474D01*
X120804534Y-115611522D01*
X120629995Y-115583878D01*
X120602352Y-115579500D01*
X120397648Y-115579500D01*
X120373329Y-115583351D01*
X120195465Y-115611522D01*
X120000776Y-115674781D01*
X119818386Y-115767715D01*
X119652786Y-115888028D01*
X119508028Y-116032786D01*
X119387715Y-116198386D01*
X119340485Y-116291080D01*
X119292510Y-116341876D01*
X119224689Y-116358671D01*
X119158554Y-116336134D01*
X119119515Y-116291080D01*
X119118883Y-116289840D01*
X119072287Y-116198390D01*
X119064556Y-116187749D01*
X118951971Y-116032786D01*
X118807213Y-115888028D01*
X118641613Y-115767715D01*
X118641612Y-115767714D01*
X118641610Y-115767713D01*
X118564452Y-115728399D01*
X118459223Y-115674781D01*
X118264534Y-115611522D01*
X118089995Y-115583878D01*
X118062352Y-115579500D01*
X117857648Y-115579500D01*
X117833329Y-115583351D01*
X117655465Y-115611522D01*
X117460776Y-115674781D01*
X117278386Y-115767715D01*
X117112786Y-115888028D01*
X116968028Y-116032786D01*
X116847715Y-116198386D01*
X116800485Y-116291080D01*
X116752510Y-116341876D01*
X116684689Y-116358671D01*
X116618554Y-116336134D01*
X116579515Y-116291080D01*
X116578883Y-116289840D01*
X116532287Y-116198390D01*
X116524556Y-116187749D01*
X116411971Y-116032786D01*
X116267213Y-115888028D01*
X116101613Y-115767715D01*
X116101612Y-115767714D01*
X116101610Y-115767713D01*
X116024452Y-115728399D01*
X115919223Y-115674781D01*
X115724534Y-115611522D01*
X115549995Y-115583878D01*
X115522352Y-115579500D01*
X115317648Y-115579500D01*
X115293329Y-115583351D01*
X115115465Y-115611522D01*
X114920776Y-115674781D01*
X114738386Y-115767715D01*
X114572786Y-115888028D01*
X114428028Y-116032786D01*
X114307715Y-116198386D01*
X114260485Y-116291080D01*
X114212510Y-116341876D01*
X114144689Y-116358671D01*
X114078554Y-116336134D01*
X114039515Y-116291080D01*
X114038883Y-116289840D01*
X113992287Y-116198390D01*
X113984556Y-116187749D01*
X113871971Y-116032786D01*
X113727213Y-115888028D01*
X113561613Y-115767715D01*
X113561612Y-115767714D01*
X113561610Y-115767713D01*
X113484452Y-115728399D01*
X113379223Y-115674781D01*
X113184534Y-115611522D01*
X113009995Y-115583878D01*
X112982352Y-115579500D01*
X112777648Y-115579500D01*
X112753329Y-115583351D01*
X112575465Y-115611522D01*
X112380776Y-115674781D01*
X112198386Y-115767715D01*
X112032786Y-115888028D01*
X111888028Y-116032786D01*
X111767715Y-116198386D01*
X111720485Y-116291080D01*
X111672510Y-116341876D01*
X111604689Y-116358671D01*
X111538554Y-116336134D01*
X111499515Y-116291080D01*
X111498883Y-116289840D01*
X111452287Y-116198390D01*
X111444556Y-116187749D01*
X111331971Y-116032786D01*
X111187213Y-115888028D01*
X111021613Y-115767715D01*
X111021612Y-115767714D01*
X111021610Y-115767713D01*
X110944452Y-115728399D01*
X110839223Y-115674781D01*
X110644534Y-115611522D01*
X110469995Y-115583878D01*
X110442352Y-115579500D01*
X110237648Y-115579500D01*
X110213329Y-115583351D01*
X110035465Y-115611522D01*
X109840776Y-115674781D01*
X109658386Y-115767715D01*
X109492786Y-115888028D01*
X109348028Y-116032786D01*
X109227715Y-116198386D01*
X109180485Y-116291080D01*
X109132510Y-116341876D01*
X109064689Y-116358671D01*
X108998554Y-116336134D01*
X108959515Y-116291080D01*
X108958883Y-116289840D01*
X108912287Y-116198390D01*
X108904556Y-116187749D01*
X108791971Y-116032786D01*
X108647213Y-115888028D01*
X108481613Y-115767715D01*
X108481612Y-115767714D01*
X108481610Y-115767713D01*
X108404452Y-115728399D01*
X108299223Y-115674781D01*
X108104534Y-115611522D01*
X107929995Y-115583878D01*
X107902352Y-115579500D01*
X107709096Y-115579500D01*
X107642057Y-115559815D01*
X107596302Y-115507011D01*
X107586358Y-115437853D01*
X107615383Y-115374297D01*
X107621415Y-115367819D01*
X107806777Y-115182457D01*
X108110006Y-114879228D01*
X108110011Y-114879224D01*
X108120214Y-114869020D01*
X108120216Y-114869020D01*
X108232020Y-114757216D01*
X108302475Y-114635184D01*
X108306010Y-114629061D01*
X108306011Y-114629058D01*
X108306012Y-114629057D01*
X108311077Y-114620285D01*
X108352000Y-114467557D01*
X108352000Y-114309443D01*
X108352000Y-110135299D01*
X108371685Y-110068260D01*
X108424489Y-110022505D01*
X108493647Y-110012561D01*
X108546616Y-110033371D01*
X108630619Y-110091568D01*
X108630625Y-110091571D01*
X108835480Y-110184622D01*
X109053667Y-110239599D01*
X109185810Y-110249999D01*
X109749999Y-110249999D01*
X109750000Y-110249998D01*
X109750000Y-109433012D01*
X109807007Y-109465925D01*
X109934174Y-109500000D01*
X110065826Y-109500000D01*
X110192993Y-109465925D01*
X110250000Y-109433012D01*
X110250000Y-110249999D01*
X110814182Y-110249999D01*
X110814197Y-110249998D01*
X110946332Y-110239599D01*
X111164519Y-110184622D01*
X111369374Y-110091571D01*
X111369380Y-110091568D01*
X111554323Y-109963440D01*
X111554335Y-109963430D01*
X111713430Y-109804335D01*
X111713440Y-109804323D01*
X111841568Y-109619380D01*
X111841571Y-109619374D01*
X111934622Y-109414519D01*
X111989599Y-109196332D01*
X111999999Y-109064196D01*
X112000000Y-109064184D01*
X112000000Y-108250000D01*
X110500000Y-108250000D01*
X110500000Y-107750000D01*
X111999999Y-107750000D01*
X111999999Y-106935817D01*
X111999998Y-106935802D01*
X111989599Y-106803667D01*
X111934622Y-106585480D01*
X111841571Y-106380625D01*
X111841568Y-106380619D01*
X111713440Y-106195676D01*
X111713430Y-106195664D01*
X111554335Y-106036569D01*
X111554323Y-106036559D01*
X111369380Y-105908431D01*
X111369374Y-105908428D01*
X111164519Y-105815377D01*
X110946332Y-105760400D01*
X110814196Y-105750000D01*
X110250000Y-105750000D01*
X110250000Y-106566988D01*
X110192993Y-106534075D01*
X110065826Y-106500000D01*
X109934174Y-106500000D01*
X109807007Y-106534075D01*
X109750000Y-106566988D01*
X109750000Y-105750000D01*
X109185817Y-105750000D01*
X109185802Y-105750001D01*
X109053667Y-105760400D01*
X108835480Y-105815377D01*
X108630625Y-105908428D01*
X108630621Y-105908430D01*
X108546615Y-105966629D01*
X108480298Y-105988625D01*
X108412617Y-105971277D01*
X108365059Y-105920090D01*
X108352000Y-105864700D01*
X108352000Y-97881902D01*
X109499500Y-97881902D01*
X109499500Y-98118097D01*
X109536446Y-98351368D01*
X109609433Y-98575996D01*
X109690600Y-98735294D01*
X109716657Y-98786433D01*
X109855483Y-98977510D01*
X110022490Y-99144517D01*
X110213567Y-99283343D01*
X110280206Y-99317297D01*
X110424003Y-99390566D01*
X110424005Y-99390566D01*
X110424008Y-99390568D01*
X110544412Y-99429689D01*
X110648631Y-99463553D01*
X110881903Y-99500500D01*
X110881908Y-99500500D01*
X111118097Y-99500500D01*
X111351368Y-99463553D01*
X111575992Y-99390568D01*
X111786433Y-99283343D01*
X111977510Y-99144517D01*
X112144517Y-98977510D01*
X112283343Y-98786433D01*
X112390568Y-98575992D01*
X112463553Y-98351368D01*
X112490136Y-98183529D01*
X112500500Y-98118097D01*
X112500500Y-97881902D01*
X112463553Y-97648631D01*
X112390566Y-97424003D01*
X112327708Y-97300638D01*
X112283343Y-97213567D01*
X112144517Y-97022490D01*
X111977510Y-96855483D01*
X111786433Y-96716657D01*
X111575996Y-96609433D01*
X111351368Y-96536446D01*
X111118097Y-96499500D01*
X111118092Y-96499500D01*
X110881908Y-96499500D01*
X110881903Y-96499500D01*
X110648631Y-96536446D01*
X110424003Y-96609433D01*
X110213566Y-96716657D01*
X110104550Y-96795862D01*
X110022490Y-96855483D01*
X110022488Y-96855485D01*
X110022487Y-96855485D01*
X109930129Y-96947844D01*
X109855483Y-97022490D01*
X109780350Y-97125902D01*
X109716657Y-97213566D01*
X109609433Y-97424003D01*
X109536446Y-97648631D01*
X109499500Y-97881902D01*
X108352000Y-97881902D01*
X108352000Y-97448597D01*
X108371685Y-97381558D01*
X108388319Y-97360916D01*
X109503629Y-96245606D01*
X110722270Y-95026964D01*
X110783591Y-94993481D01*
X110829342Y-94992174D01*
X110881908Y-95000500D01*
X110881911Y-95000500D01*
X111118097Y-95000500D01*
X111351368Y-94963553D01*
X111430110Y-94937968D01*
X111575992Y-94890568D01*
X111580744Y-94888147D01*
X111640081Y-94857913D01*
X111786433Y-94783343D01*
X111977510Y-94644517D01*
X112144517Y-94477510D01*
X112283343Y-94286433D01*
X112390568Y-94075992D01*
X112463553Y-93851368D01*
X112500500Y-93618097D01*
X112500500Y-93381902D01*
X112463553Y-93148631D01*
X112390566Y-92924003D01*
X112283342Y-92713566D01*
X112283340Y-92713563D01*
X112144517Y-92522490D01*
X111977510Y-92355483D01*
X111786433Y-92216657D01*
X111575996Y-92109433D01*
X111351368Y-92036446D01*
X111118097Y-91999500D01*
X111118092Y-91999500D01*
X110881908Y-91999500D01*
X110881903Y-91999500D01*
X110648631Y-92036446D01*
X110424003Y-92109433D01*
X110213566Y-92216657D01*
X110104550Y-92295862D01*
X110022490Y-92355483D01*
X110022488Y-92355485D01*
X110022487Y-92355485D01*
X109855485Y-92522487D01*
X109855485Y-92522488D01*
X109855483Y-92522490D01*
X109818073Y-92573980D01*
X109716657Y-92713566D01*
X109609433Y-92924003D01*
X109536446Y-93148631D01*
X109499500Y-93381902D01*
X109499500Y-93618097D01*
X109536446Y-93851368D01*
X109609433Y-94075996D01*
X109691848Y-94237742D01*
X109704744Y-94306411D01*
X109678468Y-94371152D01*
X109669044Y-94381718D01*
X108512213Y-95538550D01*
X108450890Y-95572035D01*
X108381198Y-95567051D01*
X108325265Y-95525179D01*
X108306601Y-95489187D01*
X108297896Y-95462396D01*
X108297895Y-95462393D01*
X108263237Y-95394375D01*
X108197815Y-95265978D01*
X108115573Y-95152781D01*
X108068247Y-95087641D01*
X108068243Y-95087636D01*
X107912363Y-94931756D01*
X107912358Y-94931752D01*
X107734025Y-94802187D01*
X107734024Y-94802186D01*
X107734022Y-94802185D01*
X107671096Y-94770122D01*
X107537606Y-94702104D01*
X107537603Y-94702103D01*
X107327952Y-94633985D01*
X107219086Y-94616742D01*
X107110222Y-94599500D01*
X106889778Y-94599500D01*
X106817201Y-94610995D01*
X106672047Y-94633985D01*
X106462396Y-94702103D01*
X106462393Y-94702104D01*
X106265974Y-94802187D01*
X106087641Y-94931752D01*
X106087636Y-94931756D01*
X106037075Y-94982317D01*
X105975752Y-95015801D01*
X105906060Y-95010816D01*
X105850127Y-94968945D01*
X105833213Y-94937968D01*
X105803354Y-94857913D01*
X105803350Y-94857906D01*
X105717190Y-94742812D01*
X105717187Y-94742809D01*
X105602093Y-94656649D01*
X105602086Y-94656645D01*
X105467379Y-94606403D01*
X105467372Y-94606401D01*
X105407844Y-94600000D01*
X104710000Y-94600000D01*
X104710000Y-95624722D01*
X104633694Y-95580667D01*
X104519244Y-95550000D01*
X104400756Y-95550000D01*
X104286306Y-95580667D01*
X104210000Y-95624722D01*
X104210000Y-94600000D01*
X103512155Y-94600000D01*
X103452627Y-94606401D01*
X103452620Y-94606403D01*
X103317913Y-94656645D01*
X103317906Y-94656649D01*
X103202812Y-94742809D01*
X103202809Y-94742812D01*
X103116649Y-94857906D01*
X103116645Y-94857913D01*
X103066403Y-94992620D01*
X103066401Y-94992627D01*
X103060000Y-95052155D01*
X103060000Y-95750000D01*
X104084722Y-95750000D01*
X104040667Y-95826306D01*
X104010000Y-95940756D01*
X104010000Y-96059244D01*
X104040667Y-96173694D01*
X104084722Y-96250000D01*
X103060000Y-96250000D01*
X103060000Y-96947844D01*
X103066401Y-97007372D01*
X103066403Y-97007379D01*
X103116645Y-97142086D01*
X103116649Y-97142093D01*
X103202809Y-97257187D01*
X103202812Y-97257190D01*
X103317906Y-97343350D01*
X103317913Y-97343354D01*
X103452620Y-97393596D01*
X103452627Y-97393598D01*
X103512155Y-97399999D01*
X103512172Y-97400000D01*
X104210000Y-97400000D01*
X104210000Y-96375277D01*
X104286306Y-96419333D01*
X104400756Y-96450000D01*
X104519244Y-96450000D01*
X104633694Y-96419333D01*
X104710000Y-96375277D01*
X104710000Y-97400000D01*
X105407828Y-97400000D01*
X105407844Y-97399999D01*
X105467372Y-97393598D01*
X105467379Y-97393596D01*
X105602086Y-97343354D01*
X105602093Y-97343350D01*
X105717187Y-97257190D01*
X105717190Y-97257187D01*
X105803350Y-97142093D01*
X105803354Y-97142086D01*
X105833213Y-97062031D01*
X105875084Y-97006097D01*
X105940548Y-96981680D01*
X106008821Y-96996531D01*
X106037076Y-97017683D01*
X106087636Y-97068243D01*
X106087641Y-97068247D01*
X106204562Y-97153194D01*
X106265978Y-97197815D01*
X106377979Y-97254883D01*
X106462393Y-97297895D01*
X106462396Y-97297896D01*
X106567221Y-97331955D01*
X106672049Y-97366015D01*
X106889778Y-97400500D01*
X106889779Y-97400500D01*
X107027000Y-97400500D01*
X107094039Y-97420185D01*
X107139794Y-97472989D01*
X107151000Y-97524500D01*
X107151000Y-102909752D01*
X107131315Y-102976791D01*
X107078511Y-103022546D01*
X107009353Y-103032490D01*
X106945797Y-103003465D01*
X106912439Y-102957204D01*
X106881797Y-102883227D01*
X106881790Y-102883214D01*
X106794189Y-102752111D01*
X106794186Y-102752107D01*
X106682692Y-102640613D01*
X106682688Y-102640610D01*
X106551585Y-102553009D01*
X106551572Y-102553002D01*
X106405901Y-102492664D01*
X106405889Y-102492661D01*
X106251245Y-102461900D01*
X106251242Y-102461900D01*
X106093558Y-102461900D01*
X106093555Y-102461900D01*
X105938910Y-102492661D01*
X105938898Y-102492664D01*
X105793227Y-102553002D01*
X105793214Y-102553009D01*
X105662111Y-102640610D01*
X105662107Y-102640613D01*
X105550613Y-102752107D01*
X105550610Y-102752111D01*
X105463009Y-102883214D01*
X105463002Y-102883227D01*
X105402664Y-103028898D01*
X105402661Y-103028908D01*
X105371761Y-103184250D01*
X105339376Y-103246161D01*
X105337825Y-103247739D01*
X103631581Y-104953982D01*
X103631579Y-104953985D01*
X103581461Y-105040794D01*
X103581459Y-105040796D01*
X103552525Y-105090909D01*
X103552524Y-105090910D01*
X103552523Y-105090915D01*
X103511599Y-105243643D01*
X103511599Y-105243645D01*
X103511599Y-105411746D01*
X103511600Y-105411759D01*
X103511600Y-130885430D01*
X103511599Y-130885448D01*
X103511599Y-131051154D01*
X103511598Y-131051154D01*
X103511599Y-131051157D01*
X103552523Y-131203885D01*
X103579532Y-131250666D01*
X103631577Y-131340812D01*
X103631581Y-131340817D01*
X103750449Y-131459685D01*
X103750455Y-131459690D01*
X103923181Y-131632416D01*
X103956666Y-131693739D01*
X103959500Y-131720097D01*
X103959500Y-132720001D01*
X103959501Y-132720019D01*
X103970000Y-132822796D01*
X103970001Y-132822799D01*
X104025185Y-132989331D01*
X104025189Y-132989340D01*
X104082513Y-133082277D01*
X104100953Y-133149669D01*
X104080030Y-133216333D01*
X104026388Y-133261102D01*
X103976974Y-133271373D01*
X102574891Y-133271373D01*
X102507852Y-133251688D01*
X102462097Y-133198884D01*
X102450891Y-133147373D01*
X102450891Y-82124500D01*
X102470576Y-82057461D01*
X102523380Y-82011706D01*
X102574891Y-82000500D01*
X104107711Y-82000500D01*
X104174750Y-82020185D01*
G37*
%TD.AperFunction*%
%TA.AperFunction,Conductor*%
G36*
X153120000Y-132172661D02*
G01*
X153147259Y-132274394D01*
X153199920Y-132365606D01*
X153274394Y-132440080D01*
X153365606Y-132492741D01*
X153467339Y-132520000D01*
X153473553Y-132520000D01*
X152758497Y-133235054D01*
X152697174Y-133268539D01*
X152670816Y-133271373D01*
X151967174Y-133271373D01*
X151900135Y-133251688D01*
X151854380Y-133198884D01*
X151844436Y-133129726D01*
X151873461Y-133066170D01*
X151879493Y-133059692D01*
X151971966Y-132967219D01*
X151971968Y-132967215D01*
X151971971Y-132967213D01*
X152076894Y-132822797D01*
X152092287Y-132801610D01*
X152139795Y-132708369D01*
X152187769Y-132657573D01*
X152255590Y-132640778D01*
X152321725Y-132663315D01*
X152360765Y-132708369D01*
X152408141Y-132801350D01*
X152408147Y-132801359D01*
X152440523Y-132845921D01*
X152440524Y-132845922D01*
X153120000Y-132166446D01*
X153120000Y-132172661D01*
G37*
%TD.AperFunction*%
%TA.AperFunction,Conductor*%
G36*
X155942539Y-82020185D02*
G01*
X155988294Y-82072989D01*
X155999500Y-82124500D01*
X155999500Y-133147373D01*
X155979815Y-133214412D01*
X155927011Y-133260167D01*
X155875500Y-133271373D01*
X154369183Y-133271373D01*
X154302144Y-133251688D01*
X154281502Y-133235054D01*
X153566447Y-132520000D01*
X153572661Y-132520000D01*
X153674394Y-132492741D01*
X153765606Y-132440080D01*
X153840080Y-132365606D01*
X153892741Y-132274394D01*
X153920000Y-132172661D01*
X153920000Y-132166448D01*
X154599474Y-132845922D01*
X154599474Y-132845921D01*
X154631859Y-132801349D01*
X154724755Y-132619031D01*
X154787990Y-132424417D01*
X154820000Y-132222317D01*
X154820000Y-132017682D01*
X154787990Y-131815582D01*
X154724755Y-131620968D01*
X154631859Y-131438650D01*
X154599474Y-131394077D01*
X154599474Y-131394076D01*
X153920000Y-132073551D01*
X153920000Y-132067339D01*
X153892741Y-131965606D01*
X153840080Y-131874394D01*
X153765606Y-131799920D01*
X153674394Y-131747259D01*
X153572661Y-131720000D01*
X153566446Y-131720000D01*
X154245922Y-131040524D01*
X154245921Y-131040523D01*
X154201359Y-131008147D01*
X154201350Y-131008141D01*
X154019031Y-130915244D01*
X153824417Y-130852009D01*
X153622317Y-130820000D01*
X153417683Y-130820000D01*
X153215582Y-130852009D01*
X153020965Y-130915245D01*
X152938794Y-130957114D01*
X152870125Y-130970010D01*
X152805385Y-130943733D01*
X152765128Y-130886627D01*
X152758500Y-130846629D01*
X152758500Y-118153930D01*
X152778185Y-118086891D01*
X152830989Y-118041136D01*
X152900147Y-118031192D01*
X152938793Y-118043445D01*
X152965854Y-118057233D01*
X153020774Y-118085217D01*
X153020777Y-118085217D01*
X153020781Y-118085220D01*
X153134917Y-118122305D01*
X153215465Y-118148477D01*
X153249894Y-118153930D01*
X153417648Y-118180500D01*
X153417649Y-118180500D01*
X153622351Y-118180500D01*
X153622352Y-118180500D01*
X153824534Y-118148477D01*
X154019219Y-118085220D01*
X154201610Y-117992287D01*
X154294590Y-117924732D01*
X154367213Y-117871971D01*
X154367215Y-117871968D01*
X154367219Y-117871966D01*
X154511966Y-117727219D01*
X154511968Y-117727215D01*
X154511971Y-117727213D01*
X154564732Y-117654590D01*
X154632287Y-117561610D01*
X154725220Y-117379219D01*
X154788477Y-117184534D01*
X154820500Y-116982352D01*
X154820500Y-116777648D01*
X154788477Y-116575466D01*
X154725220Y-116380781D01*
X154725218Y-116380778D01*
X154725218Y-116380776D01*
X154679515Y-116291080D01*
X154632287Y-116198390D01*
X154624556Y-116187749D01*
X154511971Y-116032786D01*
X154367213Y-115888028D01*
X154201613Y-115767715D01*
X154201612Y-115767714D01*
X154201610Y-115767713D01*
X154124452Y-115728399D01*
X154019223Y-115674781D01*
X153824534Y-115611522D01*
X153649995Y-115583878D01*
X153622352Y-115579500D01*
X153417648Y-115579500D01*
X153393329Y-115583351D01*
X153215465Y-115611522D01*
X153020776Y-115674781D01*
X152938795Y-115716554D01*
X152870126Y-115729450D01*
X152805385Y-115703174D01*
X152765128Y-115646067D01*
X152758500Y-115606069D01*
X152758500Y-115102342D01*
X152752348Y-115079385D01*
X152752347Y-115079381D01*
X152737600Y-115024343D01*
X152717577Y-114949616D01*
X152672544Y-114871615D01*
X152638524Y-114812690D01*
X152638522Y-114812687D01*
X152638520Y-114812684D01*
X152526716Y-114700880D01*
X152526715Y-114700879D01*
X152522385Y-114696549D01*
X152522374Y-114696539D01*
X152461019Y-114635184D01*
X152427534Y-114573861D01*
X152424700Y-114547503D01*
X152424700Y-113974000D01*
X152444385Y-113906961D01*
X152497189Y-113861206D01*
X152548700Y-113850000D01*
X152750000Y-113850000D01*
X152750000Y-112933012D01*
X152807007Y-112965925D01*
X152934174Y-113000000D01*
X153065826Y-113000000D01*
X153192993Y-112965925D01*
X153250000Y-112933012D01*
X153250000Y-113850000D01*
X153897828Y-113850000D01*
X153897844Y-113849999D01*
X153957372Y-113843598D01*
X153957379Y-113843596D01*
X154092086Y-113793354D01*
X154092093Y-113793350D01*
X154207187Y-113707190D01*
X154207190Y-113707187D01*
X154293350Y-113592093D01*
X154293354Y-113592086D01*
X154343596Y-113457379D01*
X154343598Y-113457372D01*
X154349999Y-113397844D01*
X154350000Y-113397827D01*
X154350000Y-112750000D01*
X153433012Y-112750000D01*
X153465925Y-112692993D01*
X153500000Y-112565826D01*
X153500000Y-112434174D01*
X153465925Y-112307007D01*
X153433012Y-112250000D01*
X154350000Y-112250000D01*
X154350000Y-111602172D01*
X154349999Y-111602155D01*
X154343598Y-111542627D01*
X154343596Y-111542620D01*
X154293354Y-111407913D01*
X154293350Y-111407906D01*
X154207190Y-111292812D01*
X154207187Y-111292809D01*
X154092093Y-111206649D01*
X154092086Y-111206645D01*
X153957380Y-111156403D01*
X153957373Y-111156401D01*
X153874555Y-111147497D01*
X153874884Y-111144431D01*
X153857875Y-111145330D01*
X153798803Y-111112356D01*
X153129409Y-110442962D01*
X153192993Y-110425925D01*
X153307007Y-110360099D01*
X153400099Y-110267007D01*
X153465925Y-110152993D01*
X153482962Y-110089408D01*
X154115270Y-110721717D01*
X154115270Y-110721716D01*
X154154622Y-110667554D01*
X154251095Y-110478217D01*
X154316757Y-110276130D01*
X154316757Y-110276127D01*
X154350000Y-110066246D01*
X154350000Y-109853753D01*
X154316757Y-109643872D01*
X154316757Y-109643869D01*
X154251095Y-109441782D01*
X154154624Y-109252449D01*
X154115270Y-109198282D01*
X154115269Y-109198282D01*
X153482962Y-109830590D01*
X153465925Y-109767007D01*
X153400099Y-109652993D01*
X153307007Y-109559901D01*
X153192993Y-109494075D01*
X153129407Y-109477036D01*
X153761716Y-108844728D01*
X153707550Y-108805375D01*
X153697954Y-108800486D01*
X153647157Y-108752512D01*
X153630361Y-108684692D01*
X153652897Y-108618556D01*
X153697954Y-108579514D01*
X153707554Y-108574622D01*
X153761716Y-108535270D01*
X153761717Y-108535270D01*
X153129409Y-107902962D01*
X153192993Y-107885925D01*
X153307007Y-107820099D01*
X153400099Y-107727007D01*
X153465925Y-107612993D01*
X153482962Y-107549408D01*
X154115270Y-108181717D01*
X154115270Y-108181716D01*
X154154622Y-108127554D01*
X154251095Y-107938217D01*
X154316757Y-107736130D01*
X154316757Y-107736127D01*
X154350000Y-107526246D01*
X154350000Y-107313753D01*
X154316757Y-107103872D01*
X154316757Y-107103869D01*
X154251095Y-106901782D01*
X154154624Y-106712449D01*
X154115270Y-106658282D01*
X154115269Y-106658282D01*
X153482962Y-107290590D01*
X153465925Y-107227007D01*
X153400099Y-107112993D01*
X153307007Y-107019901D01*
X153192993Y-106954075D01*
X153129407Y-106937036D01*
X153761716Y-106304728D01*
X153707550Y-106265375D01*
X153518217Y-106168904D01*
X153316129Y-106103242D01*
X153106246Y-106070000D01*
X152893754Y-106070000D01*
X152683872Y-106103242D01*
X152683865Y-106103243D01*
X152587017Y-106134711D01*
X152517176Y-106136706D01*
X152457344Y-106100625D01*
X152426516Y-106037924D01*
X152424700Y-106016780D01*
X152424700Y-91314500D01*
X152444385Y-91247461D01*
X152497189Y-91201706D01*
X152548700Y-91190500D01*
X152598422Y-91190500D01*
X152792826Y-91159709D01*
X152980025Y-91098884D01*
X153155405Y-91009524D01*
X153314646Y-90893828D01*
X153453828Y-90754646D01*
X153569524Y-90595405D01*
X153658884Y-90420025D01*
X153719709Y-90232826D01*
X153750500Y-90038422D01*
X153750500Y-89841577D01*
X153719709Y-89647173D01*
X153658882Y-89459970D01*
X153569523Y-89284594D01*
X153453828Y-89125354D01*
X153314646Y-88986172D01*
X153155405Y-88870476D01*
X152980029Y-88781117D01*
X152792826Y-88720290D01*
X152598422Y-88689500D01*
X152598417Y-88689500D01*
X152401583Y-88689500D01*
X152401578Y-88689500D01*
X152207173Y-88720290D01*
X152019970Y-88781117D01*
X151844594Y-88870476D01*
X151753741Y-88936485D01*
X151685354Y-88986172D01*
X151685352Y-88986174D01*
X151685351Y-88986174D01*
X151546174Y-89125351D01*
X151546174Y-89125352D01*
X151546172Y-89125354D01*
X151496485Y-89193741D01*
X151430476Y-89284594D01*
X151341117Y-89459970D01*
X151280290Y-89647173D01*
X151249500Y-89841577D01*
X151249500Y-90038422D01*
X151280291Y-90232826D01*
X151280292Y-90232833D01*
X151289022Y-90259700D01*
X151291017Y-90329541D01*
X151278478Y-90360016D01*
X151264626Y-90384008D01*
X151264623Y-90384013D01*
X151254974Y-90420025D01*
X151223699Y-90536743D01*
X151223699Y-90536745D01*
X151223699Y-90704846D01*
X151223700Y-90704859D01*
X151223700Y-114760930D01*
X151223699Y-114760948D01*
X151223699Y-114926654D01*
X151223698Y-114926654D01*
X151264623Y-115079385D01*
X151277878Y-115102343D01*
X151343677Y-115216312D01*
X151343681Y-115216317D01*
X151462549Y-115335185D01*
X151462555Y-115335190D01*
X151521181Y-115393816D01*
X151554666Y-115455139D01*
X151557500Y-115481497D01*
X151557500Y-115529543D01*
X151537815Y-115596582D01*
X151485011Y-115642337D01*
X151415853Y-115652281D01*
X151395182Y-115647474D01*
X151284536Y-115611523D01*
X151122892Y-115585921D01*
X151082352Y-115579500D01*
X150877648Y-115579500D01*
X150837108Y-115585921D01*
X150675464Y-115611523D01*
X150675461Y-115611523D01*
X150476147Y-115676285D01*
X150475717Y-115674963D01*
X150412486Y-115681763D01*
X150350006Y-115650490D01*
X150314352Y-115590402D01*
X150310500Y-115559733D01*
X150310500Y-88150096D01*
X150330185Y-88083057D01*
X150346814Y-88062420D01*
X152095468Y-86313765D01*
X152156789Y-86280282D01*
X152202546Y-86278975D01*
X152207168Y-86279707D01*
X152207174Y-86279709D01*
X152324642Y-86298313D01*
X152401579Y-86310500D01*
X152401583Y-86310500D01*
X152598422Y-86310500D01*
X152792826Y-86279709D01*
X152795085Y-86278975D01*
X152980025Y-86218884D01*
X153155405Y-86129524D01*
X153314646Y-86013828D01*
X153453828Y-85874646D01*
X153569524Y-85715405D01*
X153658884Y-85540025D01*
X153719709Y-85352826D01*
X153727997Y-85300500D01*
X153750500Y-85158422D01*
X153750500Y-84961577D01*
X153719709Y-84767173D01*
X153681377Y-84649201D01*
X153658884Y-84579975D01*
X153658882Y-84579972D01*
X153658882Y-84579970D01*
X153569523Y-84404594D01*
X153453828Y-84245354D01*
X153314646Y-84106172D01*
X153155405Y-83990476D01*
X153109215Y-83966941D01*
X152980029Y-83901117D01*
X152792826Y-83840290D01*
X152598422Y-83809500D01*
X152598417Y-83809500D01*
X152401583Y-83809500D01*
X152401578Y-83809500D01*
X152207173Y-83840290D01*
X152019970Y-83901117D01*
X151844594Y-83990476D01*
X151759005Y-84052661D01*
X151685354Y-84106172D01*
X151685352Y-84106174D01*
X151685351Y-84106174D01*
X151546174Y-84245351D01*
X151546174Y-84245352D01*
X151546172Y-84245354D01*
X151545989Y-84245606D01*
X151430476Y-84404594D01*
X151341117Y-84579970D01*
X151280290Y-84767173D01*
X151249500Y-84961577D01*
X151249500Y-85158422D01*
X151281023Y-85357453D01*
X151272068Y-85426747D01*
X151246231Y-85464532D01*
X149341286Y-87369478D01*
X149229481Y-87481282D01*
X149229479Y-87481285D01*
X149179361Y-87568094D01*
X149179359Y-87568096D01*
X149150425Y-87618209D01*
X149150424Y-87618210D01*
X149150423Y-87618215D01*
X149109499Y-87770943D01*
X149109499Y-87770945D01*
X149109499Y-87939046D01*
X149109500Y-87939059D01*
X149109500Y-115559733D01*
X149089815Y-115626772D01*
X149037011Y-115672527D01*
X148967853Y-115682471D01*
X148943971Y-115675919D01*
X148943853Y-115676285D01*
X148744536Y-115611523D01*
X148582892Y-115585921D01*
X148542352Y-115579500D01*
X148337648Y-115579500D01*
X148313329Y-115583351D01*
X148135465Y-115611522D01*
X147940776Y-115674781D01*
X147758386Y-115767715D01*
X147592786Y-115888028D01*
X147448028Y-116032786D01*
X147327715Y-116198386D01*
X147280485Y-116291080D01*
X147232510Y-116341876D01*
X147164689Y-116358671D01*
X147098554Y-116336134D01*
X147059515Y-116291080D01*
X147058883Y-116289840D01*
X147012287Y-116198390D01*
X147004556Y-116187749D01*
X146891971Y-116032786D01*
X146747213Y-115888028D01*
X146581613Y-115767715D01*
X146581612Y-115767714D01*
X146581610Y-115767713D01*
X146504452Y-115728399D01*
X146399223Y-115674781D01*
X146204534Y-115611522D01*
X146029995Y-115583878D01*
X146002352Y-115579500D01*
X145797648Y-115579500D01*
X145773329Y-115583351D01*
X145595465Y-115611522D01*
X145400776Y-115674781D01*
X145218386Y-115767715D01*
X145052786Y-115888028D01*
X144908028Y-116032786D01*
X144787715Y-116198386D01*
X144740485Y-116291080D01*
X144692510Y-116341876D01*
X144624689Y-116358671D01*
X144558554Y-116336134D01*
X144519515Y-116291080D01*
X144518883Y-116289840D01*
X144472287Y-116198390D01*
X144464556Y-116187749D01*
X144351971Y-116032786D01*
X144207213Y-115888028D01*
X144041613Y-115767715D01*
X144041612Y-115767714D01*
X144041610Y-115767713D01*
X143964452Y-115728399D01*
X143859223Y-115674781D01*
X143664534Y-115611522D01*
X143489995Y-115583878D01*
X143462352Y-115579500D01*
X143257648Y-115579500D01*
X143217108Y-115585921D01*
X143055464Y-115611523D01*
X143055461Y-115611523D01*
X142856147Y-115676285D01*
X142855717Y-115674963D01*
X142792486Y-115681763D01*
X142730006Y-115650490D01*
X142694352Y-115590402D01*
X142690500Y-115559733D01*
X142690500Y-114639534D01*
X142690500Y-114629060D01*
X142690501Y-114629057D01*
X142690501Y-114470943D01*
X142689011Y-114465384D01*
X142688894Y-114451633D01*
X142696454Y-114425045D01*
X142700714Y-114397726D01*
X142705876Y-114391908D01*
X142708004Y-114384428D01*
X142728742Y-114366144D01*
X142747093Y-114345469D01*
X142754580Y-114343366D01*
X142760415Y-114338223D01*
X142787746Y-114334054D01*
X142814361Y-114326582D01*
X142828753Y-114327800D01*
X142829486Y-114327689D01*
X142829966Y-114327903D01*
X142832284Y-114328099D01*
X142973713Y-114350500D01*
X142973714Y-114350500D01*
X143186286Y-114350500D01*
X143186287Y-114350500D01*
X143396243Y-114317246D01*
X143598412Y-114251557D01*
X143787816Y-114155051D01*
X143874138Y-114092335D01*
X143959786Y-114030109D01*
X143959788Y-114030106D01*
X143959792Y-114030104D01*
X144110104Y-113879792D01*
X144110106Y-113879788D01*
X144110109Y-113879786D01*
X144195890Y-113761717D01*
X144235051Y-113707816D01*
X144239793Y-113698508D01*
X144287763Y-113647711D01*
X144355583Y-113630911D01*
X144421719Y-113653445D01*
X144460763Y-113698500D01*
X144465373Y-113707547D01*
X144504728Y-113761716D01*
X145137037Y-113129408D01*
X145154075Y-113192993D01*
X145219901Y-113307007D01*
X145312993Y-113400099D01*
X145427007Y-113465925D01*
X145490590Y-113482962D01*
X144858282Y-114115269D01*
X144858282Y-114115270D01*
X144912449Y-114154624D01*
X145101782Y-114251095D01*
X145303870Y-114316757D01*
X145513754Y-114350000D01*
X145726246Y-114350000D01*
X145936127Y-114316757D01*
X145936130Y-114316757D01*
X146138217Y-114251095D01*
X146327554Y-114154622D01*
X146381716Y-114115270D01*
X146381717Y-114115270D01*
X145749408Y-113482962D01*
X145812993Y-113465925D01*
X145927007Y-113400099D01*
X146020099Y-113307007D01*
X146085925Y-113192993D01*
X146102962Y-113129408D01*
X146735270Y-113761717D01*
X146735270Y-113761716D01*
X146774622Y-113707554D01*
X146871095Y-113518217D01*
X146936757Y-113316130D01*
X146936757Y-113316127D01*
X146970000Y-113106246D01*
X146970000Y-112893753D01*
X146936757Y-112683872D01*
X146936757Y-112683869D01*
X146871095Y-112481782D01*
X146774624Y-112292449D01*
X146735270Y-112238282D01*
X146735269Y-112238282D01*
X146102962Y-112870590D01*
X146085925Y-112807007D01*
X146020099Y-112692993D01*
X145927007Y-112599901D01*
X145812993Y-112534075D01*
X145749409Y-112517037D01*
X146381716Y-111884728D01*
X146327550Y-111845375D01*
X146138217Y-111748904D01*
X145936129Y-111683242D01*
X145726246Y-111650000D01*
X145513754Y-111650000D01*
X145303872Y-111683242D01*
X145303869Y-111683242D01*
X145101782Y-111748904D01*
X144912439Y-111845380D01*
X144858282Y-111884727D01*
X144858282Y-111884728D01*
X145490591Y-112517037D01*
X145427007Y-112534075D01*
X145312993Y-112599901D01*
X145219901Y-112692993D01*
X145154075Y-112807007D01*
X145137037Y-112870591D01*
X144504728Y-112238282D01*
X144504727Y-112238282D01*
X144465380Y-112292440D01*
X144465376Y-112292446D01*
X144460760Y-112301505D01*
X144412781Y-112352297D01*
X144344959Y-112369087D01*
X144278826Y-112346543D01*
X144239794Y-112301493D01*
X144235051Y-112292184D01*
X144235049Y-112292181D01*
X144235048Y-112292179D01*
X144110109Y-112120213D01*
X143959786Y-111969890D01*
X143787820Y-111844951D01*
X143598414Y-111748444D01*
X143598413Y-111748443D01*
X143598412Y-111748443D01*
X143396243Y-111682754D01*
X143396241Y-111682753D01*
X143396240Y-111682753D01*
X143234957Y-111657208D01*
X143186287Y-111649500D01*
X142973713Y-111649500D01*
X142925042Y-111657208D01*
X142763760Y-111682753D01*
X142561585Y-111748444D01*
X142372179Y-111844951D01*
X142200213Y-111969890D01*
X142049890Y-112120213D01*
X141924949Y-112292182D01*
X141920484Y-112300946D01*
X141872509Y-112351742D01*
X141804688Y-112368536D01*
X141738553Y-112345998D01*
X141699516Y-112300946D01*
X141695050Y-112292182D01*
X141570109Y-112120213D01*
X141419786Y-111969890D01*
X141247820Y-111844951D01*
X141058414Y-111748444D01*
X141058413Y-111748443D01*
X141058412Y-111748443D01*
X140856243Y-111682754D01*
X140856241Y-111682753D01*
X140856239Y-111682753D01*
X140681028Y-111655002D01*
X140617893Y-111625073D01*
X140612745Y-111620210D01*
X139554715Y-110562180D01*
X139521230Y-110500857D01*
X139526214Y-110431165D01*
X139568086Y-110375232D01*
X139633550Y-110350815D01*
X139642396Y-110350499D01*
X140167871Y-110350499D01*
X140167872Y-110350499D01*
X140227483Y-110344091D01*
X140362331Y-110293796D01*
X140477546Y-110207546D01*
X140563796Y-110092331D01*
X140612810Y-109960916D01*
X140654681Y-109904984D01*
X140720145Y-109880566D01*
X140788418Y-109895417D01*
X140816673Y-109916569D01*
X140930213Y-110030109D01*
X141102179Y-110155048D01*
X141102181Y-110155049D01*
X141102184Y-110155051D01*
X141291588Y-110251557D01*
X141493757Y-110317246D01*
X141703713Y-110350500D01*
X141703714Y-110350500D01*
X141916286Y-110350500D01*
X141916287Y-110350500D01*
X142126243Y-110317246D01*
X142328412Y-110251557D01*
X142517816Y-110155051D01*
X142539789Y-110139086D01*
X142689786Y-110030109D01*
X142689788Y-110030106D01*
X142689792Y-110030104D01*
X142840104Y-109879792D01*
X142840106Y-109879788D01*
X142840109Y-109879786D01*
X142965048Y-109707820D01*
X142965047Y-109707820D01*
X142965051Y-109707816D01*
X142969514Y-109699054D01*
X143017488Y-109648259D01*
X143085308Y-109631463D01*
X143151444Y-109653999D01*
X143190486Y-109699056D01*
X143194951Y-109707820D01*
X143319890Y-109879786D01*
X143470213Y-110030109D01*
X143642179Y-110155048D01*
X143642181Y-110155049D01*
X143642184Y-110155051D01*
X143831588Y-110251557D01*
X144033757Y-110317246D01*
X144243713Y-110350500D01*
X144243714Y-110350500D01*
X144456286Y-110350500D01*
X144456287Y-110350500D01*
X144666243Y-110317246D01*
X144868412Y-110251557D01*
X145057816Y-110155051D01*
X145079789Y-110139086D01*
X145229786Y-110030109D01*
X145229788Y-110030106D01*
X145229792Y-110030104D01*
X145380104Y-109879792D01*
X145380106Y-109879788D01*
X145380109Y-109879786D01*
X145505048Y-109707820D01*
X145505047Y-109707820D01*
X145505051Y-109707816D01*
X145601557Y-109518412D01*
X145667246Y-109316243D01*
X145700500Y-109106287D01*
X145700500Y-108893713D01*
X145667246Y-108683757D01*
X145601557Y-108481588D01*
X145505051Y-108292184D01*
X145505049Y-108292181D01*
X145505048Y-108292179D01*
X145380109Y-108120213D01*
X145229786Y-107969890D01*
X145057820Y-107844951D01*
X144868414Y-107748444D01*
X144868413Y-107748443D01*
X144868412Y-107748443D01*
X144666243Y-107682754D01*
X144666241Y-107682753D01*
X144666240Y-107682753D01*
X144504957Y-107657208D01*
X144456287Y-107649500D01*
X144243713Y-107649500D01*
X144195042Y-107657208D01*
X144033760Y-107682753D01*
X143947721Y-107710709D01*
X143836679Y-107746789D01*
X143831585Y-107748444D01*
X143642179Y-107844951D01*
X143470213Y-107969890D01*
X143319890Y-108120213D01*
X143194949Y-108292182D01*
X143190484Y-108300946D01*
X143142509Y-108351742D01*
X143074688Y-108368536D01*
X143008553Y-108345998D01*
X142969516Y-108300946D01*
X142965050Y-108292182D01*
X142840109Y-108120213D01*
X142689786Y-107969890D01*
X142517820Y-107844951D01*
X142328414Y-107748444D01*
X142328413Y-107748443D01*
X142328412Y-107748443D01*
X142126243Y-107682754D01*
X142126241Y-107682753D01*
X142126240Y-107682753D01*
X141964957Y-107657208D01*
X141916287Y-107649500D01*
X141703713Y-107649500D01*
X141655042Y-107657208D01*
X141493760Y-107682753D01*
X141407721Y-107710709D01*
X141296679Y-107746789D01*
X141291585Y-107748444D01*
X141102179Y-107844951D01*
X140930215Y-107969889D01*
X140816673Y-108083431D01*
X140755350Y-108116915D01*
X140685658Y-108111931D01*
X140629725Y-108070059D01*
X140612810Y-108039082D01*
X140563797Y-107907671D01*
X140563793Y-107907664D01*
X140477547Y-107792455D01*
X140477544Y-107792452D01*
X140362335Y-107706206D01*
X140362328Y-107706202D01*
X140227482Y-107655908D01*
X140227483Y-107655908D01*
X140167883Y-107649501D01*
X140167881Y-107649500D01*
X140167873Y-107649500D01*
X140167864Y-107649500D01*
X138372129Y-107649500D01*
X138372123Y-107649501D01*
X138312516Y-107655908D01*
X138177671Y-107706202D01*
X138177664Y-107706206D01*
X138062455Y-107792452D01*
X138062452Y-107792455D01*
X137976206Y-107907664D01*
X137976202Y-107907671D01*
X137925908Y-108042517D01*
X137919501Y-108102116D01*
X137919500Y-108102135D01*
X137919500Y-108627603D01*
X137899815Y-108694642D01*
X137847011Y-108740397D01*
X137777853Y-108750341D01*
X137714297Y-108721316D01*
X137707819Y-108715284D01*
X134500919Y-105508384D01*
X134467434Y-105447061D01*
X134464600Y-105420703D01*
X134464600Y-103814817D01*
X134484285Y-103747778D01*
X134537089Y-103702023D01*
X134606247Y-103692079D01*
X134669803Y-103721104D01*
X134707577Y-103779882D01*
X134711073Y-103795419D01*
X134731522Y-103924534D01*
X134794781Y-104119223D01*
X134887715Y-104301613D01*
X135008028Y-104467213D01*
X135152786Y-104611971D01*
X135307749Y-104724556D01*
X135318390Y-104732287D01*
X135434607Y-104791503D01*
X135500776Y-104825218D01*
X135500778Y-104825218D01*
X135500781Y-104825220D01*
X135552979Y-104842180D01*
X135695465Y-104888477D01*
X135796557Y-104904488D01*
X135897648Y-104920500D01*
X135897649Y-104920500D01*
X136102351Y-104920500D01*
X136102352Y-104920500D01*
X136304534Y-104888477D01*
X136499219Y-104825220D01*
X136681610Y-104732287D01*
X136820601Y-104631305D01*
X136847213Y-104611971D01*
X136847215Y-104611968D01*
X136847219Y-104611966D01*
X136991966Y-104467219D01*
X136991968Y-104467215D01*
X136991971Y-104467213D01*
X137044732Y-104394590D01*
X137112287Y-104301610D01*
X137205220Y-104119219D01*
X137268477Y-103924534D01*
X137300500Y-103722352D01*
X137300500Y-103517648D01*
X137268477Y-103315466D01*
X137268476Y-103315464D01*
X137225617Y-103183558D01*
X137205220Y-103120781D01*
X137205218Y-103120778D01*
X137205218Y-103120776D01*
X137158403Y-103028898D01*
X137112287Y-102938390D01*
X137104556Y-102927749D01*
X136991971Y-102772786D01*
X136847213Y-102628028D01*
X136681613Y-102507715D01*
X136681612Y-102507714D01*
X136681610Y-102507713D01*
X136607388Y-102469895D01*
X136499223Y-102414781D01*
X136304534Y-102351522D01*
X136129995Y-102323878D01*
X136102352Y-102319500D01*
X135897648Y-102319500D01*
X135859599Y-102325526D01*
X135695468Y-102351522D01*
X135686717Y-102354365D01*
X135681154Y-102356173D01*
X135611313Y-102358167D01*
X135555157Y-102325922D01*
X135511819Y-102282584D01*
X135478334Y-102221261D01*
X135475500Y-102194903D01*
X135475500Y-100021303D01*
X135495185Y-99954264D01*
X135547989Y-99908509D01*
X135617147Y-99898565D01*
X135624000Y-99899747D01*
X135624258Y-99899799D01*
X135686086Y-99932341D01*
X135687439Y-99933674D01*
X138760610Y-103006845D01*
X138794095Y-103068168D01*
X138790860Y-103132844D01*
X138731523Y-103315461D01*
X138731523Y-103315464D01*
X138699500Y-103517648D01*
X138699500Y-103722351D01*
X138731522Y-103924534D01*
X138794781Y-104119223D01*
X138887715Y-104301613D01*
X139008028Y-104467213D01*
X139152786Y-104611971D01*
X139307749Y-104724556D01*
X139318390Y-104732287D01*
X139434607Y-104791503D01*
X139500776Y-104825218D01*
X139500778Y-104825218D01*
X139500781Y-104825220D01*
X139552979Y-104842180D01*
X139695465Y-104888477D01*
X139796557Y-104904488D01*
X139897648Y-104920500D01*
X139897649Y-104920500D01*
X140102351Y-104920500D01*
X140102352Y-104920500D01*
X140304534Y-104888477D01*
X140499219Y-104825220D01*
X140681610Y-104732287D01*
X140820601Y-104631305D01*
X140847213Y-104611971D01*
X140847215Y-104611968D01*
X140847219Y-104611966D01*
X140991966Y-104467219D01*
X140991968Y-104467215D01*
X140991971Y-104467213D01*
X141044732Y-104394590D01*
X141112287Y-104301610D01*
X141205220Y-104119219D01*
X141268477Y-103924534D01*
X141300500Y-103722352D01*
X141300500Y-103517648D01*
X141268477Y-103315466D01*
X141268476Y-103315464D01*
X141225617Y-103183558D01*
X141205220Y-103120781D01*
X141205218Y-103120778D01*
X141205218Y-103120776D01*
X141158403Y-103028898D01*
X141112287Y-102938390D01*
X141104556Y-102927749D01*
X140991971Y-102772786D01*
X140847213Y-102628028D01*
X140681613Y-102507715D01*
X140681612Y-102507714D01*
X140681610Y-102507713D01*
X140607388Y-102469895D01*
X140499223Y-102414781D01*
X140304534Y-102351522D01*
X140129995Y-102323878D01*
X140102352Y-102319500D01*
X139897648Y-102319500D01*
X139851351Y-102326832D01*
X139782060Y-102317877D01*
X139744275Y-102292040D01*
X136536674Y-99084439D01*
X136503189Y-99023116D01*
X136502738Y-99020949D01*
X136471838Y-98865610D01*
X136471837Y-98865603D01*
X136439044Y-98786433D01*
X136411497Y-98719927D01*
X136411490Y-98719914D01*
X136323889Y-98588811D01*
X136323886Y-98588807D01*
X136212392Y-98477313D01*
X136212388Y-98477310D01*
X136081285Y-98389709D01*
X136081272Y-98389702D01*
X135935601Y-98329364D01*
X135935589Y-98329361D01*
X135780945Y-98298600D01*
X135780942Y-98298600D01*
X135623258Y-98298600D01*
X135623255Y-98298600D01*
X135617193Y-98299197D01*
X135617067Y-98297921D01*
X135554096Y-98292284D01*
X135498920Y-98249420D01*
X135475678Y-98183529D01*
X135475500Y-98176896D01*
X135475500Y-97367677D01*
X135495185Y-97300638D01*
X135547989Y-97254883D01*
X135617147Y-97244939D01*
X135637815Y-97249745D01*
X135653628Y-97254883D01*
X135695465Y-97268477D01*
X135796557Y-97284488D01*
X135897648Y-97300500D01*
X135897649Y-97300500D01*
X136102351Y-97300500D01*
X136102352Y-97300500D01*
X136304534Y-97268477D01*
X136499219Y-97205220D01*
X136681610Y-97112287D01*
X136805206Y-97022490D01*
X136847213Y-96991971D01*
X136847215Y-96991968D01*
X136847219Y-96991966D01*
X136991966Y-96847219D01*
X136991968Y-96847215D01*
X136991971Y-96847213D01*
X137044732Y-96774590D01*
X137112287Y-96681610D01*
X137205220Y-96499219D01*
X137268477Y-96304534D01*
X137300500Y-96102352D01*
X137300500Y-95897648D01*
X138699500Y-95897648D01*
X138699500Y-96102351D01*
X138731522Y-96304534D01*
X138794781Y-96499223D01*
X138849543Y-96606697D01*
X138887585Y-96681359D01*
X138887715Y-96681613D01*
X139008028Y-96847213D01*
X139152786Y-96991971D01*
X139273226Y-97079474D01*
X139318390Y-97112287D01*
X139434607Y-97171503D01*
X139500776Y-97205218D01*
X139500778Y-97205218D01*
X139500781Y-97205220D01*
X139603810Y-97238696D01*
X139695465Y-97268477D01*
X139796557Y-97284488D01*
X139897648Y-97300500D01*
X139897649Y-97300500D01*
X140102351Y-97300500D01*
X140102352Y-97300500D01*
X140304534Y-97268477D01*
X140499219Y-97205220D01*
X140681610Y-97112287D01*
X140805206Y-97022490D01*
X140847213Y-96991971D01*
X140847215Y-96991968D01*
X140847219Y-96991966D01*
X140991966Y-96847219D01*
X140991968Y-96847215D01*
X140991971Y-96847213D01*
X141044732Y-96774590D01*
X141112287Y-96681610D01*
X141205220Y-96499219D01*
X141268477Y-96304534D01*
X141300500Y-96102352D01*
X141300500Y-95897648D01*
X141268477Y-95695465D01*
X141237458Y-95600000D01*
X141205220Y-95500781D01*
X141205218Y-95500778D01*
X141205218Y-95500776D01*
X141112419Y-95318650D01*
X141112287Y-95318390D01*
X141080092Y-95274077D01*
X140991971Y-95152786D01*
X140847213Y-95008028D01*
X140681613Y-94887715D01*
X140681612Y-94887714D01*
X140681610Y-94887713D01*
X140623111Y-94857906D01*
X140499223Y-94794781D01*
X140304534Y-94731522D01*
X140118799Y-94702105D01*
X140102352Y-94699500D01*
X139897648Y-94699500D01*
X139881201Y-94702105D01*
X139695465Y-94731522D01*
X139500776Y-94794781D01*
X139318386Y-94887715D01*
X139152786Y-95008028D01*
X139008028Y-95152786D01*
X138887715Y-95318386D01*
X138794781Y-95500776D01*
X138731522Y-95695465D01*
X138699500Y-95897648D01*
X137300500Y-95897648D01*
X137268477Y-95695465D01*
X137237458Y-95600000D01*
X137205220Y-95500781D01*
X137205218Y-95500778D01*
X137205218Y-95500776D01*
X137112419Y-95318650D01*
X137112287Y-95318390D01*
X137080092Y-95274077D01*
X136991971Y-95152786D01*
X136847213Y-95008028D01*
X136681613Y-94887715D01*
X136681612Y-94887714D01*
X136681610Y-94887713D01*
X136623111Y-94857906D01*
X136499223Y-94794781D01*
X136304534Y-94731522D01*
X136118799Y-94702105D01*
X136102352Y-94699500D01*
X135897648Y-94699500D01*
X135830254Y-94710174D01*
X135695464Y-94731523D01*
X135695461Y-94731523D01*
X135637818Y-94750253D01*
X135567976Y-94752248D01*
X135508144Y-94716167D01*
X135477316Y-94653466D01*
X135475500Y-94632322D01*
X135475500Y-87793292D01*
X135495185Y-87726253D01*
X135543204Y-87682808D01*
X135681610Y-87612287D01*
X135776617Y-87543261D01*
X135847213Y-87491971D01*
X135847215Y-87491968D01*
X135847219Y-87491966D01*
X135991966Y-87347219D01*
X135991968Y-87347215D01*
X135991971Y-87347213D01*
X136044732Y-87274590D01*
X136112287Y-87181610D01*
X136205220Y-86999219D01*
X136268477Y-86804534D01*
X136300500Y-86602352D01*
X136300500Y-86397648D01*
X139699500Y-86397648D01*
X139699500Y-86602351D01*
X139731522Y-86804534D01*
X139794781Y-86999223D01*
X139858691Y-87124653D01*
X139887585Y-87181359D01*
X139887715Y-87181613D01*
X140008028Y-87347213D01*
X140152786Y-87491971D01*
X140299539Y-87598591D01*
X140318390Y-87612287D01*
X140434607Y-87671503D01*
X140500776Y-87705218D01*
X140500778Y-87705218D01*
X140500781Y-87705220D01*
X140565514Y-87726253D01*
X140695465Y-87768477D01*
X140796557Y-87784488D01*
X140897648Y-87800500D01*
X140897649Y-87800500D01*
X141102351Y-87800500D01*
X141102352Y-87800500D01*
X141304534Y-87768477D01*
X141499219Y-87705220D01*
X141681610Y-87612287D01*
X141776617Y-87543261D01*
X141847213Y-87491971D01*
X141847215Y-87491968D01*
X141847219Y-87491966D01*
X141991966Y-87347219D01*
X141991968Y-87347215D01*
X141991971Y-87347213D01*
X142044732Y-87274590D01*
X142112287Y-87181610D01*
X142205220Y-86999219D01*
X142268477Y-86804534D01*
X142300500Y-86602352D01*
X142300500Y-86397648D01*
X145199500Y-86397648D01*
X145199500Y-86602351D01*
X145231522Y-86804534D01*
X145294781Y-86999223D01*
X145358691Y-87124653D01*
X145387585Y-87181359D01*
X145387715Y-87181613D01*
X145508028Y-87347213D01*
X145652786Y-87491971D01*
X145799539Y-87598591D01*
X145818390Y-87612287D01*
X145934607Y-87671503D01*
X146000776Y-87705218D01*
X146000778Y-87705218D01*
X146000781Y-87705220D01*
X146065514Y-87726253D01*
X146195465Y-87768477D01*
X146296557Y-87784488D01*
X146397648Y-87800500D01*
X146397649Y-87800500D01*
X146602351Y-87800500D01*
X146602352Y-87800500D01*
X146804534Y-87768477D01*
X146999219Y-87705220D01*
X147181610Y-87612287D01*
X147276617Y-87543261D01*
X147347213Y-87491971D01*
X147347215Y-87491968D01*
X147347219Y-87491966D01*
X147491966Y-87347219D01*
X147491968Y-87347215D01*
X147491971Y-87347213D01*
X147544732Y-87274590D01*
X147612287Y-87181610D01*
X147705220Y-86999219D01*
X147768477Y-86804534D01*
X147800500Y-86602352D01*
X147800500Y-86397648D01*
X147778804Y-86260666D01*
X147768477Y-86195465D01*
X147709458Y-86013825D01*
X147705220Y-86000781D01*
X147705218Y-86000778D01*
X147705218Y-86000776D01*
X147653869Y-85900000D01*
X147612287Y-85818390D01*
X147597401Y-85797901D01*
X147491971Y-85652786D01*
X147347213Y-85508028D01*
X147181611Y-85387713D01*
X147127621Y-85360203D01*
X147076825Y-85312228D01*
X147060031Y-85244407D01*
X147082569Y-85178272D01*
X147127624Y-85139233D01*
X147181349Y-85111859D01*
X147225921Y-85079474D01*
X146546447Y-84400000D01*
X146552661Y-84400000D01*
X146654394Y-84372741D01*
X146745606Y-84320080D01*
X146820080Y-84245606D01*
X146872741Y-84154394D01*
X146900000Y-84052661D01*
X146900000Y-84046448D01*
X147579474Y-84725922D01*
X147579474Y-84725921D01*
X147611859Y-84681349D01*
X147704755Y-84499031D01*
X147767990Y-84304417D01*
X147800000Y-84102317D01*
X147800000Y-83897682D01*
X147767990Y-83695582D01*
X147704755Y-83500968D01*
X147611859Y-83318650D01*
X147579474Y-83274077D01*
X147579474Y-83274076D01*
X146900000Y-83953551D01*
X146900000Y-83947339D01*
X146872741Y-83845606D01*
X146820080Y-83754394D01*
X146745606Y-83679920D01*
X146654394Y-83627259D01*
X146552661Y-83600000D01*
X146546446Y-83600000D01*
X147225922Y-82920524D01*
X147225921Y-82920523D01*
X147181359Y-82888147D01*
X147181350Y-82888141D01*
X146999031Y-82795244D01*
X146804417Y-82732009D01*
X146602317Y-82700000D01*
X146397683Y-82700000D01*
X146195582Y-82732009D01*
X146000968Y-82795244D01*
X145818644Y-82888143D01*
X145774077Y-82920523D01*
X145774077Y-82920524D01*
X146453554Y-83600000D01*
X146447339Y-83600000D01*
X146345606Y-83627259D01*
X146254394Y-83679920D01*
X146179920Y-83754394D01*
X146127259Y-83845606D01*
X146100000Y-83947339D01*
X146100000Y-83953553D01*
X145420524Y-83274077D01*
X145420523Y-83274077D01*
X145388143Y-83318644D01*
X145295244Y-83500968D01*
X145232009Y-83695582D01*
X145200000Y-83897682D01*
X145200000Y-84102317D01*
X145232009Y-84304417D01*
X145295244Y-84499031D01*
X145388141Y-84681350D01*
X145388147Y-84681359D01*
X145420523Y-84725921D01*
X145420524Y-84725922D01*
X146100000Y-84046446D01*
X146100000Y-84052661D01*
X146127259Y-84154394D01*
X146179920Y-84245606D01*
X146254394Y-84320080D01*
X146345606Y-84372741D01*
X146447339Y-84400000D01*
X146453553Y-84400000D01*
X145774076Y-85079474D01*
X145818652Y-85111861D01*
X145872376Y-85139234D01*
X145923172Y-85187208D01*
X145939968Y-85255028D01*
X145917431Y-85321164D01*
X145872379Y-85360203D01*
X145818386Y-85387714D01*
X145652786Y-85508028D01*
X145508028Y-85652786D01*
X145387715Y-85818386D01*
X145294781Y-86000776D01*
X145231522Y-86195465D01*
X145199500Y-86397648D01*
X142300500Y-86397648D01*
X142278804Y-86260666D01*
X142268477Y-86195465D01*
X142209458Y-86013825D01*
X142205220Y-86000781D01*
X142205218Y-86000778D01*
X142205218Y-86000776D01*
X142153869Y-85900000D01*
X142112287Y-85818390D01*
X142097401Y-85797901D01*
X141991971Y-85652786D01*
X141847213Y-85508028D01*
X141681611Y-85387713D01*
X141627621Y-85360203D01*
X141576825Y-85312228D01*
X141560031Y-85244407D01*
X141582569Y-85178272D01*
X141627624Y-85139233D01*
X141681349Y-85111859D01*
X141725921Y-85079474D01*
X141046447Y-84400000D01*
X141052661Y-84400000D01*
X141154394Y-84372741D01*
X141245606Y-84320080D01*
X141320080Y-84245606D01*
X141372741Y-84154394D01*
X141400000Y-84052661D01*
X141400000Y-84046447D01*
X142079474Y-84725921D01*
X142111859Y-84681349D01*
X142204755Y-84499031D01*
X142267990Y-84304417D01*
X142300000Y-84102317D01*
X142300000Y-83897682D01*
X142267990Y-83695582D01*
X142204755Y-83500968D01*
X142111859Y-83318650D01*
X142079474Y-83274077D01*
X142079474Y-83274076D01*
X141400000Y-83953551D01*
X141400000Y-83947339D01*
X141372741Y-83845606D01*
X141320080Y-83754394D01*
X141245606Y-83679920D01*
X141154394Y-83627259D01*
X141052661Y-83600000D01*
X141046446Y-83600000D01*
X141725922Y-82920524D01*
X141725921Y-82920523D01*
X141681359Y-82888147D01*
X141681350Y-82888141D01*
X141499031Y-82795244D01*
X141304417Y-82732009D01*
X141102317Y-82700000D01*
X140897683Y-82700000D01*
X140695582Y-82732009D01*
X140500968Y-82795244D01*
X140318644Y-82888143D01*
X140274077Y-82920523D01*
X140274077Y-82920524D01*
X140953554Y-83600000D01*
X140947339Y-83600000D01*
X140845606Y-83627259D01*
X140754394Y-83679920D01*
X140679920Y-83754394D01*
X140627259Y-83845606D01*
X140600000Y-83947339D01*
X140600000Y-83953553D01*
X139920524Y-83274077D01*
X139920523Y-83274077D01*
X139888143Y-83318644D01*
X139795244Y-83500968D01*
X139732009Y-83695582D01*
X139700000Y-83897682D01*
X139700000Y-84102317D01*
X139732009Y-84304417D01*
X139795244Y-84499031D01*
X139888141Y-84681350D01*
X139888147Y-84681359D01*
X139920523Y-84725921D01*
X139920524Y-84725922D01*
X140600000Y-84046446D01*
X140600000Y-84052661D01*
X140627259Y-84154394D01*
X140679920Y-84245606D01*
X140754394Y-84320080D01*
X140845606Y-84372741D01*
X140947339Y-84400000D01*
X140953553Y-84400000D01*
X140274076Y-85079474D01*
X140318652Y-85111861D01*
X140372376Y-85139234D01*
X140423172Y-85187208D01*
X140439968Y-85255028D01*
X140417431Y-85321164D01*
X140372379Y-85360203D01*
X140318386Y-85387714D01*
X140152786Y-85508028D01*
X140008028Y-85652786D01*
X139887715Y-85818386D01*
X139794781Y-86000776D01*
X139731522Y-86195465D01*
X139699500Y-86397648D01*
X136300500Y-86397648D01*
X136278804Y-86260666D01*
X136268477Y-86195465D01*
X136209458Y-86013825D01*
X136205220Y-86000781D01*
X136205218Y-86000778D01*
X136205218Y-86000776D01*
X136153869Y-85900000D01*
X136112287Y-85818390D01*
X136097401Y-85797901D01*
X135991971Y-85652786D01*
X135847213Y-85508028D01*
X135681611Y-85387713D01*
X135627621Y-85360203D01*
X135576825Y-85312228D01*
X135560031Y-85244407D01*
X135582569Y-85178272D01*
X135627624Y-85139233D01*
X135681349Y-85111859D01*
X135725921Y-85079474D01*
X135046447Y-84400000D01*
X135052661Y-84400000D01*
X135154394Y-84372741D01*
X135245606Y-84320080D01*
X135320080Y-84245606D01*
X135372741Y-84154394D01*
X135400000Y-84052661D01*
X135400000Y-84046447D01*
X136079474Y-84725921D01*
X136111859Y-84681349D01*
X136204755Y-84499031D01*
X136267990Y-84304417D01*
X136300000Y-84102317D01*
X136300000Y-83897682D01*
X136267990Y-83695582D01*
X136204755Y-83500968D01*
X136111859Y-83318650D01*
X136079474Y-83274077D01*
X136079474Y-83274076D01*
X135400000Y-83953551D01*
X135400000Y-83947339D01*
X135372741Y-83845606D01*
X135320080Y-83754394D01*
X135245606Y-83679920D01*
X135154394Y-83627259D01*
X135052661Y-83600000D01*
X135046446Y-83600000D01*
X135725922Y-82920524D01*
X135725921Y-82920523D01*
X135681359Y-82888147D01*
X135681350Y-82888141D01*
X135499031Y-82795244D01*
X135304417Y-82732009D01*
X135102317Y-82700000D01*
X134897683Y-82700000D01*
X134695582Y-82732009D01*
X134500968Y-82795244D01*
X134318644Y-82888143D01*
X134274077Y-82920523D01*
X134274077Y-82920524D01*
X134953554Y-83600000D01*
X134947339Y-83600000D01*
X134845606Y-83627259D01*
X134754394Y-83679920D01*
X134679920Y-83754394D01*
X134627259Y-83845606D01*
X134600000Y-83947339D01*
X134600000Y-83953553D01*
X133920524Y-83274077D01*
X133920523Y-83274077D01*
X133888143Y-83318644D01*
X133795244Y-83500968D01*
X133732009Y-83695582D01*
X133700000Y-83897682D01*
X133700000Y-84102317D01*
X133732009Y-84304417D01*
X133795244Y-84499031D01*
X133888141Y-84681350D01*
X133888147Y-84681359D01*
X133920523Y-84725921D01*
X133920524Y-84725922D01*
X134600000Y-84046446D01*
X134600000Y-84052661D01*
X134627259Y-84154394D01*
X134679920Y-84245606D01*
X134754394Y-84320080D01*
X134845606Y-84372741D01*
X134947339Y-84400000D01*
X134953553Y-84400000D01*
X134274076Y-85079474D01*
X134318652Y-85111861D01*
X134372376Y-85139234D01*
X134423172Y-85187208D01*
X134439968Y-85255028D01*
X134417431Y-85321164D01*
X134372379Y-85360203D01*
X134318386Y-85387714D01*
X134152786Y-85508028D01*
X134008028Y-85652786D01*
X133887715Y-85818386D01*
X133794781Y-86000776D01*
X133731522Y-86195465D01*
X133699500Y-86397648D01*
X133699500Y-86602351D01*
X133731522Y-86804534D01*
X133794781Y-86999223D01*
X133858691Y-87124653D01*
X133887585Y-87181359D01*
X133887715Y-87181613D01*
X134008028Y-87347213D01*
X134008034Y-87347219D01*
X134152781Y-87491966D01*
X134223384Y-87543262D01*
X134266051Y-87598591D01*
X134274500Y-87643580D01*
X134274500Y-97125902D01*
X134254815Y-97192941D01*
X134202011Y-97238696D01*
X134132853Y-97248640D01*
X134069297Y-97219615D01*
X134062819Y-97213583D01*
X133294077Y-96444841D01*
X133260592Y-96383518D01*
X133263828Y-96318841D01*
X133268477Y-96304534D01*
X133300500Y-96102352D01*
X133300500Y-95897648D01*
X133268477Y-95695465D01*
X133237458Y-95600000D01*
X133205220Y-95500781D01*
X133205218Y-95500778D01*
X133205218Y-95500776D01*
X133112419Y-95318650D01*
X133112287Y-95318390D01*
X133080092Y-95274077D01*
X132991971Y-95152786D01*
X132847213Y-95008028D01*
X132681613Y-94887715D01*
X132681612Y-94887714D01*
X132681610Y-94887713D01*
X132623111Y-94857906D01*
X132499223Y-94794781D01*
X132304534Y-94731522D01*
X132118799Y-94702105D01*
X132102352Y-94699500D01*
X131897648Y-94699500D01*
X131881201Y-94702105D01*
X131695465Y-94731522D01*
X131500776Y-94794781D01*
X131318386Y-94887715D01*
X131152786Y-95008028D01*
X131008028Y-95152786D01*
X130887715Y-95318386D01*
X130794781Y-95500776D01*
X130731522Y-95695465D01*
X130699500Y-95897648D01*
X130699500Y-96102351D01*
X130731522Y-96304534D01*
X130794781Y-96499223D01*
X130849543Y-96606697D01*
X130887585Y-96681359D01*
X130887715Y-96681613D01*
X131008028Y-96847213D01*
X131152786Y-96991971D01*
X131273226Y-97079474D01*
X131318390Y-97112287D01*
X131434607Y-97171503D01*
X131500776Y-97205218D01*
X131500778Y-97205218D01*
X131500781Y-97205220D01*
X131603810Y-97238696D01*
X131695465Y-97268477D01*
X131796557Y-97284488D01*
X131897648Y-97300500D01*
X131897649Y-97300500D01*
X132102351Y-97300500D01*
X132102352Y-97300500D01*
X132304534Y-97268477D01*
X132318842Y-97263827D01*
X132388679Y-97261831D01*
X132444841Y-97294077D01*
X133227281Y-98076516D01*
X133260766Y-98137839D01*
X133263600Y-98164197D01*
X133263600Y-100615003D01*
X133243915Y-100682042D01*
X133191111Y-100727797D01*
X133121953Y-100737741D01*
X133058397Y-100708716D01*
X133051919Y-100702684D01*
X128794077Y-96444842D01*
X128760592Y-96383519D01*
X128763828Y-96318841D01*
X128763829Y-96318838D01*
X128768477Y-96304534D01*
X128800500Y-96102352D01*
X128800500Y-95897648D01*
X128768477Y-95695465D01*
X128737458Y-95600000D01*
X128705220Y-95500781D01*
X128705218Y-95500778D01*
X128705218Y-95500776D01*
X128612419Y-95318650D01*
X128612287Y-95318390D01*
X128580092Y-95274077D01*
X128491971Y-95152786D01*
X128347213Y-95008028D01*
X128181613Y-94887715D01*
X128181612Y-94887714D01*
X128181610Y-94887713D01*
X128123111Y-94857906D01*
X127999223Y-94794781D01*
X127804534Y-94731522D01*
X127618799Y-94702105D01*
X127602352Y-94699500D01*
X127397648Y-94699500D01*
X127381201Y-94702105D01*
X127195465Y-94731522D01*
X127000776Y-94794781D01*
X126818386Y-94887715D01*
X126652786Y-95008028D01*
X126508028Y-95152786D01*
X126387715Y-95318386D01*
X126294781Y-95500776D01*
X126231522Y-95695465D01*
X126199500Y-95897648D01*
X126199500Y-96102351D01*
X126231522Y-96304534D01*
X126294781Y-96499223D01*
X126349543Y-96606697D01*
X126387585Y-96681359D01*
X126387715Y-96681613D01*
X126508028Y-96847213D01*
X126652786Y-96991971D01*
X126773226Y-97079474D01*
X126818390Y-97112287D01*
X126885109Y-97146282D01*
X126898674Y-97153194D01*
X126949470Y-97201169D01*
X126966265Y-97268990D01*
X126943727Y-97335125D01*
X126930064Y-97351357D01*
X126922410Y-97359010D01*
X126922410Y-97359011D01*
X126834809Y-97490114D01*
X126834802Y-97490127D01*
X126774464Y-97635798D01*
X126774461Y-97635808D01*
X126743562Y-97791148D01*
X126711177Y-97853059D01*
X126709626Y-97854637D01*
X126027586Y-98536678D01*
X125915781Y-98648482D01*
X125915779Y-98648485D01*
X125865661Y-98735294D01*
X125865659Y-98735296D01*
X125836725Y-98785409D01*
X125836724Y-98785410D01*
X125836723Y-98785415D01*
X125795799Y-98938143D01*
X125795799Y-98938145D01*
X125795799Y-99106246D01*
X125795800Y-99106259D01*
X125795800Y-105323930D01*
X125795799Y-105323948D01*
X125795799Y-105489654D01*
X125795798Y-105489654D01*
X125795799Y-105489657D01*
X125836723Y-105642385D01*
X125865031Y-105691416D01*
X125902265Y-105755908D01*
X125915781Y-105779317D01*
X126034649Y-105898185D01*
X126034655Y-105898190D01*
X127633181Y-107496716D01*
X127666666Y-107558039D01*
X127669500Y-107584397D01*
X127669500Y-107626863D01*
X127649815Y-107693902D01*
X127597011Y-107739657D01*
X127527853Y-107749601D01*
X127507182Y-107744794D01*
X127316240Y-107682753D01*
X127154957Y-107657208D01*
X127106287Y-107649500D01*
X126893713Y-107649500D01*
X126845042Y-107657208D01*
X126683760Y-107682753D01*
X126597721Y-107710709D01*
X126486679Y-107746789D01*
X126481585Y-107748444D01*
X126292179Y-107844951D01*
X126120215Y-107969889D01*
X126006673Y-108083431D01*
X125945350Y-108116915D01*
X125875658Y-108111931D01*
X125819725Y-108070059D01*
X125802810Y-108039082D01*
X125753797Y-107907671D01*
X125753793Y-107907664D01*
X125667547Y-107792455D01*
X125667544Y-107792452D01*
X125552335Y-107706206D01*
X125552328Y-107706202D01*
X125417482Y-107655908D01*
X125417483Y-107655908D01*
X125357883Y-107649501D01*
X125357881Y-107649500D01*
X125357873Y-107649500D01*
X125357864Y-107649500D01*
X123562129Y-107649500D01*
X123562123Y-107649501D01*
X123502516Y-107655908D01*
X123367671Y-107706202D01*
X123367664Y-107706206D01*
X123252455Y-107792452D01*
X123252452Y-107792455D01*
X123166206Y-107907664D01*
X123166202Y-107907671D01*
X123115908Y-108042517D01*
X123109501Y-108102116D01*
X123109500Y-108102135D01*
X123109500Y-109897870D01*
X123109501Y-109897876D01*
X123115908Y-109957483D01*
X123166202Y-110092328D01*
X123166206Y-110092335D01*
X123252452Y-110207544D01*
X123252455Y-110207547D01*
X123367664Y-110293793D01*
X123367671Y-110293797D01*
X123502517Y-110344091D01*
X123502516Y-110344091D01*
X123509444Y-110344835D01*
X123562127Y-110350500D01*
X125357872Y-110350499D01*
X125417483Y-110344091D01*
X125552331Y-110293796D01*
X125667546Y-110207546D01*
X125753796Y-110092331D01*
X125802810Y-109960916D01*
X125844681Y-109904984D01*
X125910145Y-109880566D01*
X125978418Y-109895417D01*
X126006673Y-109916569D01*
X126120213Y-110030109D01*
X126292179Y-110155048D01*
X126292181Y-110155049D01*
X126292184Y-110155051D01*
X126481588Y-110251557D01*
X126683757Y-110317246D01*
X126893713Y-110350500D01*
X126893714Y-110350500D01*
X127106286Y-110350500D01*
X127106287Y-110350500D01*
X127316243Y-110317246D01*
X127507185Y-110255204D01*
X127577023Y-110253210D01*
X127636856Y-110289290D01*
X127667684Y-110351991D01*
X127669500Y-110373136D01*
X127669500Y-110515230D01*
X127669499Y-110515248D01*
X127669499Y-110680954D01*
X127669498Y-110680954D01*
X127710423Y-110833685D01*
X127739358Y-110883800D01*
X127739359Y-110883804D01*
X127739360Y-110883804D01*
X127789479Y-110970614D01*
X127789481Y-110970617D01*
X127908349Y-111089485D01*
X127908355Y-111089490D01*
X128257184Y-111438319D01*
X128290669Y-111499642D01*
X128285685Y-111569334D01*
X128243813Y-111625267D01*
X128178349Y-111649684D01*
X128169503Y-111650000D01*
X128163754Y-111650000D01*
X127953872Y-111683242D01*
X127953869Y-111683242D01*
X127751782Y-111748904D01*
X127562439Y-111845380D01*
X127508282Y-111884727D01*
X127508282Y-111884728D01*
X128140591Y-112517037D01*
X128077007Y-112534075D01*
X127962993Y-112599901D01*
X127869901Y-112692993D01*
X127804075Y-112807007D01*
X127787037Y-112870591D01*
X127154728Y-112238282D01*
X127154727Y-112238282D01*
X127115380Y-112292440D01*
X127115376Y-112292446D01*
X127110760Y-112301505D01*
X127062781Y-112352297D01*
X126994959Y-112369087D01*
X126928826Y-112346543D01*
X126889794Y-112301493D01*
X126885051Y-112292184D01*
X126885049Y-112292181D01*
X126885048Y-112292179D01*
X126760109Y-112120213D01*
X126609786Y-111969890D01*
X126437820Y-111844951D01*
X126248414Y-111748444D01*
X126248413Y-111748443D01*
X126248412Y-111748443D01*
X126046243Y-111682754D01*
X126046241Y-111682753D01*
X126046240Y-111682753D01*
X125884957Y-111657208D01*
X125836287Y-111649500D01*
X125623713Y-111649500D01*
X125575042Y-111657208D01*
X125413760Y-111682753D01*
X125211585Y-111748444D01*
X125022179Y-111844951D01*
X124850215Y-111969889D01*
X124736673Y-112083431D01*
X124675350Y-112116915D01*
X124605658Y-112111931D01*
X124549725Y-112070059D01*
X124532810Y-112039082D01*
X124483797Y-111907671D01*
X124483793Y-111907664D01*
X124397547Y-111792455D01*
X124397544Y-111792452D01*
X124282335Y-111706206D01*
X124282328Y-111706202D01*
X124147482Y-111655908D01*
X124147483Y-111655908D01*
X124087883Y-111649501D01*
X124087881Y-111649500D01*
X124087873Y-111649500D01*
X124087865Y-111649500D01*
X122585700Y-111649500D01*
X122518661Y-111629815D01*
X122472906Y-111577011D01*
X122461700Y-111525500D01*
X122461700Y-105044500D01*
X122481385Y-104977461D01*
X122534189Y-104931706D01*
X122585700Y-104920500D01*
X122602351Y-104920500D01*
X122602352Y-104920500D01*
X122804534Y-104888477D01*
X122999219Y-104825220D01*
X123181610Y-104732287D01*
X123320601Y-104631305D01*
X123347213Y-104611971D01*
X123347215Y-104611968D01*
X123347219Y-104611966D01*
X123491966Y-104467219D01*
X123491968Y-104467215D01*
X123491971Y-104467213D01*
X123544732Y-104394590D01*
X123612287Y-104301610D01*
X123705220Y-104119219D01*
X123768477Y-103924534D01*
X123800500Y-103722352D01*
X123800500Y-103517648D01*
X123768477Y-103315466D01*
X123768476Y-103315464D01*
X123725617Y-103183558D01*
X123705220Y-103120781D01*
X123705218Y-103120778D01*
X123705218Y-103120776D01*
X123658403Y-103028898D01*
X123612287Y-102938390D01*
X123604556Y-102927749D01*
X123491971Y-102772786D01*
X123347213Y-102628028D01*
X123181613Y-102507715D01*
X123181612Y-102507714D01*
X123181610Y-102507713D01*
X123107388Y-102469895D01*
X122999223Y-102414781D01*
X122804534Y-102351522D01*
X122629995Y-102323878D01*
X122602352Y-102319500D01*
X122397648Y-102319500D01*
X122373329Y-102323351D01*
X122195465Y-102351522D01*
X122000776Y-102414781D01*
X121818391Y-102507712D01*
X121776504Y-102538144D01*
X121710697Y-102561622D01*
X121642644Y-102545795D01*
X121615940Y-102525505D01*
X119452419Y-100361984D01*
X119418934Y-100300661D01*
X119416100Y-100274303D01*
X119416100Y-95897682D01*
X121200000Y-95897682D01*
X121200000Y-96102317D01*
X121232009Y-96304417D01*
X121295244Y-96499031D01*
X121388141Y-96681350D01*
X121388147Y-96681359D01*
X121420523Y-96725921D01*
X121420524Y-96725922D01*
X122100000Y-96046446D01*
X122100000Y-96052661D01*
X122127259Y-96154394D01*
X122179920Y-96245606D01*
X122254394Y-96320080D01*
X122345606Y-96372741D01*
X122447339Y-96400000D01*
X122453553Y-96400000D01*
X121774076Y-97079474D01*
X121818650Y-97111859D01*
X122000968Y-97204755D01*
X122195582Y-97267990D01*
X122397683Y-97300000D01*
X122602317Y-97300000D01*
X122804417Y-97267990D01*
X122999031Y-97204755D01*
X123181349Y-97111859D01*
X123225921Y-97079474D01*
X122546447Y-96400000D01*
X122552661Y-96400000D01*
X122654394Y-96372741D01*
X122745606Y-96320080D01*
X122820080Y-96245606D01*
X122872741Y-96154394D01*
X122900000Y-96052661D01*
X122900000Y-96046447D01*
X123579474Y-96725921D01*
X123611859Y-96681349D01*
X123704755Y-96499031D01*
X123767990Y-96304417D01*
X123800000Y-96102317D01*
X123800000Y-95897682D01*
X123767990Y-95695582D01*
X123704755Y-95500968D01*
X123611859Y-95318650D01*
X123579474Y-95274077D01*
X123579474Y-95274076D01*
X122900000Y-95953551D01*
X122900000Y-95947339D01*
X122872741Y-95845606D01*
X122820080Y-95754394D01*
X122745606Y-95679920D01*
X122654394Y-95627259D01*
X122552661Y-95600000D01*
X122546446Y-95600000D01*
X123225922Y-94920524D01*
X123225921Y-94920523D01*
X123181359Y-94888147D01*
X123181350Y-94888141D01*
X122999031Y-94795244D01*
X122804417Y-94732009D01*
X122602317Y-94700000D01*
X122397683Y-94700000D01*
X122195582Y-94732009D01*
X122000968Y-94795244D01*
X121818644Y-94888143D01*
X121774077Y-94920523D01*
X121774077Y-94920524D01*
X122453554Y-95600000D01*
X122447339Y-95600000D01*
X122345606Y-95627259D01*
X122254394Y-95679920D01*
X122179920Y-95754394D01*
X122127259Y-95845606D01*
X122100000Y-95947339D01*
X122100000Y-95953553D01*
X121420524Y-95274077D01*
X121420523Y-95274077D01*
X121388143Y-95318644D01*
X121295244Y-95500968D01*
X121232009Y-95695582D01*
X121200000Y-95897682D01*
X119416100Y-95897682D01*
X119416100Y-86404650D01*
X119416101Y-86397648D01*
X122699500Y-86397648D01*
X122699500Y-86602351D01*
X122731522Y-86804534D01*
X122794781Y-86999223D01*
X122858691Y-87124653D01*
X122887585Y-87181359D01*
X122887715Y-87181613D01*
X123008028Y-87347213D01*
X123152786Y-87491971D01*
X123299539Y-87598591D01*
X123318390Y-87612287D01*
X123434607Y-87671503D01*
X123500776Y-87705218D01*
X123500778Y-87705218D01*
X123500781Y-87705220D01*
X123565514Y-87726253D01*
X123695465Y-87768477D01*
X123796557Y-87784488D01*
X123897648Y-87800500D01*
X123897649Y-87800500D01*
X124102351Y-87800500D01*
X124102352Y-87800500D01*
X124304534Y-87768477D01*
X124499219Y-87705220D01*
X124681610Y-87612287D01*
X124776617Y-87543261D01*
X124847213Y-87491971D01*
X124847215Y-87491968D01*
X124847219Y-87491966D01*
X124991966Y-87347219D01*
X124991968Y-87347215D01*
X124991971Y-87347213D01*
X125044732Y-87274590D01*
X125112287Y-87181610D01*
X125205220Y-86999219D01*
X125268477Y-86804534D01*
X125300500Y-86602352D01*
X125300500Y-86397648D01*
X125278804Y-86260666D01*
X125268477Y-86195465D01*
X125209458Y-86013825D01*
X125205220Y-86000781D01*
X125205218Y-86000778D01*
X125205218Y-86000776D01*
X125153869Y-85900000D01*
X125112287Y-85818390D01*
X125097401Y-85797901D01*
X124991971Y-85652786D01*
X124847213Y-85508028D01*
X124681611Y-85387713D01*
X124627621Y-85360203D01*
X124576825Y-85312228D01*
X124560031Y-85244407D01*
X124582569Y-85178272D01*
X124627624Y-85139233D01*
X124681349Y-85111859D01*
X124725921Y-85079474D01*
X124046447Y-84400000D01*
X124052661Y-84400000D01*
X124154394Y-84372741D01*
X124245606Y-84320080D01*
X124320080Y-84245606D01*
X124372741Y-84154394D01*
X124400000Y-84052661D01*
X124400000Y-84046448D01*
X125079474Y-84725922D01*
X125079474Y-84725921D01*
X125111859Y-84681349D01*
X125204755Y-84499031D01*
X125267990Y-84304417D01*
X125300000Y-84102317D01*
X125300000Y-83897682D01*
X125299995Y-83897648D01*
X128199500Y-83897648D01*
X128199500Y-84102351D01*
X128231522Y-84304534D01*
X128294781Y-84499223D01*
X128358691Y-84624653D01*
X128387585Y-84681359D01*
X128387715Y-84681613D01*
X128508028Y-84847213D01*
X128652786Y-84991971D01*
X128818385Y-85112284D01*
X128818387Y-85112285D01*
X128818390Y-85112287D01*
X128872378Y-85139795D01*
X128923174Y-85187769D01*
X128939969Y-85255590D01*
X128917432Y-85321725D01*
X128872378Y-85360765D01*
X128818644Y-85388143D01*
X128774077Y-85420523D01*
X128774077Y-85420524D01*
X129453554Y-86100000D01*
X129447339Y-86100000D01*
X129345606Y-86127259D01*
X129254394Y-86179920D01*
X129179920Y-86254394D01*
X129127259Y-86345606D01*
X129100000Y-86447339D01*
X129100000Y-86453553D01*
X128420524Y-85774077D01*
X128420523Y-85774077D01*
X128388143Y-85818644D01*
X128295244Y-86000968D01*
X128232009Y-86195582D01*
X128200000Y-86397682D01*
X128200000Y-86602317D01*
X128232009Y-86804417D01*
X128295244Y-86999031D01*
X128388141Y-87181350D01*
X128388147Y-87181359D01*
X128420523Y-87225921D01*
X128420524Y-87225922D01*
X129100000Y-86546446D01*
X129100000Y-86552661D01*
X129127259Y-86654394D01*
X129179920Y-86745606D01*
X129254394Y-86820080D01*
X129345606Y-86872741D01*
X129447339Y-86900000D01*
X129453553Y-86900000D01*
X128774076Y-87579474D01*
X128818650Y-87611859D01*
X129000968Y-87704755D01*
X129195582Y-87767990D01*
X129397683Y-87800000D01*
X129602317Y-87800000D01*
X129804417Y-87767990D01*
X129999031Y-87704755D01*
X130181349Y-87611859D01*
X130225921Y-87579474D01*
X129546447Y-86900000D01*
X129552661Y-86900000D01*
X129654394Y-86872741D01*
X129745606Y-86820080D01*
X129820080Y-86745606D01*
X129872741Y-86654394D01*
X129900000Y-86552661D01*
X129900000Y-86546448D01*
X130579474Y-87225922D01*
X130579474Y-87225921D01*
X130611859Y-87181349D01*
X130704755Y-86999031D01*
X130767990Y-86804417D01*
X130800000Y-86602317D01*
X130800000Y-86397682D01*
X130767990Y-86195582D01*
X130704755Y-86000968D01*
X130611859Y-85818650D01*
X130579474Y-85774077D01*
X130579474Y-85774076D01*
X129900000Y-86453551D01*
X129900000Y-86447339D01*
X129872741Y-86345606D01*
X129820080Y-86254394D01*
X129745606Y-86179920D01*
X129654394Y-86127259D01*
X129552661Y-86100000D01*
X129546446Y-86100000D01*
X130225922Y-85420524D01*
X130225921Y-85420523D01*
X130181359Y-85388147D01*
X130181350Y-85388141D01*
X130127621Y-85360765D01*
X130076825Y-85312791D01*
X130060030Y-85244970D01*
X130082567Y-85178835D01*
X130127621Y-85139795D01*
X130181610Y-85112287D01*
X130334829Y-85000968D01*
X130347213Y-84991971D01*
X130347215Y-84991968D01*
X130347219Y-84991966D01*
X130491966Y-84847219D01*
X130491968Y-84847215D01*
X130491971Y-84847213D01*
X130563728Y-84748446D01*
X130612287Y-84681610D01*
X130705220Y-84499219D01*
X130768477Y-84304534D01*
X130800500Y-84102352D01*
X130800500Y-83897648D01*
X130786539Y-83809500D01*
X130768477Y-83695465D01*
X130737458Y-83600000D01*
X130705220Y-83500781D01*
X130705218Y-83500778D01*
X130705218Y-83500776D01*
X130612419Y-83318650D01*
X130612287Y-83318390D01*
X130580092Y-83274077D01*
X130491971Y-83152786D01*
X130347213Y-83008028D01*
X130181613Y-82887715D01*
X130181612Y-82887714D01*
X130181610Y-82887713D01*
X130124653Y-82858691D01*
X129999223Y-82794781D01*
X129804534Y-82731522D01*
X129629995Y-82703878D01*
X129602352Y-82699500D01*
X129397648Y-82699500D01*
X129373329Y-82703351D01*
X129195465Y-82731522D01*
X129000776Y-82794781D01*
X128818386Y-82887715D01*
X128652786Y-83008028D01*
X128508028Y-83152786D01*
X128387715Y-83318386D01*
X128294781Y-83500776D01*
X128231522Y-83695465D01*
X128199500Y-83897648D01*
X125299995Y-83897648D01*
X125267990Y-83695582D01*
X125204755Y-83500968D01*
X125111859Y-83318650D01*
X125079474Y-83274077D01*
X125079474Y-83274076D01*
X124400000Y-83953551D01*
X124400000Y-83947339D01*
X124372741Y-83845606D01*
X124320080Y-83754394D01*
X124245606Y-83679920D01*
X124154394Y-83627259D01*
X124052661Y-83600000D01*
X124046446Y-83600000D01*
X124725922Y-82920524D01*
X124725921Y-82920523D01*
X124681359Y-82888147D01*
X124681350Y-82888141D01*
X124499031Y-82795244D01*
X124304417Y-82732009D01*
X124102317Y-82700000D01*
X123897683Y-82700000D01*
X123695582Y-82732009D01*
X123500968Y-82795244D01*
X123318644Y-82888143D01*
X123274077Y-82920523D01*
X123274077Y-82920524D01*
X123953554Y-83600000D01*
X123947339Y-83600000D01*
X123845606Y-83627259D01*
X123754394Y-83679920D01*
X123679920Y-83754394D01*
X123627259Y-83845606D01*
X123600000Y-83947339D01*
X123600000Y-83953553D01*
X122920524Y-83274077D01*
X122920523Y-83274077D01*
X122888143Y-83318644D01*
X122795244Y-83500968D01*
X122732009Y-83695582D01*
X122700000Y-83897682D01*
X122700000Y-84102317D01*
X122732009Y-84304417D01*
X122795244Y-84499031D01*
X122888141Y-84681350D01*
X122888147Y-84681359D01*
X122920523Y-84725921D01*
X122920524Y-84725922D01*
X123600000Y-84046446D01*
X123600000Y-84052661D01*
X123627259Y-84154394D01*
X123679920Y-84245606D01*
X123754394Y-84320080D01*
X123845606Y-84372741D01*
X123947339Y-84400000D01*
X123953553Y-84400000D01*
X123274076Y-85079474D01*
X123318652Y-85111861D01*
X123372376Y-85139234D01*
X123423172Y-85187208D01*
X123439968Y-85255028D01*
X123417431Y-85321164D01*
X123372379Y-85360203D01*
X123318386Y-85387714D01*
X123152786Y-85508028D01*
X123008028Y-85652786D01*
X122887715Y-85818386D01*
X122794781Y-86000776D01*
X122731522Y-86195465D01*
X122699500Y-86397648D01*
X119416101Y-86397648D01*
X119416101Y-86392766D01*
X119416101Y-86236544D01*
X119413255Y-86225922D01*
X119375177Y-86083816D01*
X119327345Y-86000968D01*
X119296124Y-85946890D01*
X119296118Y-85946882D01*
X119294077Y-85944841D01*
X119292905Y-85942695D01*
X119291174Y-85940439D01*
X119291525Y-85940168D01*
X119260592Y-85883518D01*
X119263827Y-85818842D01*
X119268477Y-85804534D01*
X119300500Y-85602352D01*
X119300500Y-85397648D01*
X119277911Y-85255028D01*
X119268477Y-85195465D01*
X119230789Y-85079474D01*
X119205220Y-85000781D01*
X119205218Y-85000778D01*
X119205218Y-85000776D01*
X119126973Y-84847213D01*
X119112287Y-84818390D01*
X119061207Y-84748085D01*
X119037729Y-84682282D01*
X119053554Y-84614228D01*
X119073839Y-84587528D01*
X119142712Y-84518656D01*
X119234814Y-84369334D01*
X119289999Y-84202797D01*
X119300500Y-84100009D01*
X119300499Y-82899992D01*
X119299288Y-82888141D01*
X119289999Y-82797203D01*
X119289998Y-82797200D01*
X119268396Y-82732009D01*
X119234814Y-82630666D01*
X119142712Y-82481344D01*
X119018656Y-82357288D01*
X118869334Y-82265186D01*
X118799983Y-82242205D01*
X118742539Y-82202433D01*
X118715716Y-82137917D01*
X118728031Y-82069142D01*
X118775574Y-82017942D01*
X118838988Y-82000500D01*
X155875500Y-82000500D01*
X155942539Y-82020185D01*
G37*
%TD.AperFunction*%
%TD*%
M02*
