G04 ================== begin FILE IDENTIFICATION RECORD ==================*
G04 Layout Name:  C:/8051 Board Design/demo/Footprint/8051demoboard.brd*
G04 Film Name:    SOLDERMASKTOP*
G04 File Format:  Gerber RS274X*
G04 File Origin:  Cadence Allegro 17.2-P019*
G04 Origin Date:  Sat Aug 13 12:20:46 2022*
G04 *
G04 Layer:  VIA CLASS/SOLDERMASK_TOP*
G04 Layer:  PIN/SOLDERMASK_TOP*
G04 Layer:  PACKAGE GEOMETRY/SOLDERMASK_TOP*
G04 Layer:  DRC ERROR CLASS/SOLDERMASK_TOP*
G04 Layer:  BOARD GEOMETRY/SOLDERMASK_TOP*
G04 Layer:  BOARD GEOMETRY/DESIGN_OUTLINE*
G04 *
G04 Offset:    (0.000 0.000)*
G04 Mirror:    No*
G04 Mode:      Positive*
G04 Rotation:  0*
G04 FullContactRelief:  No*
G04 UndefLineWidth:     0.200*
G04 ================== end FILE IDENTIFICATION RECORD ====================*
%FSLAX25Y25*MOMM*%
%IR0*IPPOS*OFA0.00000B0.00000*MIA0B0*SFA1.00000B1.00000*%
%ADD27C,1.03*%
%ADD19R,1.7X.6*%
%ADD15R,.9X1.5*%
%ADD21C,2.06*%
%ADD28C,1.45*%
%ADD18C,1.118*%
%ADD16C,1.408*%
%ADD14C,3.316*%
%ADD22R,2.06X2.06*%
%ADD29R,1.45X1.45*%
%ADD25C,1.676*%
%ADD17R,1.408X1.408*%
%ADD12C,1.698*%
%ADD26R,1.676X1.676*%
%ADD13R,1.698X1.698*%
%ADD20R,2.2X1.4*%
%ADD23R,1.74X1.18*%
%ADD24R,1.18X1.74*%
%ADD10O,4.826X2.286*%
%ADD11O,2.286X4.826*%
%ADD30C,.2*%
G75*
%LPD*%
G75*
G54D10*
X1140600Y6289900D03*
G54D11*
X820600Y6770000D03*
X1420000D03*
G54D20*
X2250000Y7160000D03*
X2530000D03*
X2940000D03*
X3220000D03*
X4240000Y1260000D03*
X4520000D03*
G54D30*
G01X10000000Y0D02*
Y7500000D01*
X0D01*
Y0D01*
X10000000D01*
G54D12*
X1105000Y345000D03*
X1755000D03*
Y795000D03*
X2285000Y325000D03*
X2935000D03*
Y775000D03*
X3445000Y325000D03*
X4095000D03*
Y775000D03*
G54D21*
X2446000Y6000000D03*
X2700000D03*
G54D13*
X1105000Y795000D03*
X2285000Y775000D03*
X3445000D03*
G54D22*
X2954000Y6000000D03*
G54D23*
X3700000Y6714000D03*
Y7006000D03*
G54D14*
X1190000Y2328000D03*
Y3532000D03*
G54D24*
X4834000Y320000D03*
X5126000D03*
X5064000Y3630000D03*
X4974000Y4410000D03*
X5356000Y3630000D03*
X5266000Y4410000D03*
X5474000Y6260000D03*
X5766000D03*
X6704000Y310000D03*
X6996000D03*
G54D15*
X1385000Y1230000D03*
X1575000D03*
X2265000Y6590000D03*
X2565000Y1190000D03*
X2455000Y6590000D03*
X2755000Y1190000D03*
X3015000Y6590000D03*
X3205000D03*
X3715000Y1260000D03*
X3905000D03*
X6635000Y6690000D03*
X6825000D03*
X7035000Y6670000D03*
X7225000D03*
X8105000Y420000D03*
X7915000D03*
X8655000D03*
X8845000D03*
G54D25*
X5053000Y2267000D03*
Y2521000D03*
Y2775000D03*
Y3029000D03*
X5003000Y4757000D03*
Y5011000D03*
Y5265000D03*
Y5519000D03*
X5307000Y2267000D03*
Y2521000D03*
Y2775000D03*
Y3029000D03*
Y3283000D03*
X5257000Y4757000D03*
Y5011000D03*
Y5265000D03*
Y5519000D03*
Y5773000D03*
X8200000Y4218000D03*
Y4472000D03*
Y4726000D03*
Y4980000D03*
Y5234000D03*
Y5488000D03*
Y5742000D03*
Y5996000D03*
X8783000Y2317000D03*
Y2571000D03*
Y2825000D03*
Y3079000D03*
Y3333000D03*
X8823000Y4757000D03*
Y5011000D03*
Y5265000D03*
Y5519000D03*
X9037000Y2571000D03*
Y2825000D03*
Y3079000D03*
Y3333000D03*
X9077000Y4757000D03*
Y5011000D03*
Y5265000D03*
Y5519000D03*
Y5773000D03*
G54D16*
X1460000Y2805000D03*
Y3055000D03*
X1660000D03*
G54D26*
X5053000Y3283000D03*
X5003000Y5773000D03*
X8200000Y6250000D03*
X8823000Y5773000D03*
X9037000Y2317000D03*
G54D17*
X1660000Y2805000D03*
G54D18*
X1755000Y1279600D03*
X1660000Y2352400D03*
X2807800Y419000D03*
X2610600Y2562500D03*
X2700000Y6590000D03*
X2881500Y1260000D03*
Y2692500D03*
X2880300Y7300000D03*
X3799600Y1260000D03*
X5076200Y4410000D03*
X5023800Y6260000D03*
X5307000Y1417000D03*
X5253800Y3630000D03*
X5307000Y3802100D03*
X7099500Y3703000D03*
G54D27*
X5666000Y350000D03*
X6154000D03*
G54D28*
X6132100Y1417000D03*
Y1671000D03*
Y1925000D03*
Y2179000D03*
Y2433000D03*
Y2687000D03*
Y2941000D03*
Y3195000D03*
Y3449000D03*
Y3703000D03*
Y3957000D03*
Y4211000D03*
Y4465000D03*
Y4719000D03*
Y4973000D03*
Y5227000D03*
Y5481000D03*
Y5735000D03*
Y5989000D03*
X7687900Y1417000D03*
Y1671000D03*
Y1925000D03*
Y2179000D03*
Y2433000D03*
Y2687000D03*
Y2941000D03*
Y3195000D03*
Y3449000D03*
Y3703000D03*
Y3957000D03*
Y4211000D03*
Y4465000D03*
Y4719000D03*
Y4973000D03*
Y5227000D03*
Y5481000D03*
Y5735000D03*
Y5989000D03*
Y6243000D03*
G54D19*
X2340000Y2497500D03*
Y2562500D03*
Y2627500D03*
Y2692500D03*
Y2757500D03*
Y2822500D03*
Y2887500D03*
Y2952500D03*
Y3017500D03*
Y3082500D03*
Y3147500D03*
Y3212500D03*
Y3277500D03*
Y3342500D03*
X3120000Y2562500D03*
Y2497500D03*
Y2822500D03*
Y2757500D03*
Y2692500D03*
Y2627500D03*
Y3017500D03*
Y2952500D03*
Y2887500D03*
Y3277500D03*
Y3212500D03*
Y3147500D03*
Y3082500D03*
Y3342500D03*
G54D29*
X6132100Y6243000D03*
M02*
