G04 ================== begin FILE IDENTIFICATION RECORD ==================*
G04 Layout Name:  C:/PCB DESIGN INTENSIVE/demo/Footprint/8051FINAL.brd*
G04 Film Name:    TOP*
G04 File Format:  Gerber RS274X*
G04 File Origin:  Cadence Allegro 17.2-P019*
G04 Origin Date:  Sun Apr 10 22:40:15 2022*
G04 *
G04 Layer:  ETCH/TOP*
G04 Layer:  PIN/TOP*
G04 Layer:  VIA CLASS/TOP*
G04 *
G04 Offset:    (0.0000 0.0000)*
G04 Mirror:    No*
G04 Mode:      Positive*
G04 Rotation:  0*
G04 FullContactRelief:  No*
G04 UndefLineWidth:     0.2000*
G04 ================== end FILE IDENTIFICATION RECORD ====================*
%FSLAX25Y25*MOMM*%
%IR0*IPPOS*OFA0.00000B0.00000*MIA0B0*SFA1.00000B1.00000*%
%ADD21R,1.5X.4*%
%ADD26R,1.3X.7*%
%ADD12R,.7X1.3*%
%ADD16C,.5*%
%ADD27R,1.2X2.*%
%ADD20R,2.X1.2*%
%ADD14R,.1X.1*%
%ADD15C,1.0001*%
%ADD25C,2.0001*%
%ADD33C,1.03*%
%ADD24R,1.59X1.5*%
%ADD34R,1.5X1.59*%
%ADD31C,1.25*%
%ADD30R,1.74X1.18*%
%ADD17R,1.18X1.74*%
%ADD28C,1.524*%
%ADD18C,1.408*%
%ADD13C,3.316*%
%ADD32R,1.25X1.25*%
%ADD22C,1.86*%
%ADD29R,1.524X1.524*%
%ADD19R,1.408X1.408*%
%ADD23R,1.86X1.86*%
%ADD10C,1.498*%
%ADD11R,1.498X1.498*%
%ADD35C,.2*%
%ADD36C,.127*%
G75*
%LPD*%
G75*
G36*
G01X1225000Y5730000D02*
Y5705000D01*
X1335000D01*
G03X1410000Y5780000I-10J75010D01*
G03X1335000Y5855000I-75010J-10D01*
G01X1225000D01*
Y5830000D01*
X1335000D01*
G02X1385000Y5780000I16J-49984D01*
G02X1335000Y5730000I-49984J-16D01*
G01X1225000D01*
G37*
G36*
G01Y5830000D02*
Y5855000D01*
X1115000D01*
G03X1040000Y5780000I10J-75010D01*
G03X1115000Y5705000I75010J10D01*
G01X1225000D01*
Y5730000D01*
X1115000D01*
G02X1065000Y5780000I-16J49984D01*
G02X1115000Y5830000I49984J16D01*
G01X1225000D01*
G37*
G36*
G01X935000Y6260000D02*
X960000D01*
Y6370000D01*
G03X885000Y6445000I-75010J-10D01*
G03X810000Y6370000I10J-75010D01*
G01Y6260000D01*
X835000D01*
Y6370000D01*
G02X885000Y6420000I49984J16D01*
G02X935000Y6370000I16J-49984D01*
G01Y6260000D01*
G37*
G36*
G01X835000D02*
X810000D01*
Y6150000D01*
G03X885000Y6075000I75010J10D01*
G03X960000Y6150000I-10J75010D01*
G01Y6260000D01*
X935000D01*
Y6150000D01*
G02X885000Y6100000I-49984J-16D01*
G02X835000Y6150000I-16J49984D01*
G01Y6260000D01*
G37*
G36*
G01X1465000D02*
X1440000D01*
Y6130000D01*
G03X1515000Y6055000I75010J10D01*
G03X1590000Y6130000I-10J75010D01*
G01Y6260000D01*
X1565000D01*
Y6130000D01*
G02X1515000Y6080000I-49984J-16D01*
G02X1465000Y6130000I-16J49984D01*
G01Y6260000D01*
G37*
G36*
G01X1565000D02*
X1590000D01*
Y6390000D01*
G03X1515000Y6465000I-75010J-10D01*
G03X1440000Y6390000I10J-75010D01*
G01Y6260000D01*
X1465000D01*
Y6390000D01*
G02X1515000Y6440000I49984J16D01*
G02X1565000Y6390000I16J-49984D01*
G01Y6260000D01*
G37*
G54D10*
X585000Y665000D03*
X1235000D03*
Y1115000D03*
X1795000Y645000D03*
X2445000D03*
Y1095000D03*
X3255000Y645000D03*
X3905000D03*
Y1095000D03*
G54D11*
X585000Y1115000D03*
X1795000Y1095000D03*
X3255000D03*
G54D20*
X2030000Y5940000D03*
X2310000D03*
X2660000D03*
X2940000D03*
G54D30*
X5840000Y354000D03*
Y646000D03*
X7600000Y334000D03*
Y626000D03*
G54D12*
X1015000Y420000D03*
X825000D03*
X2025000D03*
X2215000D03*
X3515000D03*
X3705000D03*
X8195000Y3620000D03*
X8005000D03*
X8205000Y3350000D03*
X8015000D03*
X8905000Y860000D03*
X8715000D03*
X9505000Y870000D03*
X9315000D03*
G54D21*
X2767500Y3197500D03*
Y3522500D03*
Y3587500D03*
Y3652500D03*
Y3717500D03*
Y3782500D03*
Y3847500D03*
Y3912500D03*
Y3262500D03*
Y3327500D03*
Y3392500D03*
Y3457500D03*
Y3977500D03*
Y4042500D03*
X3492500Y3197500D03*
Y3912500D03*
Y3847500D03*
Y3782500D03*
Y3717500D03*
Y3652500D03*
Y3587500D03*
Y3522500D03*
Y3457500D03*
Y3392500D03*
Y3327500D03*
Y3262500D03*
Y4042500D03*
Y3977500D03*
G54D22*
X2714000Y6390000D03*
X2460000D03*
G54D13*
X1170000Y3108000D03*
Y4312000D03*
G54D31*
X5972100Y1227000D03*
Y1481000D03*
Y1735000D03*
Y1989000D03*
Y2243000D03*
Y2497000D03*
Y2751000D03*
Y3005000D03*
Y3259000D03*
Y3513000D03*
Y3767000D03*
Y4021000D03*
Y4275000D03*
Y4529000D03*
Y4783000D03*
Y5037000D03*
Y5291000D03*
Y5545000D03*
Y5799000D03*
X7527900Y1735000D03*
Y1481000D03*
Y1227000D03*
Y2497000D03*
Y2243000D03*
Y1989000D03*
Y3259000D03*
Y3005000D03*
Y2751000D03*
Y3767000D03*
Y3513000D03*
Y4529000D03*
Y4275000D03*
Y4021000D03*
Y5291000D03*
Y5037000D03*
Y4783000D03*
Y6053000D03*
Y5799000D03*
Y5545000D03*
G54D23*
X2206000Y6390000D03*
G54D32*
X5972100Y6053000D03*
G54D14*
X1225000Y5840000D03*
X950000Y6260000D03*
X1455000D03*
G54D24*
X3320000Y6019500D03*
Y5660500D03*
G54D33*
X7014000Y510000D03*
X6526000D03*
G54D15*
X1225000Y5780000D03*
X885000Y6260000D03*
X1515000D03*
G54D34*
X9029500Y440000D03*
X8670500D03*
X9669500Y450000D03*
X9310500D03*
G54D25*
X3320000Y5840000D03*
X8850000Y440000D03*
X9490000Y450000D03*
G54D16*
X1610000Y280000D03*
X2540000Y3710000D03*
X2150000Y3460000D03*
X2540000Y3830000D03*
X2582500Y4042500D03*
X3200000Y3570000D03*
X2920000Y3350000D03*
X3040000Y3550000D03*
X3030000Y3770000D03*
X2910000Y3830000D03*
X3060000Y3980000D03*
X2860000Y5430000D03*
X3250000Y5470000D03*
X3620000Y2920000D03*
X4580000Y790000D03*
X4260000Y2860000D03*
X4505000Y3825000D03*
X5550000Y1860000D03*
X5620000Y3860000D03*
X5030000Y3760000D03*
X6370000Y4690000D03*
X8530000Y990940D03*
X9180000Y730000D03*
X9277000Y4657000D03*
G54D35*
G01X1225000Y5845000D02*
X934140Y6135860D01*
G01X1225000Y5840000D02*
Y5845000D01*
G01X2270000Y5940000D02*
X2310000D01*
G01X1225000Y5845000D02*
X1257680D01*
X1271340Y5831340D01*
G01X942840Y6207160D02*
X935000D01*
G01X814140Y6164140D02*
Y6135860D01*
G01D02*
X934140D01*
G54D17*
X2134000Y2930000D03*
X2124000Y3260000D03*
X2426000Y2930000D03*
X2416000Y3260000D03*
X2694000Y5670000D03*
X2986000D03*
X6836000Y6450000D03*
X6544000D03*
G54D26*
X3310000Y6515000D03*
Y6325000D03*
G54D36*
G01X2025000Y420000D02*
X1559990D01*
X1353010Y213020D01*
X876990D01*
X825000Y265010D01*
Y420000D01*
G01X1015000D02*
Y555000D01*
X1040000Y580000D01*
Y920000D01*
X1235000Y1115000D01*
G01D02*
Y1425000D01*
X2000000Y2190000D01*
X3400000D01*
X4150000Y2940000D01*
X4310000D01*
X4520000Y2730000D01*
X4738000D01*
X4857000Y2849000D01*
G01X1271340Y5831340D02*
X1294060Y5808610D01*
Y5805940D01*
X1390000Y5710000D01*
X2040000D01*
X2270000Y5940000D01*
G01X3705000Y390000D02*
Y335000D01*
X3650000Y280000D01*
X1610000D01*
G01X2025000Y420000D02*
X2079060D01*
X2179060Y320000D01*
X2360000D01*
X2820000Y780000D01*
Y1140000D01*
X2940000Y1260000D01*
X3740000D01*
X3905000Y1095000D01*
G01X2416000Y3288000D02*
X2014000Y3690000D01*
X1545000D01*
X1440000Y3585000D01*
G01X1640000D02*
X1827000D01*
X2124000Y3288000D01*
G01X1640000Y3835000D02*
X2165000D01*
X2540000Y4210000D01*
X2830000D01*
X2980000Y4060000D01*
Y3409040D01*
X3126540Y3262500D01*
X3492500D01*
G01X1440000Y3835000D02*
X1529450Y3745550D01*
X2165540D01*
X2575450Y4155460D01*
X2776490D01*
X2954050Y3977900D01*
Y3399060D01*
X3155610Y3197500D01*
X3492500D01*
G01X1584060Y6205940D02*
X1850000Y5940000D01*
X2030000D01*
G01X1584060Y6324060D02*
Y6215940D01*
G01Y6324060D02*
X1650000Y6390000D01*
X2206000D01*
G01X1584060Y6215940D02*
Y6205940D01*
G01X2445000Y1095000D02*
X2215000Y865000D01*
Y420000D01*
G01X2445000Y1095000D02*
X4210000Y2860000D01*
X4260000D01*
G01X2426000Y2930000D02*
Y3143940D01*
X2416000Y3153940D01*
Y3260000D01*
G01X2134000Y2930000D02*
Y3143940D01*
X2124000Y3153940D01*
Y3260000D01*
G01X2767500Y3782500D02*
X2612500D01*
X2540000Y3710000D01*
G01X2416000Y3288000D02*
Y3260000D01*
G01X2920000Y3350000D02*
Y3630000D01*
X2897500Y3652500D01*
X2767500D01*
G01D02*
X2532500D01*
X2416000Y3536000D01*
Y3288000D01*
G01X2124000D02*
Y3434000D01*
X2150000Y3460000D01*
G01X2124000Y3260000D02*
Y3288000D01*
G01X2910000Y3830000D02*
X2785000D01*
X2767500Y3847500D01*
G01X2540000Y3830000D02*
X2655940D01*
X2673440Y3847500D01*
X2767500D01*
G01Y4042500D02*
X2582500D01*
G01X2460000Y6390000D02*
Y6050000D01*
X2350000Y5940000D01*
G01D02*
X2310000D01*
G01X2660000D02*
X2350000D01*
G01X2860000Y5430000D02*
X2815940D01*
X2694000Y5551940D01*
Y5670000D01*
G01X2660000Y5940000D02*
Y5860940D01*
X2694000Y5826940D01*
Y5670000D01*
G01X2714000Y6390000D02*
Y6126000D01*
X2900000Y5940000D01*
X2940000D01*
G01X2714000Y6390000D02*
X3215000D01*
X3280000Y6325000D01*
X3310000D01*
G01X2714000Y6390000D02*
X3134000Y6810000D01*
X7270000D01*
X7527900Y6552100D01*
Y6053000D01*
G01X3585660Y525660D02*
X3581870Y529450D01*
X3370550D01*
X3255000Y645000D01*
G01X3492500Y3392500D02*
X3586560D01*
X3640000Y3445940D01*
Y3547300D01*
X3599800Y3587500D01*
X3586560D01*
G01X3492500D02*
X3586560D01*
G01X3320000Y5540000D02*
Y3932690D01*
X3332690Y3920000D01*
X3360000D01*
G01X3492500Y3912500D02*
X3752500D01*
X3960000Y4120000D01*
Y4380000D01*
X4380000Y4800000D01*
X4754000D01*
X4857000Y4697000D01*
G01X3492500Y3912500D02*
X3398440D01*
X3390940Y3920000D01*
X3360000D01*
G01X3492500Y3847500D02*
X3500000Y3840000D01*
X3590000D01*
X3610000Y3820000D01*
Y3610940D01*
X3586560Y3587500D01*
G01X3492500Y3847500D02*
X3398440D01*
X3360000Y3885940D01*
Y3920000D01*
G01X3492500Y3587500D02*
X3398440D01*
X3380940Y3570000D01*
X3200000D01*
G01X3492500Y3522500D02*
X3067500D01*
X3040000Y3550000D01*
G01X2986000Y5670000D02*
Y4089930D01*
X3005400Y4070530D01*
Y4034600D01*
X3060000Y3980000D01*
G01X3320000Y5540000D02*
Y5660500D01*
G01X3250000Y5470000D02*
X3320000Y5540000D01*
G01Y6019500D02*
X3324500D01*
X3510000Y6205000D01*
Y6399060D01*
X3394060Y6515000D01*
X3310000D01*
G01X2940000Y5940000D02*
Y5860940D01*
X2986000Y5814940D01*
Y5670000D01*
G01X5686000Y354000D02*
X3741000D01*
X3705000Y390000D01*
G01Y420000D02*
Y390000D01*
G01X3905000Y1095000D02*
X4125940D01*
X4150940Y1070000D01*
X4230000D01*
G01Y790000D02*
Y750000D01*
X4010000Y530000D01*
X3590000D01*
X3585660Y525660D01*
G01D02*
X3600000Y511320D01*
Y450940D01*
X3569060Y420000D01*
X3515000D01*
G01X4505000Y3825000D02*
Y3725000D01*
X3700000Y2920000D01*
X3620000D01*
G01X4580000Y790000D02*
X4230000D01*
G01Y1070000D02*
Y1714000D01*
X4603000Y2087000D01*
G01X5972100Y2243000D02*
X5089720D01*
X4896470Y2436250D01*
X4698250D01*
X4603000Y2341000D01*
G01X5972100Y1989000D02*
X5209000D01*
X4857000Y2341000D01*
G01Y2087000D02*
Y1875700D01*
X4932700Y1800000D01*
X5500000D01*
X5972100Y1327900D01*
Y1227000D01*
G01X5550000Y1860000D02*
X5084000D01*
X4857000Y2087000D01*
G01X5972100Y3767000D02*
X5267000D01*
X4603000Y3103000D01*
G01X5972100Y3513000D02*
X5231070D01*
X4924360Y3206290D01*
Y3170360D01*
X4857000Y3103000D01*
G01X5972100Y3259000D02*
X5013000D01*
X4952250Y3198250D01*
Y3063530D01*
X4896470Y3007750D01*
X4761750D01*
X4603000Y2849000D01*
G01X5972100Y3005000D02*
X5013000D01*
X4857000Y2849000D01*
G01X4603000Y2595000D02*
X4698260D01*
X4854260Y2751000D01*
X5972100D01*
G01Y2497000D02*
X4955000D01*
X4857000Y2595000D01*
G01X5030000Y3760000D02*
X4603000Y4187000D01*
Y4697000D01*
G01X5620000Y3860000D02*
X5530000Y3950000D01*
X5090000D01*
X4857000Y4183000D01*
Y4697000D01*
G01X5972100Y5037000D02*
X5799100Y5210000D01*
X5040000D01*
X4949750Y5300250D01*
X4698250D01*
X4603000Y5205000D01*
G01X5972100Y4783000D02*
X5625100Y5130000D01*
X4932000D01*
X4857000Y5205000D01*
G01X5972100Y4529000D02*
X5890540D01*
X5373290Y5046250D01*
X4698250D01*
X4603000Y4951000D01*
G01X4857000D02*
X5296100D01*
X5972100Y4275000D01*
G01X4603000Y5713000D02*
X4830000Y5940000D01*
Y5990000D01*
X4893000Y6053000D01*
X5972100D01*
G01Y5799000D02*
X4943000D01*
X4857000Y5713000D01*
G01X5972100Y5545000D02*
X4905720D01*
X4896470Y5554250D01*
X4698250D01*
X4603000Y5459000D01*
G01X5972100Y5291000D02*
X5025000D01*
X4857000Y5459000D01*
G01X5840000Y354000D02*
X5686000D01*
G01D02*
Y1214300D01*
X5698700Y1227000D01*
X5972100D01*
G01X7600000Y334000D02*
X7574000D01*
X7390000Y150000D01*
X6072000D01*
X5868000Y354000D01*
X5840000D01*
G01X5868000Y646000D02*
X6240000Y1018000D01*
Y1467100D01*
X5972100Y1735000D01*
G01X5868000Y646000D02*
X5840000D01*
G01X6526000Y510000D02*
X5976000D01*
X5940480Y545520D01*
Y573520D01*
X5868000Y646000D01*
G01X5972100Y1481000D02*
X5860000Y1593100D01*
Y1780000D01*
X5920000Y1840000D01*
X6060000D01*
X7020000Y880000D01*
Y690000D01*
G01X7600000Y626000D02*
X7493940D01*
X7399940Y720000D01*
X7050000D01*
X7020000Y690000D01*
G01D02*
X7014000Y684000D01*
Y510000D01*
G01X6836000Y6450000D02*
Y5156000D01*
X6370000Y4690000D01*
G01X8670500Y346700D02*
X8633800Y310000D01*
X7730060D01*
X7706060Y334000D01*
X7600000D01*
G01X9315000Y900000D02*
Y935000D01*
X9023000Y1227000D01*
X7527900D01*
G01Y1481000D02*
X8567000D01*
X9093000Y2007000D01*
G01X7527900Y1735000D02*
X8665000D01*
X9070000Y2140000D01*
X9226000D01*
X9347000Y2261000D01*
G01X7527900Y1989000D02*
X8821000D01*
X9093000Y2261000D01*
G01X7527900Y2243000D02*
X7674900Y2390000D01*
X9222000D01*
X9347000Y2515000D01*
G01X7527900Y2497000D02*
X7609460D01*
X7627460Y2515000D01*
X9093000D01*
G01X7527900Y2751000D02*
X8929000D01*
X9050000Y2630000D01*
X9208000D01*
X9347000Y2769000D01*
G01X9093000D02*
X8857000Y3005000D01*
X7527900D01*
G01X8195000Y3620000D02*
Y3705000D01*
X8133000Y3767000D01*
X7527900D01*
G01Y3259000D02*
X8144000D01*
X8205000Y3320000D01*
Y3350000D01*
G01X7527900Y4529000D02*
X7991740D01*
X7994740Y4526000D01*
X8090000D01*
G01Y4272000D02*
X7612460D01*
X7609460Y4275000D01*
X7527900D01*
G01Y4021000D02*
X7991740D01*
X7994740Y4018000D01*
X8090000D01*
G01X7527900Y5037000D02*
X7991740D01*
X7994740Y5034000D01*
X8090000D01*
G01Y4780000D02*
X7612460D01*
X7609460Y4783000D01*
X7527900D01*
G01Y5291000D02*
X7991740D01*
X7994740Y5288000D01*
X8090000D01*
G01Y5542000D02*
X7612460D01*
X7609460Y5545000D01*
X7527900D01*
G01Y5799000D02*
X7991740D01*
X7994740Y5796000D01*
X8090000D01*
G01X9347000Y3023000D02*
X8900000Y3470000D01*
X8170000D01*
X8050000Y3350000D01*
X8015000D01*
G01X8005000Y3620000D02*
Y3535940D01*
X8015000Y3525940D01*
Y3350000D01*
G01X9277000Y5165000D02*
X9181750Y5069750D01*
X9047030D01*
X8927750Y4950470D01*
Y4947750D01*
X8506000Y4526000D01*
X8090000D01*
G01Y4272000D02*
X8384000D01*
X9023000Y4911000D01*
G01X9277000D02*
X9181750Y4815750D01*
X9047030D01*
X8249280Y4018000D01*
X8090000D01*
G01Y5034000D02*
X8226000Y5170000D01*
X8850000D01*
X8970730Y5290730D01*
X9031990D01*
X9160260Y5419000D01*
X9277000D01*
G01X8090000Y4780000D02*
X8638000D01*
X9023000Y5165000D01*
G01X8090000Y5288000D02*
X8892000D01*
X9023000Y5419000D01*
G01X8090000Y5542000D02*
X9146000D01*
X9277000Y5673000D01*
G01X8090000Y5796000D02*
X8900000D01*
X9023000Y5673000D01*
G01X9310500Y450000D02*
Y445500D01*
X9121000Y256000D01*
X8714000D01*
X8670500Y299500D01*
Y346700D01*
G01D02*
Y440000D01*
G01X8715000Y860000D02*
X8660940D01*
X8530000Y990940D01*
G01X9310500Y450000D02*
Y599500D01*
X9180000Y730000D01*
G01X8905000Y860000D02*
X9007300D01*
X9029500Y837800D01*
Y440000D01*
G01X9347000Y3023000D02*
Y3760300D01*
X9307300Y3800000D01*
X9070000D01*
X9023000Y3847000D01*
Y4657000D01*
G01X9347000Y2007000D02*
Y932000D01*
X9315000Y900000D01*
G01D02*
Y870000D01*
G01X9505000D02*
X9560000D01*
X9669500Y760500D01*
Y450000D01*
G54D18*
X1440000Y3585000D03*
Y3835000D03*
X1640000D03*
G54D27*
X4230000Y790000D03*
Y1070000D03*
G54D19*
X1640000Y3585000D03*
G54D28*
X4603000Y2341000D03*
X4857000D03*
X4603000Y2087000D03*
X4857000D03*
Y3103000D03*
X4603000Y2849000D03*
X4857000D03*
X4603000Y2595000D03*
X4857000D03*
X4603000Y4697000D03*
X4857000D03*
X4603000Y5205000D03*
X4857000D03*
X4603000Y4951000D03*
X4857000D03*
Y5713000D03*
X4603000Y5459000D03*
X4857000D03*
X8090000Y4018000D03*
Y4272000D03*
Y4526000D03*
Y4780000D03*
Y5034000D03*
Y5288000D03*
Y5542000D03*
Y5796000D03*
X9093000Y2007000D03*
Y2261000D03*
Y2515000D03*
Y2769000D03*
Y3023000D03*
X9023000Y4657000D03*
X9277000D03*
X9023000Y5419000D03*
X9277000D03*
X9023000Y5165000D03*
X9277000D03*
X9023000Y4911000D03*
X9277000D03*
Y5673000D03*
X9347000Y2261000D03*
Y2515000D03*
Y2769000D03*
Y3023000D03*
G54D29*
X4603000Y3103000D03*
Y5713000D03*
X8090000Y6050000D03*
X9023000Y5673000D03*
X9347000Y2007000D03*
M02*
