G04 ================== begin FILE IDENTIFICATION RECORD ==================*
G04 Layout Name:  D:/OrCAD_Projects/Digital_Voltmeter/BOARD/board1.brd*
G04 Film Name:    BOTTOM*
G04 File Format:  Gerber RS274X*
G04 File Origin:  Cadence Allegro 25.1-S020*
G04 Origin Date:  Fri Mar 20 17:14:16 2026*
G04 *
G04 Layer:  BOARD GEOMETRY/OUTLINE*
G04 Layer:  ETCH/BOTTOM*
G04 Layer:  PIN/BOTTOM*
G04 Layer:  VIA CLASS/BOTTOM*
G04 *
G04 Offset:    (0.000 0.000)*
G04 Mirror:    No*
G04 Mode:      Positive*
G04 Rotation:  0*
G04 FullContactRelief:  No*
G04 UndefLineWidth:     0.000*
G04 ================== end FILE IDENTIFICATION RECORD ====================*
%FSLAX25Y25*MOIN*%
%IR0*IPPOS*OFA0.00000B0.00000*MIA0B0*SFA1.00000B1.00000*%
%ADD21C,.043307*%
%ADD22R,.043307X.043307*%
%ADD16C,.110236*%
%ADD17C,.064961*%
%ADD10C,.051496*%
%ADD13C,.052992*%
%ADD19C,.074016*%
%ADD18R,.064961X.064961*%
%ADD14C,.065984*%
%ADD20R,.074016X.074016*%
%ADD15R,.065984X.065984*%
%ADD12O,.06X.1*%
%ADD11C,.024016*%
%ADD23C,.007874*%
%ADD24C,.019685*%
G75*
%LPD*%
G75*
G54D10*
X22047Y11024D03*
X29921D03*
X75984Y14173D03*
X83858D03*
X139370Y13386D03*
X147244D03*
X178346Y14173D03*
X186220D03*
X278740Y11811D03*
X286614D03*
G54D11*
X32677Y70472D03*
Y422441D03*
X62598Y1575D03*
X76378Y14173D03*
X84646Y59843D03*
X94882Y461417D03*
X87402Y449213D03*
X125197Y101575D03*
X145669Y148031D03*
X163780Y70472D03*
X216929Y268504D03*
Y459055D03*
X226378Y124803D03*
X229528Y256299D03*
Y255118D03*
X259528Y165118D03*
X317717Y93307D03*
X363543Y158661D03*
X373622Y424409D03*
X375197Y415748D03*
X394488D03*
X382283Y466929D03*
X377559Y468898D03*
X472638Y447047D03*
X499213Y416142D03*
X506693Y419685D03*
X571260Y424409D03*
G54D20*
X353543Y158661D03*
G54D12*
X32677Y422441D03*
Y461417D03*
X99213Y424016D03*
X79173Y422441D03*
X96811Y461417D03*
X79173D03*
X145709Y424016D03*
X143307Y461417D03*
G54D21*
X462638Y392579D03*
X452638D03*
Y447579D03*
X462638D03*
X492638Y392579D03*
X482638D03*
X472638D03*
Y447579D03*
X482638D03*
X492638D03*
X522638Y392579D03*
X512638D03*
X502638D03*
Y447579D03*
X512638D03*
X522638D03*
X552638Y392579D03*
X542638D03*
X532638D03*
Y447579D03*
X542638D03*
X552638D03*
X582638Y392579D03*
X572638D03*
X562638D03*
Y447579D03*
X572638D03*
X582638D03*
X612638Y392579D03*
X602638D03*
X592638D03*
Y447579D03*
X602638D03*
X612638D03*
X642638Y392579D03*
X632638D03*
X622638D03*
Y447579D03*
X632638D03*
G54D13*
X68685Y337402D03*
X89583D03*
G54D22*
X642638Y447579D03*
G54D23*
G01X143307Y463417D02*
X137433Y469291D01*
X11811D01*
X7874Y465354D01*
Y6693D01*
X9843Y4724D01*
X74409D01*
X83858Y14173D01*
G01X29921Y11024D02*
X35827D01*
X84646Y59843D01*
G01X145709Y424016D02*
Y426016D01*
X128130Y443594D01*
X80173D01*
X78886Y444882D01*
X16142D01*
X15354Y444094D01*
Y8268D01*
X16142Y7480D01*
X57087D01*
X71654Y22047D01*
X88976D01*
X106496Y4528D01*
X123819D01*
X136146Y16854D01*
X143776D01*
X147244Y13386D01*
G01X32677Y70472D02*
X163780D01*
G01X62598Y1575D02*
X127559D01*
X139370Y13386D01*
G01X145669Y148031D02*
X99394Y194307D01*
Y369622D01*
X95394Y373622D01*
X70472D01*
X63386Y366535D01*
Y342701D01*
X68685Y337402D01*
G01X75984Y14173D02*
X76378D01*
G01X99213Y424016D02*
Y378346D01*
X100681Y376878D01*
Y199071D01*
X154083Y145669D01*
X237795D01*
X238583Y146457D01*
Y182283D01*
X253937Y197638D01*
Y209528D01*
X259528Y215118D01*
G01X96811Y461417D02*
X94882D01*
G01X472638Y447047D02*
X470110Y444520D01*
X461370D01*
X458843Y447047D01*
X457677D01*
X454087Y450638D01*
X451370D01*
X449579Y448846D01*
X448311D01*
X443559Y453598D01*
Y455173D01*
X433846Y464886D01*
X385028D01*
X383689Y463547D01*
X380878D01*
X379217Y465209D01*
X154606D01*
X144921Y455524D01*
X141693D01*
X136783Y460433D01*
X103335D01*
X92114Y449213D01*
X87402D01*
G01X229528Y175118D02*
X218504Y164094D01*
Y158268D01*
X216929Y156693D01*
X144882D01*
X101969Y199606D01*
Y412205D01*
X104331Y414567D01*
X147638D01*
X153937Y420866D01*
X154331D01*
X155118Y421654D01*
Y422114D01*
X132350Y444882D01*
X80709D01*
X79173Y446417D01*
Y461417D01*
G01X259528Y195118D02*
X240157Y175748D01*
Y143701D01*
X198031Y101575D01*
X125197D01*
G01X139370Y13386D02*
X151181Y1575D01*
X173622D01*
X186220Y14173D01*
G01X143307Y461417D02*
Y463417D01*
G01D02*
Y467717D01*
X146457Y470866D01*
X376563D01*
X376689Y470992D01*
X378429D01*
X378555Y470866D01*
X549606D01*
X552362Y468110D01*
Y457854D01*
X562638Y447579D01*
G01X216929Y268504D02*
Y459055D01*
G01X226378Y124803D02*
Y101181D01*
X234252Y93307D01*
X317717D01*
G01X642638Y447579D02*
X635217Y440157D01*
X617717D01*
X606890Y429331D01*
X450386D01*
X425386Y454331D01*
X389055D01*
X387972Y453248D01*
X376594D01*
X375512Y454331D01*
X252961D01*
X242913Y444283D01*
Y206693D01*
X235039Y198819D01*
Y190630D01*
X229528Y185118D01*
G01Y195118D02*
X233752Y199343D01*
Y199354D01*
X241268Y206870D01*
Y326406D01*
X239295Y328378D01*
Y444020D01*
X240626Y445350D01*
X242157D01*
X252713Y455906D01*
X375760D01*
X377130Y454535D01*
X387437D01*
X388520Y455618D01*
X425921D01*
X449256Y432283D01*
X605906D01*
X616535Y442913D01*
X627972D01*
X632638Y447579D01*
G01X622638D02*
X619575D01*
X619516Y447638D01*
X617717D01*
X604724Y434646D01*
X448717D01*
X426457Y456906D01*
X387984D01*
X386902Y455823D01*
X377665D01*
X376008Y457480D01*
X252465D01*
X241622Y446638D01*
X239551D01*
X238008Y445094D01*
Y327843D01*
X239980Y325870D01*
Y215571D01*
X229528Y205118D01*
G01X612638Y447579D02*
X601673Y436614D01*
X448571D01*
X426992Y458193D01*
X387449D01*
X386366Y457110D01*
X378201D01*
X376543Y458768D01*
X251929D01*
X241087Y447925D01*
X239016D01*
X236720Y445630D01*
Y327307D01*
X238693Y325335D01*
Y224283D01*
X229528Y215118D01*
G01X582638Y447579D02*
X575823Y440764D01*
X452748D01*
X440984Y452528D01*
Y454102D01*
X431488Y463598D01*
X385563D01*
X384224Y462260D01*
X380343D01*
X379000Y463602D01*
X245886D01*
X229528Y447244D01*
Y262835D01*
X228579Y261886D01*
X226717D01*
X222760Y257929D01*
Y251886D01*
X229528Y245118D01*
G01X602638Y447579D02*
X593248Y438189D01*
X450787D01*
X431102Y457874D01*
X429134D01*
X425984Y461024D01*
X386634D01*
X385295Y459685D01*
X379272D01*
X377933Y461024D01*
X252362D01*
X240551Y449213D01*
X236220D01*
X235433Y448425D01*
Y326772D01*
X237402Y324803D01*
Y232992D01*
X229528Y225118D01*
G01X592638Y447579D02*
X584535Y439476D01*
X452213D01*
X439697Y451992D01*
Y453567D01*
X432496Y460768D01*
X428063D01*
X426520Y462311D01*
X386098D01*
X384760Y460972D01*
X379807D01*
X378465Y462315D01*
X246713D01*
X232252Y447854D01*
Y261047D01*
X231803Y260598D01*
X227252D01*
X224047Y257394D01*
Y252843D01*
X227252Y249638D01*
X230941D01*
X233720Y246858D01*
Y243378D01*
X229528Y239185D01*
Y235118D01*
G01Y255118D02*
Y256299D01*
G01X499213Y416142D02*
X468898D01*
X270866Y218110D01*
Y173228D01*
X262756Y165118D01*
X259528D01*
G01X506693Y419685D02*
X470028D01*
X261268Y210925D01*
X260531D01*
X259528Y209921D01*
Y205118D01*
G01X337402Y200000D02*
X330709Y193307D01*
X321260D01*
X318398Y190445D01*
Y144740D01*
X319937Y143201D01*
X349500D01*
X353543Y147244D01*
Y158661D01*
G01X317717Y200000D02*
Y195854D01*
X316929Y195067D01*
Y144386D01*
X319402Y141913D01*
X356087D01*
X363543Y149370D01*
Y158661D01*
G01X373543D02*
X367244Y164961D01*
X351173D01*
X348819Y162606D01*
Y146850D01*
X346457Y144488D01*
X320472D01*
X319685Y145276D01*
Y186220D01*
X320472Y187008D01*
X330268D01*
X341543Y198283D01*
Y201764D01*
X333465Y209843D01*
X327559D01*
G01X373622Y424409D02*
X571260D01*
G01X375197Y415748D02*
X394488D01*
G01X382283Y466929D02*
X383768Y468413D01*
X472925D01*
X482638Y458701D01*
Y447579D01*
G01X377559Y468898D02*
X380189Y466268D01*
Y466059D01*
X381413Y464835D01*
X383154D01*
X384492Y466173D01*
X457055D01*
X462638Y460591D01*
Y447579D01*
G54D14*
X229528Y165118D03*
Y175118D03*
Y185118D03*
Y195118D03*
Y205118D03*
Y215118D03*
Y225118D03*
Y235118D03*
Y245118D03*
Y255118D03*
X259528Y185118D03*
Y175118D03*
Y215118D03*
Y205118D03*
Y195118D03*
Y245118D03*
Y235118D03*
Y225118D03*
Y255118D03*
G54D24*
G01X0Y0D02*
X669291D01*
Y472441D01*
X0D01*
Y0D01*
G54D15*
X259528Y165118D03*
G54D16*
X331890Y36614D03*
Y158661D03*
X627165Y36614D03*
Y158661D03*
G54D17*
X337402Y200000D03*
X327559Y209843D03*
G54D18*
X317717Y200000D03*
G54D19*
X373543Y158661D03*
X363543D03*
X403543D03*
X393543D03*
X383543D03*
X433543D03*
X423543D03*
X413543D03*
X463543D03*
X453543D03*
X443543D03*
X493543D03*
X483543D03*
X473543D03*
X503543D03*
M02*
