%TF.GenerationSoftware,KiCad,Pcbnew,10.0.0*%
%TF.CreationDate,2026-03-24T15:59:53+05:30*%
%TF.ProjectId,ESP32_Weather_Station,45535033-325f-4576-9561-746865725f53,rev?*%
%TF.SameCoordinates,Original*%
%TF.FileFunction,Legend,Top*%
%TF.FilePolarity,Positive*%
%FSLAX46Y46*%
G04 Gerber Fmt 4.6, Leading zero omitted, Abs format (unit mm)*
G04 Created by KiCad (PCBNEW 10.0.0) date 2026-03-24 15:59:53*
%MOMM*%
%LPD*%
G01*
G04 APERTURE LIST*
%ADD10C,0.150000*%
%ADD11C,0.120000*%
%ADD12C,0.100000*%
%ADD13C,0.200000*%
%ADD14C,0.127000*%
G04 APERTURE END LIST*
D10*
X97333333Y-78179580D02*
X97285714Y-78227200D01*
X97285714Y-78227200D02*
X97142857Y-78274819D01*
X97142857Y-78274819D02*
X97047619Y-78274819D01*
X97047619Y-78274819D02*
X96904762Y-78227200D01*
X96904762Y-78227200D02*
X96809524Y-78131961D01*
X96809524Y-78131961D02*
X96761905Y-78036723D01*
X96761905Y-78036723D02*
X96714286Y-77846247D01*
X96714286Y-77846247D02*
X96714286Y-77703390D01*
X96714286Y-77703390D02*
X96761905Y-77512914D01*
X96761905Y-77512914D02*
X96809524Y-77417676D01*
X96809524Y-77417676D02*
X96904762Y-77322438D01*
X96904762Y-77322438D02*
X97047619Y-77274819D01*
X97047619Y-77274819D02*
X97142857Y-77274819D01*
X97142857Y-77274819D02*
X97285714Y-77322438D01*
X97285714Y-77322438D02*
X97333333Y-77370057D01*
X98238095Y-77274819D02*
X97761905Y-77274819D01*
X97761905Y-77274819D02*
X97714286Y-77751009D01*
X97714286Y-77751009D02*
X97761905Y-77703390D01*
X97761905Y-77703390D02*
X97857143Y-77655771D01*
X97857143Y-77655771D02*
X98095238Y-77655771D01*
X98095238Y-77655771D02*
X98190476Y-77703390D01*
X98190476Y-77703390D02*
X98238095Y-77751009D01*
X98238095Y-77751009D02*
X98285714Y-77846247D01*
X98285714Y-77846247D02*
X98285714Y-78084342D01*
X98285714Y-78084342D02*
X98238095Y-78179580D01*
X98238095Y-78179580D02*
X98190476Y-78227200D01*
X98190476Y-78227200D02*
X98095238Y-78274819D01*
X98095238Y-78274819D02*
X97857143Y-78274819D01*
X97857143Y-78274819D02*
X97761905Y-78227200D01*
X97761905Y-78227200D02*
X97714286Y-78179580D01*
X45261905Y-74104819D02*
X45261905Y-73104819D01*
X45261905Y-73104819D02*
X45500000Y-73104819D01*
X45500000Y-73104819D02*
X45642857Y-73152438D01*
X45642857Y-73152438D02*
X45738095Y-73247676D01*
X45738095Y-73247676D02*
X45785714Y-73342914D01*
X45785714Y-73342914D02*
X45833333Y-73533390D01*
X45833333Y-73533390D02*
X45833333Y-73676247D01*
X45833333Y-73676247D02*
X45785714Y-73866723D01*
X45785714Y-73866723D02*
X45738095Y-73961961D01*
X45738095Y-73961961D02*
X45642857Y-74057200D01*
X45642857Y-74057200D02*
X45500000Y-74104819D01*
X45500000Y-74104819D02*
X45261905Y-74104819D01*
X46690476Y-73438152D02*
X46690476Y-74104819D01*
X46452381Y-73057200D02*
X46214286Y-73771485D01*
X46214286Y-73771485D02*
X46833333Y-73771485D01*
X37166666Y-58684819D02*
X37166666Y-59399104D01*
X37166666Y-59399104D02*
X37119047Y-59541961D01*
X37119047Y-59541961D02*
X37023809Y-59637200D01*
X37023809Y-59637200D02*
X36880952Y-59684819D01*
X36880952Y-59684819D02*
X36785714Y-59684819D01*
X37595238Y-58780057D02*
X37642857Y-58732438D01*
X37642857Y-58732438D02*
X37738095Y-58684819D01*
X37738095Y-58684819D02*
X37976190Y-58684819D01*
X37976190Y-58684819D02*
X38071428Y-58732438D01*
X38071428Y-58732438D02*
X38119047Y-58780057D01*
X38119047Y-58780057D02*
X38166666Y-58875295D01*
X38166666Y-58875295D02*
X38166666Y-58970533D01*
X38166666Y-58970533D02*
X38119047Y-59113390D01*
X38119047Y-59113390D02*
X37547619Y-59684819D01*
X37547619Y-59684819D02*
X38166666Y-59684819D01*
X51554819Y-65501904D02*
X52364342Y-65501904D01*
X52364342Y-65501904D02*
X52459580Y-65454285D01*
X52459580Y-65454285D02*
X52507200Y-65406666D01*
X52507200Y-65406666D02*
X52554819Y-65311428D01*
X52554819Y-65311428D02*
X52554819Y-65120952D01*
X52554819Y-65120952D02*
X52507200Y-65025714D01*
X52507200Y-65025714D02*
X52459580Y-64978095D01*
X52459580Y-64978095D02*
X52364342Y-64930476D01*
X52364342Y-64930476D02*
X51554819Y-64930476D01*
X52554819Y-63930476D02*
X52554819Y-64501904D01*
X52554819Y-64216190D02*
X51554819Y-64216190D01*
X51554819Y-64216190D02*
X51697676Y-64311428D01*
X51697676Y-64311428D02*
X51792914Y-64406666D01*
X51792914Y-64406666D02*
X51840533Y-64501904D01*
X106738095Y-69454819D02*
X106738095Y-70264342D01*
X106738095Y-70264342D02*
X106785714Y-70359580D01*
X106785714Y-70359580D02*
X106833333Y-70407200D01*
X106833333Y-70407200D02*
X106928571Y-70454819D01*
X106928571Y-70454819D02*
X107119047Y-70454819D01*
X107119047Y-70454819D02*
X107214285Y-70407200D01*
X107214285Y-70407200D02*
X107261904Y-70359580D01*
X107261904Y-70359580D02*
X107309523Y-70264342D01*
X107309523Y-70264342D02*
X107309523Y-69454819D01*
X108214285Y-69788152D02*
X108214285Y-70454819D01*
X107976190Y-69407200D02*
X107738095Y-70121485D01*
X107738095Y-70121485D02*
X108357142Y-70121485D01*
X46283333Y-49679580D02*
X46235714Y-49727200D01*
X46235714Y-49727200D02*
X46092857Y-49774819D01*
X46092857Y-49774819D02*
X45997619Y-49774819D01*
X45997619Y-49774819D02*
X45854762Y-49727200D01*
X45854762Y-49727200D02*
X45759524Y-49631961D01*
X45759524Y-49631961D02*
X45711905Y-49536723D01*
X45711905Y-49536723D02*
X45664286Y-49346247D01*
X45664286Y-49346247D02*
X45664286Y-49203390D01*
X45664286Y-49203390D02*
X45711905Y-49012914D01*
X45711905Y-49012914D02*
X45759524Y-48917676D01*
X45759524Y-48917676D02*
X45854762Y-48822438D01*
X45854762Y-48822438D02*
X45997619Y-48774819D01*
X45997619Y-48774819D02*
X46092857Y-48774819D01*
X46092857Y-48774819D02*
X46235714Y-48822438D01*
X46235714Y-48822438D02*
X46283333Y-48870057D01*
X46664286Y-48870057D02*
X46711905Y-48822438D01*
X46711905Y-48822438D02*
X46807143Y-48774819D01*
X46807143Y-48774819D02*
X47045238Y-48774819D01*
X47045238Y-48774819D02*
X47140476Y-48822438D01*
X47140476Y-48822438D02*
X47188095Y-48870057D01*
X47188095Y-48870057D02*
X47235714Y-48965295D01*
X47235714Y-48965295D02*
X47235714Y-49060533D01*
X47235714Y-49060533D02*
X47188095Y-49203390D01*
X47188095Y-49203390D02*
X46616667Y-49774819D01*
X46616667Y-49774819D02*
X47235714Y-49774819D01*
X106666667Y-35407200D02*
X106809524Y-35454819D01*
X106809524Y-35454819D02*
X107047619Y-35454819D01*
X107047619Y-35454819D02*
X107142857Y-35407200D01*
X107142857Y-35407200D02*
X107190476Y-35359580D01*
X107190476Y-35359580D02*
X107238095Y-35264342D01*
X107238095Y-35264342D02*
X107238095Y-35169104D01*
X107238095Y-35169104D02*
X107190476Y-35073866D01*
X107190476Y-35073866D02*
X107142857Y-35026247D01*
X107142857Y-35026247D02*
X107047619Y-34978628D01*
X107047619Y-34978628D02*
X106857143Y-34931009D01*
X106857143Y-34931009D02*
X106761905Y-34883390D01*
X106761905Y-34883390D02*
X106714286Y-34835771D01*
X106714286Y-34835771D02*
X106666667Y-34740533D01*
X106666667Y-34740533D02*
X106666667Y-34645295D01*
X106666667Y-34645295D02*
X106714286Y-34550057D01*
X106714286Y-34550057D02*
X106761905Y-34502438D01*
X106761905Y-34502438D02*
X106857143Y-34454819D01*
X106857143Y-34454819D02*
X107095238Y-34454819D01*
X107095238Y-34454819D02*
X107238095Y-34502438D01*
X107571429Y-34454819D02*
X107809524Y-35454819D01*
X107809524Y-35454819D02*
X108000000Y-34740533D01*
X108000000Y-34740533D02*
X108190476Y-35454819D01*
X108190476Y-35454819D02*
X108428572Y-34454819D01*
X108761905Y-34550057D02*
X108809524Y-34502438D01*
X108809524Y-34502438D02*
X108904762Y-34454819D01*
X108904762Y-34454819D02*
X109142857Y-34454819D01*
X109142857Y-34454819D02*
X109238095Y-34502438D01*
X109238095Y-34502438D02*
X109285714Y-34550057D01*
X109285714Y-34550057D02*
X109333333Y-34645295D01*
X109333333Y-34645295D02*
X109333333Y-34740533D01*
X109333333Y-34740533D02*
X109285714Y-34883390D01*
X109285714Y-34883390D02*
X108714286Y-35454819D01*
X108714286Y-35454819D02*
X109333333Y-35454819D01*
X48333333Y-54679580D02*
X48285714Y-54727200D01*
X48285714Y-54727200D02*
X48142857Y-54774819D01*
X48142857Y-54774819D02*
X48047619Y-54774819D01*
X48047619Y-54774819D02*
X47904762Y-54727200D01*
X47904762Y-54727200D02*
X47809524Y-54631961D01*
X47809524Y-54631961D02*
X47761905Y-54536723D01*
X47761905Y-54536723D02*
X47714286Y-54346247D01*
X47714286Y-54346247D02*
X47714286Y-54203390D01*
X47714286Y-54203390D02*
X47761905Y-54012914D01*
X47761905Y-54012914D02*
X47809524Y-53917676D01*
X47809524Y-53917676D02*
X47904762Y-53822438D01*
X47904762Y-53822438D02*
X48047619Y-53774819D01*
X48047619Y-53774819D02*
X48142857Y-53774819D01*
X48142857Y-53774819D02*
X48285714Y-53822438D01*
X48285714Y-53822438D02*
X48333333Y-53870057D01*
X48666667Y-53774819D02*
X49285714Y-53774819D01*
X49285714Y-53774819D02*
X48952381Y-54155771D01*
X48952381Y-54155771D02*
X49095238Y-54155771D01*
X49095238Y-54155771D02*
X49190476Y-54203390D01*
X49190476Y-54203390D02*
X49238095Y-54251009D01*
X49238095Y-54251009D02*
X49285714Y-54346247D01*
X49285714Y-54346247D02*
X49285714Y-54584342D01*
X49285714Y-54584342D02*
X49238095Y-54679580D01*
X49238095Y-54679580D02*
X49190476Y-54727200D01*
X49190476Y-54727200D02*
X49095238Y-54774819D01*
X49095238Y-54774819D02*
X48809524Y-54774819D01*
X48809524Y-54774819D02*
X48714286Y-54727200D01*
X48714286Y-54727200D02*
X48666667Y-54679580D01*
X87920833Y-54804819D02*
X87587500Y-54328628D01*
X87349405Y-54804819D02*
X87349405Y-53804819D01*
X87349405Y-53804819D02*
X87730357Y-53804819D01*
X87730357Y-53804819D02*
X87825595Y-53852438D01*
X87825595Y-53852438D02*
X87873214Y-53900057D01*
X87873214Y-53900057D02*
X87920833Y-53995295D01*
X87920833Y-53995295D02*
X87920833Y-54138152D01*
X87920833Y-54138152D02*
X87873214Y-54233390D01*
X87873214Y-54233390D02*
X87825595Y-54281009D01*
X87825595Y-54281009D02*
X87730357Y-54328628D01*
X87730357Y-54328628D02*
X87349405Y-54328628D01*
X88254167Y-53804819D02*
X88873214Y-53804819D01*
X88873214Y-53804819D02*
X88539881Y-54185771D01*
X88539881Y-54185771D02*
X88682738Y-54185771D01*
X88682738Y-54185771D02*
X88777976Y-54233390D01*
X88777976Y-54233390D02*
X88825595Y-54281009D01*
X88825595Y-54281009D02*
X88873214Y-54376247D01*
X88873214Y-54376247D02*
X88873214Y-54614342D01*
X88873214Y-54614342D02*
X88825595Y-54709580D01*
X88825595Y-54709580D02*
X88777976Y-54757200D01*
X88777976Y-54757200D02*
X88682738Y-54804819D01*
X88682738Y-54804819D02*
X88397024Y-54804819D01*
X88397024Y-54804819D02*
X88301786Y-54757200D01*
X88301786Y-54757200D02*
X88254167Y-54709580D01*
X95920833Y-50804819D02*
X95587500Y-50328628D01*
X95349405Y-50804819D02*
X95349405Y-49804819D01*
X95349405Y-49804819D02*
X95730357Y-49804819D01*
X95730357Y-49804819D02*
X95825595Y-49852438D01*
X95825595Y-49852438D02*
X95873214Y-49900057D01*
X95873214Y-49900057D02*
X95920833Y-49995295D01*
X95920833Y-49995295D02*
X95920833Y-50138152D01*
X95920833Y-50138152D02*
X95873214Y-50233390D01*
X95873214Y-50233390D02*
X95825595Y-50281009D01*
X95825595Y-50281009D02*
X95730357Y-50328628D01*
X95730357Y-50328628D02*
X95349405Y-50328628D01*
X96301786Y-49900057D02*
X96349405Y-49852438D01*
X96349405Y-49852438D02*
X96444643Y-49804819D01*
X96444643Y-49804819D02*
X96682738Y-49804819D01*
X96682738Y-49804819D02*
X96777976Y-49852438D01*
X96777976Y-49852438D02*
X96825595Y-49900057D01*
X96825595Y-49900057D02*
X96873214Y-49995295D01*
X96873214Y-49995295D02*
X96873214Y-50090533D01*
X96873214Y-50090533D02*
X96825595Y-50233390D01*
X96825595Y-50233390D02*
X96254167Y-50804819D01*
X96254167Y-50804819D02*
X96873214Y-50804819D01*
X45261905Y-70764819D02*
X45261905Y-69764819D01*
X45261905Y-69764819D02*
X45500000Y-69764819D01*
X45500000Y-69764819D02*
X45642857Y-69812438D01*
X45642857Y-69812438D02*
X45738095Y-69907676D01*
X45738095Y-69907676D02*
X45785714Y-70002914D01*
X45785714Y-70002914D02*
X45833333Y-70193390D01*
X45833333Y-70193390D02*
X45833333Y-70336247D01*
X45833333Y-70336247D02*
X45785714Y-70526723D01*
X45785714Y-70526723D02*
X45738095Y-70621961D01*
X45738095Y-70621961D02*
X45642857Y-70717200D01*
X45642857Y-70717200D02*
X45500000Y-70764819D01*
X45500000Y-70764819D02*
X45261905Y-70764819D01*
X46166667Y-69764819D02*
X46785714Y-69764819D01*
X46785714Y-69764819D02*
X46452381Y-70145771D01*
X46452381Y-70145771D02*
X46595238Y-70145771D01*
X46595238Y-70145771D02*
X46690476Y-70193390D01*
X46690476Y-70193390D02*
X46738095Y-70241009D01*
X46738095Y-70241009D02*
X46785714Y-70336247D01*
X46785714Y-70336247D02*
X46785714Y-70574342D01*
X46785714Y-70574342D02*
X46738095Y-70669580D01*
X46738095Y-70669580D02*
X46690476Y-70717200D01*
X46690476Y-70717200D02*
X46595238Y-70764819D01*
X46595238Y-70764819D02*
X46309524Y-70764819D01*
X46309524Y-70764819D02*
X46214286Y-70717200D01*
X46214286Y-70717200D02*
X46166667Y-70669580D01*
X87920833Y-50804819D02*
X87587500Y-50328628D01*
X87349405Y-50804819D02*
X87349405Y-49804819D01*
X87349405Y-49804819D02*
X87730357Y-49804819D01*
X87730357Y-49804819D02*
X87825595Y-49852438D01*
X87825595Y-49852438D02*
X87873214Y-49900057D01*
X87873214Y-49900057D02*
X87920833Y-49995295D01*
X87920833Y-49995295D02*
X87920833Y-50138152D01*
X87920833Y-50138152D02*
X87873214Y-50233390D01*
X87873214Y-50233390D02*
X87825595Y-50281009D01*
X87825595Y-50281009D02*
X87730357Y-50328628D01*
X87730357Y-50328628D02*
X87349405Y-50328628D01*
X88873214Y-50804819D02*
X88301786Y-50804819D01*
X88587500Y-50804819D02*
X88587500Y-49804819D01*
X88587500Y-49804819D02*
X88492262Y-49947676D01*
X88492262Y-49947676D02*
X88397024Y-50042914D01*
X88397024Y-50042914D02*
X88301786Y-50090533D01*
X50383333Y-49679580D02*
X50335714Y-49727200D01*
X50335714Y-49727200D02*
X50192857Y-49774819D01*
X50192857Y-49774819D02*
X50097619Y-49774819D01*
X50097619Y-49774819D02*
X49954762Y-49727200D01*
X49954762Y-49727200D02*
X49859524Y-49631961D01*
X49859524Y-49631961D02*
X49811905Y-49536723D01*
X49811905Y-49536723D02*
X49764286Y-49346247D01*
X49764286Y-49346247D02*
X49764286Y-49203390D01*
X49764286Y-49203390D02*
X49811905Y-49012914D01*
X49811905Y-49012914D02*
X49859524Y-48917676D01*
X49859524Y-48917676D02*
X49954762Y-48822438D01*
X49954762Y-48822438D02*
X50097619Y-48774819D01*
X50097619Y-48774819D02*
X50192857Y-48774819D01*
X50192857Y-48774819D02*
X50335714Y-48822438D01*
X50335714Y-48822438D02*
X50383333Y-48870057D01*
X51335714Y-49774819D02*
X50764286Y-49774819D01*
X51050000Y-49774819D02*
X51050000Y-48774819D01*
X51050000Y-48774819D02*
X50954762Y-48917676D01*
X50954762Y-48917676D02*
X50859524Y-49012914D01*
X50859524Y-49012914D02*
X50764286Y-49060533D01*
X95833333Y-54454819D02*
X95500000Y-53978628D01*
X95261905Y-54454819D02*
X95261905Y-53454819D01*
X95261905Y-53454819D02*
X95642857Y-53454819D01*
X95642857Y-53454819D02*
X95738095Y-53502438D01*
X95738095Y-53502438D02*
X95785714Y-53550057D01*
X95785714Y-53550057D02*
X95833333Y-53645295D01*
X95833333Y-53645295D02*
X95833333Y-53788152D01*
X95833333Y-53788152D02*
X95785714Y-53883390D01*
X95785714Y-53883390D02*
X95738095Y-53931009D01*
X95738095Y-53931009D02*
X95642857Y-53978628D01*
X95642857Y-53978628D02*
X95261905Y-53978628D01*
X96690476Y-53788152D02*
X96690476Y-54454819D01*
X96452381Y-53407200D02*
X96214286Y-54121485D01*
X96214286Y-54121485D02*
X96833333Y-54121485D01*
X106666667Y-50407200D02*
X106809524Y-50454819D01*
X106809524Y-50454819D02*
X107047619Y-50454819D01*
X107047619Y-50454819D02*
X107142857Y-50407200D01*
X107142857Y-50407200D02*
X107190476Y-50359580D01*
X107190476Y-50359580D02*
X107238095Y-50264342D01*
X107238095Y-50264342D02*
X107238095Y-50169104D01*
X107238095Y-50169104D02*
X107190476Y-50073866D01*
X107190476Y-50073866D02*
X107142857Y-50026247D01*
X107142857Y-50026247D02*
X107047619Y-49978628D01*
X107047619Y-49978628D02*
X106857143Y-49931009D01*
X106857143Y-49931009D02*
X106761905Y-49883390D01*
X106761905Y-49883390D02*
X106714286Y-49835771D01*
X106714286Y-49835771D02*
X106666667Y-49740533D01*
X106666667Y-49740533D02*
X106666667Y-49645295D01*
X106666667Y-49645295D02*
X106714286Y-49550057D01*
X106714286Y-49550057D02*
X106761905Y-49502438D01*
X106761905Y-49502438D02*
X106857143Y-49454819D01*
X106857143Y-49454819D02*
X107095238Y-49454819D01*
X107095238Y-49454819D02*
X107238095Y-49502438D01*
X107571429Y-49454819D02*
X107809524Y-50454819D01*
X107809524Y-50454819D02*
X108000000Y-49740533D01*
X108000000Y-49740533D02*
X108190476Y-50454819D01*
X108190476Y-50454819D02*
X108428572Y-49454819D01*
X109238095Y-49788152D02*
X109238095Y-50454819D01*
X109000000Y-49407200D02*
X108761905Y-50121485D01*
X108761905Y-50121485D02*
X109380952Y-50121485D01*
X87920833Y-63304819D02*
X87587500Y-62828628D01*
X87349405Y-63304819D02*
X87349405Y-62304819D01*
X87349405Y-62304819D02*
X87730357Y-62304819D01*
X87730357Y-62304819D02*
X87825595Y-62352438D01*
X87825595Y-62352438D02*
X87873214Y-62400057D01*
X87873214Y-62400057D02*
X87920833Y-62495295D01*
X87920833Y-62495295D02*
X87920833Y-62638152D01*
X87920833Y-62638152D02*
X87873214Y-62733390D01*
X87873214Y-62733390D02*
X87825595Y-62781009D01*
X87825595Y-62781009D02*
X87730357Y-62828628D01*
X87730357Y-62828628D02*
X87349405Y-62828628D01*
X88254167Y-62304819D02*
X88920833Y-62304819D01*
X88920833Y-62304819D02*
X88492262Y-63304819D01*
X44238095Y-62954819D02*
X44238095Y-63764342D01*
X44238095Y-63764342D02*
X44285714Y-63859580D01*
X44285714Y-63859580D02*
X44333333Y-63907200D01*
X44333333Y-63907200D02*
X44428571Y-63954819D01*
X44428571Y-63954819D02*
X44619047Y-63954819D01*
X44619047Y-63954819D02*
X44714285Y-63907200D01*
X44714285Y-63907200D02*
X44761904Y-63859580D01*
X44761904Y-63859580D02*
X44809523Y-63764342D01*
X44809523Y-63764342D02*
X44809523Y-62954819D01*
X45714285Y-62954819D02*
X45523809Y-62954819D01*
X45523809Y-62954819D02*
X45428571Y-63002438D01*
X45428571Y-63002438D02*
X45380952Y-63050057D01*
X45380952Y-63050057D02*
X45285714Y-63192914D01*
X45285714Y-63192914D02*
X45238095Y-63383390D01*
X45238095Y-63383390D02*
X45238095Y-63764342D01*
X45238095Y-63764342D02*
X45285714Y-63859580D01*
X45285714Y-63859580D02*
X45333333Y-63907200D01*
X45333333Y-63907200D02*
X45428571Y-63954819D01*
X45428571Y-63954819D02*
X45619047Y-63954819D01*
X45619047Y-63954819D02*
X45714285Y-63907200D01*
X45714285Y-63907200D02*
X45761904Y-63859580D01*
X45761904Y-63859580D02*
X45809523Y-63764342D01*
X45809523Y-63764342D02*
X45809523Y-63526247D01*
X45809523Y-63526247D02*
X45761904Y-63431009D01*
X45761904Y-63431009D02*
X45714285Y-63383390D01*
X45714285Y-63383390D02*
X45619047Y-63335771D01*
X45619047Y-63335771D02*
X45428571Y-63335771D01*
X45428571Y-63335771D02*
X45333333Y-63383390D01*
X45333333Y-63383390D02*
X45285714Y-63431009D01*
X45285714Y-63431009D02*
X45238095Y-63526247D01*
X97383333Y-72179580D02*
X97335714Y-72227200D01*
X97335714Y-72227200D02*
X97192857Y-72274819D01*
X97192857Y-72274819D02*
X97097619Y-72274819D01*
X97097619Y-72274819D02*
X96954762Y-72227200D01*
X96954762Y-72227200D02*
X96859524Y-72131961D01*
X96859524Y-72131961D02*
X96811905Y-72036723D01*
X96811905Y-72036723D02*
X96764286Y-71846247D01*
X96764286Y-71846247D02*
X96764286Y-71703390D01*
X96764286Y-71703390D02*
X96811905Y-71512914D01*
X96811905Y-71512914D02*
X96859524Y-71417676D01*
X96859524Y-71417676D02*
X96954762Y-71322438D01*
X96954762Y-71322438D02*
X97097619Y-71274819D01*
X97097619Y-71274819D02*
X97192857Y-71274819D01*
X97192857Y-71274819D02*
X97335714Y-71322438D01*
X97335714Y-71322438D02*
X97383333Y-71370057D01*
X97954762Y-71703390D02*
X97859524Y-71655771D01*
X97859524Y-71655771D02*
X97811905Y-71608152D01*
X97811905Y-71608152D02*
X97764286Y-71512914D01*
X97764286Y-71512914D02*
X97764286Y-71465295D01*
X97764286Y-71465295D02*
X97811905Y-71370057D01*
X97811905Y-71370057D02*
X97859524Y-71322438D01*
X97859524Y-71322438D02*
X97954762Y-71274819D01*
X97954762Y-71274819D02*
X98145238Y-71274819D01*
X98145238Y-71274819D02*
X98240476Y-71322438D01*
X98240476Y-71322438D02*
X98288095Y-71370057D01*
X98288095Y-71370057D02*
X98335714Y-71465295D01*
X98335714Y-71465295D02*
X98335714Y-71512914D01*
X98335714Y-71512914D02*
X98288095Y-71608152D01*
X98288095Y-71608152D02*
X98240476Y-71655771D01*
X98240476Y-71655771D02*
X98145238Y-71703390D01*
X98145238Y-71703390D02*
X97954762Y-71703390D01*
X97954762Y-71703390D02*
X97859524Y-71751009D01*
X97859524Y-71751009D02*
X97811905Y-71798628D01*
X97811905Y-71798628D02*
X97764286Y-71893866D01*
X97764286Y-71893866D02*
X97764286Y-72084342D01*
X97764286Y-72084342D02*
X97811905Y-72179580D01*
X97811905Y-72179580D02*
X97859524Y-72227200D01*
X97859524Y-72227200D02*
X97954762Y-72274819D01*
X97954762Y-72274819D02*
X98145238Y-72274819D01*
X98145238Y-72274819D02*
X98240476Y-72227200D01*
X98240476Y-72227200D02*
X98288095Y-72179580D01*
X98288095Y-72179580D02*
X98335714Y-72084342D01*
X98335714Y-72084342D02*
X98335714Y-71893866D01*
X98335714Y-71893866D02*
X98288095Y-71798628D01*
X98288095Y-71798628D02*
X98240476Y-71751009D01*
X98240476Y-71751009D02*
X98145238Y-71703390D01*
X106666667Y-27907200D02*
X106809524Y-27954819D01*
X106809524Y-27954819D02*
X107047619Y-27954819D01*
X107047619Y-27954819D02*
X107142857Y-27907200D01*
X107142857Y-27907200D02*
X107190476Y-27859580D01*
X107190476Y-27859580D02*
X107238095Y-27764342D01*
X107238095Y-27764342D02*
X107238095Y-27669104D01*
X107238095Y-27669104D02*
X107190476Y-27573866D01*
X107190476Y-27573866D02*
X107142857Y-27526247D01*
X107142857Y-27526247D02*
X107047619Y-27478628D01*
X107047619Y-27478628D02*
X106857143Y-27431009D01*
X106857143Y-27431009D02*
X106761905Y-27383390D01*
X106761905Y-27383390D02*
X106714286Y-27335771D01*
X106714286Y-27335771D02*
X106666667Y-27240533D01*
X106666667Y-27240533D02*
X106666667Y-27145295D01*
X106666667Y-27145295D02*
X106714286Y-27050057D01*
X106714286Y-27050057D02*
X106761905Y-27002438D01*
X106761905Y-27002438D02*
X106857143Y-26954819D01*
X106857143Y-26954819D02*
X107095238Y-26954819D01*
X107095238Y-26954819D02*
X107238095Y-27002438D01*
X107571429Y-26954819D02*
X107809524Y-27954819D01*
X107809524Y-27954819D02*
X108000000Y-27240533D01*
X108000000Y-27240533D02*
X108190476Y-27954819D01*
X108190476Y-27954819D02*
X108428572Y-26954819D01*
X109333333Y-27954819D02*
X108761905Y-27954819D01*
X109047619Y-27954819D02*
X109047619Y-26954819D01*
X109047619Y-26954819D02*
X108952381Y-27097676D01*
X108952381Y-27097676D02*
X108857143Y-27192914D01*
X108857143Y-27192914D02*
X108761905Y-27240533D01*
X45261905Y-67604819D02*
X45261905Y-66604819D01*
X45261905Y-66604819D02*
X45500000Y-66604819D01*
X45500000Y-66604819D02*
X45642857Y-66652438D01*
X45642857Y-66652438D02*
X45738095Y-66747676D01*
X45738095Y-66747676D02*
X45785714Y-66842914D01*
X45785714Y-66842914D02*
X45833333Y-67033390D01*
X45833333Y-67033390D02*
X45833333Y-67176247D01*
X45833333Y-67176247D02*
X45785714Y-67366723D01*
X45785714Y-67366723D02*
X45738095Y-67461961D01*
X45738095Y-67461961D02*
X45642857Y-67557200D01*
X45642857Y-67557200D02*
X45500000Y-67604819D01*
X45500000Y-67604819D02*
X45261905Y-67604819D01*
X46214286Y-66700057D02*
X46261905Y-66652438D01*
X46261905Y-66652438D02*
X46357143Y-66604819D01*
X46357143Y-66604819D02*
X46595238Y-66604819D01*
X46595238Y-66604819D02*
X46690476Y-66652438D01*
X46690476Y-66652438D02*
X46738095Y-66700057D01*
X46738095Y-66700057D02*
X46785714Y-66795295D01*
X46785714Y-66795295D02*
X46785714Y-66890533D01*
X46785714Y-66890533D02*
X46738095Y-67033390D01*
X46738095Y-67033390D02*
X46166667Y-67604819D01*
X46166667Y-67604819D02*
X46785714Y-67604819D01*
X56411905Y-71454819D02*
X56411905Y-70454819D01*
X56411905Y-70454819D02*
X56650000Y-70454819D01*
X56650000Y-70454819D02*
X56792857Y-70502438D01*
X56792857Y-70502438D02*
X56888095Y-70597676D01*
X56888095Y-70597676D02*
X56935714Y-70692914D01*
X56935714Y-70692914D02*
X56983333Y-70883390D01*
X56983333Y-70883390D02*
X56983333Y-71026247D01*
X56983333Y-71026247D02*
X56935714Y-71216723D01*
X56935714Y-71216723D02*
X56888095Y-71311961D01*
X56888095Y-71311961D02*
X56792857Y-71407200D01*
X56792857Y-71407200D02*
X56650000Y-71454819D01*
X56650000Y-71454819D02*
X56411905Y-71454819D01*
X57935714Y-71454819D02*
X57364286Y-71454819D01*
X57650000Y-71454819D02*
X57650000Y-70454819D01*
X57650000Y-70454819D02*
X57554762Y-70597676D01*
X57554762Y-70597676D02*
X57459524Y-70692914D01*
X57459524Y-70692914D02*
X57364286Y-70740533D01*
X87920833Y-59304819D02*
X87587500Y-58828628D01*
X87349405Y-59304819D02*
X87349405Y-58304819D01*
X87349405Y-58304819D02*
X87730357Y-58304819D01*
X87730357Y-58304819D02*
X87825595Y-58352438D01*
X87825595Y-58352438D02*
X87873214Y-58400057D01*
X87873214Y-58400057D02*
X87920833Y-58495295D01*
X87920833Y-58495295D02*
X87920833Y-58638152D01*
X87920833Y-58638152D02*
X87873214Y-58733390D01*
X87873214Y-58733390D02*
X87825595Y-58781009D01*
X87825595Y-58781009D02*
X87730357Y-58828628D01*
X87730357Y-58828628D02*
X87349405Y-58828628D01*
X88825595Y-58304819D02*
X88349405Y-58304819D01*
X88349405Y-58304819D02*
X88301786Y-58781009D01*
X88301786Y-58781009D02*
X88349405Y-58733390D01*
X88349405Y-58733390D02*
X88444643Y-58685771D01*
X88444643Y-58685771D02*
X88682738Y-58685771D01*
X88682738Y-58685771D02*
X88777976Y-58733390D01*
X88777976Y-58733390D02*
X88825595Y-58781009D01*
X88825595Y-58781009D02*
X88873214Y-58876247D01*
X88873214Y-58876247D02*
X88873214Y-59114342D01*
X88873214Y-59114342D02*
X88825595Y-59209580D01*
X88825595Y-59209580D02*
X88777976Y-59257200D01*
X88777976Y-59257200D02*
X88682738Y-59304819D01*
X88682738Y-59304819D02*
X88444643Y-59304819D01*
X88444643Y-59304819D02*
X88349405Y-59257200D01*
X88349405Y-59257200D02*
X88301786Y-59209580D01*
X35954819Y-51761904D02*
X36764342Y-51761904D01*
X36764342Y-51761904D02*
X36859580Y-51714285D01*
X36859580Y-51714285D02*
X36907200Y-51666666D01*
X36907200Y-51666666D02*
X36954819Y-51571428D01*
X36954819Y-51571428D02*
X36954819Y-51380952D01*
X36954819Y-51380952D02*
X36907200Y-51285714D01*
X36907200Y-51285714D02*
X36859580Y-51238095D01*
X36859580Y-51238095D02*
X36764342Y-51190476D01*
X36764342Y-51190476D02*
X35954819Y-51190476D01*
X36050057Y-50761904D02*
X36002438Y-50714285D01*
X36002438Y-50714285D02*
X35954819Y-50619047D01*
X35954819Y-50619047D02*
X35954819Y-50380952D01*
X35954819Y-50380952D02*
X36002438Y-50285714D01*
X36002438Y-50285714D02*
X36050057Y-50238095D01*
X36050057Y-50238095D02*
X36145295Y-50190476D01*
X36145295Y-50190476D02*
X36240533Y-50190476D01*
X36240533Y-50190476D02*
X36383390Y-50238095D01*
X36383390Y-50238095D02*
X36954819Y-50809523D01*
X36954819Y-50809523D02*
X36954819Y-50190476D01*
X96857142Y-32669580D02*
X96809523Y-32717200D01*
X96809523Y-32717200D02*
X96666666Y-32764819D01*
X96666666Y-32764819D02*
X96571428Y-32764819D01*
X96571428Y-32764819D02*
X96428571Y-32717200D01*
X96428571Y-32717200D02*
X96333333Y-32621961D01*
X96333333Y-32621961D02*
X96285714Y-32526723D01*
X96285714Y-32526723D02*
X96238095Y-32336247D01*
X96238095Y-32336247D02*
X96238095Y-32193390D01*
X96238095Y-32193390D02*
X96285714Y-32002914D01*
X96285714Y-32002914D02*
X96333333Y-31907676D01*
X96333333Y-31907676D02*
X96428571Y-31812438D01*
X96428571Y-31812438D02*
X96571428Y-31764819D01*
X96571428Y-31764819D02*
X96666666Y-31764819D01*
X96666666Y-31764819D02*
X96809523Y-31812438D01*
X96809523Y-31812438D02*
X96857142Y-31860057D01*
X97809523Y-32764819D02*
X97238095Y-32764819D01*
X97523809Y-32764819D02*
X97523809Y-31764819D01*
X97523809Y-31764819D02*
X97428571Y-31907676D01*
X97428571Y-31907676D02*
X97333333Y-32002914D01*
X97333333Y-32002914D02*
X97238095Y-32050533D01*
X98428571Y-31764819D02*
X98523809Y-31764819D01*
X98523809Y-31764819D02*
X98619047Y-31812438D01*
X98619047Y-31812438D02*
X98666666Y-31860057D01*
X98666666Y-31860057D02*
X98714285Y-31955295D01*
X98714285Y-31955295D02*
X98761904Y-32145771D01*
X98761904Y-32145771D02*
X98761904Y-32383866D01*
X98761904Y-32383866D02*
X98714285Y-32574342D01*
X98714285Y-32574342D02*
X98666666Y-32669580D01*
X98666666Y-32669580D02*
X98619047Y-32717200D01*
X98619047Y-32717200D02*
X98523809Y-32764819D01*
X98523809Y-32764819D02*
X98428571Y-32764819D01*
X98428571Y-32764819D02*
X98333333Y-32717200D01*
X98333333Y-32717200D02*
X98285714Y-32669580D01*
X98285714Y-32669580D02*
X98238095Y-32574342D01*
X98238095Y-32574342D02*
X98190476Y-32383866D01*
X98190476Y-32383866D02*
X98190476Y-32145771D01*
X98190476Y-32145771D02*
X98238095Y-31955295D01*
X98238095Y-31955295D02*
X98285714Y-31860057D01*
X98285714Y-31860057D02*
X98333333Y-31812438D01*
X98333333Y-31812438D02*
X98428571Y-31764819D01*
X95920833Y-59004819D02*
X95587500Y-58528628D01*
X95349405Y-59004819D02*
X95349405Y-58004819D01*
X95349405Y-58004819D02*
X95730357Y-58004819D01*
X95730357Y-58004819D02*
X95825595Y-58052438D01*
X95825595Y-58052438D02*
X95873214Y-58100057D01*
X95873214Y-58100057D02*
X95920833Y-58195295D01*
X95920833Y-58195295D02*
X95920833Y-58338152D01*
X95920833Y-58338152D02*
X95873214Y-58433390D01*
X95873214Y-58433390D02*
X95825595Y-58481009D01*
X95825595Y-58481009D02*
X95730357Y-58528628D01*
X95730357Y-58528628D02*
X95349405Y-58528628D01*
X96777976Y-58004819D02*
X96587500Y-58004819D01*
X96587500Y-58004819D02*
X96492262Y-58052438D01*
X96492262Y-58052438D02*
X96444643Y-58100057D01*
X96444643Y-58100057D02*
X96349405Y-58242914D01*
X96349405Y-58242914D02*
X96301786Y-58433390D01*
X96301786Y-58433390D02*
X96301786Y-58814342D01*
X96301786Y-58814342D02*
X96349405Y-58909580D01*
X96349405Y-58909580D02*
X96397024Y-58957200D01*
X96397024Y-58957200D02*
X96492262Y-59004819D01*
X96492262Y-59004819D02*
X96682738Y-59004819D01*
X96682738Y-59004819D02*
X96777976Y-58957200D01*
X96777976Y-58957200D02*
X96825595Y-58909580D01*
X96825595Y-58909580D02*
X96873214Y-58814342D01*
X96873214Y-58814342D02*
X96873214Y-58576247D01*
X96873214Y-58576247D02*
X96825595Y-58481009D01*
X96825595Y-58481009D02*
X96777976Y-58433390D01*
X96777976Y-58433390D02*
X96682738Y-58385771D01*
X96682738Y-58385771D02*
X96492262Y-58385771D01*
X96492262Y-58385771D02*
X96397024Y-58433390D01*
X96397024Y-58433390D02*
X96349405Y-58481009D01*
X96349405Y-58481009D02*
X96301786Y-58576247D01*
X92928095Y-28052319D02*
X92928095Y-28861842D01*
X92928095Y-28861842D02*
X92975714Y-28957080D01*
X92975714Y-28957080D02*
X93023333Y-29004700D01*
X93023333Y-29004700D02*
X93118571Y-29052319D01*
X93118571Y-29052319D02*
X93309047Y-29052319D01*
X93309047Y-29052319D02*
X93404285Y-29004700D01*
X93404285Y-29004700D02*
X93451904Y-28957080D01*
X93451904Y-28957080D02*
X93499523Y-28861842D01*
X93499523Y-28861842D02*
X93499523Y-28052319D01*
X93880476Y-28052319D02*
X94499523Y-28052319D01*
X94499523Y-28052319D02*
X94166190Y-28433271D01*
X94166190Y-28433271D02*
X94309047Y-28433271D01*
X94309047Y-28433271D02*
X94404285Y-28480890D01*
X94404285Y-28480890D02*
X94451904Y-28528509D01*
X94451904Y-28528509D02*
X94499523Y-28623747D01*
X94499523Y-28623747D02*
X94499523Y-28861842D01*
X94499523Y-28861842D02*
X94451904Y-28957080D01*
X94451904Y-28957080D02*
X94404285Y-29004700D01*
X94404285Y-29004700D02*
X94309047Y-29052319D01*
X94309047Y-29052319D02*
X94023333Y-29052319D01*
X94023333Y-29052319D02*
X93928095Y-29004700D01*
X93928095Y-29004700D02*
X93880476Y-28957080D01*
X104383333Y-66179580D02*
X104335714Y-66227200D01*
X104335714Y-66227200D02*
X104192857Y-66274819D01*
X104192857Y-66274819D02*
X104097619Y-66274819D01*
X104097619Y-66274819D02*
X103954762Y-66227200D01*
X103954762Y-66227200D02*
X103859524Y-66131961D01*
X103859524Y-66131961D02*
X103811905Y-66036723D01*
X103811905Y-66036723D02*
X103764286Y-65846247D01*
X103764286Y-65846247D02*
X103764286Y-65703390D01*
X103764286Y-65703390D02*
X103811905Y-65512914D01*
X103811905Y-65512914D02*
X103859524Y-65417676D01*
X103859524Y-65417676D02*
X103954762Y-65322438D01*
X103954762Y-65322438D02*
X104097619Y-65274819D01*
X104097619Y-65274819D02*
X104192857Y-65274819D01*
X104192857Y-65274819D02*
X104335714Y-65322438D01*
X104335714Y-65322438D02*
X104383333Y-65370057D01*
X104716667Y-65274819D02*
X105383333Y-65274819D01*
X105383333Y-65274819D02*
X104954762Y-66274819D01*
X56349405Y-77304819D02*
X56349405Y-76304819D01*
X56349405Y-76304819D02*
X56587500Y-76304819D01*
X56587500Y-76304819D02*
X56730357Y-76352438D01*
X56730357Y-76352438D02*
X56825595Y-76447676D01*
X56825595Y-76447676D02*
X56873214Y-76542914D01*
X56873214Y-76542914D02*
X56920833Y-76733390D01*
X56920833Y-76733390D02*
X56920833Y-76876247D01*
X56920833Y-76876247D02*
X56873214Y-77066723D01*
X56873214Y-77066723D02*
X56825595Y-77161961D01*
X56825595Y-77161961D02*
X56730357Y-77257200D01*
X56730357Y-77257200D02*
X56587500Y-77304819D01*
X56587500Y-77304819D02*
X56349405Y-77304819D01*
X57777976Y-76304819D02*
X57587500Y-76304819D01*
X57587500Y-76304819D02*
X57492262Y-76352438D01*
X57492262Y-76352438D02*
X57444643Y-76400057D01*
X57444643Y-76400057D02*
X57349405Y-76542914D01*
X57349405Y-76542914D02*
X57301786Y-76733390D01*
X57301786Y-76733390D02*
X57301786Y-77114342D01*
X57301786Y-77114342D02*
X57349405Y-77209580D01*
X57349405Y-77209580D02*
X57397024Y-77257200D01*
X57397024Y-77257200D02*
X57492262Y-77304819D01*
X57492262Y-77304819D02*
X57682738Y-77304819D01*
X57682738Y-77304819D02*
X57777976Y-77257200D01*
X57777976Y-77257200D02*
X57825595Y-77209580D01*
X57825595Y-77209580D02*
X57873214Y-77114342D01*
X57873214Y-77114342D02*
X57873214Y-76876247D01*
X57873214Y-76876247D02*
X57825595Y-76781009D01*
X57825595Y-76781009D02*
X57777976Y-76733390D01*
X57777976Y-76733390D02*
X57682738Y-76685771D01*
X57682738Y-76685771D02*
X57492262Y-76685771D01*
X57492262Y-76685771D02*
X57397024Y-76733390D01*
X57397024Y-76733390D02*
X57349405Y-76781009D01*
X57349405Y-76781009D02*
X57301786Y-76876247D01*
X96857142Y-39179580D02*
X96809523Y-39227200D01*
X96809523Y-39227200D02*
X96666666Y-39274819D01*
X96666666Y-39274819D02*
X96571428Y-39274819D01*
X96571428Y-39274819D02*
X96428571Y-39227200D01*
X96428571Y-39227200D02*
X96333333Y-39131961D01*
X96333333Y-39131961D02*
X96285714Y-39036723D01*
X96285714Y-39036723D02*
X96238095Y-38846247D01*
X96238095Y-38846247D02*
X96238095Y-38703390D01*
X96238095Y-38703390D02*
X96285714Y-38512914D01*
X96285714Y-38512914D02*
X96333333Y-38417676D01*
X96333333Y-38417676D02*
X96428571Y-38322438D01*
X96428571Y-38322438D02*
X96571428Y-38274819D01*
X96571428Y-38274819D02*
X96666666Y-38274819D01*
X96666666Y-38274819D02*
X96809523Y-38322438D01*
X96809523Y-38322438D02*
X96857142Y-38370057D01*
X97809523Y-39274819D02*
X97238095Y-39274819D01*
X97523809Y-39274819D02*
X97523809Y-38274819D01*
X97523809Y-38274819D02*
X97428571Y-38417676D01*
X97428571Y-38417676D02*
X97333333Y-38512914D01*
X97333333Y-38512914D02*
X97238095Y-38560533D01*
X98761904Y-39274819D02*
X98190476Y-39274819D01*
X98476190Y-39274819D02*
X98476190Y-38274819D01*
X98476190Y-38274819D02*
X98380952Y-38417676D01*
X98380952Y-38417676D02*
X98285714Y-38512914D01*
X98285714Y-38512914D02*
X98190476Y-38560533D01*
X107761905Y-55454819D02*
X107761905Y-54454819D01*
X107761905Y-54454819D02*
X108000000Y-54454819D01*
X108000000Y-54454819D02*
X108142857Y-54502438D01*
X108142857Y-54502438D02*
X108238095Y-54597676D01*
X108238095Y-54597676D02*
X108285714Y-54692914D01*
X108285714Y-54692914D02*
X108333333Y-54883390D01*
X108333333Y-54883390D02*
X108333333Y-55026247D01*
X108333333Y-55026247D02*
X108285714Y-55216723D01*
X108285714Y-55216723D02*
X108238095Y-55311961D01*
X108238095Y-55311961D02*
X108142857Y-55407200D01*
X108142857Y-55407200D02*
X108000000Y-55454819D01*
X108000000Y-55454819D02*
X107761905Y-55454819D01*
X109238095Y-54454819D02*
X108761905Y-54454819D01*
X108761905Y-54454819D02*
X108714286Y-54931009D01*
X108714286Y-54931009D02*
X108761905Y-54883390D01*
X108761905Y-54883390D02*
X108857143Y-54835771D01*
X108857143Y-54835771D02*
X109095238Y-54835771D01*
X109095238Y-54835771D02*
X109190476Y-54883390D01*
X109190476Y-54883390D02*
X109238095Y-54931009D01*
X109238095Y-54931009D02*
X109285714Y-55026247D01*
X109285714Y-55026247D02*
X109285714Y-55264342D01*
X109285714Y-55264342D02*
X109238095Y-55359580D01*
X109238095Y-55359580D02*
X109190476Y-55407200D01*
X109190476Y-55407200D02*
X109095238Y-55454819D01*
X109095238Y-55454819D02*
X108857143Y-55454819D01*
X108857143Y-55454819D02*
X108761905Y-55407200D01*
X108761905Y-55407200D02*
X108714286Y-55359580D01*
X111883333Y-66179580D02*
X111835714Y-66227200D01*
X111835714Y-66227200D02*
X111692857Y-66274819D01*
X111692857Y-66274819D02*
X111597619Y-66274819D01*
X111597619Y-66274819D02*
X111454762Y-66227200D01*
X111454762Y-66227200D02*
X111359524Y-66131961D01*
X111359524Y-66131961D02*
X111311905Y-66036723D01*
X111311905Y-66036723D02*
X111264286Y-65846247D01*
X111264286Y-65846247D02*
X111264286Y-65703390D01*
X111264286Y-65703390D02*
X111311905Y-65512914D01*
X111311905Y-65512914D02*
X111359524Y-65417676D01*
X111359524Y-65417676D02*
X111454762Y-65322438D01*
X111454762Y-65322438D02*
X111597619Y-65274819D01*
X111597619Y-65274819D02*
X111692857Y-65274819D01*
X111692857Y-65274819D02*
X111835714Y-65322438D01*
X111835714Y-65322438D02*
X111883333Y-65370057D01*
X112740476Y-65274819D02*
X112550000Y-65274819D01*
X112550000Y-65274819D02*
X112454762Y-65322438D01*
X112454762Y-65322438D02*
X112407143Y-65370057D01*
X112407143Y-65370057D02*
X112311905Y-65512914D01*
X112311905Y-65512914D02*
X112264286Y-65703390D01*
X112264286Y-65703390D02*
X112264286Y-66084342D01*
X112264286Y-66084342D02*
X112311905Y-66179580D01*
X112311905Y-66179580D02*
X112359524Y-66227200D01*
X112359524Y-66227200D02*
X112454762Y-66274819D01*
X112454762Y-66274819D02*
X112645238Y-66274819D01*
X112645238Y-66274819D02*
X112740476Y-66227200D01*
X112740476Y-66227200D02*
X112788095Y-66179580D01*
X112788095Y-66179580D02*
X112835714Y-66084342D01*
X112835714Y-66084342D02*
X112835714Y-65846247D01*
X112835714Y-65846247D02*
X112788095Y-65751009D01*
X112788095Y-65751009D02*
X112740476Y-65703390D01*
X112740476Y-65703390D02*
X112645238Y-65655771D01*
X112645238Y-65655771D02*
X112454762Y-65655771D01*
X112454762Y-65655771D02*
X112359524Y-65703390D01*
X112359524Y-65703390D02*
X112311905Y-65751009D01*
X112311905Y-65751009D02*
X112264286Y-65846247D01*
X106666667Y-42907200D02*
X106809524Y-42954819D01*
X106809524Y-42954819D02*
X107047619Y-42954819D01*
X107047619Y-42954819D02*
X107142857Y-42907200D01*
X107142857Y-42907200D02*
X107190476Y-42859580D01*
X107190476Y-42859580D02*
X107238095Y-42764342D01*
X107238095Y-42764342D02*
X107238095Y-42669104D01*
X107238095Y-42669104D02*
X107190476Y-42573866D01*
X107190476Y-42573866D02*
X107142857Y-42526247D01*
X107142857Y-42526247D02*
X107047619Y-42478628D01*
X107047619Y-42478628D02*
X106857143Y-42431009D01*
X106857143Y-42431009D02*
X106761905Y-42383390D01*
X106761905Y-42383390D02*
X106714286Y-42335771D01*
X106714286Y-42335771D02*
X106666667Y-42240533D01*
X106666667Y-42240533D02*
X106666667Y-42145295D01*
X106666667Y-42145295D02*
X106714286Y-42050057D01*
X106714286Y-42050057D02*
X106761905Y-42002438D01*
X106761905Y-42002438D02*
X106857143Y-41954819D01*
X106857143Y-41954819D02*
X107095238Y-41954819D01*
X107095238Y-41954819D02*
X107238095Y-42002438D01*
X107571429Y-41954819D02*
X107809524Y-42954819D01*
X107809524Y-42954819D02*
X108000000Y-42240533D01*
X108000000Y-42240533D02*
X108190476Y-42954819D01*
X108190476Y-42954819D02*
X108428572Y-41954819D01*
X108714286Y-41954819D02*
X109333333Y-41954819D01*
X109333333Y-41954819D02*
X109000000Y-42335771D01*
X109000000Y-42335771D02*
X109142857Y-42335771D01*
X109142857Y-42335771D02*
X109238095Y-42383390D01*
X109238095Y-42383390D02*
X109285714Y-42431009D01*
X109285714Y-42431009D02*
X109333333Y-42526247D01*
X109333333Y-42526247D02*
X109333333Y-42764342D01*
X109333333Y-42764342D02*
X109285714Y-42859580D01*
X109285714Y-42859580D02*
X109238095Y-42907200D01*
X109238095Y-42907200D02*
X109142857Y-42954819D01*
X109142857Y-42954819D02*
X108857143Y-42954819D01*
X108857143Y-42954819D02*
X108761905Y-42907200D01*
X108761905Y-42907200D02*
X108714286Y-42859580D01*
X71666666Y-78454819D02*
X71666666Y-79169104D01*
X71666666Y-79169104D02*
X71619047Y-79311961D01*
X71619047Y-79311961D02*
X71523809Y-79407200D01*
X71523809Y-79407200D02*
X71380952Y-79454819D01*
X71380952Y-79454819D02*
X71285714Y-79454819D01*
X72666666Y-79454819D02*
X72095238Y-79454819D01*
X72380952Y-79454819D02*
X72380952Y-78454819D01*
X72380952Y-78454819D02*
X72285714Y-78597676D01*
X72285714Y-78597676D02*
X72190476Y-78692914D01*
X72190476Y-78692914D02*
X72095238Y-78740533D01*
X81333333Y-79179580D02*
X81285714Y-79227200D01*
X81285714Y-79227200D02*
X81142857Y-79274819D01*
X81142857Y-79274819D02*
X81047619Y-79274819D01*
X81047619Y-79274819D02*
X80904762Y-79227200D01*
X80904762Y-79227200D02*
X80809524Y-79131961D01*
X80809524Y-79131961D02*
X80761905Y-79036723D01*
X80761905Y-79036723D02*
X80714286Y-78846247D01*
X80714286Y-78846247D02*
X80714286Y-78703390D01*
X80714286Y-78703390D02*
X80761905Y-78512914D01*
X80761905Y-78512914D02*
X80809524Y-78417676D01*
X80809524Y-78417676D02*
X80904762Y-78322438D01*
X80904762Y-78322438D02*
X81047619Y-78274819D01*
X81047619Y-78274819D02*
X81142857Y-78274819D01*
X81142857Y-78274819D02*
X81285714Y-78322438D01*
X81285714Y-78322438D02*
X81333333Y-78370057D01*
X82190476Y-78608152D02*
X82190476Y-79274819D01*
X81952381Y-78227200D02*
X81714286Y-78941485D01*
X81714286Y-78941485D02*
X82333333Y-78941485D01*
%TO.C,C5*%
D11*
X97238748Y-78765000D02*
X97761252Y-78765000D01*
X97238748Y-80235000D02*
X97761252Y-80235000D01*
%TO.C,D4*%
X45190000Y-74390000D02*
X45190000Y-75610000D01*
X45190000Y-74390000D02*
X46500000Y-74390000D01*
X45190000Y-75610000D02*
X46500000Y-75610000D01*
%TO.C,J2*%
X36120000Y-60230000D02*
X37500000Y-60230000D01*
X36120000Y-61610000D02*
X36120000Y-60230000D01*
X36120000Y-62880000D02*
X36120000Y-80770000D01*
X36120000Y-62880000D02*
X38880000Y-62880000D01*
X36120000Y-80770000D02*
X38880000Y-80770000D01*
X38880000Y-62880000D02*
X38880000Y-80770000D01*
%TO.C,U1*%
X53400000Y-40440000D02*
X53400000Y-46640000D01*
X53400000Y-40440000D02*
X71800000Y-40440000D01*
X53400000Y-65290000D02*
X53400000Y-66290000D01*
X53400000Y-66290000D02*
X54900000Y-66290000D01*
X71800000Y-40440000D02*
X71800000Y-46640000D01*
X71800000Y-66290000D02*
X70300000Y-66290000D01*
X71800000Y-66290000D02*
X71800000Y-65290000D01*
X53400000Y-47315000D02*
X52900000Y-47315000D01*
X53400000Y-46815000D01*
X53400000Y-47315000D01*
G36*
X53400000Y-47315000D02*
G01*
X52900000Y-47315000D01*
X53400000Y-46815000D01*
X53400000Y-47315000D01*
G37*
%TO.C,U4*%
X104370000Y-71190000D02*
X104130000Y-70860000D01*
X104610000Y-70860000D01*
X104370000Y-71190000D01*
G36*
X104370000Y-71190000D02*
G01*
X104130000Y-70860000D01*
X104610000Y-70860000D01*
X104370000Y-71190000D01*
G37*
X109410000Y-77910000D02*
X109410000Y-76650000D01*
X109410000Y-71090000D02*
X109410000Y-72350000D01*
X105650000Y-77910000D02*
X109410000Y-77910000D01*
X105650000Y-71090000D02*
X109410000Y-71090000D01*
%TO.C,C2*%
X46188748Y-51735000D02*
X46711252Y-51735000D01*
X46188748Y-50265000D02*
X46711252Y-50265000D01*
%TO.C,SW2*%
X111100000Y-38150000D02*
X111100000Y-38050000D01*
X111100000Y-33550000D02*
X111100000Y-36550000D01*
X111100000Y-32050000D02*
X111100000Y-31950000D01*
X104900000Y-38150000D02*
X111100000Y-38150000D01*
X104900000Y-38150000D02*
X104900000Y-38050000D01*
X104900000Y-33550000D02*
X104900000Y-36550000D01*
X104900000Y-31950000D02*
X111100000Y-31950000D01*
X104900000Y-31950000D02*
X104900000Y-32050000D01*
%TO.C,C3*%
X48238748Y-56735000D02*
X48761252Y-56735000D01*
X48238748Y-55265000D02*
X48761252Y-55265000D01*
%TO.C,R3*%
X87860436Y-55265000D02*
X88314564Y-55265000D01*
X87860436Y-56735000D02*
X88314564Y-56735000D01*
%TO.C,R2*%
X95860436Y-52735000D02*
X96314564Y-52735000D01*
X95860436Y-51265000D02*
X96314564Y-51265000D01*
%TO.C,D3*%
X45190000Y-72270000D02*
X46500000Y-72270000D01*
X45190000Y-71050000D02*
X46500000Y-71050000D01*
X45190000Y-71050000D02*
X45190000Y-72270000D01*
%TO.C,R1*%
X87860436Y-52735000D02*
X88314564Y-52735000D01*
X87860436Y-51265000D02*
X88314564Y-51265000D01*
%TO.C,C1*%
X50288748Y-50265000D02*
X50811252Y-50265000D01*
X50288748Y-51735000D02*
X50811252Y-51735000D01*
%TO.C,R4*%
X95860436Y-56735000D02*
X96314564Y-56735000D01*
X95860436Y-55265000D02*
X96314564Y-55265000D01*
%TO.C,SW4*%
X111100000Y-53250000D02*
X111100000Y-53150000D01*
X111100000Y-48650000D02*
X111100000Y-51650000D01*
X111100000Y-47150000D02*
X111100000Y-47050000D01*
X104900000Y-53250000D02*
X111100000Y-53250000D01*
X104900000Y-53250000D02*
X104900000Y-53150000D01*
X104900000Y-48650000D02*
X104900000Y-51650000D01*
X104900000Y-47050000D02*
X111100000Y-47050000D01*
X104900000Y-47050000D02*
X104900000Y-47150000D01*
%TO.C,R7*%
X87860436Y-65235000D02*
X88314564Y-65235000D01*
X87860436Y-63765000D02*
X88314564Y-63765000D01*
D12*
%TO.C,U6*%
X43900000Y-62710000D02*
X43540000Y-62350000D01*
X43900000Y-62350000D01*
X43900000Y-62710000D01*
G36*
X43900000Y-62710000D02*
G01*
X43540000Y-62350000D01*
X43900000Y-62350000D01*
X43900000Y-62710000D01*
G37*
X46100000Y-59650000D02*
X45460000Y-59650000D01*
X44540000Y-59650000D02*
X43900000Y-59650000D01*
X43900000Y-59800000D02*
X43900000Y-59650000D01*
X46075000Y-59925000D02*
X46075000Y-59775000D01*
X46100000Y-62350000D02*
X46100000Y-62200000D01*
X46100000Y-62350000D02*
X45460000Y-62350000D01*
X44540000Y-62350000D02*
X44100000Y-62350000D01*
%TO.C,C8*%
D11*
X97288748Y-74235000D02*
X97811252Y-74235000D01*
X97288748Y-72765000D02*
X97811252Y-72765000D01*
%TO.C,SW1*%
X111100000Y-30600000D02*
X111100000Y-30500000D01*
X111100000Y-26000000D02*
X111100000Y-29000000D01*
X111100000Y-24500000D02*
X111100000Y-24400000D01*
X104900000Y-30600000D02*
X111100000Y-30600000D01*
X104900000Y-30600000D02*
X104900000Y-30500000D01*
X104900000Y-26000000D02*
X104900000Y-29000000D01*
X104900000Y-24400000D02*
X111100000Y-24400000D01*
X104900000Y-24400000D02*
X104900000Y-24500000D01*
%TO.C,D2*%
X45190000Y-67890000D02*
X45190000Y-69110000D01*
X45190000Y-67890000D02*
X46500000Y-67890000D01*
X45190000Y-69110000D02*
X46500000Y-69110000D01*
%TO.C,D1*%
X54790000Y-74000000D02*
X58800000Y-74000000D01*
X54790000Y-72000000D02*
X58800000Y-72000000D01*
X54790000Y-72000000D02*
X54790000Y-74000000D01*
%TO.C,R5*%
X87860436Y-61235000D02*
X88314564Y-61235000D01*
X87860436Y-59765000D02*
X88314564Y-59765000D01*
%TO.C,U2*%
D13*
X38100000Y-53310000D02*
G75*
G02*
X37900000Y-53310000I-100000J0D01*
G01*
X37900000Y-53310000D02*
G75*
G02*
X38100000Y-53310000I100000J0D01*
G01*
D14*
X42645000Y-52425000D02*
X42645000Y-49575000D01*
X37355000Y-52425000D02*
X37355000Y-49575000D01*
%TO.C,C10*%
D11*
X97238748Y-34725000D02*
X97761252Y-34725000D01*
X97238748Y-33255000D02*
X97761252Y-33255000D01*
%TO.C,R6*%
X95860436Y-59265000D02*
X96314564Y-59265000D01*
X95860436Y-60735000D02*
X96314564Y-60735000D01*
%TO.C,U3*%
X99820000Y-29880000D02*
X87570000Y-29880000D01*
X99820000Y-24120000D02*
X99820000Y-29880000D01*
X87560000Y-29870000D02*
X87560000Y-24130000D01*
X87560000Y-24120000D02*
X99820000Y-24120000D01*
X87280000Y-30160000D02*
X89280000Y-30160000D01*
X87280000Y-30160000D02*
X87280000Y-28550000D01*
%TO.C,C7*%
X104288748Y-68235000D02*
X104811252Y-68235000D01*
X104288748Y-66765000D02*
X104811252Y-66765000D01*
%TO.C,D6*%
X58087500Y-77540000D02*
X55402500Y-77540000D01*
X55402500Y-79460000D02*
X58087500Y-79460000D01*
X55402500Y-77540000D02*
X55402500Y-79460000D01*
%TO.C,C11*%
X97238748Y-41235000D02*
X97761252Y-41235000D01*
X97238748Y-39765000D02*
X97761252Y-39765000D01*
%TO.C,D5*%
X112000000Y-61250000D02*
X112000000Y-55750000D01*
X112000000Y-61250000D02*
X105000000Y-61250000D01*
X112000000Y-55750000D02*
X105450000Y-55750000D01*
X111200000Y-57600000D02*
X111200000Y-59400000D01*
X105800000Y-57600000D02*
X105800000Y-59400000D01*
X105450000Y-55750000D02*
X105000000Y-56200000D01*
X105000000Y-56200000D02*
X105000000Y-61250000D01*
%TO.C,C6*%
X111788748Y-68235000D02*
X112311252Y-68235000D01*
X111788748Y-66765000D02*
X112311252Y-66765000D01*
%TO.C,SW3*%
X111100000Y-45700000D02*
X111100000Y-45600000D01*
X111100000Y-41100000D02*
X111100000Y-44100000D01*
X111100000Y-39600000D02*
X111100000Y-39500000D01*
X104900000Y-45700000D02*
X111100000Y-45700000D01*
X104900000Y-45700000D02*
X104900000Y-45600000D01*
X104900000Y-41100000D02*
X104900000Y-44100000D01*
X104900000Y-39500000D02*
X111100000Y-39500000D01*
X104900000Y-39500000D02*
X104900000Y-39600000D01*
%TO.C,J1*%
X76700000Y-81000000D02*
X76700000Y-82900000D01*
X76700000Y-77100000D02*
X76700000Y-79100000D01*
X67300000Y-82900000D02*
X76700000Y-82900000D01*
X67300000Y-81000000D02*
X67300000Y-82900000D01*
X67300000Y-77100000D02*
X67300000Y-79100000D01*
%TO.C,C4*%
X81238748Y-81235000D02*
X81761252Y-81235000D01*
X81238748Y-79765000D02*
X81761252Y-79765000D01*
%TD*%
M02*
