%TF.GenerationSoftware,KiCad,Pcbnew,10.0.0*%
%TF.CreationDate,2026-03-24T15:59:53+05:30*%
%TF.ProjectId,ESP32_Weather_Station,45535033-325f-4576-9561-746865725f53,rev?*%
%TF.SameCoordinates,Original*%
%TF.FileFunction,Copper,L2,Bot*%
%TF.FilePolarity,Positive*%
%FSLAX46Y46*%
G04 Gerber Fmt 4.6, Leading zero omitted, Abs format (unit mm)*
G04 Created by KiCad (PCBNEW 10.0.0) date 2026-03-24 15:59:53*
%MOMM*%
%LPD*%
G01*
G04 APERTURE LIST*
%TA.AperFunction,ComponentPad*%
%ADD10R,1.700000X1.700000*%
%TD*%
%TA.AperFunction,ComponentPad*%
%ADD11C,1.700000*%
%TD*%
%TA.AperFunction,HeatsinkPad*%
%ADD12C,0.600000*%
%TD*%
%TA.AperFunction,ComponentPad*%
%ADD13C,1.500000*%
%TD*%
%TA.AperFunction,ComponentPad*%
%ADD14R,1.500000X1.500000*%
%TD*%
%TA.AperFunction,ComponentPad*%
%ADD15O,1.000000X1.600000*%
%TD*%
%TA.AperFunction,ComponentPad*%
%ADD16O,1.000000X2.100000*%
%TD*%
%TA.AperFunction,ViaPad*%
%ADD17C,0.600000*%
%TD*%
%TA.AperFunction,Conductor*%
%ADD18C,0.200000*%
%TD*%
G04 APERTURE END LIST*
D10*
%TO.P,J2,1,Pin_1_1*%
%TO.N,/VCC_3V3*%
X37500000Y-61610000D03*
D11*
%TO.P,J2,2,Pin_2_2*%
%TO.N,GND*%
X37500000Y-64150000D03*
%TO.P,J2,3,Pin_3_3*%
%TO.N,/DIN*%
X37500000Y-66690000D03*
%TO.P,J2,4,Pin_4_4*%
%TO.N,/CLK*%
X37500000Y-69230000D03*
%TO.P,J2,5,Pin_5_5*%
%TO.N,/CS*%
X37500000Y-71770000D03*
%TO.P,J2,6,Pin_6_6*%
%TO.N,/DC*%
X37500000Y-74310000D03*
%TO.P,J2,7,Pin_7_7*%
%TO.N,/RST*%
X37500000Y-76850000D03*
%TO.P,J2,8,Pin_8_8*%
%TO.N,/BL*%
X37500000Y-79390000D03*
%TD*%
D12*
%TO.P,U1,41,GND_41*%
%TO.N,GND*%
X59700000Y-55100000D03*
X59700000Y-56500000D03*
X60400000Y-54400000D03*
X60400000Y-55800000D03*
X60400000Y-57200000D03*
X61100000Y-55100000D03*
X61100000Y-56500000D03*
X61800000Y-54400000D03*
X61800000Y-55800000D03*
X61800000Y-57200000D03*
X62500000Y-55100000D03*
X62500000Y-56500000D03*
%TD*%
D13*
%TO.P,U3,4,GND_4*%
%TO.N,GND*%
X97500000Y-27000000D03*
%TO.P,U3,3,NC_3*%
%TO.N,unconnected-(U3-NC-Pad3)*%
X94960000Y-27000000D03*
%TO.P,U3,2,DATA_2*%
%TO.N,/GPIO4*%
X92420000Y-27000000D03*
D14*
%TO.P,U3,1,VDD_1*%
%TO.N,/VCC_3V3*%
X89880000Y-27000000D03*
%TD*%
D15*
%TO.P,J1,SH,SHIELD_SH*%
%TO.N,GND*%
X76320000Y-80050000D03*
D16*
X76320000Y-75870000D03*
D15*
X67680000Y-80050000D03*
D16*
X67680000Y-75870000D03*
%TD*%
D17*
%TO.N,GND*%
X70500000Y-80500000D03*
X68000000Y-73500000D03*
X65000000Y-81000000D03*
X74500000Y-81000000D03*
%TO.N,Net-(D1-A)*%
X66500000Y-72500000D03*
%TO.N,GND*%
X66000000Y-75500000D03*
%TO.N,Net-(D6-A)*%
X72000000Y-82019400D03*
%TO.N,GND*%
X72500000Y-80500000D03*
X71000000Y-78948300D03*
%TO.N,/VCC_5V*%
X70500000Y-77453300D03*
%TO.N,GND*%
X76000000Y-73000000D03*
%TO.N,Net-(D1-A)*%
X73000000Y-76431200D03*
%TO.N,/VCC_3V3*%
X40705000Y-53774200D03*
%TO.N,GND*%
X48500000Y-51179500D03*
%TO.N,/BL*%
X59500000Y-82000000D03*
X63507500Y-67885000D03*
%TO.N,Net-(D1-A)*%
X48000000Y-74400000D03*
X42787500Y-68302500D03*
%TO.N,/GPIO0*%
X95274500Y-33413700D03*
X90856300Y-59165400D03*
%TO.N,/SCL*%
X71480000Y-65679300D03*
X69265900Y-62013300D03*
%TO.N,/GPIO4*%
X90066400Y-62590500D03*
X89608800Y-58656500D03*
X72957500Y-58212400D03*
X65684100Y-49885000D03*
%TO.N,Net-(D6-A)*%
X90067500Y-82019400D03*
X90856300Y-56304100D03*
%TO.N,/D-*%
X69569700Y-72948100D03*
X68687400Y-64273700D03*
%TO.N,Net-(J1-CC1)*%
X75292500Y-53442800D03*
X70199800Y-73718900D03*
%TO.N,Net-(J1-CC2)*%
X87112500Y-68088000D03*
X88071100Y-57201500D03*
%TO.N,/VCC_3V3*%
X86148300Y-51729200D03*
X40705000Y-53774200D03*
X87595000Y-46747300D03*
%TO.N,/D+*%
X44857400Y-74942900D03*
X46006700Y-65152300D03*
X64312900Y-67153400D03*
X63025000Y-64273700D03*
%TO.N,Net-(U4-VO)*%
X95378900Y-58516900D03*
X97877200Y-78172900D03*
X103588900Y-80112600D03*
%TO.N,GND*%
X56617200Y-47229700D03*
X98961800Y-51522700D03*
X95912300Y-49985900D03*
X39832500Y-67375100D03*
X42939700Y-56151900D03*
X48500000Y-51179500D03*
%TD*%
%TO.N,Net-(U4-VO)*%
D18*
X101612600Y-80112600D02*
X99672900Y-78172900D01*
X103588900Y-80112600D02*
X101612600Y-80112600D01*
X99672900Y-78172900D02*
X97877200Y-78172900D01*
%TO.N,/BL*%
X63472500Y-67920000D02*
X63507500Y-67885000D01*
X63472500Y-78027500D02*
X63472500Y-67920000D01*
X59500000Y-82000000D02*
X63472500Y-78027500D01*
%TO.N,Net-(D1-A)*%
X42787500Y-73733700D02*
X42787500Y-68302500D01*
X47000000Y-76000000D02*
X45053800Y-76000000D01*
X48000000Y-75000000D02*
X47000000Y-76000000D01*
X45053800Y-76000000D02*
X42787500Y-73733700D01*
X48000000Y-74400000D02*
X48000000Y-75000000D01*
%TO.N,Net-(J1-CC1)*%
X70199800Y-73718900D02*
X70322200Y-73596500D01*
X70199800Y-73718900D02*
X75292500Y-68626200D01*
X75292500Y-68626200D02*
X75292500Y-53442800D01*
%TO.N,/BL*%
X63507500Y-67885000D02*
X63235000Y-67612500D01*
X63235000Y-67612500D02*
X63507500Y-67885000D01*
%TO.N,/GPIO0*%
X95274500Y-54747200D02*
X90856300Y-59165400D01*
X95274500Y-33413700D02*
X95274500Y-54747200D01*
X90856300Y-59165400D02*
X90828300Y-59193400D01*
X90828300Y-59193400D02*
X90856300Y-59165400D01*
%TO.N,/SCL*%
X71480000Y-64227400D02*
X69265900Y-62013300D01*
X71480000Y-65679300D02*
X71480000Y-64227400D01*
%TO.N,/GPIO4*%
X89783500Y-62307600D02*
X89783500Y-58656500D01*
X90066400Y-62590500D02*
X89783500Y-62307600D01*
X65684100Y-50939000D02*
X65684100Y-49885000D01*
X89783500Y-58656500D02*
X89608800Y-58656500D01*
X89783500Y-29636500D02*
X92420000Y-27000000D01*
X89783500Y-58656500D02*
X89783500Y-29636500D01*
%TO.N,Net-(D6-A)*%
X90217600Y-56942800D02*
X90856300Y-56304100D01*
X90217600Y-61855900D02*
X90217600Y-56942800D01*
X90677000Y-62315300D02*
X90217600Y-61855900D01*
X90677000Y-81409900D02*
X90677000Y-62315300D01*
X90067500Y-82019400D02*
X90677000Y-81409900D01*
%TO.N,/D-*%
X69569700Y-65156000D02*
X68687400Y-64273700D01*
X69569700Y-72948100D02*
X69569700Y-65156000D01*
%TO.N,Net-(J1-CC2)*%
X88071100Y-67129400D02*
X88071100Y-57201500D01*
X87112500Y-68088000D02*
X88071100Y-67129400D01*
%TO.N,/VCC_3V3*%
X89880000Y-27000000D02*
X89880000Y-28051700D01*
X40705000Y-57253300D02*
X40705000Y-53774200D01*
X37500000Y-60458300D02*
X40705000Y-57253300D01*
X37500000Y-61610000D02*
X37500000Y-60458300D01*
X87595000Y-50282500D02*
X86148300Y-51729200D01*
X87595000Y-46747300D02*
X87595000Y-50282500D01*
X87595000Y-30336700D02*
X87595000Y-46747300D01*
X89880000Y-28051700D02*
X87595000Y-30336700D01*
%TO.N,/D+*%
X63025000Y-65865500D02*
X63025000Y-64273700D01*
X64312900Y-67153400D02*
X63025000Y-65865500D01*
X46006700Y-73793600D02*
X44857400Y-74942900D01*
X46006700Y-65152300D02*
X46006700Y-73793600D01*
X44857400Y-74942900D02*
X44859000Y-74942900D01*
X44859000Y-74942900D02*
X44857400Y-74942900D01*
%TO.N,Net-(U4-VO)*%
X95378900Y-58516900D02*
X97877200Y-61015200D01*
X97877200Y-78309300D02*
X97877200Y-78172900D01*
%TO.N,GND*%
X62500000Y-56500000D02*
X62500000Y-55100000D01*
X61800000Y-54400000D02*
X61800000Y-55800000D01*
X60400000Y-57200000D02*
X60400000Y-55800000D01*
X59700000Y-55100000D02*
X59700000Y-56500000D01*
X76320000Y-75870000D02*
X76320000Y-80050000D01*
X59700000Y-50312500D02*
X59700000Y-55100000D01*
X56617200Y-47229700D02*
X59700000Y-50312500D01*
X67680000Y-80050000D02*
X67680000Y-75870000D01*
X67680000Y-61680000D02*
X62500000Y-56500000D01*
X67680000Y-75870000D02*
X67680000Y-61680000D01*
X97500000Y-49985900D02*
X95912300Y-49985900D01*
X97500000Y-27000000D02*
X97500000Y-49985900D01*
X97500000Y-50060900D02*
X98961800Y-51522700D01*
X97500000Y-49985900D02*
X97500000Y-50060900D01*
X37500000Y-65042600D02*
X39832500Y-67375100D01*
X37500000Y-64150000D02*
X37500000Y-65042600D01*
X39832500Y-59259100D02*
X39832500Y-67375100D01*
X42939700Y-56151900D02*
X39832500Y-59259100D01*
X43527600Y-56151900D02*
X48500000Y-51179500D01*
X42939700Y-56151900D02*
X43527600Y-56151900D01*
%TO.N,/GPIO4*%
X72957500Y-58212400D02*
X65684100Y-50939000D01*
%TO.N,Net-(U4-VO)*%
X97877200Y-61015200D02*
X97877200Y-78172900D01*
%TD*%
%TA.AperFunction,Conductor*%
%TO.N,GND*%
G36*
X114478009Y-24005523D02*
G01*
X114493007Y-24009927D01*
X114551758Y-24047672D01*
X114552945Y-24049041D01*
X114572810Y-24092504D01*
X114576266Y-24091408D01*
X114579098Y-24100335D01*
X114580485Y-24109294D01*
X114581990Y-24112587D01*
X114581511Y-24115923D01*
X114584903Y-24137831D01*
X114584903Y-82744174D01*
X114579878Y-82779118D01*
X114575473Y-82794116D01*
X114537730Y-82852859D01*
X114536361Y-82854046D01*
X114481500Y-82881522D01*
X114473942Y-82883167D01*
X114447571Y-82886004D01*
X90638001Y-82886004D01*
X90603066Y-82880981D01*
X90592212Y-82877794D01*
X90533434Y-82840020D01*
X90504409Y-82776464D01*
X90514341Y-82707332D01*
X90515314Y-82705201D01*
X90559222Y-82653594D01*
X90577789Y-82641189D01*
X90689286Y-82529692D01*
X90689289Y-82529689D01*
X90776894Y-82398579D01*
X90837237Y-82252897D01*
X90856613Y-82155485D01*
X90864659Y-82115034D01*
X90876401Y-82081753D01*
X90891767Y-82052378D01*
X90913957Y-82022176D01*
X91028273Y-81907859D01*
X91028279Y-81907856D01*
X91045715Y-81890420D01*
X91045716Y-81890420D01*
X91157520Y-81778616D01*
X91231381Y-81650684D01*
X91236577Y-81641685D01*
X91277500Y-81488957D01*
X91277500Y-81330843D01*
X91277500Y-62406752D01*
X91277501Y-62406701D01*
X91277501Y-62236244D01*
X91277501Y-62236243D01*
X91236577Y-62083516D01*
X91187574Y-61998639D01*
X91157524Y-61946590D01*
X91157518Y-61946582D01*
X91157514Y-61946578D01*
X91157514Y-61946577D01*
X90867026Y-61656090D01*
X90845874Y-61627834D01*
X90833267Y-61604745D01*
X90818100Y-61545320D01*
X90818100Y-60107643D01*
X90823123Y-60072707D01*
X90827527Y-60057709D01*
X90865292Y-59998940D01*
X90869097Y-59995642D01*
X90918014Y-59969628D01*
X90920042Y-59969081D01*
X90929231Y-59967406D01*
X90929168Y-59967089D01*
X91015634Y-59949888D01*
X91089797Y-59935137D01*
X91235479Y-59874794D01*
X91366589Y-59787189D01*
X91478089Y-59675689D01*
X91565694Y-59544579D01*
X91626037Y-59398897D01*
X91648367Y-59286637D01*
X91653460Y-59261032D01*
X91665201Y-59227754D01*
X91680568Y-59198377D01*
X91702759Y-59168174D01*
X92275185Y-58595748D01*
X94578399Y-58595748D01*
X94609157Y-58750371D01*
X94609164Y-58750402D01*
X94669498Y-58896065D01*
X94669503Y-58896074D01*
X94669513Y-58896091D01*
X94757111Y-59027190D01*
X94757112Y-59027191D01*
X94757117Y-59027197D01*
X94868601Y-59138681D01*
X94868607Y-59138686D01*
X94868611Y-59138689D01*
X94999714Y-59226290D01*
X94999727Y-59226297D01*
X95125249Y-59278289D01*
X95145403Y-59286637D01*
X95202116Y-59297918D01*
X95283262Y-59314059D01*
X95316544Y-59325801D01*
X95345921Y-59341168D01*
X95376127Y-59363362D01*
X97227773Y-61215008D01*
X97248923Y-61243260D01*
X97261531Y-61266349D01*
X97276700Y-61325778D01*
X97276700Y-77575304D01*
X97271676Y-77610241D01*
X97262336Y-77642048D01*
X97246462Y-77676002D01*
X97167813Y-77793707D01*
X97167803Y-77793724D01*
X97167798Y-77793733D01*
X97107464Y-77939396D01*
X97107457Y-77939427D01*
X97076700Y-78094050D01*
X97076700Y-78251744D01*
X97076699Y-78251748D01*
X97107457Y-78406371D01*
X97107464Y-78406402D01*
X97167798Y-78552065D01*
X97167803Y-78552074D01*
X97167813Y-78552091D01*
X97255411Y-78683190D01*
X97255412Y-78683191D01*
X97255417Y-78683197D01*
X97366901Y-78794681D01*
X97366907Y-78794686D01*
X97366911Y-78794689D01*
X97498014Y-78882290D01*
X97498027Y-78882297D01*
X97578924Y-78915805D01*
X97643703Y-78942637D01*
X97794744Y-78972681D01*
X97795991Y-78973016D01*
X97798355Y-78973400D01*
X97956044Y-78973400D01*
X97960164Y-78973400D01*
X97968014Y-78971018D01*
X98110697Y-78942637D01*
X98223366Y-78895967D01*
X98249834Y-78885004D01*
X98252625Y-78884031D01*
X98254068Y-78883364D01*
X98258728Y-78881321D01*
X98267987Y-78877485D01*
X98276871Y-78868601D01*
X98302057Y-78851773D01*
X98373253Y-78804201D01*
X98405085Y-78788971D01*
X98424774Y-78782806D01*
X98436729Y-78779064D01*
X98473778Y-78773400D01*
X99354973Y-78773400D01*
X99389905Y-78778421D01*
X99415149Y-78785834D01*
X99467895Y-78817130D01*
X101126685Y-80475920D01*
X101126706Y-80475942D01*
X101127749Y-80476985D01*
X101132079Y-80481315D01*
X101132080Y-80481316D01*
X101243884Y-80593120D01*
X101327780Y-80641557D01*
X101380815Y-80672177D01*
X101533543Y-80713101D01*
X101533546Y-80713101D01*
X101699253Y-80713101D01*
X101701157Y-80713101D01*
X101701220Y-80713100D01*
X102991304Y-80713100D01*
X103026236Y-80718121D01*
X103058050Y-80727463D01*
X103091998Y-80743335D01*
X103209714Y-80821990D01*
X103209727Y-80821997D01*
X103355398Y-80882335D01*
X103355403Y-80882337D01*
X103510053Y-80913099D01*
X103510056Y-80913100D01*
X103510058Y-80913100D01*
X103667744Y-80913100D01*
X103667745Y-80913099D01*
X103822397Y-80882337D01*
X103963999Y-80823684D01*
X103968072Y-80821997D01*
X103968072Y-80821996D01*
X103968074Y-80821995D01*
X103968079Y-80821994D01*
X103968081Y-80821992D01*
X103970427Y-80821021D01*
X103970427Y-80821020D01*
X103979689Y-80817185D01*
X103988575Y-80808298D01*
X104099189Y-80734389D01*
X104210689Y-80622889D01*
X104298294Y-80491779D01*
X104358637Y-80346097D01*
X104389400Y-80191442D01*
X104389400Y-80033758D01*
X104389400Y-80033755D01*
X104389400Y-80033573D01*
X104388965Y-80031572D01*
X104367567Y-79924000D01*
X104359295Y-79882415D01*
X104358883Y-79880003D01*
X104358637Y-79879104D01*
X104351216Y-79861187D01*
X104337198Y-79827345D01*
X104298297Y-79733427D01*
X104298290Y-79733414D01*
X104210689Y-79602311D01*
X104210686Y-79602307D01*
X104210681Y-79602301D01*
X104099197Y-79490817D01*
X104099191Y-79490812D01*
X104099190Y-79490811D01*
X103968091Y-79403213D01*
X103968090Y-79403212D01*
X103968085Y-79403209D01*
X103968072Y-79403202D01*
X103968065Y-79403198D01*
X103822402Y-79342864D01*
X103822371Y-79342857D01*
X103667747Y-79312100D01*
X103667745Y-79312100D01*
X103667742Y-79312100D01*
X103510058Y-79312100D01*
X103510055Y-79312100D01*
X103510053Y-79312100D01*
X103355427Y-79342857D01*
X103355396Y-79342864D01*
X103209733Y-79403198D01*
X103209724Y-79403203D01*
X103209697Y-79403219D01*
X103092849Y-79481295D01*
X103061015Y-79496527D01*
X103029378Y-79506434D01*
X102992322Y-79512100D01*
X101930527Y-79512100D01*
X101895591Y-79507077D01*
X101870349Y-79499665D01*
X101817604Y-79468369D01*
X100164828Y-77815593D01*
X100160490Y-77811255D01*
X100160488Y-77811252D01*
X100041617Y-77692381D01*
X100041616Y-77692380D01*
X100041615Y-77692379D01*
X100041612Y-77692377D01*
X99975698Y-77654321D01*
X99975698Y-77654322D01*
X99939743Y-77633564D01*
X99939742Y-77633563D01*
X99904686Y-77613323D01*
X99866503Y-77603092D01*
X99751957Y-77572399D01*
X99751954Y-77572399D01*
X99584343Y-77572399D01*
X99584280Y-77572400D01*
X98619530Y-77572400D01*
X98584589Y-77567375D01*
X98569590Y-77562970D01*
X98510844Y-77525227D01*
X98509657Y-77523858D01*
X98482177Y-77468983D01*
X98480532Y-77461421D01*
X98477700Y-77435068D01*
X98477700Y-61106652D01*
X98477701Y-61106601D01*
X98477701Y-60936146D01*
X98477701Y-60936144D01*
X98436776Y-60783414D01*
X98436773Y-60783409D01*
X98436773Y-60783408D01*
X98436749Y-60783351D01*
X98436268Y-60782534D01*
X98395620Y-60712129D01*
X98357724Y-60646490D01*
X98357718Y-60646482D01*
X98357714Y-60646478D01*
X98357713Y-60646476D01*
X96226080Y-58514844D01*
X96204930Y-58486591D01*
X96189043Y-58457497D01*
X96176257Y-58422260D01*
X96160747Y-58344284D01*
X96148638Y-58283407D01*
X96148637Y-58283405D01*
X96148637Y-58283403D01*
X96146118Y-58277321D01*
X96143831Y-58271799D01*
X96088300Y-58137733D01*
X96088295Y-58137724D01*
X96088290Y-58137714D01*
X96000689Y-58006611D01*
X96000686Y-58006607D01*
X96000681Y-58006601D01*
X95889197Y-57895117D01*
X95889191Y-57895112D01*
X95889190Y-57895111D01*
X95758091Y-57807513D01*
X95758090Y-57807512D01*
X95758085Y-57807509D01*
X95758072Y-57807502D01*
X95758065Y-57807498D01*
X95612402Y-57747164D01*
X95612371Y-57747157D01*
X95457747Y-57716400D01*
X95457745Y-57716400D01*
X95457742Y-57716400D01*
X95300058Y-57716400D01*
X95300055Y-57716400D01*
X95300053Y-57716400D01*
X95145427Y-57747157D01*
X95145396Y-57747164D01*
X94999733Y-57807498D01*
X94999724Y-57807503D01*
X94999707Y-57807513D01*
X94868608Y-57895111D01*
X94868607Y-57895112D01*
X94868601Y-57895117D01*
X94757117Y-58006601D01*
X94757112Y-58006607D01*
X94757111Y-58006608D01*
X94669513Y-58137707D01*
X94669503Y-58137724D01*
X94669498Y-58137733D01*
X94609164Y-58283396D01*
X94609157Y-58283427D01*
X94578400Y-58438050D01*
X94578400Y-58438053D01*
X94578400Y-58595746D01*
X94578400Y-58595748D01*
X94578399Y-58595748D01*
X92275185Y-58595748D01*
X95625772Y-55245160D01*
X95625779Y-55245156D01*
X95643215Y-55227720D01*
X95643216Y-55227720D01*
X95755020Y-55115916D01*
X95834077Y-54978984D01*
X95875000Y-54826257D01*
X95875000Y-34011294D01*
X95880022Y-33976361D01*
X95880944Y-33973222D01*
X95889364Y-33944545D01*
X95905233Y-33910602D01*
X95980950Y-33797284D01*
X95982968Y-33794527D01*
X95984478Y-33792126D01*
X95986210Y-33787285D01*
X96044237Y-33647197D01*
X96075000Y-33492542D01*
X96075000Y-33334858D01*
X96075000Y-33334855D01*
X96075000Y-33334673D01*
X96074565Y-33332672D01*
X96044897Y-33183524D01*
X96044494Y-33181167D01*
X96044238Y-33180208D01*
X96044237Y-33180206D01*
X96044237Y-33180203D01*
X96044235Y-33180198D01*
X95983897Y-33034527D01*
X95983890Y-33034514D01*
X95896289Y-32903411D01*
X95896286Y-32903407D01*
X95896281Y-32903401D01*
X95784797Y-32791917D01*
X95784791Y-32791912D01*
X95784790Y-32791911D01*
X95653691Y-32704313D01*
X95653690Y-32704312D01*
X95653685Y-32704309D01*
X95653672Y-32704302D01*
X95653665Y-32704298D01*
X95508002Y-32643964D01*
X95507971Y-32643957D01*
X95353347Y-32613200D01*
X95353345Y-32613200D01*
X95353342Y-32613200D01*
X95195658Y-32613200D01*
X95195655Y-32613200D01*
X95195653Y-32613200D01*
X95041027Y-32643957D01*
X95040996Y-32643964D01*
X94895333Y-32704298D01*
X94895324Y-32704303D01*
X94895307Y-32704313D01*
X94764208Y-32791911D01*
X94764207Y-32791912D01*
X94764201Y-32791917D01*
X94652717Y-32903401D01*
X94652712Y-32903407D01*
X94652711Y-32903408D01*
X94565113Y-33034507D01*
X94565103Y-33034524D01*
X94565098Y-33034533D01*
X94504764Y-33180196D01*
X94504757Y-33180227D01*
X94474000Y-33334850D01*
X94474000Y-33334853D01*
X94474000Y-33492546D01*
X94474000Y-33492548D01*
X94473999Y-33492548D01*
X94504757Y-33647171D01*
X94504764Y-33647202D01*
X94565098Y-33792865D01*
X94565102Y-33792872D01*
X94565109Y-33792885D01*
X94643197Y-33909750D01*
X94658428Y-33941586D01*
X94668334Y-33973222D01*
X94674000Y-34010275D01*
X94674000Y-54429273D01*
X94668976Y-54464210D01*
X94661564Y-54489451D01*
X94630269Y-54542195D01*
X91042388Y-58130076D01*
X91014138Y-58151225D01*
X91004211Y-58156646D01*
X90935938Y-58171500D01*
X90870473Y-58147086D01*
X90828600Y-58091154D01*
X90825913Y-58083948D01*
X90818100Y-58040628D01*
X90818100Y-57260726D01*
X90823123Y-57225790D01*
X90829983Y-57202428D01*
X90867758Y-57143650D01*
X90889529Y-57128534D01*
X90893746Y-57126231D01*
X90915699Y-57114243D01*
X90950927Y-57101460D01*
X90992385Y-57093213D01*
X91089797Y-57073837D01*
X91235479Y-57013494D01*
X91303564Y-56968001D01*
X91366591Y-56925888D01*
X91366592Y-56925886D01*
X91478086Y-56814392D01*
X91478089Y-56814389D01*
X91565694Y-56683279D01*
X91626037Y-56537597D01*
X91656800Y-56382942D01*
X91656800Y-56225258D01*
X91656800Y-56225255D01*
X91656800Y-56225073D01*
X91656365Y-56223072D01*
X91626697Y-56073924D01*
X91626294Y-56071567D01*
X91626038Y-56070608D01*
X91626037Y-56070606D01*
X91626037Y-56070603D01*
X91626035Y-56070598D01*
X91565697Y-55924927D01*
X91565690Y-55924914D01*
X91478089Y-55793811D01*
X91478086Y-55793807D01*
X91478081Y-55793801D01*
X91366597Y-55682317D01*
X91366591Y-55682312D01*
X91366590Y-55682311D01*
X91235491Y-55594713D01*
X91235490Y-55594712D01*
X91235485Y-55594709D01*
X91235472Y-55594702D01*
X91235465Y-55594698D01*
X91089802Y-55534364D01*
X91089771Y-55534357D01*
X90935147Y-55503600D01*
X90935145Y-55503600D01*
X90935142Y-55503600D01*
X90777458Y-55503600D01*
X90777455Y-55503600D01*
X90777453Y-55503600D01*
X90622827Y-55534357D01*
X90622812Y-55534360D01*
X90622810Y-55534361D01*
X90622798Y-55534364D01*
X90622796Y-55534364D01*
X90571918Y-55555438D01*
X90537731Y-55564165D01*
X90532974Y-55564676D01*
X90523934Y-55565648D01*
X90455175Y-55553247D01*
X90404035Y-55505640D01*
X90404026Y-55505624D01*
X90401353Y-55501118D01*
X90384000Y-55437854D01*
X90384000Y-29954425D01*
X90389022Y-29919492D01*
X90396434Y-29894247D01*
X90427728Y-29841505D01*
X92002863Y-28266369D01*
X92031111Y-28245223D01*
X92050663Y-28234547D01*
X92106543Y-28219432D01*
X92111020Y-28219304D01*
X92133936Y-28220780D01*
X92244462Y-28238285D01*
X92244556Y-28238299D01*
X92244642Y-28238313D01*
X92321579Y-28250500D01*
X92321583Y-28250500D01*
X92518421Y-28250500D01*
X92518422Y-28250500D01*
X92712826Y-28219709D01*
X92715085Y-28218975D01*
X92900025Y-28158884D01*
X93075405Y-28069524D01*
X93234646Y-27953828D01*
X93373828Y-27814646D01*
X93489524Y-27655405D01*
X93571422Y-27494669D01*
X93591752Y-27465829D01*
X93600649Y-27456409D01*
X93660987Y-27421188D01*
X93730793Y-27424180D01*
X93784507Y-27460347D01*
X93790579Y-27467355D01*
X93807351Y-27492263D01*
X93890472Y-27655400D01*
X93890472Y-27655401D01*
X93911648Y-27684546D01*
X93915702Y-27690125D01*
X94006172Y-27814646D01*
X94145354Y-27953828D01*
X94264784Y-28040600D01*
X94304596Y-28069525D01*
X94341904Y-28088534D01*
X94379214Y-28107544D01*
X94404102Y-28120225D01*
X94473521Y-28155596D01*
X94475124Y-28156534D01*
X94478823Y-28158326D01*
X94480831Y-28159324D01*
X94484597Y-28160386D01*
X94522082Y-28172565D01*
X94580315Y-28191486D01*
X94580316Y-28191487D01*
X94602031Y-28198542D01*
X94667173Y-28219709D01*
X94861578Y-28250500D01*
X94861583Y-28250500D01*
X95058421Y-28250500D01*
X95058422Y-28250500D01*
X95252826Y-28219709D01*
X95255085Y-28218975D01*
X95440025Y-28158884D01*
X95615405Y-28069524D01*
X95774646Y-27953828D01*
X95913828Y-27814646D01*
X96029524Y-27655405D01*
X96111703Y-27494118D01*
X96132034Y-27465276D01*
X96140928Y-27455858D01*
X96201269Y-27420637D01*
X96271074Y-27423629D01*
X96324788Y-27459797D01*
X96330862Y-27466806D01*
X96347630Y-27491709D01*
X96349139Y-27494670D01*
X96430905Y-27655145D01*
X96456319Y-27690125D01*
X96456320Y-27690125D01*
X96963502Y-27182942D01*
X97024823Y-27149459D01*
X97094514Y-27154443D01*
X97150448Y-27196314D01*
X97158567Y-27208624D01*
X97179915Y-27245599D01*
X97179919Y-27245604D01*
X97179920Y-27245606D01*
X97254394Y-27320080D01*
X97254395Y-27320081D01*
X97254397Y-27320082D01*
X97291373Y-27341430D01*
X97339588Y-27391996D01*
X97352812Y-27460603D01*
X97326844Y-27525468D01*
X97317054Y-27536498D01*
X96809873Y-28043676D01*
X96809873Y-28043677D01*
X96809873Y-28043678D01*
X96844858Y-28069096D01*
X97020164Y-28158418D01*
X97207294Y-28219221D01*
X97401618Y-28250000D01*
X97598381Y-28250000D01*
X97598382Y-28250000D01*
X97792705Y-28219221D01*
X97979835Y-28158418D01*
X98155143Y-28069095D01*
X98157527Y-28067362D01*
X98158587Y-28066984D01*
X98159296Y-28066550D01*
X98159387Y-28066698D01*
X98184267Y-28057820D01*
X98190126Y-28043677D01*
X97682946Y-27536497D01*
X97649461Y-27475174D01*
X97654445Y-27405482D01*
X97696317Y-27349549D01*
X97708622Y-27341432D01*
X97745606Y-27320080D01*
X97820080Y-27245606D01*
X97841429Y-27208627D01*
X97891994Y-27160413D01*
X97960600Y-27147188D01*
X98025466Y-27173155D01*
X98036497Y-27182946D01*
X98543677Y-27690126D01*
X98543677Y-27690125D01*
X98543678Y-27690126D01*
X98543678Y-27690125D01*
X98557146Y-27684546D01*
X98563363Y-27663377D01*
X98567353Y-27657539D01*
X98569095Y-27655143D01*
X98658418Y-27479835D01*
X98719221Y-27292705D01*
X98750000Y-27098382D01*
X98750000Y-26901617D01*
X98719221Y-26707294D01*
X98658418Y-26520164D01*
X98569096Y-26344858D01*
X98564564Y-26338620D01*
X98543679Y-26309873D01*
X98543678Y-26309873D01*
X98543677Y-26309873D01*
X98543676Y-26309873D01*
X98036497Y-26817053D01*
X97975174Y-26850538D01*
X97905482Y-26845554D01*
X97849549Y-26803682D01*
X97841432Y-26791377D01*
X97820080Y-26754394D01*
X97745606Y-26679920D01*
X97745605Y-26679919D01*
X97745602Y-26679917D01*
X97708626Y-26658569D01*
X97660410Y-26608002D01*
X97647188Y-26539395D01*
X97673156Y-26474530D01*
X97682940Y-26463506D01*
X98190125Y-25956320D01*
X98190125Y-25956319D01*
X98190124Y-25956318D01*
X98155147Y-25930906D01*
X97979839Y-25841583D01*
X97979838Y-25841582D01*
X97979835Y-25841581D01*
X97792705Y-25780778D01*
X97598382Y-25750000D01*
X97598381Y-25750000D01*
X97401619Y-25750000D01*
X97401618Y-25750000D01*
X97317633Y-25763301D01*
X97207299Y-25780777D01*
X97207297Y-25780777D01*
X97207294Y-25780778D01*
X97129039Y-25806205D01*
X97020160Y-25841582D01*
X97020153Y-25841585D01*
X96844863Y-25930898D01*
X96844775Y-25930953D01*
X96844121Y-25931437D01*
X96842495Y-25932619D01*
X96841578Y-25932946D01*
X96840326Y-25933727D01*
X96840156Y-25933454D01*
X96815730Y-25942176D01*
X96809871Y-25956320D01*
X97317054Y-26463501D01*
X97350539Y-26524824D01*
X97345555Y-26594515D01*
X97303684Y-26650449D01*
X97291374Y-26658568D01*
X97254400Y-26679915D01*
X97254392Y-26679921D01*
X97179919Y-26754394D01*
X97158570Y-26791373D01*
X97108002Y-26839588D01*
X97039395Y-26852810D01*
X96974531Y-26826842D01*
X96963502Y-26817053D01*
X96456320Y-26309871D01*
X96445320Y-26314428D01*
X96442248Y-26326957D01*
X96438012Y-26335071D01*
X96430902Y-26344859D01*
X96348636Y-26506314D01*
X96348301Y-26506958D01*
X96347541Y-26507746D01*
X96328523Y-26534725D01*
X96319633Y-26544138D01*
X96303320Y-26553659D01*
X96299832Y-26557282D01*
X96295255Y-26558367D01*
X96259291Y-26579361D01*
X96189486Y-26576369D01*
X96135771Y-26540201D01*
X96129698Y-26533192D01*
X96112928Y-26508286D01*
X96112251Y-26506958D01*
X96047431Y-26379739D01*
X96029526Y-26344597D01*
X95992633Y-26293819D01*
X95926020Y-26202135D01*
X95913828Y-26185354D01*
X95774646Y-26046172D01*
X95615405Y-25930476D01*
X95440029Y-25841117D01*
X95252826Y-25780290D01*
X95252820Y-25780289D01*
X95058427Y-25749500D01*
X95058422Y-25749500D01*
X95058417Y-25749500D01*
X94861583Y-25749500D01*
X94861578Y-25749500D01*
X94861573Y-25749500D01*
X94667178Y-25780289D01*
X94667176Y-25780289D01*
X94667173Y-25780290D01*
X94479970Y-25841117D01*
X94479052Y-25841585D01*
X94304593Y-25930476D01*
X94213741Y-25996485D01*
X94157223Y-26037548D01*
X94149844Y-26041680D01*
X94001680Y-26189844D01*
X93997550Y-26197220D01*
X93993983Y-26202130D01*
X93993980Y-26202135D01*
X93890476Y-26344593D01*
X93808579Y-26505327D01*
X93788248Y-26534169D01*
X93779357Y-26543584D01*
X93719017Y-26578809D01*
X93649211Y-26575821D01*
X93595486Y-26539645D01*
X93589415Y-26532638D01*
X93572649Y-26507738D01*
X93572252Y-26506958D01*
X93552397Y-26467992D01*
X93489524Y-26344595D01*
X93489522Y-26344592D01*
X93489521Y-26344590D01*
X93452633Y-26293819D01*
X93373828Y-26185354D01*
X93234646Y-26046172D01*
X93075405Y-25930476D01*
X92900029Y-25841117D01*
X92712826Y-25780290D01*
X92712820Y-25780289D01*
X92518427Y-25749500D01*
X92518422Y-25749500D01*
X92518417Y-25749500D01*
X92321583Y-25749500D01*
X92321578Y-25749500D01*
X92321573Y-25749500D01*
X92127178Y-25780289D01*
X92127176Y-25780289D01*
X92127173Y-25780290D01*
X91939970Y-25841117D01*
X91939052Y-25841585D01*
X91764593Y-25930476D01*
X91673741Y-25996485D01*
X91617223Y-26037548D01*
X91609844Y-26041680D01*
X91466174Y-26185350D01*
X91365297Y-26324195D01*
X91311202Y-26366372D01*
X91309921Y-26366886D01*
X91300975Y-26373781D01*
X91231359Y-26379739D01*
X91169574Y-26347114D01*
X91148033Y-26319163D01*
X91146508Y-26316462D01*
X91130499Y-26255519D01*
X91130499Y-26202122D01*
X91130339Y-26200197D01*
X91130112Y-26198538D01*
X91129970Y-26197220D01*
X91124091Y-26142517D01*
X91088157Y-26046174D01*
X91073797Y-26007671D01*
X91073793Y-26007664D01*
X90987547Y-25892455D01*
X90987544Y-25892452D01*
X90987542Y-25892450D01*
X90919591Y-25841582D01*
X90872335Y-25806206D01*
X90872332Y-25806204D01*
X90872330Y-25806203D01*
X90872328Y-25806202D01*
X90737482Y-25755908D01*
X90737483Y-25755908D01*
X90677883Y-25749501D01*
X90677881Y-25749500D01*
X90677873Y-25749500D01*
X90677864Y-25749500D01*
X90676841Y-25749500D01*
X89082123Y-25749500D01*
X89080192Y-25749659D01*
X89078545Y-25749885D01*
X89022516Y-25755908D01*
X88887666Y-25806204D01*
X88887665Y-25806205D01*
X88772456Y-25892450D01*
X88772450Y-25892456D01*
X88686205Y-26007665D01*
X88686203Y-26007668D01*
X88635907Y-26142516D01*
X88632051Y-26178391D01*
X88631304Y-26185351D01*
X88631303Y-26185356D01*
X88629500Y-26202126D01*
X88629500Y-27797876D01*
X88629659Y-27799806D01*
X88629885Y-27801454D01*
X88635907Y-27857482D01*
X88663690Y-27931971D01*
X88686202Y-27992328D01*
X88686206Y-27992335D01*
X88772452Y-28107544D01*
X88772453Y-28107544D01*
X88774436Y-28110193D01*
X88774438Y-28110197D01*
X88789440Y-28130238D01*
X88790882Y-28131442D01*
X88792688Y-28133855D01*
X88817099Y-28199321D01*
X88802247Y-28267581D01*
X88795596Y-28279762D01*
X88774444Y-28308018D01*
X87226286Y-29856177D01*
X87114481Y-29967981D01*
X87114479Y-29967983D01*
X87068424Y-30047756D01*
X87068422Y-30047760D01*
X87043585Y-30090775D01*
X87041614Y-30093344D01*
X87035187Y-30105352D01*
X87034390Y-30108766D01*
X86994499Y-30257643D01*
X86994499Y-30428100D01*
X86994500Y-30428151D01*
X86994500Y-46149704D01*
X86989476Y-46184641D01*
X86980136Y-46216448D01*
X86964262Y-46250402D01*
X86885613Y-46368107D01*
X86885603Y-46368124D01*
X86885598Y-46368133D01*
X86838561Y-46481695D01*
X86794721Y-46536099D01*
X86728427Y-46558164D01*
X86660727Y-46540885D01*
X86613116Y-46489748D01*
X86600000Y-46434243D01*
X86600000Y-25590000D01*
X38600000Y-25590000D01*
X38600000Y-46590000D01*
X86600000Y-46590000D01*
X86614284Y-46590000D01*
X86644142Y-46573696D01*
X86713834Y-46578680D01*
X86769767Y-46620552D01*
X86794184Y-46686016D01*
X86794500Y-46694862D01*
X86794500Y-46826146D01*
X86794500Y-46826148D01*
X86794499Y-46826148D01*
X86825257Y-46980771D01*
X86825264Y-46980802D01*
X86885598Y-47126465D01*
X86885602Y-47126472D01*
X86885609Y-47126485D01*
X86963697Y-47243350D01*
X86978928Y-47275186D01*
X86988834Y-47306822D01*
X86994500Y-47343875D01*
X86994500Y-49964572D01*
X86989476Y-49999509D01*
X86982064Y-50024750D01*
X86950769Y-50077494D01*
X86146246Y-50882017D01*
X86117993Y-50903167D01*
X86088899Y-50919054D01*
X86053663Y-50931840D01*
X85914815Y-50959459D01*
X85914809Y-50959460D01*
X85914808Y-50959461D01*
X85914798Y-50959464D01*
X85914793Y-50959465D01*
X85914775Y-50959472D01*
X85769133Y-51019798D01*
X85769124Y-51019803D01*
X85769107Y-51019813D01*
X85638008Y-51107411D01*
X85638007Y-51107412D01*
X85638001Y-51107417D01*
X85526517Y-51218901D01*
X85526512Y-51218907D01*
X85526511Y-51218908D01*
X85438913Y-51350007D01*
X85438903Y-51350024D01*
X85438898Y-51350033D01*
X85378564Y-51495696D01*
X85378557Y-51495727D01*
X85347800Y-51650350D01*
X85347800Y-51650353D01*
X85347800Y-51808046D01*
X85347800Y-51808048D01*
X85347799Y-51808048D01*
X85378557Y-51962671D01*
X85378564Y-51962702D01*
X85438898Y-52108365D01*
X85438903Y-52108374D01*
X85438913Y-52108391D01*
X85526511Y-52239490D01*
X85526512Y-52239491D01*
X85526517Y-52239497D01*
X85638001Y-52350981D01*
X85638007Y-52350986D01*
X85638011Y-52350989D01*
X85769114Y-52438590D01*
X85769127Y-52438597D01*
X85914798Y-52498935D01*
X85914803Y-52498937D01*
X86069453Y-52529699D01*
X86069456Y-52529700D01*
X86069458Y-52529700D01*
X86227144Y-52529700D01*
X86227145Y-52529699D01*
X86381797Y-52498937D01*
X86527479Y-52438594D01*
X86658589Y-52350989D01*
X86770089Y-52239489D01*
X86857694Y-52108379D01*
X86918037Y-51962697D01*
X86937413Y-51865285D01*
X86945459Y-51824834D01*
X86957200Y-51791555D01*
X86972566Y-51762179D01*
X86994758Y-51731975D01*
X88075520Y-50651216D01*
X88154577Y-50514284D01*
X88195501Y-50361557D01*
X88195501Y-50203442D01*
X88195501Y-50195847D01*
X88195501Y-50194163D01*
X88195500Y-50194089D01*
X88195500Y-47344894D01*
X88200522Y-47309961D01*
X88201444Y-47306822D01*
X88209864Y-47278145D01*
X88225733Y-47244202D01*
X88301450Y-47130884D01*
X88303468Y-47128127D01*
X88304978Y-47125726D01*
X88306710Y-47120885D01*
X88364737Y-46980797D01*
X88395500Y-46826142D01*
X88395500Y-46668458D01*
X88395500Y-46668455D01*
X88395500Y-46668273D01*
X88395065Y-46666272D01*
X88373561Y-46558164D01*
X88365395Y-46517116D01*
X88364994Y-46514767D01*
X88364738Y-46513808D01*
X88364737Y-46513806D01*
X88364737Y-46513803D01*
X88364735Y-46513798D01*
X88304397Y-46368127D01*
X88304390Y-46368114D01*
X88304379Y-46368097D01*
X88226304Y-46251249D01*
X88211071Y-46219411D01*
X88201165Y-46187774D01*
X88195500Y-46150722D01*
X88195500Y-30654626D01*
X88200522Y-30619693D01*
X88207934Y-30594448D01*
X88239228Y-30541706D01*
X88958714Y-29822220D01*
X88986957Y-29801076D01*
X88996891Y-29795652D01*
X89065161Y-29780799D01*
X89130626Y-29805213D01*
X89172499Y-29861145D01*
X89172501Y-29861149D01*
X89175182Y-29868337D01*
X89183000Y-29911671D01*
X89183000Y-57894147D01*
X89177976Y-57929084D01*
X89172064Y-57949217D01*
X89141542Y-58001182D01*
X89136837Y-58005971D01*
X89117278Y-58022169D01*
X89103582Y-58031320D01*
X89098518Y-58034705D01*
X89098512Y-58034709D01*
X89098493Y-58034725D01*
X88987017Y-58146201D01*
X88987015Y-58146204D01*
X88987013Y-58146207D01*
X88987010Y-58146211D01*
X88966993Y-58176169D01*
X88908606Y-58263550D01*
X88863701Y-58304154D01*
X88853797Y-58309418D01*
X88853771Y-58309370D01*
X88846300Y-58315613D01*
X88776974Y-58324310D01*
X88713951Y-58294146D01*
X88691322Y-58267061D01*
X88690095Y-58265074D01*
X88671600Y-58199923D01*
X88671600Y-57799094D01*
X88676622Y-57764161D01*
X88677544Y-57761022D01*
X88685964Y-57732345D01*
X88701833Y-57698402D01*
X88780490Y-57580685D01*
X88780490Y-57580684D01*
X88780494Y-57580679D01*
X88780497Y-57580672D01*
X88781174Y-57579659D01*
X88782810Y-57575085D01*
X88840837Y-57434997D01*
X88871600Y-57280342D01*
X88871600Y-57122658D01*
X88871600Y-57122655D01*
X88871600Y-57122471D01*
X88871164Y-57120466D01*
X88849885Y-57013490D01*
X88840837Y-56968003D01*
X88823392Y-56925886D01*
X88780497Y-56822327D01*
X88780490Y-56822314D01*
X88692889Y-56691211D01*
X88692886Y-56691207D01*
X88692881Y-56691201D01*
X88581397Y-56579717D01*
X88581391Y-56579712D01*
X88581390Y-56579711D01*
X88450291Y-56492113D01*
X88450290Y-56492112D01*
X88450285Y-56492109D01*
X88450272Y-56492102D01*
X88450265Y-56492098D01*
X88304602Y-56431764D01*
X88304571Y-56431757D01*
X88149947Y-56401000D01*
X88149945Y-56401000D01*
X88149942Y-56401000D01*
X87992258Y-56401000D01*
X87992255Y-56401000D01*
X87992253Y-56401000D01*
X87837627Y-56431757D01*
X87837596Y-56431764D01*
X87691933Y-56492098D01*
X87691924Y-56492103D01*
X87691907Y-56492113D01*
X87560808Y-56579711D01*
X87560807Y-56579712D01*
X87560801Y-56579717D01*
X87449317Y-56691201D01*
X87449312Y-56691207D01*
X87449311Y-56691208D01*
X87361713Y-56822307D01*
X87361703Y-56822324D01*
X87361698Y-56822333D01*
X87301364Y-56967996D01*
X87301357Y-56968027D01*
X87270600Y-57122650D01*
X87270600Y-57122653D01*
X87270600Y-57280346D01*
X87270600Y-57280348D01*
X87270599Y-57280348D01*
X87301357Y-57434971D01*
X87301364Y-57435002D01*
X87361698Y-57580665D01*
X87361702Y-57580672D01*
X87361709Y-57580685D01*
X87439797Y-57697550D01*
X87455028Y-57729386D01*
X87464934Y-57761022D01*
X87470600Y-57798075D01*
X87470600Y-66811473D01*
X87465576Y-66846410D01*
X87458164Y-66871651D01*
X87426869Y-66924395D01*
X87110446Y-67240817D01*
X87082193Y-67261967D01*
X87053099Y-67277854D01*
X87017863Y-67290640D01*
X86879015Y-67318259D01*
X86879009Y-67318260D01*
X86879008Y-67318261D01*
X86878998Y-67318264D01*
X86878993Y-67318265D01*
X86878975Y-67318272D01*
X86733333Y-67378598D01*
X86733324Y-67378603D01*
X86733307Y-67378613D01*
X86602211Y-67466210D01*
X86602207Y-67466212D01*
X86602201Y-67466217D01*
X86490717Y-67577701D01*
X86490712Y-67577707D01*
X86490711Y-67577708D01*
X86403113Y-67708807D01*
X86403103Y-67708824D01*
X86403098Y-67708833D01*
X86342764Y-67854496D01*
X86342757Y-67854527D01*
X86312000Y-68009150D01*
X86312000Y-68166846D01*
X86342757Y-68321471D01*
X86342764Y-68321502D01*
X86403098Y-68467165D01*
X86403103Y-68467174D01*
X86403113Y-68467191D01*
X86490711Y-68598290D01*
X86490712Y-68598291D01*
X86490717Y-68598297D01*
X86602201Y-68709781D01*
X86602207Y-68709786D01*
X86602211Y-68709789D01*
X86733314Y-68797390D01*
X86733327Y-68797397D01*
X86878998Y-68857735D01*
X86879003Y-68857737D01*
X87002313Y-68882265D01*
X87026033Y-68886983D01*
X87028750Y-68887704D01*
X87033655Y-68888500D01*
X87191344Y-68888500D01*
X87195464Y-68888500D01*
X87203314Y-68886118D01*
X87345997Y-68857737D01*
X87491679Y-68797394D01*
X87622789Y-68709789D01*
X87734289Y-68598289D01*
X87821894Y-68467179D01*
X87882237Y-68321497D01*
X87906426Y-68199890D01*
X87909660Y-68183629D01*
X87909663Y-68183624D01*
X87921401Y-68150354D01*
X87936768Y-68120977D01*
X87958959Y-68090774D01*
X88422372Y-67627360D01*
X88422379Y-67627356D01*
X88439815Y-67609920D01*
X88439816Y-67609920D01*
X88551620Y-67498116D01*
X88570041Y-67466210D01*
X88619972Y-67379727D01*
X88619973Y-67379724D01*
X88620617Y-67378609D01*
X88620638Y-67378573D01*
X88625735Y-67369744D01*
X88630677Y-67361185D01*
X88671600Y-67208457D01*
X88671600Y-67050343D01*
X88671600Y-59121346D01*
X88686361Y-59062670D01*
X88691670Y-59052786D01*
X88691717Y-59052811D01*
X88694456Y-59043476D01*
X88747251Y-58997710D01*
X88816407Y-58987751D01*
X88850270Y-58997686D01*
X88852399Y-58998659D01*
X88904010Y-59042570D01*
X88987010Y-59166788D01*
X88987013Y-59166792D01*
X88987015Y-59166794D01*
X88987017Y-59166797D01*
X89098491Y-59278271D01*
X89098514Y-59278292D01*
X89113067Y-59288016D01*
X89139318Y-59311595D01*
X89152773Y-59327693D01*
X89179023Y-59381924D01*
X89180394Y-59388509D01*
X89183000Y-59413791D01*
X89183000Y-62219190D01*
X89182999Y-62219264D01*
X89182999Y-62220948D01*
X89182999Y-62386654D01*
X89182998Y-62386654D01*
X89187743Y-62404360D01*
X89190387Y-62414230D01*
X89190388Y-62414233D01*
X89223923Y-62539384D01*
X89223924Y-62539387D01*
X89228370Y-62547087D01*
X89228371Y-62547089D01*
X89241124Y-62569178D01*
X89253510Y-62599080D01*
X89261674Y-62629546D01*
X89265900Y-62661639D01*
X89265900Y-62669346D01*
X89265900Y-62669348D01*
X89265899Y-62669348D01*
X89296657Y-62823971D01*
X89296664Y-62824002D01*
X89356998Y-62969665D01*
X89357003Y-62969674D01*
X89357013Y-62969691D01*
X89444611Y-63100790D01*
X89444612Y-63100791D01*
X89444617Y-63100797D01*
X89556101Y-63212281D01*
X89556107Y-63212286D01*
X89556111Y-63212289D01*
X89687214Y-63299890D01*
X89687227Y-63299897D01*
X89832898Y-63360235D01*
X89832903Y-63360237D01*
X89856737Y-63364977D01*
X89889983Y-63371591D01*
X89890007Y-63371595D01*
X89890031Y-63371600D01*
X89959206Y-63385360D01*
X89992487Y-63397102D01*
X90006341Y-63404349D01*
X90056613Y-63452854D01*
X90060248Y-63459237D01*
X90076500Y-63520606D01*
X90076500Y-81081832D01*
X90071475Y-81116776D01*
X90067070Y-81131774D01*
X90029301Y-81190540D01*
X90023748Y-81195352D01*
X89966734Y-81223259D01*
X89834015Y-81249659D01*
X89834009Y-81249660D01*
X89834008Y-81249661D01*
X89833998Y-81249664D01*
X89833993Y-81249665D01*
X89833975Y-81249672D01*
X89688333Y-81309998D01*
X89688324Y-81310003D01*
X89688307Y-81310013D01*
X89557208Y-81397611D01*
X89557207Y-81397612D01*
X89557201Y-81397617D01*
X89445717Y-81509101D01*
X89445712Y-81509107D01*
X89445711Y-81509108D01*
X89358113Y-81640207D01*
X89358103Y-81640224D01*
X89358098Y-81640233D01*
X89297764Y-81785896D01*
X89297757Y-81785927D01*
X89267000Y-81940550D01*
X89267000Y-81940553D01*
X89267000Y-82098246D01*
X89267000Y-82098248D01*
X89266999Y-82098248D01*
X89297757Y-82252871D01*
X89297764Y-82252902D01*
X89358098Y-82398565D01*
X89358103Y-82398574D01*
X89358113Y-82398591D01*
X89445706Y-82529682D01*
X89445710Y-82529689D01*
X89445713Y-82529692D01*
X89557210Y-82641189D01*
X89557213Y-82641191D01*
X89568898Y-82648999D01*
X89609496Y-82693895D01*
X89614761Y-82703799D01*
X89614725Y-82703817D01*
X89620931Y-82711236D01*
X89629669Y-82780557D01*
X89599542Y-82843598D01*
X89572470Y-82866243D01*
X89570484Y-82867471D01*
X89505271Y-82886004D01*
X72570501Y-82886004D01*
X72535566Y-82880981D01*
X72524712Y-82877794D01*
X72465934Y-82840020D01*
X72436909Y-82776464D01*
X72446841Y-82707332D01*
X72447814Y-82705201D01*
X72491722Y-82653594D01*
X72510289Y-82641189D01*
X72621786Y-82529692D01*
X72621789Y-82529689D01*
X72709394Y-82398579D01*
X72717436Y-82379165D01*
X72769735Y-82252901D01*
X72769737Y-82252897D01*
X72800500Y-82098242D01*
X72800500Y-81940558D01*
X72800500Y-81940555D01*
X72800500Y-81940373D01*
X72800065Y-81938372D01*
X72792556Y-81900621D01*
X72770395Y-81789215D01*
X72769983Y-81786803D01*
X72769737Y-81785904D01*
X72766718Y-81778616D01*
X72710001Y-81641686D01*
X72709397Y-81640227D01*
X72709390Y-81640214D01*
X72621789Y-81509111D01*
X72621786Y-81509107D01*
X72621781Y-81509101D01*
X72510297Y-81397617D01*
X72510291Y-81397612D01*
X72510290Y-81397611D01*
X72379191Y-81310013D01*
X72379190Y-81310012D01*
X72379185Y-81310009D01*
X72379172Y-81310002D01*
X72379165Y-81309998D01*
X72233502Y-81249664D01*
X72233471Y-81249657D01*
X72078847Y-81218900D01*
X72078845Y-81218900D01*
X72078842Y-81218900D01*
X71921158Y-81218900D01*
X71921155Y-81218900D01*
X71921153Y-81218900D01*
X71766527Y-81249657D01*
X71766496Y-81249664D01*
X71620833Y-81309998D01*
X71620824Y-81310003D01*
X71620807Y-81310013D01*
X71489708Y-81397611D01*
X71489707Y-81397612D01*
X71489701Y-81397617D01*
X71378217Y-81509101D01*
X71378212Y-81509107D01*
X71378211Y-81509108D01*
X71290613Y-81640207D01*
X71290603Y-81640224D01*
X71290598Y-81640233D01*
X71230264Y-81785896D01*
X71230257Y-81785927D01*
X71199500Y-81940550D01*
X71199500Y-81940553D01*
X71199500Y-82098246D01*
X71199500Y-82098248D01*
X71199499Y-82098248D01*
X71230257Y-82252871D01*
X71230264Y-82252902D01*
X71290598Y-82398565D01*
X71290603Y-82398574D01*
X71290613Y-82398591D01*
X71378206Y-82529682D01*
X71378210Y-82529689D01*
X71378213Y-82529692D01*
X71489710Y-82641189D01*
X71489713Y-82641191D01*
X71501398Y-82648999D01*
X71541996Y-82693895D01*
X71547261Y-82703799D01*
X71547225Y-82703817D01*
X71553431Y-82711236D01*
X71562169Y-82780557D01*
X71532042Y-82843598D01*
X71504970Y-82866243D01*
X71502984Y-82867471D01*
X71437771Y-82886004D01*
X60041467Y-82886004D01*
X60006532Y-82880981D01*
X59995678Y-82877794D01*
X59936900Y-82840020D01*
X59907875Y-82776464D01*
X59917807Y-82707332D01*
X59918780Y-82705201D01*
X59962691Y-82653592D01*
X59981255Y-82641189D01*
X60010289Y-82621789D01*
X60121789Y-82510289D01*
X60209394Y-82379179D01*
X60269737Y-82233497D01*
X60289113Y-82136085D01*
X60297159Y-82095634D01*
X60308901Y-82062354D01*
X60324268Y-82032977D01*
X60346459Y-82002774D01*
X62697732Y-79651500D01*
X66680000Y-79651500D01*
X66680000Y-79651504D01*
X66680000Y-79800000D01*
X67256000Y-79800000D01*
X67323039Y-79819685D01*
X67368794Y-79872489D01*
X67380000Y-79924000D01*
X67380000Y-80176000D01*
X67360315Y-80243039D01*
X67307511Y-80288794D01*
X67256000Y-80300000D01*
X66680000Y-80300000D01*
X66680000Y-80448498D01*
X66718421Y-80641655D01*
X66718430Y-80641694D01*
X66793803Y-80823664D01*
X66793808Y-80823673D01*
X66793818Y-80823690D01*
X66903249Y-80987464D01*
X66903250Y-80987465D01*
X66903255Y-80987471D01*
X67042527Y-81126743D01*
X67042533Y-81126748D01*
X67042537Y-81126751D01*
X67206315Y-81236185D01*
X67206328Y-81236192D01*
X67286803Y-81269525D01*
X67388302Y-81311567D01*
X67388310Y-81311570D01*
X67430000Y-81319862D01*
X67430000Y-80755195D01*
X67449685Y-80688156D01*
X67502489Y-80642401D01*
X67571647Y-80632457D01*
X67586073Y-80635415D01*
X67640504Y-80650000D01*
X67719493Y-80650000D01*
X67719496Y-80650000D01*
X67773910Y-80635420D01*
X67843756Y-80637083D01*
X67901619Y-80676245D01*
X67929123Y-80740473D01*
X67930000Y-80755195D01*
X67930000Y-81319861D01*
X67930000Y-81319862D01*
X67971690Y-81311569D01*
X67971692Y-81311569D01*
X68153671Y-81236192D01*
X68153684Y-81236185D01*
X68317462Y-81126751D01*
X68317466Y-81126748D01*
X68456748Y-80987466D01*
X68456751Y-80987462D01*
X68566185Y-80823684D01*
X68566192Y-80823671D01*
X68572561Y-80808296D01*
X68611991Y-80713101D01*
X68641569Y-80641693D01*
X68641572Y-80641681D01*
X68678480Y-80456130D01*
X68679203Y-80453401D01*
X68680000Y-80448493D01*
X68680000Y-80300000D01*
X68104000Y-80300000D01*
X68036961Y-80280315D01*
X67991206Y-80227511D01*
X67980000Y-80176000D01*
X67980000Y-79924000D01*
X67999685Y-79856961D01*
X68052489Y-79811206D01*
X68104000Y-79800000D01*
X68680000Y-79800000D01*
X68680000Y-79654121D01*
X68680000Y-79651508D01*
X68679999Y-79651504D01*
X68679998Y-79651500D01*
X75320000Y-79651500D01*
X75320000Y-79651504D01*
X75320000Y-79800000D01*
X75896000Y-79800000D01*
X75963039Y-79819685D01*
X76008794Y-79872489D01*
X76020000Y-79924000D01*
X76020000Y-80176000D01*
X76000315Y-80243039D01*
X75947511Y-80288794D01*
X75896000Y-80300000D01*
X75320000Y-80300000D01*
X75320000Y-80448498D01*
X75358421Y-80641655D01*
X75358430Y-80641694D01*
X75433803Y-80823664D01*
X75433808Y-80823673D01*
X75433818Y-80823690D01*
X75543249Y-80987464D01*
X75543250Y-80987465D01*
X75543255Y-80987471D01*
X75682527Y-81126743D01*
X75682533Y-81126748D01*
X75682537Y-81126751D01*
X75846315Y-81236185D01*
X75846328Y-81236192D01*
X75926803Y-81269525D01*
X76028302Y-81311567D01*
X76028310Y-81311570D01*
X76070000Y-81319862D01*
X76070000Y-80755195D01*
X76089685Y-80688156D01*
X76142489Y-80642401D01*
X76211647Y-80632457D01*
X76226073Y-80635415D01*
X76280504Y-80650000D01*
X76359493Y-80650000D01*
X76359496Y-80650000D01*
X76413910Y-80635420D01*
X76483756Y-80637083D01*
X76541619Y-80676245D01*
X76569123Y-80740473D01*
X76570000Y-80755195D01*
X76570000Y-81319861D01*
X76570000Y-81319862D01*
X76611690Y-81311569D01*
X76611692Y-81311569D01*
X76793671Y-81236192D01*
X76793684Y-81236185D01*
X76957462Y-81126751D01*
X76957466Y-81126748D01*
X77096748Y-80987466D01*
X77096751Y-80987462D01*
X77206185Y-80823684D01*
X77206192Y-80823671D01*
X77212561Y-80808296D01*
X77251991Y-80713101D01*
X77281569Y-80641693D01*
X77281572Y-80641681D01*
X77318480Y-80456130D01*
X77319203Y-80453401D01*
X77320000Y-80448493D01*
X77320000Y-80300000D01*
X76744000Y-80300000D01*
X76676961Y-80280315D01*
X76631206Y-80227511D01*
X76620000Y-80176000D01*
X76620000Y-79924000D01*
X76639685Y-79856961D01*
X76692489Y-79811206D01*
X76744000Y-79800000D01*
X77320000Y-79800000D01*
X77320000Y-79651506D01*
X77319909Y-79650768D01*
X77319408Y-79648533D01*
X77281577Y-79458343D01*
X77281576Y-79458342D01*
X77281572Y-79458318D01*
X77281569Y-79458306D01*
X77240653Y-79359524D01*
X77206195Y-79276334D01*
X77206190Y-79276325D01*
X77206185Y-79276315D01*
X77096751Y-79112537D01*
X77096748Y-79112533D01*
X77096743Y-79112527D01*
X76957471Y-78973255D01*
X76957465Y-78973250D01*
X76957464Y-78973249D01*
X76793690Y-78863818D01*
X76793689Y-78863817D01*
X76793684Y-78863814D01*
X76793671Y-78863807D01*
X76793664Y-78863803D01*
X76611692Y-78788429D01*
X76611675Y-78788425D01*
X76570000Y-78780135D01*
X76570000Y-79344804D01*
X76550315Y-79411843D01*
X76497511Y-79457598D01*
X76428353Y-79467542D01*
X76413908Y-79464579D01*
X76359497Y-79450000D01*
X76359496Y-79450000D01*
X76280504Y-79450000D01*
X76280502Y-79450000D01*
X76226092Y-79464579D01*
X76156242Y-79462916D01*
X76098380Y-79423752D01*
X76070877Y-79359524D01*
X76070000Y-79344804D01*
X76070000Y-78780136D01*
X76069999Y-78780135D01*
X76028330Y-78788424D01*
X76028306Y-78788429D01*
X75846334Y-78863803D01*
X75846325Y-78863808D01*
X75846308Y-78863818D01*
X75682534Y-78973249D01*
X75682533Y-78973250D01*
X75682527Y-78973255D01*
X75543255Y-79112527D01*
X75543250Y-79112533D01*
X75543249Y-79112534D01*
X75433818Y-79276308D01*
X75433808Y-79276325D01*
X75433803Y-79276334D01*
X75358430Y-79458304D01*
X75358421Y-79458343D01*
X75320000Y-79651500D01*
X68679998Y-79651500D01*
X68641572Y-79458318D01*
X68641569Y-79458306D01*
X68600653Y-79359524D01*
X68566195Y-79276334D01*
X68566190Y-79276325D01*
X68566185Y-79276315D01*
X68456751Y-79112537D01*
X68456748Y-79112533D01*
X68456743Y-79112527D01*
X68317471Y-78973255D01*
X68317465Y-78973250D01*
X68317464Y-78973249D01*
X68153690Y-78863818D01*
X68153689Y-78863817D01*
X68153684Y-78863814D01*
X68153671Y-78863807D01*
X68153664Y-78863803D01*
X67971692Y-78788429D01*
X67971675Y-78788425D01*
X67930000Y-78780135D01*
X67930000Y-79344804D01*
X67910315Y-79411843D01*
X67857511Y-79457598D01*
X67788353Y-79467542D01*
X67773908Y-79464579D01*
X67719497Y-79450000D01*
X67719496Y-79450000D01*
X67640504Y-79450000D01*
X67640502Y-79450000D01*
X67586092Y-79464579D01*
X67516242Y-79462916D01*
X67458380Y-79423752D01*
X67430877Y-79359524D01*
X67430000Y-79344804D01*
X67430000Y-78780136D01*
X67429999Y-78780135D01*
X67388330Y-78788424D01*
X67388306Y-78788429D01*
X67206334Y-78863803D01*
X67206325Y-78863808D01*
X67206308Y-78863818D01*
X67042534Y-78973249D01*
X67042533Y-78973250D01*
X67042527Y-78973255D01*
X66903255Y-79112527D01*
X66903250Y-79112533D01*
X66903249Y-79112534D01*
X66793818Y-79276308D01*
X66793808Y-79276325D01*
X66793803Y-79276334D01*
X66718430Y-79458304D01*
X66718421Y-79458343D01*
X66680000Y-79651500D01*
X62697732Y-79651500D01*
X63823772Y-78525460D01*
X63823779Y-78525456D01*
X63841215Y-78508020D01*
X63841216Y-78508020D01*
X63953020Y-78396216D01*
X64032077Y-78259284D01*
X64073000Y-78106557D01*
X64073000Y-77532148D01*
X69699499Y-77532148D01*
X69730257Y-77686771D01*
X69730264Y-77686802D01*
X69790598Y-77832465D01*
X69790603Y-77832474D01*
X69790613Y-77832491D01*
X69878211Y-77963590D01*
X69878217Y-77963597D01*
X69989701Y-78075081D01*
X69989707Y-78075086D01*
X69989711Y-78075089D01*
X70120814Y-78162690D01*
X70120827Y-78162697D01*
X70190237Y-78191447D01*
X70266503Y-78223037D01*
X70410812Y-78251742D01*
X70413530Y-78252282D01*
X70413538Y-78252286D01*
X70416237Y-78253002D01*
X70421155Y-78253800D01*
X70578844Y-78253800D01*
X70582964Y-78253800D01*
X70590814Y-78251418D01*
X70733497Y-78223037D01*
X70879179Y-78162694D01*
X71010289Y-78075089D01*
X71121789Y-77963589D01*
X71209394Y-77832479D01*
X71213530Y-77822495D01*
X71225454Y-77793707D01*
X71269737Y-77686797D01*
X71300500Y-77532142D01*
X71300500Y-77374458D01*
X71300500Y-77374455D01*
X71300500Y-77374271D01*
X71300064Y-77372266D01*
X71286921Y-77306192D01*
X71269738Y-77219806D01*
X71269737Y-77219805D01*
X71269737Y-77219803D01*
X71260189Y-77196751D01*
X71260188Y-77196748D01*
X71260188Y-77196747D01*
X71209398Y-77074130D01*
X71209397Y-77074127D01*
X71209390Y-77074114D01*
X71121789Y-76943011D01*
X71121786Y-76943007D01*
X71121781Y-76943001D01*
X71010297Y-76831517D01*
X71010291Y-76831512D01*
X71010290Y-76831511D01*
X70879191Y-76743913D01*
X70879190Y-76743912D01*
X70879185Y-76743909D01*
X70879172Y-76743902D01*
X70879165Y-76743898D01*
X70733502Y-76683564D01*
X70733471Y-76683557D01*
X70578847Y-76652800D01*
X70578845Y-76652800D01*
X70578842Y-76652800D01*
X70421158Y-76652800D01*
X70421155Y-76652800D01*
X70421153Y-76652800D01*
X70266527Y-76683557D01*
X70266496Y-76683564D01*
X70120833Y-76743898D01*
X70120824Y-76743903D01*
X70120807Y-76743913D01*
X69989708Y-76831511D01*
X69989707Y-76831512D01*
X69989701Y-76831517D01*
X69878217Y-76943001D01*
X69878212Y-76943007D01*
X69878211Y-76943008D01*
X69790613Y-77074107D01*
X69790603Y-77074124D01*
X69790598Y-77074133D01*
X69730264Y-77219796D01*
X69730257Y-77219827D01*
X69699500Y-77374450D01*
X69699500Y-77374453D01*
X69699500Y-77532146D01*
X69699500Y-77532148D01*
X69699499Y-77532148D01*
X64073000Y-77532148D01*
X64073000Y-75221500D01*
X66680000Y-75221500D01*
X66680000Y-75221504D01*
X66680000Y-75620000D01*
X67256000Y-75620000D01*
X67323039Y-75639685D01*
X67368794Y-75692489D01*
X67380000Y-75744000D01*
X67380000Y-75996000D01*
X67360315Y-76063039D01*
X67307511Y-76108794D01*
X67256000Y-76120000D01*
X66680000Y-76120000D01*
X66680000Y-76518498D01*
X66718421Y-76711655D01*
X66718430Y-76711694D01*
X66793803Y-76893664D01*
X66793808Y-76893673D01*
X66793818Y-76893690D01*
X66903249Y-77057464D01*
X66903250Y-77057465D01*
X66903255Y-77057471D01*
X67042527Y-77196743D01*
X67042532Y-77196747D01*
X67042533Y-77196748D01*
X67042537Y-77196751D01*
X67206315Y-77306185D01*
X67206328Y-77306192D01*
X67242530Y-77321187D01*
X67388302Y-77381567D01*
X67388310Y-77381570D01*
X67430000Y-77389862D01*
X67430000Y-76825195D01*
X67449685Y-76758156D01*
X67502489Y-76712401D01*
X67571647Y-76702457D01*
X67586073Y-76705415D01*
X67640504Y-76720000D01*
X67719493Y-76720000D01*
X67719496Y-76720000D01*
X67773910Y-76705420D01*
X67843756Y-76707083D01*
X67901619Y-76746245D01*
X67929123Y-76810473D01*
X67930000Y-76825195D01*
X67930000Y-77389861D01*
X67930000Y-77389862D01*
X67971690Y-77381569D01*
X67971692Y-77381569D01*
X68153671Y-77306192D01*
X68153684Y-77306185D01*
X68214927Y-77265264D01*
X68317462Y-77196751D01*
X68317466Y-77196748D01*
X68456748Y-77057466D01*
X68456751Y-77057462D01*
X68558053Y-76905854D01*
X68572673Y-76887873D01*
X68579092Y-76881335D01*
X68587461Y-76872811D01*
X68648473Y-76838766D01*
X68718205Y-76843109D01*
X68726711Y-76846193D01*
X68765214Y-76868682D01*
X68767824Y-76870923D01*
X68777409Y-76872713D01*
X68783228Y-76875869D01*
X68887861Y-76936279D01*
X68887862Y-76936279D01*
X68887865Y-76936281D01*
X69034234Y-76975500D01*
X69034236Y-76975500D01*
X69185764Y-76975500D01*
X69185766Y-76975500D01*
X69332135Y-76936281D01*
X69463365Y-76860515D01*
X69570515Y-76753365D01*
X69646281Y-76622135D01*
X69676314Y-76510048D01*
X72199499Y-76510048D01*
X72230257Y-76664671D01*
X72230264Y-76664702D01*
X72290598Y-76810365D01*
X72290603Y-76810374D01*
X72290613Y-76810391D01*
X72378211Y-76941490D01*
X72378212Y-76941491D01*
X72378217Y-76941497D01*
X72489701Y-77052981D01*
X72489707Y-77052986D01*
X72489711Y-77052989D01*
X72620814Y-77140590D01*
X72620827Y-77140597D01*
X72756390Y-77196748D01*
X72766503Y-77200937D01*
X72915032Y-77230481D01*
X72916478Y-77230806D01*
X72916822Y-77230997D01*
X72921155Y-77231700D01*
X73078844Y-77231700D01*
X73082964Y-77231700D01*
X73090814Y-77229318D01*
X73233497Y-77200937D01*
X73379179Y-77140594D01*
X73510289Y-77052989D01*
X73621789Y-76941489D01*
X73709394Y-76810379D01*
X73769737Y-76664697D01*
X73800500Y-76510042D01*
X73800500Y-76352358D01*
X73798101Y-76340297D01*
X73798101Y-76340294D01*
X73796369Y-76331589D01*
X73794905Y-76324231D01*
X74314500Y-76324231D01*
X74314500Y-76475767D01*
X74330038Y-76533759D01*
X74330039Y-76533759D01*
X74330039Y-76533760D01*
X74353719Y-76622135D01*
X74353720Y-76622139D01*
X74389182Y-76683561D01*
X74429480Y-76753358D01*
X74429483Y-76753362D01*
X74429485Y-76753365D01*
X74536635Y-76860515D01*
X74650281Y-76926129D01*
X74667861Y-76936279D01*
X74667865Y-76936281D01*
X74814234Y-76975500D01*
X74814236Y-76975500D01*
X74965764Y-76975500D01*
X74965766Y-76975500D01*
X75112135Y-76936281D01*
X75207338Y-76881315D01*
X75212180Y-76878663D01*
X75251766Y-76858116D01*
X75252044Y-76858478D01*
X75266390Y-76850527D01*
X75267866Y-76849761D01*
X75300549Y-76843368D01*
X75333056Y-76836083D01*
X75334709Y-76836687D01*
X75336437Y-76836350D01*
X75367397Y-76848645D01*
X75398670Y-76860086D01*
X75405793Y-76865348D01*
X75436509Y-76898178D01*
X75453065Y-76924016D01*
X75458427Y-76930520D01*
X75507344Y-77003729D01*
X75543249Y-77057464D01*
X75543250Y-77057465D01*
X75543255Y-77057471D01*
X75682527Y-77196743D01*
X75682532Y-77196747D01*
X75682533Y-77196748D01*
X75682537Y-77196751D01*
X75846315Y-77306185D01*
X75846328Y-77306192D01*
X75882530Y-77321187D01*
X76028302Y-77381567D01*
X76028310Y-77381570D01*
X76070000Y-77389862D01*
X76070000Y-76825195D01*
X76089685Y-76758156D01*
X76142489Y-76712401D01*
X76211647Y-76702457D01*
X76226073Y-76705415D01*
X76280504Y-76720000D01*
X76359493Y-76720000D01*
X76359496Y-76720000D01*
X76413910Y-76705420D01*
X76483756Y-76707083D01*
X76541619Y-76746245D01*
X76569123Y-76810473D01*
X76570000Y-76825195D01*
X76570000Y-77389861D01*
X76570000Y-77389862D01*
X76611690Y-77381569D01*
X76611692Y-77381569D01*
X76793671Y-77306192D01*
X76793684Y-77306185D01*
X76957462Y-77196751D01*
X76957466Y-77196748D01*
X77096748Y-77057466D01*
X77096751Y-77057462D01*
X77206185Y-76893684D01*
X77206192Y-76893671D01*
X77281569Y-76711693D01*
X77281572Y-76711681D01*
X77318480Y-76526130D01*
X77319203Y-76523401D01*
X77320000Y-76518493D01*
X77320000Y-76120000D01*
X76744000Y-76120000D01*
X76676961Y-76100315D01*
X76631206Y-76047511D01*
X76620000Y-75996000D01*
X76620000Y-75744000D01*
X76639685Y-75676961D01*
X76692489Y-75631206D01*
X76744000Y-75620000D01*
X77320000Y-75620000D01*
X77320000Y-75221506D01*
X77319909Y-75220768D01*
X77319408Y-75218533D01*
X77281577Y-75028343D01*
X77281576Y-75028342D01*
X77281572Y-75028318D01*
X77281569Y-75028306D01*
X77240653Y-74929524D01*
X77206195Y-74846334D01*
X77206190Y-74846325D01*
X77206185Y-74846315D01*
X77096751Y-74682537D01*
X77096748Y-74682533D01*
X77096743Y-74682527D01*
X76957471Y-74543255D01*
X76957465Y-74543250D01*
X76957464Y-74543249D01*
X76793690Y-74433818D01*
X76793689Y-74433817D01*
X76793684Y-74433814D01*
X76793671Y-74433807D01*
X76793664Y-74433803D01*
X76611692Y-74358429D01*
X76611675Y-74358425D01*
X76570000Y-74350135D01*
X76570000Y-74914804D01*
X76550315Y-74981843D01*
X76497511Y-75027598D01*
X76428353Y-75037542D01*
X76413908Y-75034579D01*
X76359497Y-75020000D01*
X76359496Y-75020000D01*
X76280504Y-75020000D01*
X76280502Y-75020000D01*
X76226092Y-75034579D01*
X76156242Y-75032916D01*
X76098380Y-74993752D01*
X76070877Y-74929524D01*
X76070000Y-74914804D01*
X76070000Y-74350136D01*
X76069999Y-74350135D01*
X76028330Y-74358424D01*
X76028306Y-74358429D01*
X75846334Y-74433803D01*
X75846325Y-74433808D01*
X75846308Y-74433818D01*
X75682534Y-74543249D01*
X75682533Y-74543250D01*
X75682527Y-74543255D01*
X75543255Y-74682527D01*
X75543250Y-74682533D01*
X75543249Y-74682534D01*
X75433818Y-74846308D01*
X75433808Y-74846325D01*
X75433803Y-74846334D01*
X75358430Y-75028304D01*
X75358421Y-75028343D01*
X75320000Y-75221500D01*
X75320000Y-75221504D01*
X75320000Y-75620000D01*
X75896000Y-75620000D01*
X75963039Y-75639685D01*
X76008794Y-75692489D01*
X76020000Y-75744000D01*
X76020000Y-75996000D01*
X76000315Y-76063039D01*
X75947511Y-76108794D01*
X75896000Y-76120000D01*
X75482294Y-76120000D01*
X75447356Y-76114976D01*
X75429301Y-76109674D01*
X75374499Y-76076271D01*
X75367310Y-76068732D01*
X75353494Y-76050277D01*
X75353159Y-76050507D01*
X75350516Y-76046636D01*
X75350513Y-76046633D01*
X75350506Y-76046626D01*
X75243367Y-75939487D01*
X75243365Y-75939485D01*
X75177750Y-75901602D01*
X75112136Y-75863719D01*
X75038950Y-75844109D01*
X75038949Y-75844108D01*
X74965767Y-75824500D01*
X74965766Y-75824500D01*
X74814234Y-75824500D01*
X74667859Y-75863720D01*
X74667857Y-75863721D01*
X74536645Y-75939478D01*
X74536631Y-75939487D01*
X74536626Y-75939491D01*
X74429491Y-76046626D01*
X74429487Y-76046631D01*
X74429478Y-76046645D01*
X74353721Y-76177857D01*
X74353720Y-76177860D01*
X74353720Y-76177861D01*
X74353719Y-76177863D01*
X74348403Y-76197703D01*
X74317839Y-76311772D01*
X74314500Y-76324231D01*
X73794905Y-76324231D01*
X73769498Y-76196501D01*
X73767410Y-76192086D01*
X73761518Y-76177861D01*
X73761518Y-76177860D01*
X73729398Y-76100315D01*
X73709397Y-76052027D01*
X73709390Y-76052014D01*
X73621789Y-75920911D01*
X73621786Y-75920907D01*
X73621781Y-75920901D01*
X73510297Y-75809417D01*
X73510291Y-75809412D01*
X73510290Y-75809411D01*
X73379191Y-75721813D01*
X73379190Y-75721812D01*
X73379185Y-75721809D01*
X73379172Y-75721802D01*
X73379165Y-75721798D01*
X73233502Y-75661464D01*
X73233471Y-75661457D01*
X73078847Y-75630700D01*
X73078845Y-75630700D01*
X73078842Y-75630700D01*
X72921158Y-75630700D01*
X72921155Y-75630700D01*
X72921153Y-75630700D01*
X72766527Y-75661457D01*
X72766496Y-75661464D01*
X72620833Y-75721798D01*
X72620824Y-75721803D01*
X72620807Y-75721813D01*
X72489708Y-75809411D01*
X72489707Y-75809412D01*
X72489701Y-75809417D01*
X72378217Y-75920901D01*
X72378212Y-75920907D01*
X72378211Y-75920908D01*
X72290613Y-76052007D01*
X72290603Y-76052024D01*
X72290598Y-76052033D01*
X72230264Y-76197696D01*
X72230257Y-76197727D01*
X72199500Y-76352350D01*
X72199500Y-76352353D01*
X72199500Y-76510046D01*
X72199500Y-76510048D01*
X72199499Y-76510048D01*
X69676314Y-76510048D01*
X69685500Y-76475766D01*
X69685500Y-76324234D01*
X69646281Y-76177865D01*
X69646276Y-76177857D01*
X69625679Y-76142181D01*
X69570515Y-76046635D01*
X69463365Y-75939485D01*
X69397750Y-75901602D01*
X69332136Y-75863719D01*
X69258950Y-75844109D01*
X69258949Y-75844108D01*
X69185767Y-75824500D01*
X69185766Y-75824500D01*
X69034234Y-75824500D01*
X68887859Y-75863720D01*
X68887857Y-75863721D01*
X68756645Y-75939478D01*
X68756631Y-75939487D01*
X68756626Y-75939491D01*
X68649489Y-76046628D01*
X68649479Y-76046641D01*
X68646848Y-76050494D01*
X68630025Y-76070297D01*
X68616403Y-76083286D01*
X68560071Y-76114047D01*
X68549949Y-76116503D01*
X68520710Y-76120000D01*
X68104000Y-76120000D01*
X68036961Y-76100315D01*
X67991206Y-76047511D01*
X67980000Y-75996000D01*
X67980000Y-75744000D01*
X67999685Y-75676961D01*
X68052489Y-75631206D01*
X68104000Y-75620000D01*
X68680000Y-75620000D01*
X68680000Y-75221506D01*
X68679909Y-75220768D01*
X68679408Y-75218533D01*
X68641577Y-75028343D01*
X68641576Y-75028342D01*
X68641572Y-75028318D01*
X68641569Y-75028306D01*
X68600653Y-74929524D01*
X68566195Y-74846334D01*
X68566190Y-74846325D01*
X68566185Y-74846315D01*
X68456751Y-74682537D01*
X68456748Y-74682533D01*
X68456743Y-74682527D01*
X68317471Y-74543255D01*
X68317465Y-74543250D01*
X68317464Y-74543249D01*
X68153690Y-74433818D01*
X68153689Y-74433817D01*
X68153684Y-74433814D01*
X68153671Y-74433807D01*
X68153664Y-74433803D01*
X67971692Y-74358429D01*
X67971675Y-74358425D01*
X67930000Y-74350135D01*
X67930000Y-74914804D01*
X67910315Y-74981843D01*
X67857511Y-75027598D01*
X67788353Y-75037542D01*
X67773908Y-75034579D01*
X67719497Y-75020000D01*
X67719496Y-75020000D01*
X67640504Y-75020000D01*
X67640502Y-75020000D01*
X67586092Y-75034579D01*
X67516242Y-75032916D01*
X67458380Y-74993752D01*
X67430877Y-74929524D01*
X67430000Y-74914804D01*
X67430000Y-74350136D01*
X67429999Y-74350135D01*
X67388330Y-74358424D01*
X67388306Y-74358429D01*
X67206334Y-74433803D01*
X67206325Y-74433808D01*
X67206308Y-74433818D01*
X67042534Y-74543249D01*
X67042533Y-74543250D01*
X67042527Y-74543255D01*
X66903255Y-74682527D01*
X66903250Y-74682533D01*
X66903249Y-74682534D01*
X66793818Y-74846308D01*
X66793808Y-74846325D01*
X66793803Y-74846334D01*
X66718430Y-75028304D01*
X66718421Y-75028343D01*
X66680000Y-75221500D01*
X64073000Y-75221500D01*
X64073000Y-72578848D01*
X65699499Y-72578848D01*
X65730257Y-72733471D01*
X65730264Y-72733502D01*
X65790598Y-72879165D01*
X65790602Y-72879172D01*
X65790607Y-72879182D01*
X65790613Y-72879191D01*
X65878211Y-73010290D01*
X65878212Y-73010291D01*
X65878217Y-73010297D01*
X65989701Y-73121781D01*
X65989707Y-73121786D01*
X65989711Y-73121789D01*
X66120814Y-73209390D01*
X66120827Y-73209397D01*
X66266498Y-73269735D01*
X66266503Y-73269737D01*
X66421153Y-73300499D01*
X66421156Y-73300500D01*
X66421158Y-73300500D01*
X66578844Y-73300500D01*
X66578845Y-73300499D01*
X66733497Y-73269737D01*
X66879179Y-73209394D01*
X67010289Y-73121789D01*
X67121789Y-73010289D01*
X67209394Y-72879179D01*
X67213506Y-72869253D01*
X67223063Y-72846174D01*
X67223069Y-72846167D01*
X67223067Y-72846167D01*
X67242507Y-72799235D01*
X67269737Y-72733497D01*
X67300500Y-72578842D01*
X67300500Y-72421158D01*
X67300500Y-72421155D01*
X67300500Y-72420973D01*
X67300065Y-72418971D01*
X67290395Y-72370357D01*
X67269739Y-72266510D01*
X67269736Y-72266501D01*
X67236180Y-72185488D01*
X67209402Y-72120840D01*
X67209399Y-72120833D01*
X67209397Y-72120827D01*
X67209390Y-72120814D01*
X67121789Y-71989711D01*
X67121786Y-71989707D01*
X67121781Y-71989701D01*
X67010297Y-71878217D01*
X67010291Y-71878212D01*
X67010290Y-71878211D01*
X66879191Y-71790613D01*
X66879190Y-71790612D01*
X66879185Y-71790609D01*
X66879172Y-71790602D01*
X66879165Y-71790598D01*
X66733502Y-71730264D01*
X66733471Y-71730257D01*
X66578847Y-71699500D01*
X66578845Y-71699500D01*
X66578842Y-71699500D01*
X66421158Y-71699500D01*
X66421155Y-71699500D01*
X66421153Y-71699500D01*
X66266527Y-71730257D01*
X66266496Y-71730264D01*
X66120833Y-71790598D01*
X66120824Y-71790603D01*
X66120807Y-71790613D01*
X65989708Y-71878211D01*
X65989707Y-71878212D01*
X65989701Y-71878217D01*
X65878217Y-71989701D01*
X65878212Y-71989707D01*
X65878211Y-71989708D01*
X65790613Y-72120807D01*
X65790603Y-72120824D01*
X65790598Y-72120833D01*
X65730264Y-72266496D01*
X65730257Y-72266527D01*
X65699500Y-72421150D01*
X65699500Y-72421153D01*
X65699500Y-72578846D01*
X65699500Y-72578848D01*
X65699499Y-72578848D01*
X64073000Y-72578848D01*
X64073000Y-68520769D01*
X64078022Y-68485836D01*
X64085434Y-68460591D01*
X64116730Y-68407847D01*
X64129287Y-68395291D01*
X64129289Y-68395289D01*
X64216894Y-68264179D01*
X64277237Y-68118497D01*
X64286967Y-68069576D01*
X64298709Y-68036295D01*
X64305954Y-68022445D01*
X64354466Y-67972169D01*
X64366308Y-67965426D01*
X64403467Y-67951567D01*
X64546397Y-67923137D01*
X64692079Y-67862794D01*
X64823189Y-67775189D01*
X64934689Y-67663689D01*
X65022294Y-67532579D01*
X65082637Y-67386897D01*
X65113400Y-67232242D01*
X65113400Y-67074558D01*
X65113400Y-67074555D01*
X65113400Y-67074371D01*
X65112964Y-67072366D01*
X65082639Y-66919910D01*
X65082636Y-66919901D01*
X65045110Y-66829303D01*
X65022297Y-66774227D01*
X65022290Y-66774214D01*
X64934689Y-66643111D01*
X64934686Y-66643107D01*
X64934681Y-66643101D01*
X64823197Y-66531617D01*
X64823191Y-66531612D01*
X64823190Y-66531611D01*
X64692091Y-66444013D01*
X64692090Y-66444012D01*
X64692085Y-66444009D01*
X64692072Y-66444002D01*
X64692065Y-66443998D01*
X64546423Y-66383672D01*
X64546409Y-66383667D01*
X64546401Y-66383664D01*
X64546391Y-66383661D01*
X64546388Y-66383660D01*
X64546384Y-66383659D01*
X64408538Y-66356240D01*
X64375253Y-66344498D01*
X64345880Y-66329133D01*
X64315675Y-66306939D01*
X63674426Y-65665690D01*
X63653274Y-65637434D01*
X63640667Y-65614345D01*
X63625500Y-65554920D01*
X63625500Y-64871294D01*
X63630522Y-64836361D01*
X63631444Y-64833222D01*
X63639864Y-64804545D01*
X63655733Y-64770602D01*
X63731450Y-64657284D01*
X63733468Y-64654527D01*
X63734978Y-64652126D01*
X63736710Y-64647285D01*
X63794737Y-64507197D01*
X63825499Y-64352548D01*
X67886899Y-64352548D01*
X67917657Y-64507171D01*
X67917664Y-64507202D01*
X67977998Y-64652865D01*
X67978002Y-64652872D01*
X67978008Y-64652884D01*
X67978013Y-64652891D01*
X68065611Y-64783990D01*
X68065612Y-64783991D01*
X68065617Y-64783997D01*
X68177101Y-64895481D01*
X68177107Y-64895486D01*
X68177111Y-64895489D01*
X68308214Y-64983090D01*
X68308227Y-64983097D01*
X68453898Y-65043435D01*
X68453903Y-65043437D01*
X68480874Y-65048801D01*
X68518499Y-65056286D01*
X68518523Y-65056290D01*
X68518547Y-65056295D01*
X68591764Y-65070859D01*
X68625044Y-65082601D01*
X68654421Y-65097968D01*
X68684627Y-65120162D01*
X68920273Y-65355808D01*
X68941423Y-65384060D01*
X68954031Y-65407149D01*
X68969200Y-65466578D01*
X68969200Y-72350504D01*
X68964176Y-72385441D01*
X68954836Y-72417248D01*
X68938962Y-72451202D01*
X68860313Y-72568907D01*
X68860303Y-72568924D01*
X68860298Y-72568933D01*
X68799964Y-72714596D01*
X68799957Y-72714627D01*
X68769200Y-72869250D01*
X68769200Y-72869253D01*
X68769200Y-73026946D01*
X68769200Y-73026948D01*
X68769199Y-73026948D01*
X68799957Y-73181571D01*
X68799964Y-73181602D01*
X68860298Y-73327265D01*
X68860303Y-73327274D01*
X68860313Y-73327291D01*
X68947911Y-73458390D01*
X68947912Y-73458391D01*
X68947917Y-73458397D01*
X69059401Y-73569881D01*
X69059407Y-73569886D01*
X69059411Y-73569889D01*
X69190514Y-73657490D01*
X69190527Y-73657497D01*
X69309938Y-73706958D01*
X69340285Y-73724963D01*
X69356624Y-73738129D01*
X69392957Y-73786216D01*
X69395583Y-73792400D01*
X69403064Y-73816675D01*
X69430059Y-73952383D01*
X69430061Y-73952391D01*
X69430064Y-73952401D01*
X69430067Y-73952409D01*
X69430072Y-73952423D01*
X69490398Y-74098065D01*
X69490403Y-74098074D01*
X69490413Y-74098091D01*
X69578011Y-74229190D01*
X69578012Y-74229191D01*
X69578017Y-74229197D01*
X69689501Y-74340681D01*
X69689507Y-74340686D01*
X69689511Y-74340689D01*
X69820614Y-74428290D01*
X69820627Y-74428297D01*
X69942660Y-74478844D01*
X69966303Y-74488637D01*
X70115579Y-74518330D01*
X70117796Y-74518857D01*
X70117870Y-74518899D01*
X70120955Y-74519400D01*
X70278644Y-74519400D01*
X70282764Y-74519400D01*
X70290614Y-74517018D01*
X70433297Y-74488637D01*
X70545966Y-74441967D01*
X70572434Y-74431004D01*
X70575225Y-74430031D01*
X70576668Y-74429364D01*
X70581328Y-74427321D01*
X70590587Y-74423485D01*
X70599471Y-74414601D01*
X70710089Y-74340689D01*
X70821589Y-74229189D01*
X70909194Y-74098079D01*
X70953072Y-73992148D01*
X70969536Y-73952400D01*
X70969538Y-73952391D01*
X70992729Y-73835805D01*
X70996960Y-73814533D01*
X71008701Y-73781254D01*
X71024068Y-73751877D01*
X71046259Y-73721674D01*
X75643772Y-69124160D01*
X75643779Y-69124156D01*
X75661215Y-69106720D01*
X75661216Y-69106720D01*
X75773020Y-68994916D01*
X75852077Y-68857984D01*
X75893000Y-68705257D01*
X75893000Y-54040394D01*
X75898022Y-54005461D01*
X75898944Y-54002322D01*
X75907364Y-53973645D01*
X75923233Y-53939702D01*
X75998950Y-53826384D01*
X76000968Y-53823627D01*
X76002478Y-53821226D01*
X76004210Y-53816385D01*
X76062237Y-53676297D01*
X76093000Y-53521642D01*
X76093000Y-53363958D01*
X76093000Y-53363955D01*
X76093000Y-53363773D01*
X76092565Y-53361772D01*
X76062898Y-53212630D01*
X76062483Y-53210203D01*
X76062237Y-53209304D01*
X76038672Y-53152411D01*
X76001897Y-53063627D01*
X76001890Y-53063614D01*
X75914289Y-52932511D01*
X75914286Y-52932507D01*
X75914281Y-52932501D01*
X75802797Y-52821017D01*
X75802791Y-52821012D01*
X75802790Y-52821011D01*
X75671691Y-52733413D01*
X75671690Y-52733412D01*
X75671685Y-52733409D01*
X75671672Y-52733402D01*
X75671665Y-52733398D01*
X75526002Y-52673064D01*
X75525971Y-52673057D01*
X75371347Y-52642300D01*
X75371345Y-52642300D01*
X75371342Y-52642300D01*
X75213658Y-52642300D01*
X75213655Y-52642300D01*
X75213653Y-52642300D01*
X75059027Y-52673057D01*
X75058996Y-52673064D01*
X74913333Y-52733398D01*
X74913324Y-52733403D01*
X74913307Y-52733413D01*
X74782208Y-52821011D01*
X74782207Y-52821012D01*
X74782201Y-52821017D01*
X74670717Y-52932501D01*
X74670712Y-52932507D01*
X74670711Y-52932508D01*
X74583113Y-53063607D01*
X74583103Y-53063624D01*
X74583098Y-53063633D01*
X74522764Y-53209296D01*
X74522757Y-53209327D01*
X74492000Y-53363950D01*
X74492000Y-53363953D01*
X74492000Y-53521646D01*
X74492000Y-53521648D01*
X74491999Y-53521648D01*
X74522757Y-53676271D01*
X74522761Y-53676289D01*
X74522764Y-53676300D01*
X74522763Y-53676300D01*
X74583098Y-53821965D01*
X74583102Y-53821972D01*
X74583109Y-53821985D01*
X74661197Y-53938850D01*
X74676428Y-53970686D01*
X74686334Y-54002322D01*
X74692000Y-54039375D01*
X74692000Y-68308272D01*
X74686976Y-68343209D01*
X74679564Y-68368450D01*
X74648269Y-68421194D01*
X70487063Y-72582399D01*
X70458808Y-72603551D01*
X70446261Y-72610402D01*
X70377988Y-72625253D01*
X70324513Y-72608770D01*
X70318699Y-72605390D01*
X70297319Y-72589677D01*
X70297178Y-72589548D01*
X70277778Y-72566951D01*
X70200953Y-72451974D01*
X70185692Y-72420045D01*
X70180656Y-72403877D01*
X70175837Y-72388486D01*
X70175835Y-72388380D01*
X70170200Y-72351524D01*
X70170200Y-65247452D01*
X70170201Y-65247401D01*
X70170201Y-65076945D01*
X70169502Y-65074338D01*
X70145054Y-64983097D01*
X70129277Y-64924216D01*
X70090788Y-64857550D01*
X70090788Y-64857549D01*
X70071209Y-64823638D01*
X70050224Y-64787290D01*
X70050218Y-64787282D01*
X70050214Y-64787278D01*
X70050214Y-64787277D01*
X69534580Y-64271644D01*
X69513430Y-64243391D01*
X69497543Y-64214297D01*
X69484758Y-64179065D01*
X69478648Y-64148345D01*
X69457137Y-64040203D01*
X69457134Y-64040196D01*
X69438668Y-63995614D01*
X69396802Y-63894540D01*
X69396799Y-63894533D01*
X69396797Y-63894527D01*
X69396790Y-63894514D01*
X69309189Y-63763411D01*
X69309186Y-63763407D01*
X69309181Y-63763401D01*
X69197697Y-63651917D01*
X69197691Y-63651912D01*
X69197690Y-63651911D01*
X69066591Y-63564313D01*
X69066590Y-63564312D01*
X69066585Y-63564309D01*
X69066572Y-63564302D01*
X69066565Y-63564298D01*
X68920902Y-63503964D01*
X68920871Y-63503957D01*
X68766247Y-63473200D01*
X68766245Y-63473200D01*
X68766242Y-63473200D01*
X68608558Y-63473200D01*
X68608555Y-63473200D01*
X68608553Y-63473200D01*
X68453927Y-63503957D01*
X68453896Y-63503964D01*
X68308233Y-63564298D01*
X68308224Y-63564303D01*
X68308207Y-63564313D01*
X68177108Y-63651911D01*
X68177107Y-63651912D01*
X68177101Y-63651917D01*
X68065617Y-63763401D01*
X68065612Y-63763407D01*
X68065611Y-63763408D01*
X67978013Y-63894507D01*
X67978010Y-63894512D01*
X67978009Y-63894514D01*
X67978006Y-63894521D01*
X67978005Y-63894522D01*
X67977998Y-63894533D01*
X67917664Y-64040196D01*
X67917657Y-64040227D01*
X67886900Y-64194850D01*
X67886900Y-64194853D01*
X67886900Y-64352546D01*
X67886900Y-64352548D01*
X67886899Y-64352548D01*
X63825499Y-64352548D01*
X63825500Y-64352542D01*
X63825500Y-64194858D01*
X63825500Y-64194855D01*
X63825499Y-64194853D01*
X63816248Y-64148345D01*
X63794737Y-64040203D01*
X63794734Y-64040196D01*
X63776268Y-63995614D01*
X63734402Y-63894540D01*
X63734399Y-63894533D01*
X63734397Y-63894527D01*
X63734390Y-63894514D01*
X63646789Y-63763411D01*
X63646786Y-63763407D01*
X63646781Y-63763401D01*
X63535297Y-63651917D01*
X63535291Y-63651912D01*
X63535290Y-63651911D01*
X63404191Y-63564313D01*
X63404190Y-63564312D01*
X63404185Y-63564309D01*
X63404172Y-63564302D01*
X63404165Y-63564298D01*
X63258502Y-63503964D01*
X63258471Y-63503957D01*
X63103847Y-63473200D01*
X63103845Y-63473200D01*
X63103842Y-63473200D01*
X62946158Y-63473200D01*
X62946155Y-63473200D01*
X62946153Y-63473200D01*
X62791527Y-63503957D01*
X62791496Y-63503964D01*
X62645833Y-63564298D01*
X62645824Y-63564303D01*
X62645807Y-63564313D01*
X62514708Y-63651911D01*
X62514707Y-63651912D01*
X62514701Y-63651917D01*
X62403217Y-63763401D01*
X62403212Y-63763407D01*
X62403211Y-63763408D01*
X62315613Y-63894507D01*
X62315610Y-63894512D01*
X62315609Y-63894514D01*
X62315606Y-63894521D01*
X62315605Y-63894522D01*
X62315598Y-63894533D01*
X62255264Y-64040196D01*
X62255257Y-64040227D01*
X62224500Y-64194850D01*
X62224500Y-64194853D01*
X62224500Y-64352546D01*
X62224500Y-64352548D01*
X62224499Y-64352548D01*
X62255257Y-64507171D01*
X62255264Y-64507202D01*
X62315598Y-64652865D01*
X62315602Y-64652872D01*
X62315609Y-64652885D01*
X62393697Y-64769750D01*
X62408928Y-64801586D01*
X62418834Y-64833222D01*
X62424500Y-64870275D01*
X62424500Y-65777090D01*
X62424499Y-65777164D01*
X62424499Y-65902460D01*
X62418600Y-65922546D01*
X62465423Y-66097286D01*
X62485662Y-66132341D01*
X62485663Y-66132341D01*
X62494358Y-66147401D01*
X62494359Y-66147404D01*
X62494360Y-66147404D01*
X62506296Y-66168079D01*
X62506422Y-66168296D01*
X62506422Y-66168298D01*
X62506423Y-66168299D01*
X62518714Y-66189588D01*
X62533850Y-66215805D01*
X62544481Y-66234217D01*
X62544485Y-66234222D01*
X62665314Y-66355051D01*
X62665359Y-66355094D01*
X63122640Y-66812375D01*
X63143791Y-66840628D01*
X63150443Y-66852810D01*
X63165295Y-66921083D01*
X63140879Y-66986548D01*
X63140848Y-66986589D01*
X63139874Y-66987889D01*
X63094811Y-67025078D01*
X63090302Y-67027268D01*
X63068224Y-67035502D01*
X63003213Y-67052922D01*
X63003208Y-67052925D01*
X62866294Y-67131974D01*
X62866280Y-67131983D01*
X62866275Y-67131987D01*
X62754484Y-67243778D01*
X62734810Y-67277854D01*
X62676639Y-67378609D01*
X62675421Y-67380718D01*
X62661780Y-67431622D01*
X62661781Y-67431623D01*
X62661781Y-67431624D01*
X62634499Y-67533443D01*
X62634499Y-67533445D01*
X62634499Y-67691554D01*
X62634498Y-67691554D01*
X62651794Y-67756102D01*
X62653527Y-67762570D01*
X62653528Y-67762576D01*
X62656907Y-67775186D01*
X62671197Y-67828512D01*
X62671197Y-67828515D01*
X62675423Y-67844286D01*
X62682224Y-67856066D01*
X62694612Y-67885971D01*
X62702775Y-67916435D01*
X62707000Y-67948529D01*
X62707000Y-67963847D01*
X62737757Y-68118471D01*
X62737764Y-68118502D01*
X62798096Y-68264160D01*
X62798100Y-68264168D01*
X62798102Y-68264172D01*
X62798109Y-68264184D01*
X62836408Y-68321502D01*
X62841196Y-68328667D01*
X62856428Y-68360505D01*
X62866334Y-68392141D01*
X62872000Y-68429194D01*
X62872000Y-77709573D01*
X62866976Y-77744510D01*
X62859564Y-77769751D01*
X62828269Y-77822495D01*
X59497946Y-81152817D01*
X59469693Y-81173967D01*
X59440599Y-81189854D01*
X59405363Y-81202640D01*
X59266515Y-81230259D01*
X59266509Y-81230260D01*
X59266508Y-81230261D01*
X59266498Y-81230264D01*
X59266493Y-81230265D01*
X59266475Y-81230272D01*
X59120833Y-81290598D01*
X59120824Y-81290603D01*
X59120807Y-81290613D01*
X58989708Y-81378211D01*
X58989707Y-81378212D01*
X58989701Y-81378217D01*
X58878217Y-81489701D01*
X58878212Y-81489707D01*
X58878211Y-81489708D01*
X58790613Y-81620807D01*
X58790603Y-81620824D01*
X58790598Y-81620833D01*
X58730264Y-81766496D01*
X58730257Y-81766527D01*
X58699500Y-81921150D01*
X58699500Y-81921153D01*
X58699500Y-82078846D01*
X58699500Y-82078848D01*
X58699499Y-82078848D01*
X58730257Y-82233471D01*
X58730264Y-82233502D01*
X58790598Y-82379165D01*
X58790603Y-82379174D01*
X58790613Y-82379191D01*
X58878211Y-82510290D01*
X58878212Y-82510291D01*
X58878217Y-82510297D01*
X58989705Y-82621785D01*
X58989708Y-82621787D01*
X58989711Y-82621789D01*
X59030431Y-82648998D01*
X59071033Y-82693898D01*
X59076298Y-82703803D01*
X59076262Y-82703821D01*
X59082465Y-82711236D01*
X59091203Y-82780557D01*
X59061076Y-82843598D01*
X59034004Y-82866243D01*
X59032018Y-82867471D01*
X58966805Y-82886004D01*
X36142330Y-82886004D01*
X36107389Y-82880979D01*
X36092390Y-82876574D01*
X36033644Y-82838831D01*
X36032457Y-82837462D01*
X36004977Y-82782587D01*
X36003332Y-82775025D01*
X36000500Y-82748672D01*
X36000500Y-79946055D01*
X36012042Y-79906745D01*
X36021189Y-79873854D01*
X36073330Y-79827345D01*
X36142339Y-79816409D01*
X36206305Y-79844518D01*
X36229798Y-79870857D01*
X36233072Y-79875794D01*
X36247661Y-79906003D01*
X36248445Y-79908417D01*
X36312307Y-80033753D01*
X36344951Y-80097820D01*
X36469890Y-80269786D01*
X36469892Y-80269788D01*
X36620216Y-80420112D01*
X36792169Y-80545042D01*
X36792200Y-80545060D01*
X36792442Y-80545182D01*
X36981588Y-80641557D01*
X37183757Y-80707246D01*
X37393713Y-80740500D01*
X37393714Y-80740500D01*
X37606286Y-80740500D01*
X37606287Y-80740500D01*
X37816243Y-80707246D01*
X38018412Y-80641557D01*
X38207816Y-80545051D01*
X38281149Y-80491772D01*
X38379786Y-80420109D01*
X38379787Y-80420106D01*
X38379790Y-80420105D01*
X38379792Y-80420104D01*
X38379793Y-80420102D01*
X38379847Y-80420063D01*
X38380605Y-80419290D01*
X38530104Y-80269792D01*
X38530106Y-80269788D01*
X38530109Y-80269786D01*
X38598248Y-80176000D01*
X38651202Y-80103115D01*
X38653117Y-80100476D01*
X38655048Y-80097820D01*
X38655047Y-80097820D01*
X38655051Y-80097816D01*
X38751557Y-79908412D01*
X38817246Y-79706243D01*
X38850500Y-79496287D01*
X38850500Y-79283713D01*
X38817246Y-79073757D01*
X38751557Y-78871588D01*
X38655051Y-78682184D01*
X38655049Y-78682181D01*
X38655048Y-78682179D01*
X38654702Y-78681703D01*
X38654700Y-78681699D01*
X38530112Y-78510216D01*
X38379782Y-78359886D01*
X38207824Y-78234953D01*
X38207258Y-78234606D01*
X38205627Y-78233357D01*
X38203901Y-78232103D01*
X38203932Y-78232059D01*
X38186960Y-78219062D01*
X38176683Y-78209357D01*
X38141457Y-78149017D01*
X38144445Y-78079212D01*
X38180612Y-78025495D01*
X38187783Y-78019281D01*
X38204201Y-78007266D01*
X38207810Y-78005054D01*
X38207816Y-78005051D01*
X38264884Y-77963589D01*
X38379786Y-77880109D01*
X38379788Y-77880106D01*
X38379792Y-77880104D01*
X38379796Y-77880099D01*
X38379850Y-77880060D01*
X38380606Y-77879290D01*
X38530104Y-77729792D01*
X38530106Y-77729788D01*
X38530109Y-77729786D01*
X38655048Y-77557820D01*
X38655047Y-77557820D01*
X38655051Y-77557816D01*
X38655053Y-77557810D01*
X38675445Y-77529744D01*
X38683730Y-77501529D01*
X38751557Y-77368412D01*
X38817246Y-77166243D01*
X38850500Y-76956287D01*
X38850500Y-76743713D01*
X38817246Y-76533757D01*
X38751557Y-76331588D01*
X38655051Y-76142184D01*
X38655049Y-76142181D01*
X38655048Y-76142179D01*
X38654702Y-76141703D01*
X38654700Y-76141699D01*
X38530112Y-75970216D01*
X38379782Y-75819886D01*
X38207824Y-75694953D01*
X38207258Y-75694606D01*
X38205627Y-75693357D01*
X38203901Y-75692103D01*
X38203932Y-75692059D01*
X38186960Y-75679062D01*
X38176683Y-75669357D01*
X38141457Y-75609017D01*
X38144445Y-75539212D01*
X38180612Y-75485495D01*
X38187783Y-75479281D01*
X38204194Y-75467269D01*
X38207792Y-75465063D01*
X38207816Y-75465051D01*
X38270686Y-75419373D01*
X38301942Y-75396666D01*
X38365382Y-75350574D01*
X38379786Y-75340109D01*
X38379787Y-75340107D01*
X38379848Y-75340063D01*
X38380609Y-75339286D01*
X38530104Y-75189792D01*
X38530106Y-75189788D01*
X38530109Y-75189786D01*
X38655048Y-75017820D01*
X38655047Y-75017820D01*
X38655051Y-75017816D01*
X38655053Y-75017810D01*
X38675445Y-74989744D01*
X38683730Y-74961529D01*
X38751557Y-74828412D01*
X38817246Y-74626243D01*
X38850500Y-74416287D01*
X38850500Y-74203713D01*
X38817246Y-73993757D01*
X38751557Y-73791588D01*
X38655051Y-73602184D01*
X38655049Y-73602181D01*
X38655048Y-73602179D01*
X38654702Y-73601703D01*
X38654700Y-73601699D01*
X38530112Y-73430216D01*
X38379782Y-73279886D01*
X38207824Y-73154953D01*
X38207258Y-73154606D01*
X38205627Y-73153357D01*
X38203901Y-73152103D01*
X38203932Y-73152059D01*
X38186960Y-73139062D01*
X38176683Y-73129357D01*
X38141457Y-73069017D01*
X38144445Y-72999212D01*
X38180612Y-72945495D01*
X38187783Y-72939281D01*
X38204194Y-72927269D01*
X38207791Y-72925063D01*
X38207816Y-72925051D01*
X38270954Y-72879179D01*
X38379786Y-72800109D01*
X38379788Y-72800106D01*
X38379792Y-72800104D01*
X38379795Y-72800100D01*
X38379849Y-72800061D01*
X38380605Y-72799290D01*
X38530104Y-72649792D01*
X38530106Y-72649788D01*
X38530109Y-72649786D01*
X38655048Y-72477820D01*
X38655047Y-72477820D01*
X38655051Y-72477816D01*
X38655053Y-72477810D01*
X38675445Y-72449744D01*
X38683730Y-72421529D01*
X38751557Y-72288412D01*
X38817246Y-72086243D01*
X38850500Y-71876287D01*
X38850500Y-71663713D01*
X38817246Y-71453757D01*
X38751557Y-71251588D01*
X38655051Y-71062184D01*
X38655049Y-71062181D01*
X38655048Y-71062179D01*
X38654702Y-71061703D01*
X38654700Y-71061699D01*
X38530112Y-70890216D01*
X38379782Y-70739886D01*
X38207824Y-70614953D01*
X38207258Y-70614606D01*
X38205627Y-70613357D01*
X38203901Y-70612103D01*
X38203932Y-70612059D01*
X38186960Y-70599062D01*
X38176683Y-70589357D01*
X38141457Y-70529017D01*
X38144445Y-70459212D01*
X38180613Y-70405493D01*
X38187783Y-70399281D01*
X38204187Y-70387275D01*
X38207816Y-70385051D01*
X38207817Y-70385050D01*
X38229789Y-70369086D01*
X38379786Y-70260109D01*
X38379787Y-70260106D01*
X38379790Y-70260105D01*
X38379792Y-70260104D01*
X38379793Y-70260102D01*
X38379847Y-70260063D01*
X38380605Y-70259290D01*
X38530104Y-70109792D01*
X38530106Y-70109788D01*
X38530109Y-70109786D01*
X38655048Y-69937820D01*
X38655047Y-69937820D01*
X38655051Y-69937816D01*
X38655053Y-69937810D01*
X38675445Y-69909744D01*
X38683730Y-69881529D01*
X38751557Y-69748412D01*
X38817246Y-69546243D01*
X38850500Y-69336287D01*
X38850500Y-69123713D01*
X38817246Y-68913757D01*
X38751557Y-68711588D01*
X38655051Y-68522184D01*
X38655049Y-68522181D01*
X38655048Y-68522179D01*
X38654702Y-68521703D01*
X38654700Y-68521699D01*
X38552730Y-68381348D01*
X41986999Y-68381348D01*
X42017757Y-68535971D01*
X42017764Y-68536002D01*
X42043565Y-68598291D01*
X42078102Y-68681672D01*
X42078109Y-68681685D01*
X42156197Y-68798550D01*
X42171428Y-68830386D01*
X42181334Y-68862022D01*
X42187000Y-68899075D01*
X42187000Y-73645290D01*
X42186999Y-73645364D01*
X42186999Y-73647048D01*
X42186999Y-73812754D01*
X42186998Y-73812754D01*
X42186999Y-73812757D01*
X42191072Y-73827959D01*
X42191073Y-73827966D01*
X42224416Y-73952400D01*
X42224417Y-73952400D01*
X42227923Y-73965486D01*
X42227925Y-73965490D01*
X42243301Y-73992120D01*
X42243317Y-73992148D01*
X42306976Y-74102411D01*
X42306977Y-74102412D01*
X42306981Y-74102417D01*
X42306988Y-74102425D01*
X42427814Y-74223251D01*
X42427859Y-74223294D01*
X44567885Y-76363320D01*
X44567906Y-76363342D01*
X44568949Y-76364385D01*
X44573279Y-76368715D01*
X44573280Y-76368716D01*
X44685084Y-76480520D01*
X44685085Y-76480521D01*
X44685087Y-76480522D01*
X44764854Y-76526574D01*
X44764858Y-76526577D01*
X44764859Y-76526577D01*
X44771895Y-76530639D01*
X44771897Y-76530641D01*
X44822013Y-76559576D01*
X44822015Y-76559577D01*
X44974742Y-76600500D01*
X44974743Y-76600500D01*
X46911380Y-76600500D01*
X46911443Y-76600501D01*
X46913347Y-76600501D01*
X46920943Y-76600501D01*
X47079054Y-76600501D01*
X47079057Y-76600501D01*
X47231785Y-76559577D01*
X47281904Y-76530639D01*
X47368716Y-76480520D01*
X47480520Y-76368716D01*
X47480520Y-76368714D01*
X47490728Y-76358507D01*
X47490728Y-76358505D01*
X47491233Y-76358001D01*
X47494428Y-76354804D01*
X47500931Y-76348301D01*
X47500934Y-76348300D01*
X47500937Y-76348295D01*
X48480520Y-75368716D01*
X48559577Y-75231784D01*
X48600501Y-75079057D01*
X48600501Y-74997593D01*
X48605523Y-74962660D01*
X48606557Y-74959139D01*
X48614865Y-74930844D01*
X48630734Y-74896901D01*
X48706458Y-74783572D01*
X48708469Y-74780826D01*
X48709979Y-74778425D01*
X48711710Y-74773585D01*
X48769737Y-74633497D01*
X48800500Y-74478842D01*
X48800500Y-74321158D01*
X48800500Y-74321155D01*
X48800500Y-74320971D01*
X48800064Y-74318966D01*
X48783064Y-74233502D01*
X48769737Y-74166503D01*
X48743192Y-74102417D01*
X48709397Y-74020827D01*
X48709390Y-74020814D01*
X48621789Y-73889711D01*
X48621786Y-73889707D01*
X48621781Y-73889701D01*
X48510297Y-73778217D01*
X48510291Y-73778212D01*
X48510290Y-73778211D01*
X48379191Y-73690613D01*
X48379190Y-73690612D01*
X48379185Y-73690609D01*
X48379172Y-73690602D01*
X48379165Y-73690598D01*
X48233502Y-73630264D01*
X48233471Y-73630257D01*
X48078847Y-73599500D01*
X48078845Y-73599500D01*
X48078842Y-73599500D01*
X47921158Y-73599500D01*
X47921155Y-73599500D01*
X47921153Y-73599500D01*
X47766527Y-73630257D01*
X47766496Y-73630264D01*
X47620833Y-73690598D01*
X47620824Y-73690603D01*
X47620807Y-73690613D01*
X47489708Y-73778211D01*
X47489707Y-73778212D01*
X47489701Y-73778217D01*
X47378217Y-73889701D01*
X47378212Y-73889707D01*
X47378211Y-73889708D01*
X47290613Y-74020807D01*
X47290603Y-74020824D01*
X47290598Y-74020833D01*
X47230264Y-74166496D01*
X47230257Y-74166527D01*
X47199500Y-74321150D01*
X47199500Y-74478848D01*
X47228818Y-74626235D01*
X47230262Y-74633496D01*
X47230263Y-74633499D01*
X47275795Y-74743424D01*
X47284523Y-74777620D01*
X47284868Y-74780826D01*
X47286194Y-74793161D01*
X47273789Y-74861915D01*
X47267693Y-74874094D01*
X47244489Y-74906273D01*
X46800189Y-75350574D01*
X46771939Y-75371723D01*
X46748853Y-75384330D01*
X46689422Y-75399500D01*
X45738134Y-75399500D01*
X45703195Y-75394476D01*
X45689877Y-75390565D01*
X45631100Y-75352789D01*
X45602078Y-75289232D01*
X45602077Y-75289225D01*
X45601332Y-75284040D01*
X45609510Y-75218951D01*
X45609683Y-75218533D01*
X45627137Y-75176397D01*
X45655112Y-75035753D01*
X45668399Y-74999610D01*
X45669274Y-74998038D01*
X45675775Y-74987140D01*
X45682429Y-74974419D01*
X45683210Y-74973018D01*
X45685217Y-74971043D01*
X45703856Y-74945677D01*
X46487220Y-74162316D01*
X46566277Y-74025384D01*
X46607201Y-73872657D01*
X46607201Y-73714542D01*
X46607201Y-73706947D01*
X46607201Y-73705263D01*
X46607200Y-73705189D01*
X46607200Y-65749894D01*
X46612222Y-65714961D01*
X46613144Y-65711822D01*
X46621564Y-65683145D01*
X46637433Y-65649202D01*
X46713150Y-65535884D01*
X46715168Y-65533127D01*
X46716678Y-65530726D01*
X46718410Y-65525885D01*
X46776437Y-65385797D01*
X46807200Y-65231142D01*
X46807200Y-65073458D01*
X46807200Y-65073455D01*
X46807200Y-65073273D01*
X46806765Y-65071272D01*
X46789225Y-64983094D01*
X46776437Y-64918803D01*
X46776435Y-64918798D01*
X46776435Y-64918796D01*
X46776434Y-64918795D01*
X46773503Y-64911717D01*
X46716100Y-64773133D01*
X46716095Y-64773124D01*
X46716090Y-64773114D01*
X46628489Y-64642011D01*
X46628486Y-64642007D01*
X46628481Y-64642001D01*
X46516997Y-64530517D01*
X46516991Y-64530512D01*
X46516990Y-64530511D01*
X46385891Y-64442913D01*
X46385890Y-64442912D01*
X46385885Y-64442909D01*
X46385872Y-64442902D01*
X46385865Y-64442898D01*
X46240202Y-64382564D01*
X46240171Y-64382557D01*
X46085547Y-64351800D01*
X46085545Y-64351800D01*
X46085542Y-64351800D01*
X45927858Y-64351800D01*
X45927855Y-64351800D01*
X45927853Y-64351800D01*
X45773227Y-64382557D01*
X45773196Y-64382564D01*
X45627533Y-64442898D01*
X45627524Y-64442903D01*
X45627507Y-64442913D01*
X45496408Y-64530511D01*
X45496407Y-64530512D01*
X45496401Y-64530517D01*
X45384917Y-64642001D01*
X45384912Y-64642007D01*
X45384911Y-64642008D01*
X45297313Y-64773107D01*
X45297303Y-64773124D01*
X45297298Y-64773133D01*
X45236964Y-64918796D01*
X45236957Y-64918827D01*
X45206200Y-65073450D01*
X45206200Y-65073453D01*
X45206200Y-65231146D01*
X45206200Y-65231148D01*
X45206199Y-65231148D01*
X45236957Y-65385771D01*
X45236964Y-65385802D01*
X45297298Y-65531465D01*
X45297302Y-65531472D01*
X45297309Y-65531485D01*
X45375397Y-65648350D01*
X45390628Y-65680186D01*
X45400534Y-65711822D01*
X45406200Y-65748875D01*
X45406200Y-73475672D01*
X45401176Y-73510609D01*
X45393764Y-73535850D01*
X45362469Y-73588594D01*
X44855346Y-74095717D01*
X44827093Y-74116867D01*
X44797999Y-74132754D01*
X44762763Y-74145540D01*
X44623915Y-74173159D01*
X44623909Y-74173160D01*
X44623908Y-74173161D01*
X44623898Y-74173164D01*
X44623893Y-74173165D01*
X44623875Y-74173172D01*
X44478232Y-74233498D01*
X44478226Y-74233502D01*
X44478214Y-74233508D01*
X44478213Y-74233508D01*
X44372836Y-74303920D01*
X44340997Y-74319153D01*
X44326079Y-74323824D01*
X44256220Y-74325070D01*
X44256216Y-74325069D01*
X44249131Y-74323125D01*
X44194261Y-74291226D01*
X43436926Y-73533891D01*
X43415774Y-73505635D01*
X43403167Y-73482546D01*
X43388000Y-73423121D01*
X43388000Y-68900094D01*
X43393021Y-68865164D01*
X43402364Y-68833345D01*
X43418243Y-68799388D01*
X43418805Y-68798548D01*
X43422780Y-68792599D01*
X43426014Y-68787760D01*
X43496887Y-68681689D01*
X43496894Y-68681679D01*
X43557237Y-68535997D01*
X43588000Y-68381342D01*
X43588000Y-68223658D01*
X43588000Y-68223655D01*
X43588000Y-68223473D01*
X43587565Y-68221472D01*
X43576699Y-68166846D01*
X43576699Y-68166845D01*
X43561567Y-68090771D01*
X43557237Y-68069003D01*
X43513680Y-67963846D01*
X43509888Y-67954692D01*
X43496902Y-67923340D01*
X43496899Y-67923333D01*
X43496897Y-67923327D01*
X43496890Y-67923314D01*
X43409289Y-67792211D01*
X43409286Y-67792207D01*
X43409284Y-67792205D01*
X43409281Y-67792201D01*
X43297797Y-67680717D01*
X43297791Y-67680712D01*
X43297790Y-67680711D01*
X43166691Y-67593113D01*
X43166690Y-67593112D01*
X43166685Y-67593109D01*
X43166672Y-67593102D01*
X43166665Y-67593098D01*
X43021002Y-67532764D01*
X43020971Y-67532757D01*
X42866347Y-67502000D01*
X42866345Y-67502000D01*
X42866342Y-67502000D01*
X42708658Y-67502000D01*
X42708655Y-67502000D01*
X42708653Y-67502000D01*
X42554027Y-67532757D01*
X42553996Y-67532764D01*
X42408333Y-67593098D01*
X42408324Y-67593103D01*
X42408307Y-67593113D01*
X42277208Y-67680711D01*
X42277207Y-67680712D01*
X42277201Y-67680717D01*
X42165717Y-67792201D01*
X42165712Y-67792207D01*
X42165711Y-67792208D01*
X42078113Y-67923307D01*
X42078103Y-67923324D01*
X42078098Y-67923333D01*
X42017764Y-68068996D01*
X42017757Y-68069027D01*
X41987000Y-68223650D01*
X41987000Y-68223653D01*
X41987000Y-68381346D01*
X41987000Y-68381348D01*
X41986999Y-68381348D01*
X38552730Y-68381348D01*
X38530112Y-68350216D01*
X38379782Y-68199886D01*
X38207824Y-68074953D01*
X38207258Y-68074606D01*
X38205627Y-68073357D01*
X38203901Y-68072103D01*
X38203932Y-68072059D01*
X38186960Y-68059062D01*
X38176683Y-68049357D01*
X38141457Y-67989017D01*
X38144445Y-67919212D01*
X38180612Y-67865495D01*
X38187783Y-67859281D01*
X38204201Y-67847266D01*
X38207810Y-67845054D01*
X38207816Y-67845051D01*
X38280550Y-67792207D01*
X38379786Y-67720109D01*
X38379787Y-67720107D01*
X38379847Y-67720063D01*
X38380605Y-67719290D01*
X38530104Y-67569792D01*
X38530106Y-67569788D01*
X38530109Y-67569786D01*
X38655048Y-67397820D01*
X38655047Y-67397820D01*
X38655051Y-67397816D01*
X38655053Y-67397810D01*
X38675445Y-67369744D01*
X38683730Y-67341529D01*
X38751557Y-67208412D01*
X38817246Y-67006243D01*
X38850500Y-66796287D01*
X38850500Y-66583713D01*
X38817246Y-66373757D01*
X38751557Y-66171588D01*
X38655051Y-65982184D01*
X38655049Y-65982181D01*
X38655048Y-65982179D01*
X38654702Y-65981703D01*
X38654700Y-65981699D01*
X38530112Y-65810216D01*
X38379788Y-65659892D01*
X38379786Y-65659890D01*
X38207817Y-65534949D01*
X38207812Y-65534946D01*
X38206584Y-65534194D01*
X38186242Y-65518624D01*
X38176127Y-65509071D01*
X38140906Y-65448734D01*
X38143896Y-65378929D01*
X38180066Y-65325210D01*
X38187122Y-65319096D01*
X38203537Y-65307083D01*
X38207542Y-65304628D01*
X38207555Y-65304622D01*
X38229119Y-65288953D01*
X38255858Y-65279412D01*
X38261717Y-65265269D01*
X37756149Y-64759702D01*
X37722664Y-64698379D01*
X37727648Y-64628688D01*
X37769519Y-64572754D01*
X37781822Y-64564639D01*
X37807007Y-64550099D01*
X37900099Y-64457007D01*
X37914634Y-64431830D01*
X37965199Y-64383616D01*
X38033805Y-64370391D01*
X38098671Y-64396358D01*
X38109702Y-64406149D01*
X38615269Y-64911717D01*
X38615269Y-64911716D01*
X38615270Y-64911717D01*
X38615270Y-64911716D01*
X38628738Y-64906137D01*
X38634955Y-64884967D01*
X38638954Y-64879118D01*
X38654621Y-64857555D01*
X38654624Y-64857550D01*
X38751095Y-64668217D01*
X38816757Y-64466130D01*
X38816757Y-64466127D01*
X38820435Y-64442909D01*
X38829826Y-64383616D01*
X38850000Y-64256246D01*
X38850000Y-64043753D01*
X38836260Y-63957007D01*
X38818284Y-63843511D01*
X38818283Y-63843505D01*
X38818283Y-63843506D01*
X38816756Y-63833865D01*
X38793863Y-63763408D01*
X38751095Y-63631782D01*
X38654624Y-63442449D01*
X38615270Y-63388282D01*
X38615269Y-63388282D01*
X38615268Y-63388282D01*
X38109702Y-63893849D01*
X38048379Y-63927334D01*
X37978687Y-63922350D01*
X37922754Y-63880478D01*
X37914634Y-63868169D01*
X37900099Y-63842993D01*
X37807007Y-63749901D01*
X37807004Y-63749899D01*
X37807000Y-63749896D01*
X37781828Y-63735363D01*
X37733613Y-63684796D01*
X37720391Y-63616189D01*
X37746359Y-63551324D01*
X37756133Y-63540312D01*
X38287023Y-63009421D01*
X38315272Y-62988274D01*
X38338364Y-62975666D01*
X38394598Y-62961313D01*
X38394576Y-62960900D01*
X38394571Y-62960854D01*
X38394573Y-62960853D01*
X38394564Y-62960676D01*
X38397767Y-62960504D01*
X38397789Y-62960499D01*
X38397871Y-62960499D01*
X38397872Y-62960499D01*
X38457483Y-62954091D01*
X38592331Y-62903796D01*
X38707546Y-62817546D01*
X38793796Y-62702331D01*
X38844091Y-62567483D01*
X38850500Y-62507873D01*
X38850500Y-62092148D01*
X68465399Y-62092148D01*
X68496157Y-62246771D01*
X68496164Y-62246802D01*
X68556498Y-62392465D01*
X68556503Y-62392474D01*
X68556513Y-62392491D01*
X68644111Y-62523590D01*
X68644112Y-62523591D01*
X68644117Y-62523597D01*
X68755601Y-62635081D01*
X68755607Y-62635086D01*
X68755611Y-62635089D01*
X68886714Y-62722690D01*
X68886727Y-62722697D01*
X69032398Y-62783035D01*
X69032403Y-62783037D01*
X69059374Y-62788401D01*
X69096999Y-62795886D01*
X69097023Y-62795890D01*
X69097047Y-62795895D01*
X69170264Y-62810459D01*
X69203544Y-62822201D01*
X69232921Y-62837568D01*
X69263127Y-62859762D01*
X70830573Y-64427208D01*
X70851723Y-64455460D01*
X70864331Y-64478549D01*
X70879500Y-64537978D01*
X70879500Y-65081704D01*
X70874476Y-65116641D01*
X70865136Y-65148448D01*
X70849262Y-65182402D01*
X70770613Y-65300107D01*
X70770603Y-65300124D01*
X70770598Y-65300133D01*
X70710264Y-65445796D01*
X70710257Y-65445827D01*
X70679500Y-65600450D01*
X70679500Y-65600453D01*
X70679500Y-65758146D01*
X70679500Y-65758148D01*
X70679499Y-65758148D01*
X70710257Y-65912771D01*
X70710264Y-65912802D01*
X70770598Y-66058465D01*
X70770603Y-66058474D01*
X70770613Y-66058491D01*
X70858211Y-66189590D01*
X70858217Y-66189597D01*
X70969701Y-66301081D01*
X70969707Y-66301086D01*
X70969711Y-66301089D01*
X71100814Y-66388690D01*
X71100827Y-66388697D01*
X71100829Y-66388697D01*
X71100833Y-66388700D01*
X71224588Y-66439960D01*
X71224589Y-66439960D01*
X71234347Y-66444002D01*
X71246503Y-66449037D01*
X71395153Y-66478605D01*
X71396722Y-66478961D01*
X71397025Y-66479129D01*
X71401155Y-66479800D01*
X71558844Y-66479800D01*
X71562964Y-66479800D01*
X71570814Y-66477418D01*
X71713497Y-66449037D01*
X71859179Y-66388694D01*
X71990289Y-66301089D01*
X72101789Y-66189589D01*
X72189394Y-66058479D01*
X72249737Y-65912797D01*
X72280500Y-65758142D01*
X72280500Y-65600458D01*
X72280500Y-65600455D01*
X72280500Y-65600271D01*
X72280064Y-65598266D01*
X72266778Y-65531472D01*
X72249739Y-65445811D01*
X72249738Y-65445809D01*
X72249737Y-65445803D01*
X72249735Y-65445798D01*
X72189397Y-65300127D01*
X72189390Y-65300114D01*
X72189379Y-65300097D01*
X72111304Y-65183249D01*
X72096071Y-65151411D01*
X72086165Y-65119774D01*
X72080500Y-65082722D01*
X72080500Y-64148343D01*
X72080500Y-64148342D01*
X72039577Y-63995616D01*
X72039577Y-63995615D01*
X71981210Y-63894521D01*
X71960520Y-63858684D01*
X71848716Y-63746880D01*
X71848715Y-63746879D01*
X71844385Y-63742549D01*
X71843363Y-63741527D01*
X71843320Y-63741485D01*
X70113081Y-62011246D01*
X70091931Y-61982993D01*
X70076044Y-61953899D01*
X70063259Y-61918666D01*
X70036295Y-61783115D01*
X70035883Y-61780703D01*
X70035637Y-61779804D01*
X69979173Y-61643486D01*
X69979172Y-61643484D01*
X69979172Y-61643483D01*
X69975297Y-61634127D01*
X69975290Y-61634114D01*
X69887689Y-61503011D01*
X69887686Y-61503007D01*
X69887681Y-61503001D01*
X69776197Y-61391517D01*
X69776191Y-61391512D01*
X69776190Y-61391511D01*
X69645091Y-61303913D01*
X69645090Y-61303912D01*
X69645085Y-61303909D01*
X69645072Y-61303902D01*
X69645065Y-61303898D01*
X69499402Y-61243564D01*
X69499371Y-61243557D01*
X69344747Y-61212800D01*
X69344745Y-61212800D01*
X69344742Y-61212800D01*
X69187058Y-61212800D01*
X69187055Y-61212800D01*
X69187053Y-61212800D01*
X69032427Y-61243557D01*
X69032396Y-61243564D01*
X68886733Y-61303898D01*
X68886724Y-61303903D01*
X68886707Y-61303913D01*
X68755608Y-61391511D01*
X68755607Y-61391512D01*
X68755601Y-61391517D01*
X68644117Y-61503001D01*
X68644112Y-61503007D01*
X68644111Y-61503008D01*
X68556513Y-61634107D01*
X68556503Y-61634124D01*
X68556498Y-61634133D01*
X68496164Y-61779796D01*
X68496157Y-61779827D01*
X68465400Y-61934450D01*
X68465400Y-61934453D01*
X68465400Y-62092146D01*
X68465400Y-62092148D01*
X68465399Y-62092148D01*
X38850500Y-62092148D01*
X38850499Y-61607164D01*
X38850499Y-60712129D01*
X38850499Y-60712122D01*
X38850339Y-60710197D01*
X38850113Y-60708543D01*
X38844091Y-60652516D01*
X38841838Y-60646476D01*
X38793797Y-60517671D01*
X38793793Y-60517664D01*
X38793791Y-60517661D01*
X38793790Y-60517659D01*
X38754665Y-60465397D01*
X38707547Y-60402456D01*
X38707548Y-60402456D01*
X38707546Y-60402454D01*
X38655611Y-60363575D01*
X38648827Y-60356602D01*
X38646846Y-60352853D01*
X38638443Y-60344450D01*
X38630127Y-60333340D01*
X38605709Y-60267879D01*
X38620558Y-60199610D01*
X38627213Y-60187420D01*
X38648360Y-60159172D01*
X41056273Y-57751260D01*
X41056277Y-57751258D01*
X41073715Y-57733820D01*
X41073716Y-57733820D01*
X41185520Y-57622016D01*
X41264577Y-57485084D01*
X41305500Y-57332357D01*
X41305500Y-54371794D01*
X41310522Y-54336861D01*
X41311444Y-54333722D01*
X41319864Y-54305045D01*
X41335733Y-54271102D01*
X41411450Y-54157784D01*
X41413468Y-54155027D01*
X41414978Y-54152626D01*
X41416710Y-54147785D01*
X41474737Y-54007697D01*
X41505500Y-53853042D01*
X41505500Y-53695358D01*
X41505500Y-53695355D01*
X41505500Y-53695172D01*
X41505066Y-53693176D01*
X41501709Y-53676300D01*
X41501709Y-53676299D01*
X41488130Y-53608037D01*
X41474737Y-53540703D01*
X41474735Y-53540698D01*
X41414397Y-53395027D01*
X41414390Y-53395014D01*
X41326789Y-53263911D01*
X41326786Y-53263907D01*
X41326781Y-53263901D01*
X41215297Y-53152417D01*
X41215290Y-53152411D01*
X41215288Y-53152410D01*
X41084191Y-53064813D01*
X41084190Y-53064812D01*
X41084185Y-53064809D01*
X41084172Y-53064802D01*
X41084165Y-53064798D01*
X40938502Y-53004464D01*
X40938471Y-53004457D01*
X40783847Y-52973700D01*
X40783845Y-52973700D01*
X40783842Y-52973700D01*
X40626158Y-52973700D01*
X40626155Y-52973700D01*
X40626153Y-52973700D01*
X40471527Y-53004457D01*
X40471496Y-53004464D01*
X40325833Y-53064798D01*
X40325824Y-53064803D01*
X40325807Y-53064813D01*
X40194711Y-53152410D01*
X40194709Y-53152411D01*
X40194701Y-53152417D01*
X40083217Y-53263901D01*
X40083212Y-53263907D01*
X40083211Y-53263908D01*
X39995613Y-53395007D01*
X39995603Y-53395024D01*
X39995598Y-53395033D01*
X39935264Y-53540696D01*
X39935257Y-53540727D01*
X39904500Y-53695350D01*
X39904500Y-53695353D01*
X39904500Y-53853046D01*
X39904500Y-53853048D01*
X39904499Y-53853048D01*
X39935257Y-54007671D01*
X39935264Y-54007702D01*
X39995598Y-54153365D01*
X39995602Y-54153372D01*
X39995609Y-54153385D01*
X40073697Y-54270250D01*
X40088928Y-54302086D01*
X40098834Y-54333722D01*
X40104500Y-54370775D01*
X40104500Y-56935372D01*
X40099476Y-56970309D01*
X40092064Y-56995550D01*
X40060769Y-57048294D01*
X37019481Y-60089581D01*
X37018977Y-60090280D01*
X37017623Y-60092798D01*
X36972031Y-60171769D01*
X36972015Y-60171797D01*
X36969890Y-60175475D01*
X36969872Y-60175508D01*
X36966080Y-60182074D01*
X36944268Y-60209805D01*
X36930649Y-60222790D01*
X36874321Y-60253548D01*
X36864195Y-60256004D01*
X36834964Y-60259500D01*
X36602130Y-60259500D01*
X36602128Y-60259500D01*
X36601423Y-60259550D01*
X36599979Y-60259731D01*
X36542516Y-60265907D01*
X36407666Y-60316204D01*
X36407665Y-60316205D01*
X36292456Y-60402450D01*
X36292453Y-60402453D01*
X36292448Y-60402459D01*
X36234449Y-60479935D01*
X36209493Y-60504890D01*
X36200440Y-60511667D01*
X36134976Y-60536084D01*
X36066703Y-60521232D01*
X36017298Y-60471827D01*
X36017290Y-60471813D01*
X36015660Y-60468827D01*
X36000500Y-60409414D01*
X36000500Y-49963848D01*
X64883599Y-49963848D01*
X64914357Y-50118471D01*
X64914364Y-50118502D01*
X64974698Y-50264165D01*
X64974702Y-50264172D01*
X64974709Y-50264185D01*
X65052797Y-50381050D01*
X65068028Y-50412886D01*
X65077934Y-50444522D01*
X65083600Y-50481575D01*
X65083600Y-50850590D01*
X65083599Y-50850664D01*
X65083599Y-50975960D01*
X65077701Y-50996046D01*
X65083598Y-51018054D01*
X65124523Y-51170785D01*
X65152308Y-51218910D01*
X65152309Y-51218912D01*
X65203567Y-51307696D01*
X65203581Y-51307717D01*
X65203585Y-51307722D01*
X65324414Y-51428551D01*
X65324459Y-51428594D01*
X72110317Y-58214452D01*
X72131467Y-58242705D01*
X72147354Y-58271799D01*
X72160140Y-58307035D01*
X72187759Y-58445884D01*
X72187760Y-58445888D01*
X72187761Y-58445891D01*
X72187764Y-58445901D01*
X72187767Y-58445909D01*
X72187772Y-58445923D01*
X72248098Y-58591565D01*
X72248103Y-58591574D01*
X72248113Y-58591591D01*
X72335711Y-58722690D01*
X72335712Y-58722691D01*
X72335717Y-58722697D01*
X72447201Y-58834181D01*
X72447207Y-58834186D01*
X72447211Y-58834189D01*
X72578314Y-58921790D01*
X72578327Y-58921797D01*
X72720724Y-58980779D01*
X72724003Y-58982137D01*
X72872074Y-59011590D01*
X72873114Y-59011816D01*
X72873541Y-59012049D01*
X72873747Y-59012103D01*
X72878655Y-59012900D01*
X73036344Y-59012900D01*
X73040464Y-59012900D01*
X73048314Y-59010518D01*
X73190997Y-58982137D01*
X73336679Y-58921794D01*
X73467789Y-58834189D01*
X73579289Y-58722689D01*
X73666894Y-58591579D01*
X73727237Y-58445897D01*
X73758000Y-58291242D01*
X73758000Y-58133558D01*
X73758000Y-58133555D01*
X73758000Y-58133373D01*
X73757565Y-58131372D01*
X73757307Y-58130076D01*
X73738337Y-58034708D01*
X73738337Y-58034705D01*
X73727238Y-57978907D01*
X73727234Y-57978896D01*
X73714941Y-57949217D01*
X73699516Y-57911977D01*
X73666897Y-57833227D01*
X73666890Y-57833214D01*
X73579289Y-57702111D01*
X73579286Y-57702107D01*
X73579281Y-57702101D01*
X73467797Y-57590617D01*
X73467791Y-57590612D01*
X73467790Y-57590611D01*
X73336691Y-57503013D01*
X73336690Y-57503012D01*
X73336685Y-57503009D01*
X73336672Y-57503002D01*
X73336665Y-57502998D01*
X73191023Y-57442672D01*
X73191009Y-57442667D01*
X73191001Y-57442664D01*
X73190991Y-57442661D01*
X73190986Y-57442660D01*
X73190983Y-57442659D01*
X73053136Y-57415239D01*
X73019854Y-57403498D01*
X72990480Y-57388133D01*
X72960273Y-57365938D01*
X66333526Y-50739191D01*
X66312374Y-50710935D01*
X66299767Y-50687846D01*
X66284600Y-50628421D01*
X66284600Y-50482594D01*
X66289622Y-50447661D01*
X66290544Y-50444522D01*
X66298964Y-50415845D01*
X66314833Y-50381902D01*
X66390550Y-50268584D01*
X66392568Y-50265827D01*
X66394078Y-50263426D01*
X66395810Y-50258585D01*
X66453837Y-50118497D01*
X66484600Y-49963842D01*
X66484600Y-49806158D01*
X66484600Y-49806155D01*
X66484600Y-49805973D01*
X66484165Y-49803972D01*
X66454497Y-49654824D01*
X66454094Y-49652467D01*
X66453838Y-49651508D01*
X66453837Y-49651506D01*
X66453837Y-49651503D01*
X66453835Y-49651498D01*
X66393497Y-49505827D01*
X66393490Y-49505814D01*
X66305889Y-49374711D01*
X66305886Y-49374707D01*
X66305881Y-49374701D01*
X66194397Y-49263217D01*
X66194391Y-49263212D01*
X66194390Y-49263211D01*
X66063291Y-49175613D01*
X66063290Y-49175612D01*
X66063285Y-49175609D01*
X66063272Y-49175602D01*
X66063265Y-49175598D01*
X65917602Y-49115264D01*
X65917571Y-49115257D01*
X65762947Y-49084500D01*
X65762945Y-49084500D01*
X65762942Y-49084500D01*
X65605258Y-49084500D01*
X65605255Y-49084500D01*
X65605253Y-49084500D01*
X65450627Y-49115257D01*
X65450596Y-49115264D01*
X65304933Y-49175598D01*
X65304924Y-49175603D01*
X65304907Y-49175613D01*
X65173808Y-49263211D01*
X65173807Y-49263212D01*
X65173801Y-49263217D01*
X65062317Y-49374701D01*
X65062312Y-49374707D01*
X65062311Y-49374708D01*
X64974713Y-49505807D01*
X64974703Y-49505824D01*
X64974698Y-49505833D01*
X64914364Y-49651496D01*
X64914357Y-49651527D01*
X64883600Y-49806150D01*
X64883600Y-49806153D01*
X64883600Y-49963846D01*
X64883600Y-49963848D01*
X64883599Y-49963848D01*
X36000500Y-49963848D01*
X36000500Y-24142329D01*
X36005523Y-24107393D01*
X36009927Y-24092395D01*
X36047672Y-24033644D01*
X36049041Y-24032457D01*
X36103920Y-24004977D01*
X36111479Y-24003333D01*
X36137832Y-24000500D01*
X114443073Y-24000500D01*
X114478009Y-24005523D01*
G37*
%TD.AperFunction*%
%TA.AperFunction,Conductor*%
G36*
X37010803Y-64376895D02*
G01*
X37021311Y-64377647D01*
X37041325Y-64392629D01*
X37063546Y-64404085D01*
X37074514Y-64417475D01*
X37077244Y-64419519D01*
X37081610Y-64426138D01*
X37082813Y-64427607D01*
X37084137Y-64429704D01*
X37099901Y-64457007D01*
X37192993Y-64550099D01*
X37218169Y-64564634D01*
X37266384Y-64615202D01*
X37279606Y-64683809D01*
X37253638Y-64748673D01*
X37243849Y-64759702D01*
X36738321Y-65265229D01*
X36738282Y-65265269D01*
X36738282Y-65265270D01*
X36792452Y-65304626D01*
X36792451Y-65304626D01*
X36794115Y-65305474D01*
X36801857Y-65311058D01*
X36804490Y-65314448D01*
X36814450Y-65321469D01*
X36823868Y-65330363D01*
X36859092Y-65390700D01*
X36856104Y-65460505D01*
X36819932Y-65514229D01*
X36812929Y-65520297D01*
X36795944Y-65531776D01*
X36796331Y-65532407D01*
X36792172Y-65534955D01*
X36620216Y-65659886D01*
X36469892Y-65810210D01*
X36469890Y-65810213D01*
X36402870Y-65902460D01*
X36344949Y-65982182D01*
X36248449Y-66171574D01*
X36248442Y-66171589D01*
X36244150Y-66182319D01*
X36224959Y-66206733D01*
X36205943Y-66235415D01*
X36141979Y-66263529D01*
X36072970Y-66252599D01*
X36020825Y-66206095D01*
X36006623Y-66173784D01*
X36005036Y-66168079D01*
X36000500Y-66134847D01*
X36000500Y-64704440D01*
X36005519Y-64669520D01*
X36007476Y-64662852D01*
X36045243Y-64604069D01*
X36108795Y-64575036D01*
X36177954Y-64584971D01*
X36229805Y-64629250D01*
X36233079Y-64634188D01*
X36247661Y-64664390D01*
X36248903Y-64668214D01*
X36248906Y-64668221D01*
X36345375Y-64857550D01*
X36380674Y-64906137D01*
X36384728Y-64911716D01*
X36890297Y-64406147D01*
X36912235Y-64394167D01*
X36931889Y-64378712D01*
X36942374Y-64377710D01*
X36951619Y-64372663D01*
X36976557Y-64374446D01*
X37001443Y-64372070D01*
X37010803Y-64376895D01*
G37*
%TD.AperFunction*%
%TA.AperFunction,Conductor*%
G36*
X36179177Y-62694275D02*
G01*
X36182280Y-62695692D01*
X36230043Y-62734177D01*
X36292454Y-62817546D01*
X36295307Y-62819682D01*
X36301075Y-62824000D01*
X36301077Y-62824001D01*
X36319200Y-62837568D01*
X36407661Y-62903791D01*
X36407663Y-62903792D01*
X36407665Y-62903794D01*
X36407667Y-62903794D01*
X36407671Y-62903797D01*
X36452618Y-62920561D01*
X36542517Y-62954091D01*
X36542516Y-62954091D01*
X36605432Y-62960856D01*
X36605390Y-62961240D01*
X36628905Y-62965260D01*
X36655031Y-62972930D01*
X36707781Y-63004227D01*
X37243850Y-63540296D01*
X37277335Y-63601619D01*
X37272351Y-63671311D01*
X37230479Y-63727244D01*
X37218173Y-63735362D01*
X37192996Y-63749898D01*
X37192990Y-63749903D01*
X37099903Y-63842990D01*
X37099898Y-63842996D01*
X37085362Y-63868173D01*
X37034793Y-63916387D01*
X36966185Y-63929607D01*
X36901322Y-63903637D01*
X36890296Y-63893850D01*
X36384728Y-63388282D01*
X36384727Y-63388282D01*
X36345380Y-63442438D01*
X36248900Y-63631789D01*
X36247939Y-63634749D01*
X36247267Y-63635730D01*
X36247036Y-63636290D01*
X36246918Y-63636241D01*
X36224782Y-63668615D01*
X36205939Y-63697033D01*
X36141974Y-63725144D01*
X36072965Y-63714211D01*
X36020822Y-63667704D01*
X36006622Y-63635393D01*
X36005035Y-63629687D01*
X36000500Y-63596460D01*
X36000500Y-62817931D01*
X36005521Y-62783004D01*
X36008707Y-62772151D01*
X36046477Y-62713370D01*
X36110031Y-62684341D01*
X36179177Y-62694275D01*
G37*
%TD.AperFunction*%
%TD*%
M02*
