M48
; DRILL file KiCad 10.0.0 date 2026-03-24T15:59:50
; FORMAT={-:-/ absolute / metric / decimal}
; #@! TF.CreationDate,2026-03-24T15:59:50+05:30
; #@! TF.GenerationSoftware,Kicad,Pcbnew,10.0.0
; #@! TF.FileFunction,Plated,1,2,PTH
FMAT,2
METRIC
; #@! TA.AperFunction,Plated,PTH,ViaDrill
T1C0.300
; #@! TA.AperFunction,Plated,PTH,ComponentDrill
T2C0.300
; #@! TA.AperFunction,Plated,PTH,ComponentDrill
T3C0.600
; #@! TA.AperFunction,Plated,PTH,ComponentDrill
T4C0.800
; #@! TA.AperFunction,Plated,PTH,ComponentDrill
T5C1.000
%
G90
G05
T1
X39.832Y-67.375
X40.705Y-53.774
X40.705Y-53.774
X42.788Y-68.302
X42.94Y-56.152
X44.857Y-74.943
X46.007Y-65.152
X48.0Y-74.4
X48.5Y-51.179
X48.5Y-51.179
X56.617Y-47.23
X59.5Y-82.0
X63.025Y-64.274
X63.508Y-67.885
X64.313Y-67.153
X65.0Y-81.0
X65.684Y-49.885
X66.0Y-75.5
X66.5Y-72.5
X68.0Y-73.5
X68.687Y-64.274
X69.266Y-62.013
X69.57Y-72.948
X70.2Y-73.719
X70.5Y-77.453
X70.5Y-80.5
X71.0Y-78.948
X71.48Y-65.679
X72.0Y-82.019
X72.5Y-80.5
X72.957Y-58.212
X73.0Y-76.431
X74.5Y-81.0
X75.292Y-53.443
X76.0Y-73.0
X86.148Y-51.729
X87.112Y-68.088
X87.595Y-46.747
X88.071Y-57.201
X89.609Y-58.656
X90.066Y-62.59
X90.067Y-82.019
X90.856Y-56.304
X90.856Y-59.165
X95.274Y-33.414
X95.379Y-58.517
X95.912Y-49.986
X97.877Y-78.173
X98.962Y-51.523
X103.589Y-80.113
T2
X59.7Y-55.1
X59.7Y-56.5
X60.4Y-54.4
X60.4Y-55.8
X60.4Y-57.2
X61.1Y-55.1
X61.1Y-56.5
X61.8Y-54.4
X61.8Y-55.8
X61.8Y-57.2
X62.5Y-55.1
X62.5Y-56.5
T4
X89.88Y-27.0
X92.42Y-27.0
X94.96Y-27.0
X97.5Y-27.0
T5
X37.5Y-61.61
X37.5Y-64.15
X37.5Y-66.69
X37.5Y-69.23
X37.5Y-71.77
X37.5Y-74.31
X37.5Y-76.85
X37.5Y-79.39
T3
G00X67.68Y-75.32
M15
G01X67.68Y-76.42
M16
G05
G00X67.68Y-79.75
M15
G01X67.68Y-80.35
M16
G05
G00X76.32Y-75.32
M15
G01X76.32Y-76.42
M16
G05
G00X76.32Y-79.75
M15
G01X76.32Y-80.35
M16
G05
M30
