G04 ================== begin FILE IDENTIFICATION RECORD ==================*
G04 Layout Name:  D:/OrCAD_Projects/Digital_Voltmeter/BOARD/board1.brd*
G04 Film Name:    MANUFACTURE*
G04 File Format:  Gerber RS274X*
G04 File Origin:  Cadence Allegro 25.1-S020*
G04 Origin Date:  Fri Mar 20 17:14:16 2026*
G04 *
G04 Layer:  MANUFACTURING/NCLEGEND-1-2*
G04 Layer:  BOARD GEOMETRY/OUTLINE*
G04 *
G04 Offset:    (0.000 0.000)*
G04 Mirror:    No*
G04 Mode:      Positive*
G04 Rotation:  0*
G04 FullContactRelief:  No*
G04 UndefLineWidth:     0.000*
G04 ================== end FILE IDENTIFICATION RECORD ====================*
%FSLAX25Y25*MOIN*%
%IR0*IPPOS*OFA0.00000B0.00000*MIA0B0*SFA1.00000B1.00000*%
%AMMACRO10*
1,1,0.0,.019685,0.0*
20,1,0.0,.019685,0.0,-.019685,0.0,0.0*
1,1,0.0,-.019685,0.0*
1,1,0.0,0.0,.019685*
20,1,0.0,0.0,.019685,0.0,-.019685,0.0*
1,1,0.0,0.0,-.019685*
%
%ADD10MACRO10*%
%AMMACRO11*
1,1,0.0,.025,0.0*
20,1,0.0,.025,0.0,.02462,-.004341,0.0*
1,1,0.0,.02462,-.004341*
20,1,0.0,.02462,-.004341,.023492,-.008551,0.0*
1,1,0.0,.023492,-.008551*
20,1,0.0,.023492,-.008551,.021651,-.0125,0.0*
1,1,0.0,.021651,-.0125*
20,1,0.0,.021651,-.0125,.019151,-.01607,0.0*
1,1,0.0,.019151,-.01607*
20,1,0.0,.019151,-.01607,.01607,-.019151,0.0*
1,1,0.0,.01607,-.019151*
20,1,0.0,.01607,-.019151,.0125,-.021651,0.0*
1,1,0.0,.0125,-.021651*
20,1,0.0,.0125,-.021651,.008551,-.023492,0.0*
1,1,0.0,.008551,-.023492*
20,1,0.0,.008551,-.023492,.004341,-.02462,0.0*
1,1,0.0,.004341,-.02462*
20,1,0.0,.004341,-.02462,0.0,-.025,0.0*
1,1,0.0,0.0,-.025*
20,1,0.0,0.0,-.025,-.004341,-.02462,0.0*
1,1,0.0,-.004341,-.02462*
20,1,0.0,-.004341,-.02462,-.008551,-.023492,0.0*
1,1,0.0,-.008551,-.023492*
20,1,0.0,-.008551,-.023492,-.0125,-.021651,0.0*
1,1,0.0,-.0125,-.021651*
20,1,0.0,-.0125,-.021651,-.01607,-.019151,0.0*
1,1,0.0,-.01607,-.019151*
20,1,0.0,-.01607,-.019151,-.019151,-.01607,0.0*
1,1,0.0,-.019151,-.01607*
20,1,0.0,-.019151,-.01607,-.021651,-.0125,0.0*
1,1,0.0,-.021651,-.0125*
20,1,0.0,-.021651,-.0125,-.023492,-.008551,0.0*
1,1,0.0,-.023492,-.008551*
20,1,0.0,-.023492,-.008551,-.02462,-.004341,0.0*
1,1,0.0,-.02462,-.004341*
20,1,0.0,-.02462,-.004341,-.025,0.0,0.0*
1,1,0.0,-.025,0.0*
20,1,0.0,-.025,0.0,-.02462,.004341,0.0*
1,1,0.0,-.02462,.004341*
20,1,0.0,-.02462,.004341,-.023492,.008551,0.0*
1,1,0.0,-.023492,.008551*
20,1,0.0,-.023492,.008551,-.021651,.0125,0.0*
1,1,0.0,-.021651,.0125*
20,1,0.0,-.021651,.0125,-.019151,.01607,0.0*
1,1,0.0,-.019151,.01607*
20,1,0.0,-.019151,.01607,-.01607,.019151,0.0*
1,1,0.0,-.01607,.019151*
20,1,0.0,-.01607,.019151,-.0125,.021651,0.0*
1,1,0.0,-.0125,.021651*
20,1,0.0,-.0125,.021651,-.008551,.023492,0.0*
1,1,0.0,-.008551,.023492*
20,1,0.0,-.008551,.023492,-.004341,.02462,0.0*
1,1,0.0,-.004341,.02462*
20,1,0.0,-.004341,.02462,0.0,.025,0.0*
1,1,0.0,0.0,.025*
20,1,0.0,0.0,.025,.004341,.02462,0.0*
1,1,0.0,.004341,.02462*
20,1,0.0,.004341,.02462,.008551,.023492,0.0*
1,1,0.0,.008551,.023492*
20,1,0.0,.008551,.023492,.0125,.021651,0.0*
1,1,0.0,.0125,.021651*
20,1,0.0,.0125,.021651,.01607,.019151,0.0*
1,1,0.0,.01607,.019151*
20,1,0.0,.01607,.019151,.019151,.01607,0.0*
1,1,0.0,.019151,.01607*
20,1,0.0,.019151,.01607,.021651,.0125,0.0*
1,1,0.0,.021651,.0125*
20,1,0.0,.021651,.0125,.023492,.008551,0.0*
1,1,0.0,.023492,.008551*
20,1,0.0,.023492,.008551,.02462,.004341,0.0*
1,1,0.0,.02462,.004341*
20,1,0.0,.02462,.004341,.025,0.0,0.0*
1,1,0.0,.025,0.0*
1,1,0.0,.0125,0.0*
20,1,0.0,.0125,0.0,-.0125,0.0,0.0*
1,1,0.0,-.0125,0.0*
1,1,0.0,0.0,.0125*
20,1,0.0,0.0,.0125,0.0,-.0125,0.0*
1,1,0.0,0.0,-.0125*
%
%ADD11MACRO11*%
%AMMACRO14*
1,1,0.0,.015748,0.0*
20,1,0.0,.015748,0.0,.015509,-.002735,0.0*
1,1,0.0,.015509,-.002735*
20,1,0.0,.015509,-.002735,.014798,-.005386,0.0*
1,1,0.0,.014798,-.005386*
20,1,0.0,.014798,-.005386,.013638,-.007874,0.0*
1,1,0.0,.013638,-.007874*
20,1,0.0,.013638,-.007874,.012064,-.010123,0.0*
1,1,0.0,.012064,-.010123*
20,1,0.0,.012064,-.010123,.010123,-.012064,0.0*
1,1,0.0,.010123,-.012064*
20,1,0.0,.010123,-.012064,.007874,-.013638,0.0*
1,1,0.0,.007874,-.013638*
20,1,0.0,.007874,-.013638,.005386,-.014798,0.0*
1,1,0.0,.005386,-.014798*
20,1,0.0,.005386,-.014798,.002735,-.015509,0.0*
1,1,0.0,.002735,-.015509*
20,1,0.0,.002735,-.015509,0.0,-.015748,0.0*
1,1,0.0,0.0,-.015748*
20,1,0.0,0.0,-.015748,-.002735,-.015509,0.0*
1,1,0.0,-.002735,-.015509*
20,1,0.0,-.002735,-.015509,-.005386,-.014798,0.0*
1,1,0.0,-.005386,-.014798*
20,1,0.0,-.005386,-.014798,-.007874,-.013638,0.0*
1,1,0.0,-.007874,-.013638*
20,1,0.0,-.007874,-.013638,-.010123,-.012064,0.0*
1,1,0.0,-.010123,-.012064*
20,1,0.0,-.010123,-.012064,-.012064,-.010123,0.0*
1,1,0.0,-.012064,-.010123*
20,1,0.0,-.012064,-.010123,-.013638,-.007874,0.0*
1,1,0.0,-.013638,-.007874*
20,1,0.0,-.013638,-.007874,-.014798,-.005386,0.0*
1,1,0.0,-.014798,-.005386*
20,1,0.0,-.014798,-.005386,-.015509,-.002735,0.0*
1,1,0.0,-.015509,-.002735*
20,1,0.0,-.015509,-.002735,-.015748,0.0,0.0*
1,1,0.0,-.015748,0.0*
20,1,0.0,-.015748,0.0,-.015509,.002735,0.0*
1,1,0.0,-.015509,.002735*
20,1,0.0,-.015509,.002735,-.014798,.005386,0.0*
1,1,0.0,-.014798,.005386*
20,1,0.0,-.014798,.005386,-.013638,.007874,0.0*
1,1,0.0,-.013638,.007874*
20,1,0.0,-.013638,.007874,-.012064,.010123,0.0*
1,1,0.0,-.012064,.010123*
20,1,0.0,-.012064,.010123,-.010123,.012064,0.0*
1,1,0.0,-.010123,.012064*
20,1,0.0,-.010123,.012064,-.007874,.013638,0.0*
1,1,0.0,-.007874,.013638*
20,1,0.0,-.007874,.013638,-.005386,.014798,0.0*
1,1,0.0,-.005386,.014798*
20,1,0.0,-.005386,.014798,-.002735,.015509,0.0*
1,1,0.0,-.002735,.015509*
20,1,0.0,-.002735,.015509,0.0,.015748,0.0*
1,1,0.0,0.0,.015748*
20,1,0.0,0.0,.015748,.002735,.015509,0.0*
1,1,0.0,.002735,.015509*
20,1,0.0,.002735,.015509,.005386,.014798,0.0*
1,1,0.0,.005386,.014798*
20,1,0.0,.005386,.014798,.007874,.013638,0.0*
1,1,0.0,.007874,.013638*
20,1,0.0,.007874,.013638,.010123,.012064,0.0*
1,1,0.0,.010123,.012064*
20,1,0.0,.010123,.012064,.012064,.010123,0.0*
1,1,0.0,.012064,.010123*
20,1,0.0,.012064,.010123,.013638,.007874,0.0*
1,1,0.0,.013638,.007874*
20,1,0.0,.013638,.007874,.014798,.005386,0.0*
1,1,0.0,.014798,.005386*
20,1,0.0,.014798,.005386,.015509,.002735,0.0*
1,1,0.0,.015509,.002735*
20,1,0.0,.015509,.002735,.015748,0.0,0.0*
1,1,0.0,.015748,0.0*
1,1,0.0,-.006575,-.007874*
20,1,0.0,-.006575,-.007874,0.0,.007874,0.0*
1,1,0.0,0.0,.007874*
20,1,0.0,0.0,.007874,.006575,-.007874,0.0*
1,1,0.0,.006575,-.007874*
1,1,0.0,.004213,-.002362*
20,1,0.0,.004213,-.002362,-.004213,-.002362,0.0*
1,1,0.0,-.004213,-.002362*
%
%ADD14MACRO14*%
%AMMACRO12*
1,1,0.0,.03,0.0*
20,1,0.0,.03,0.0,.029544,-.005209,0.0*
1,1,0.0,.029544,-.005209*
20,1,0.0,.029544,-.005209,.028191,-.010261,0.0*
1,1,0.0,.028191,-.010261*
20,1,0.0,.028191,-.010261,.025981,-.015,0.0*
1,1,0.0,.025981,-.015*
20,1,0.0,.025981,-.015,.022981,-.019284,0.0*
1,1,0.0,.022981,-.019284*
20,1,0.0,.022981,-.019284,.019284,-.022981,0.0*
1,1,0.0,.019284,-.022981*
20,1,0.0,.019284,-.022981,.015,-.025981,0.0*
1,1,0.0,.015,-.025981*
20,1,0.0,.015,-.025981,.010261,-.028191,0.0*
1,1,0.0,.010261,-.028191*
20,1,0.0,.010261,-.028191,.005209,-.029544,0.0*
1,1,0.0,.005209,-.029544*
20,1,0.0,.005209,-.029544,0.0,-.03,0.0*
1,1,0.0,0.0,-.03*
20,1,0.0,0.0,-.03,-.005209,-.029544,0.0*
1,1,0.0,-.005209,-.029544*
20,1,0.0,-.005209,-.029544,-.010261,-.028191,0.0*
1,1,0.0,-.010261,-.028191*
20,1,0.0,-.010261,-.028191,-.015,-.025981,0.0*
1,1,0.0,-.015,-.025981*
20,1,0.0,-.015,-.025981,-.019284,-.022981,0.0*
1,1,0.0,-.019284,-.022981*
20,1,0.0,-.019284,-.022981,-.022981,-.019284,0.0*
1,1,0.0,-.022981,-.019284*
20,1,0.0,-.022981,-.019284,-.025981,-.015,0.0*
1,1,0.0,-.025981,-.015*
20,1,0.0,-.025981,-.015,-.028191,-.010261,0.0*
1,1,0.0,-.028191,-.010261*
20,1,0.0,-.028191,-.010261,-.029544,-.005209,0.0*
1,1,0.0,-.029544,-.005209*
20,1,0.0,-.029544,-.005209,-.03,0.0,0.0*
1,1,0.0,-.03,0.0*
20,1,0.0,-.03,0.0,-.029544,.005209,0.0*
1,1,0.0,-.029544,.005209*
20,1,0.0,-.029544,.005209,-.028191,.010261,0.0*
1,1,0.0,-.028191,.010261*
20,1,0.0,-.028191,.010261,-.025981,.015,0.0*
1,1,0.0,-.025981,.015*
20,1,0.0,-.025981,.015,-.022981,.019284,0.0*
1,1,0.0,-.022981,.019284*
20,1,0.0,-.022981,.019284,-.019284,.022981,0.0*
1,1,0.0,-.019284,.022981*
20,1,0.0,-.019284,.022981,-.015,.025981,0.0*
1,1,0.0,-.015,.025981*
20,1,0.0,-.015,.025981,-.010261,.028191,0.0*
1,1,0.0,-.010261,.028191*
20,1,0.0,-.010261,.028191,-.005209,.029544,0.0*
1,1,0.0,-.005209,.029544*
20,1,0.0,-.005209,.029544,0.0,.03,0.0*
1,1,0.0,0.0,.03*
20,1,0.0,0.0,.03,.005209,.029544,0.0*
1,1,0.0,.005209,.029544*
20,1,0.0,.005209,.029544,.010261,.028191,0.0*
1,1,0.0,.010261,.028191*
20,1,0.0,.010261,.028191,.015,.025981,0.0*
1,1,0.0,.015,.025981*
20,1,0.0,.015,.025981,.019284,.022981,0.0*
1,1,0.0,.019284,.022981*
20,1,0.0,.019284,.022981,.022981,.019284,0.0*
1,1,0.0,.022981,.019284*
20,1,0.0,.022981,.019284,.025981,.015,0.0*
1,1,0.0,.025981,.015*
20,1,0.0,.025981,.015,.028191,.010261,0.0*
1,1,0.0,.028191,.010261*
20,1,0.0,.028191,.010261,.029544,.005209,0.0*
1,1,0.0,.029544,.005209*
20,1,0.0,.029544,.005209,.03,0.0,0.0*
1,1,0.0,.03,0.0*
1,1,0.0,-.01252,-.015*
20,1,0.0,-.01252,-.015,0.0,.015,0.0*
1,1,0.0,0.0,.015*
20,1,0.0,0.0,.015,.01252,-.015,0.0*
1,1,0.0,.01252,-.015*
1,1,0.0,.007992,-.004488*
20,1,0.0,.007992,-.004488,-.007992,-.004488,0.0*
1,1,0.0,-.007992,-.004488*
%
%ADD12MACRO12*%
%AMMACRO13*
1,1,0.0,.03,0.0*
20,1,0.0,.03,0.0,.029544,-.005209,0.0*
1,1,0.0,.029544,-.005209*
20,1,0.0,.029544,-.005209,.028191,-.010261,0.0*
1,1,0.0,.028191,-.010261*
20,1,0.0,.028191,-.010261,.025981,-.015,0.0*
1,1,0.0,.025981,-.015*
20,1,0.0,.025981,-.015,.022981,-.019284,0.0*
1,1,0.0,.022981,-.019284*
20,1,0.0,.022981,-.019284,.019284,-.022981,0.0*
1,1,0.0,.019284,-.022981*
20,1,0.0,.019284,-.022981,.015,-.025981,0.0*
1,1,0.0,.015,-.025981*
20,1,0.0,.015,-.025981,.010261,-.028191,0.0*
1,1,0.0,.010261,-.028191*
20,1,0.0,.010261,-.028191,.005209,-.029544,0.0*
1,1,0.0,.005209,-.029544*
20,1,0.0,.005209,-.029544,0.0,-.03,0.0*
1,1,0.0,0.0,-.03*
20,1,0.0,0.0,-.03,-.005209,-.029544,0.0*
1,1,0.0,-.005209,-.029544*
20,1,0.0,-.005209,-.029544,-.010261,-.028191,0.0*
1,1,0.0,-.010261,-.028191*
20,1,0.0,-.010261,-.028191,-.015,-.025981,0.0*
1,1,0.0,-.015,-.025981*
20,1,0.0,-.015,-.025981,-.019284,-.022981,0.0*
1,1,0.0,-.019284,-.022981*
20,1,0.0,-.019284,-.022981,-.022981,-.019284,0.0*
1,1,0.0,-.022981,-.019284*
20,1,0.0,-.022981,-.019284,-.025981,-.015,0.0*
1,1,0.0,-.025981,-.015*
20,1,0.0,-.025981,-.015,-.028191,-.010261,0.0*
1,1,0.0,-.028191,-.010261*
20,1,0.0,-.028191,-.010261,-.029544,-.005209,0.0*
1,1,0.0,-.029544,-.005209*
20,1,0.0,-.029544,-.005209,-.03,0.0,0.0*
1,1,0.0,-.03,0.0*
20,1,0.0,-.03,0.0,-.029544,.005209,0.0*
1,1,0.0,-.029544,.005209*
20,1,0.0,-.029544,.005209,-.028191,.010261,0.0*
1,1,0.0,-.028191,.010261*
20,1,0.0,-.028191,.010261,-.025981,.015,0.0*
1,1,0.0,-.025981,.015*
20,1,0.0,-.025981,.015,-.022981,.019284,0.0*
1,1,0.0,-.022981,.019284*
20,1,0.0,-.022981,.019284,-.019284,.022981,0.0*
1,1,0.0,-.019284,.022981*
20,1,0.0,-.019284,.022981,-.015,.025981,0.0*
1,1,0.0,-.015,.025981*
20,1,0.0,-.015,.025981,-.010261,.028191,0.0*
1,1,0.0,-.010261,.028191*
20,1,0.0,-.010261,.028191,-.005209,.029544,0.0*
1,1,0.0,-.005209,.029544*
20,1,0.0,-.005209,.029544,0.0,.03,0.0*
1,1,0.0,0.0,.03*
20,1,0.0,0.0,.03,.005209,.029544,0.0*
1,1,0.0,.005209,.029544*
20,1,0.0,.005209,.029544,.010261,.028191,0.0*
1,1,0.0,.010261,.028191*
20,1,0.0,.010261,.028191,.015,.025981,0.0*
1,1,0.0,.015,.025981*
20,1,0.0,.015,.025981,.019284,.022981,0.0*
1,1,0.0,.019284,.022981*
20,1,0.0,.019284,.022981,.022981,.019284,0.0*
1,1,0.0,.022981,.019284*
20,1,0.0,.022981,.019284,.025981,.015,0.0*
1,1,0.0,.025981,.015*
20,1,0.0,.025981,.015,.028191,.010261,0.0*
1,1,0.0,.028191,.010261*
20,1,0.0,.028191,.010261,.029544,.005209,0.0*
1,1,0.0,.029544,.005209*
20,1,0.0,.029544,.005209,.03,0.0,0.0*
1,1,0.0,.03,0.0*
1,1,0.0,.010984,.01248*
20,1,0.0,.010984,.01248,.007992,.014016,0.0*
1,1,0.0,.007992,.014016*
20,1,0.0,.007992,.014016,.004488,.015,0.0*
1,1,0.0,.004488,.015*
20,1,0.0,.004488,.015,.000512,.015,0.0*
1,1,0.0,.000512,.015*
20,1,0.0,.000512,.015,-.004016,.013504,0.0*
1,1,0.0,-.004016,.013504*
20,1,0.0,-.004016,.013504,-.00748,.010984,0.0*
1,1,0.0,-.00748,.010984*
20,1,0.0,-.00748,.010984,-.01,.007992,0.0*
1,1,0.0,-.01,.007992*
20,1,0.0,-.01,.007992,-.012008,.002992,0.0*
1,1,0.0,-.012008,.002992*
20,1,0.0,-.012008,.002992,-.01252,-.001496,0.0*
1,1,0.0,-.01252,-.001496*
20,1,0.0,-.01252,-.001496,-.011496,-.005984,0.0*
1,1,0.0,-.011496,-.005984*
20,1,0.0,-.011496,-.005984,-.01,-.009016,0.0*
1,1,0.0,-.01,-.009016*
20,1,0.0,-.01,-.009016,-.007008,-.012008,0.0*
1,1,0.0,-.007008,-.012008*
20,1,0.0,-.007008,-.012008,-.003504,-.014016,0.0*
1,1,0.0,-.003504,-.014016*
20,1,0.0,-.003504,-.014016,0.0,-.015,0.0*
1,1,0.0,0.0,-.015*
20,1,0.0,0.0,-.015,.003504,-.015,0.0*
1,1,0.0,.003504,-.015*
20,1,0.0,.003504,-.015,.007008,-.014016,0.0*
1,1,0.0,.007008,-.014016*
20,1,0.0,.007008,-.014016,.01,-.01252,0.0*
1,1,0.0,.01,-.01252*
20,1,0.0,.01,-.01252,.01252,-.010512,0.0*
1,1,0.0,.01252,-.010512*
%
%ADD13MACRO13*%
%ADD15C,.019685*%
G75*
%LPD*%
G75*
G54D10*
X22047Y11024D03*
X29921D03*
X27224Y504823D03*
Y529823D03*
Y554823D03*
Y604823D03*
Y654823D03*
X75984Y14173D03*
X83858D03*
X139370Y13386D03*
X147244D03*
X178346Y14173D03*
X186220D03*
X229528Y165118D03*
Y175118D03*
Y185118D03*
Y195118D03*
Y205118D03*
Y215118D03*
Y225118D03*
Y235118D03*
Y245118D03*
Y255118D03*
X278740Y11811D03*
X259528Y185118D03*
Y175118D03*
Y165118D03*
Y215118D03*
Y205118D03*
Y195118D03*
Y245118D03*
Y235118D03*
Y225118D03*
Y255118D03*
X286614Y11811D03*
X331890Y36614D03*
Y158661D03*
X337402Y200000D03*
X327559Y209843D03*
X317717Y200000D03*
X373543Y158661D03*
X363543D03*
X353543D03*
X403543D03*
X393543D03*
X383543D03*
X433543D03*
X423543D03*
X413543D03*
X463543D03*
X453543D03*
X443543D03*
X493543D03*
X483543D03*
X473543D03*
X503543D03*
X627165Y36614D03*
Y158661D03*
G54D11*
X32677Y70472D03*
Y422441D03*
X27224Y704823D03*
X62598Y1575D03*
X76378Y14173D03*
X84646Y59843D03*
X94882Y461417D03*
X87402Y449213D03*
X125197Y101575D03*
X145669Y148031D03*
X163780Y70472D03*
X216929Y268504D03*
Y459055D03*
X226378Y124803D03*
X229528Y256299D03*
Y255118D03*
X259528Y165118D03*
X317717Y93307D03*
X363543Y158661D03*
X373622Y424409D03*
X375197Y415748D03*
X394488D03*
X382283Y466929D03*
X377559Y468898D03*
X472638Y447047D03*
X499213Y416142D03*
X506693Y419685D03*
X571260Y424409D03*
G54D12*
X32677Y422441D03*
Y461417D03*
X27224Y579823D03*
X99213Y424016D03*
X79173Y422441D03*
X96811Y461417D03*
X79173D03*
X145709Y424016D03*
X143307Y461417D03*
G54D13*
X27224Y629823D03*
X68685Y337402D03*
X89583D03*
G54D14*
X27224Y679823D03*
X462638Y392579D03*
X452638D03*
Y447579D03*
X462638D03*
X492638Y392579D03*
X482638D03*
X472638D03*
Y447579D03*
X482638D03*
X492638D03*
X522638Y392579D03*
X512638D03*
X502638D03*
Y447579D03*
X512638D03*
X522638D03*
X552638Y392579D03*
X542638D03*
X532638D03*
Y447579D03*
X542638D03*
X552638D03*
X582638Y392579D03*
X572638D03*
X562638D03*
Y447579D03*
X572638D03*
X582638D03*
X612638Y392579D03*
X602638D03*
X592638D03*
Y447579D03*
X602638D03*
X612638D03*
X642638Y392579D03*
X632638D03*
X622638D03*
Y447579D03*
X632638D03*
X642638D03*
G54D15*
G01X0Y0D02*
X669291D01*
Y472441D01*
X0D01*
Y0D01*
M02*
