%TF.GenerationSoftware,KiCad,Pcbnew,10.0.0*%
%TF.CreationDate,2026-03-31T14:31:39+05:30*%
%TF.ProjectId,4_LAYER_8051,345f4c41-5945-4525-9f38-3035312e6b69,rev?*%
%TF.SameCoordinates,Original*%
%TF.FileFunction,Legend,Top*%
%TF.FilePolarity,Positive*%
%FSLAX46Y46*%
G04 Gerber Fmt 4.6, Leading zero omitted, Abs format (unit mm)*
G04 Created by KiCad (PCBNEW 10.0.0) date 2026-03-31 14:31:39*
%MOMM*%
%LPD*%
G01*
G04 APERTURE LIST*
%ADD10C,0.150000*%
%ADD11C,0.100000*%
%ADD12C,0.120000*%
%ADD13C,0.200000*%
%ADD14C,0.127000*%
G04 APERTURE END LIST*
D10*
X189722495Y-104369419D02*
X189722495Y-105178942D01*
X189722495Y-105178942D02*
X189770114Y-105274180D01*
X189770114Y-105274180D02*
X189817733Y-105321800D01*
X189817733Y-105321800D02*
X189912971Y-105369419D01*
X189912971Y-105369419D02*
X190103447Y-105369419D01*
X190103447Y-105369419D02*
X190198685Y-105321800D01*
X190198685Y-105321800D02*
X190246304Y-105274180D01*
X190246304Y-105274180D02*
X190293923Y-105178942D01*
X190293923Y-105178942D02*
X190293923Y-104369419D01*
X191198685Y-104369419D02*
X191008209Y-104369419D01*
X191008209Y-104369419D02*
X190912971Y-104417038D01*
X190912971Y-104417038D02*
X190865352Y-104464657D01*
X190865352Y-104464657D02*
X190770114Y-104607514D01*
X190770114Y-104607514D02*
X190722495Y-104797990D01*
X190722495Y-104797990D02*
X190722495Y-105178942D01*
X190722495Y-105178942D02*
X190770114Y-105274180D01*
X190770114Y-105274180D02*
X190817733Y-105321800D01*
X190817733Y-105321800D02*
X190912971Y-105369419D01*
X190912971Y-105369419D02*
X191103447Y-105369419D01*
X191103447Y-105369419D02*
X191198685Y-105321800D01*
X191198685Y-105321800D02*
X191246304Y-105274180D01*
X191246304Y-105274180D02*
X191293923Y-105178942D01*
X191293923Y-105178942D02*
X191293923Y-104940847D01*
X191293923Y-104940847D02*
X191246304Y-104845609D01*
X191246304Y-104845609D02*
X191198685Y-104797990D01*
X191198685Y-104797990D02*
X191103447Y-104750371D01*
X191103447Y-104750371D02*
X190912971Y-104750371D01*
X190912971Y-104750371D02*
X190817733Y-104797990D01*
X190817733Y-104797990D02*
X190770114Y-104845609D01*
X190770114Y-104845609D02*
X190722495Y-104940847D01*
X174612695Y-56656619D02*
X174612695Y-57466142D01*
X174612695Y-57466142D02*
X174660314Y-57561380D01*
X174660314Y-57561380D02*
X174707933Y-57609000D01*
X174707933Y-57609000D02*
X174803171Y-57656619D01*
X174803171Y-57656619D02*
X174993647Y-57656619D01*
X174993647Y-57656619D02*
X175088885Y-57609000D01*
X175088885Y-57609000D02*
X175136504Y-57561380D01*
X175136504Y-57561380D02*
X175184123Y-57466142D01*
X175184123Y-57466142D02*
X175184123Y-56656619D01*
X176184123Y-57656619D02*
X175612695Y-57656619D01*
X175898409Y-57656619D02*
X175898409Y-56656619D01*
X175898409Y-56656619D02*
X175803171Y-56799476D01*
X175803171Y-56799476D02*
X175707933Y-56894714D01*
X175707933Y-56894714D02*
X175612695Y-56942333D01*
X191146133Y-86892019D02*
X190812800Y-86415828D01*
X190574705Y-86892019D02*
X190574705Y-85892019D01*
X190574705Y-85892019D02*
X190955657Y-85892019D01*
X190955657Y-85892019D02*
X191050895Y-85939638D01*
X191050895Y-85939638D02*
X191098514Y-85987257D01*
X191098514Y-85987257D02*
X191146133Y-86082495D01*
X191146133Y-86082495D02*
X191146133Y-86225352D01*
X191146133Y-86225352D02*
X191098514Y-86320590D01*
X191098514Y-86320590D02*
X191050895Y-86368209D01*
X191050895Y-86368209D02*
X190955657Y-86415828D01*
X190955657Y-86415828D02*
X190574705Y-86415828D01*
X191479467Y-85892019D02*
X192098514Y-85892019D01*
X192098514Y-85892019D02*
X191765181Y-86272971D01*
X191765181Y-86272971D02*
X191908038Y-86272971D01*
X191908038Y-86272971D02*
X192003276Y-86320590D01*
X192003276Y-86320590D02*
X192050895Y-86368209D01*
X192050895Y-86368209D02*
X192098514Y-86463447D01*
X192098514Y-86463447D02*
X192098514Y-86701542D01*
X192098514Y-86701542D02*
X192050895Y-86796780D01*
X192050895Y-86796780D02*
X192003276Y-86844400D01*
X192003276Y-86844400D02*
X191908038Y-86892019D01*
X191908038Y-86892019D02*
X191622324Y-86892019D01*
X191622324Y-86892019D02*
X191527086Y-86844400D01*
X191527086Y-86844400D02*
X191479467Y-86796780D01*
X195669233Y-91928419D02*
X195335900Y-91452228D01*
X195097805Y-91928419D02*
X195097805Y-90928419D01*
X195097805Y-90928419D02*
X195478757Y-90928419D01*
X195478757Y-90928419D02*
X195573995Y-90976038D01*
X195573995Y-90976038D02*
X195621614Y-91023657D01*
X195621614Y-91023657D02*
X195669233Y-91118895D01*
X195669233Y-91118895D02*
X195669233Y-91261752D01*
X195669233Y-91261752D02*
X195621614Y-91356990D01*
X195621614Y-91356990D02*
X195573995Y-91404609D01*
X195573995Y-91404609D02*
X195478757Y-91452228D01*
X195478757Y-91452228D02*
X195097805Y-91452228D01*
X196050186Y-91023657D02*
X196097805Y-90976038D01*
X196097805Y-90976038D02*
X196193043Y-90928419D01*
X196193043Y-90928419D02*
X196431138Y-90928419D01*
X196431138Y-90928419D02*
X196526376Y-90976038D01*
X196526376Y-90976038D02*
X196573995Y-91023657D01*
X196573995Y-91023657D02*
X196621614Y-91118895D01*
X196621614Y-91118895D02*
X196621614Y-91214133D01*
X196621614Y-91214133D02*
X196573995Y-91356990D01*
X196573995Y-91356990D02*
X196002567Y-91928419D01*
X196002567Y-91928419D02*
X196621614Y-91928419D01*
X179957505Y-105255219D02*
X179957505Y-104255219D01*
X179957505Y-104255219D02*
X180195600Y-104255219D01*
X180195600Y-104255219D02*
X180338457Y-104302838D01*
X180338457Y-104302838D02*
X180433695Y-104398076D01*
X180433695Y-104398076D02*
X180481314Y-104493314D01*
X180481314Y-104493314D02*
X180528933Y-104683790D01*
X180528933Y-104683790D02*
X180528933Y-104826647D01*
X180528933Y-104826647D02*
X180481314Y-105017123D01*
X180481314Y-105017123D02*
X180433695Y-105112361D01*
X180433695Y-105112361D02*
X180338457Y-105207600D01*
X180338457Y-105207600D02*
X180195600Y-105255219D01*
X180195600Y-105255219D02*
X179957505Y-105255219D01*
X181481314Y-105255219D02*
X180909886Y-105255219D01*
X181195600Y-105255219D02*
X181195600Y-104255219D01*
X181195600Y-104255219D02*
X181100362Y-104398076D01*
X181100362Y-104398076D02*
X181005124Y-104493314D01*
X181005124Y-104493314D02*
X180909886Y-104540933D01*
X175396705Y-104260819D02*
X175396705Y-103260819D01*
X175396705Y-103260819D02*
X175634800Y-103260819D01*
X175634800Y-103260819D02*
X175777657Y-103308438D01*
X175777657Y-103308438D02*
X175872895Y-103403676D01*
X175872895Y-103403676D02*
X175920514Y-103498914D01*
X175920514Y-103498914D02*
X175968133Y-103689390D01*
X175968133Y-103689390D02*
X175968133Y-103832247D01*
X175968133Y-103832247D02*
X175920514Y-104022723D01*
X175920514Y-104022723D02*
X175872895Y-104117961D01*
X175872895Y-104117961D02*
X175777657Y-104213200D01*
X175777657Y-104213200D02*
X175634800Y-104260819D01*
X175634800Y-104260819D02*
X175396705Y-104260819D01*
X176825276Y-103594152D02*
X176825276Y-104260819D01*
X176587181Y-103213200D02*
X176349086Y-103927485D01*
X176349086Y-103927485D02*
X176968133Y-103927485D01*
X183079133Y-86713219D02*
X182745800Y-86237028D01*
X182507705Y-86713219D02*
X182507705Y-85713219D01*
X182507705Y-85713219D02*
X182888657Y-85713219D01*
X182888657Y-85713219D02*
X182983895Y-85760838D01*
X182983895Y-85760838D02*
X183031514Y-85808457D01*
X183031514Y-85808457D02*
X183079133Y-85903695D01*
X183079133Y-85903695D02*
X183079133Y-86046552D01*
X183079133Y-86046552D02*
X183031514Y-86141790D01*
X183031514Y-86141790D02*
X182983895Y-86189409D01*
X182983895Y-86189409D02*
X182888657Y-86237028D01*
X182888657Y-86237028D02*
X182507705Y-86237028D01*
X183983895Y-85713219D02*
X183507705Y-85713219D01*
X183507705Y-85713219D02*
X183460086Y-86189409D01*
X183460086Y-86189409D02*
X183507705Y-86141790D01*
X183507705Y-86141790D02*
X183602943Y-86094171D01*
X183602943Y-86094171D02*
X183841038Y-86094171D01*
X183841038Y-86094171D02*
X183936276Y-86141790D01*
X183936276Y-86141790D02*
X183983895Y-86189409D01*
X183983895Y-86189409D02*
X184031514Y-86284647D01*
X184031514Y-86284647D02*
X184031514Y-86522742D01*
X184031514Y-86522742D02*
X183983895Y-86617980D01*
X183983895Y-86617980D02*
X183936276Y-86665600D01*
X183936276Y-86665600D02*
X183841038Y-86713219D01*
X183841038Y-86713219D02*
X183602943Y-86713219D01*
X183602943Y-86713219D02*
X183507705Y-86665600D01*
X183507705Y-86665600D02*
X183460086Y-86617980D01*
X175413333Y-87427180D02*
X175365714Y-87474800D01*
X175365714Y-87474800D02*
X175222857Y-87522419D01*
X175222857Y-87522419D02*
X175127619Y-87522419D01*
X175127619Y-87522419D02*
X174984762Y-87474800D01*
X174984762Y-87474800D02*
X174889524Y-87379561D01*
X174889524Y-87379561D02*
X174841905Y-87284323D01*
X174841905Y-87284323D02*
X174794286Y-87093847D01*
X174794286Y-87093847D02*
X174794286Y-86950990D01*
X174794286Y-86950990D02*
X174841905Y-86760514D01*
X174841905Y-86760514D02*
X174889524Y-86665276D01*
X174889524Y-86665276D02*
X174984762Y-86570038D01*
X174984762Y-86570038D02*
X175127619Y-86522419D01*
X175127619Y-86522419D02*
X175222857Y-86522419D01*
X175222857Y-86522419D02*
X175365714Y-86570038D01*
X175365714Y-86570038D02*
X175413333Y-86617657D01*
X176318095Y-86522419D02*
X175841905Y-86522419D01*
X175841905Y-86522419D02*
X175794286Y-86998609D01*
X175794286Y-86998609D02*
X175841905Y-86950990D01*
X175841905Y-86950990D02*
X175937143Y-86903371D01*
X175937143Y-86903371D02*
X176175238Y-86903371D01*
X176175238Y-86903371D02*
X176270476Y-86950990D01*
X176270476Y-86950990D02*
X176318095Y-86998609D01*
X176318095Y-86998609D02*
X176365714Y-87093847D01*
X176365714Y-87093847D02*
X176365714Y-87331942D01*
X176365714Y-87331942D02*
X176318095Y-87427180D01*
X176318095Y-87427180D02*
X176270476Y-87474800D01*
X176270476Y-87474800D02*
X176175238Y-87522419D01*
X176175238Y-87522419D02*
X175937143Y-87522419D01*
X175937143Y-87522419D02*
X175841905Y-87474800D01*
X175841905Y-87474800D02*
X175794286Y-87427180D01*
X175975180Y-108472266D02*
X176022800Y-108519885D01*
X176022800Y-108519885D02*
X176070419Y-108662742D01*
X176070419Y-108662742D02*
X176070419Y-108757980D01*
X176070419Y-108757980D02*
X176022800Y-108900837D01*
X176022800Y-108900837D02*
X175927561Y-108996075D01*
X175927561Y-108996075D02*
X175832323Y-109043694D01*
X175832323Y-109043694D02*
X175641847Y-109091313D01*
X175641847Y-109091313D02*
X175498990Y-109091313D01*
X175498990Y-109091313D02*
X175308514Y-109043694D01*
X175308514Y-109043694D02*
X175213276Y-108996075D01*
X175213276Y-108996075D02*
X175118038Y-108900837D01*
X175118038Y-108900837D02*
X175070419Y-108757980D01*
X175070419Y-108757980D02*
X175070419Y-108662742D01*
X175070419Y-108662742D02*
X175118038Y-108519885D01*
X175118038Y-108519885D02*
X175165657Y-108472266D01*
X175403752Y-107615123D02*
X176070419Y-107615123D01*
X175022800Y-107853218D02*
X175737085Y-108091313D01*
X175737085Y-108091313D02*
X175737085Y-107472266D01*
X183079133Y-80728780D02*
X183031514Y-80776400D01*
X183031514Y-80776400D02*
X182888657Y-80824019D01*
X182888657Y-80824019D02*
X182793419Y-80824019D01*
X182793419Y-80824019D02*
X182650562Y-80776400D01*
X182650562Y-80776400D02*
X182555324Y-80681161D01*
X182555324Y-80681161D02*
X182507705Y-80585923D01*
X182507705Y-80585923D02*
X182460086Y-80395447D01*
X182460086Y-80395447D02*
X182460086Y-80252590D01*
X182460086Y-80252590D02*
X182507705Y-80062114D01*
X182507705Y-80062114D02*
X182555324Y-79966876D01*
X182555324Y-79966876D02*
X182650562Y-79871638D01*
X182650562Y-79871638D02*
X182793419Y-79824019D01*
X182793419Y-79824019D02*
X182888657Y-79824019D01*
X182888657Y-79824019D02*
X183031514Y-79871638D01*
X183031514Y-79871638D02*
X183079133Y-79919257D01*
X183460086Y-79919257D02*
X183507705Y-79871638D01*
X183507705Y-79871638D02*
X183602943Y-79824019D01*
X183602943Y-79824019D02*
X183841038Y-79824019D01*
X183841038Y-79824019D02*
X183936276Y-79871638D01*
X183936276Y-79871638D02*
X183983895Y-79919257D01*
X183983895Y-79919257D02*
X184031514Y-80014495D01*
X184031514Y-80014495D02*
X184031514Y-80109733D01*
X184031514Y-80109733D02*
X183983895Y-80252590D01*
X183983895Y-80252590D02*
X183412467Y-80824019D01*
X183412467Y-80824019D02*
X184031514Y-80824019D01*
X183089333Y-82093180D02*
X183041714Y-82140800D01*
X183041714Y-82140800D02*
X182898857Y-82188419D01*
X182898857Y-82188419D02*
X182803619Y-82188419D01*
X182803619Y-82188419D02*
X182660762Y-82140800D01*
X182660762Y-82140800D02*
X182565524Y-82045561D01*
X182565524Y-82045561D02*
X182517905Y-81950323D01*
X182517905Y-81950323D02*
X182470286Y-81759847D01*
X182470286Y-81759847D02*
X182470286Y-81616990D01*
X182470286Y-81616990D02*
X182517905Y-81426514D01*
X182517905Y-81426514D02*
X182565524Y-81331276D01*
X182565524Y-81331276D02*
X182660762Y-81236038D01*
X182660762Y-81236038D02*
X182803619Y-81188419D01*
X182803619Y-81188419D02*
X182898857Y-81188419D01*
X182898857Y-81188419D02*
X183041714Y-81236038D01*
X183041714Y-81236038D02*
X183089333Y-81283657D01*
X184041714Y-82188419D02*
X183470286Y-82188419D01*
X183756000Y-82188419D02*
X183756000Y-81188419D01*
X183756000Y-81188419D02*
X183660762Y-81331276D01*
X183660762Y-81331276D02*
X183565524Y-81426514D01*
X183565524Y-81426514D02*
X183470286Y-81474133D01*
X201003233Y-91972019D02*
X200669900Y-91495828D01*
X200431805Y-91972019D02*
X200431805Y-90972019D01*
X200431805Y-90972019D02*
X200812757Y-90972019D01*
X200812757Y-90972019D02*
X200907995Y-91019638D01*
X200907995Y-91019638D02*
X200955614Y-91067257D01*
X200955614Y-91067257D02*
X201003233Y-91162495D01*
X201003233Y-91162495D02*
X201003233Y-91305352D01*
X201003233Y-91305352D02*
X200955614Y-91400590D01*
X200955614Y-91400590D02*
X200907995Y-91448209D01*
X200907995Y-91448209D02*
X200812757Y-91495828D01*
X200812757Y-91495828D02*
X200431805Y-91495828D01*
X201336567Y-90972019D02*
X202003233Y-90972019D01*
X202003233Y-90972019D02*
X201574662Y-91972019D01*
X186209742Y-86617980D02*
X186162123Y-86665600D01*
X186162123Y-86665600D02*
X186019266Y-86713219D01*
X186019266Y-86713219D02*
X185924028Y-86713219D01*
X185924028Y-86713219D02*
X185781171Y-86665600D01*
X185781171Y-86665600D02*
X185685933Y-86570361D01*
X185685933Y-86570361D02*
X185638314Y-86475123D01*
X185638314Y-86475123D02*
X185590695Y-86284647D01*
X185590695Y-86284647D02*
X185590695Y-86141790D01*
X185590695Y-86141790D02*
X185638314Y-85951314D01*
X185638314Y-85951314D02*
X185685933Y-85856076D01*
X185685933Y-85856076D02*
X185781171Y-85760838D01*
X185781171Y-85760838D02*
X185924028Y-85713219D01*
X185924028Y-85713219D02*
X186019266Y-85713219D01*
X186019266Y-85713219D02*
X186162123Y-85760838D01*
X186162123Y-85760838D02*
X186209742Y-85808457D01*
X187162123Y-86713219D02*
X186590695Y-86713219D01*
X186876409Y-86713219D02*
X186876409Y-85713219D01*
X186876409Y-85713219D02*
X186781171Y-85856076D01*
X186781171Y-85856076D02*
X186685933Y-85951314D01*
X186685933Y-85951314D02*
X186590695Y-85998933D01*
X187781171Y-85713219D02*
X187876409Y-85713219D01*
X187876409Y-85713219D02*
X187971647Y-85760838D01*
X187971647Y-85760838D02*
X188019266Y-85808457D01*
X188019266Y-85808457D02*
X188066885Y-85903695D01*
X188066885Y-85903695D02*
X188114504Y-86094171D01*
X188114504Y-86094171D02*
X188114504Y-86332266D01*
X188114504Y-86332266D02*
X188066885Y-86522742D01*
X188066885Y-86522742D02*
X188019266Y-86617980D01*
X188019266Y-86617980D02*
X187971647Y-86665600D01*
X187971647Y-86665600D02*
X187876409Y-86713219D01*
X187876409Y-86713219D02*
X187781171Y-86713219D01*
X187781171Y-86713219D02*
X187685933Y-86665600D01*
X187685933Y-86665600D02*
X187638314Y-86617980D01*
X187638314Y-86617980D02*
X187590695Y-86522742D01*
X187590695Y-86522742D02*
X187543076Y-86332266D01*
X187543076Y-86332266D02*
X187543076Y-86094171D01*
X187543076Y-86094171D02*
X187590695Y-85903695D01*
X187590695Y-85903695D02*
X187638314Y-85808457D01*
X187638314Y-85808457D02*
X187685933Y-85760838D01*
X187685933Y-85760838D02*
X187781171Y-85713219D01*
X175413333Y-90779980D02*
X175365714Y-90827600D01*
X175365714Y-90827600D02*
X175222857Y-90875219D01*
X175222857Y-90875219D02*
X175127619Y-90875219D01*
X175127619Y-90875219D02*
X174984762Y-90827600D01*
X174984762Y-90827600D02*
X174889524Y-90732361D01*
X174889524Y-90732361D02*
X174841905Y-90637123D01*
X174841905Y-90637123D02*
X174794286Y-90446647D01*
X174794286Y-90446647D02*
X174794286Y-90303790D01*
X174794286Y-90303790D02*
X174841905Y-90113314D01*
X174841905Y-90113314D02*
X174889524Y-90018076D01*
X174889524Y-90018076D02*
X174984762Y-89922838D01*
X174984762Y-89922838D02*
X175127619Y-89875219D01*
X175127619Y-89875219D02*
X175222857Y-89875219D01*
X175222857Y-89875219D02*
X175365714Y-89922838D01*
X175365714Y-89922838D02*
X175413333Y-89970457D01*
X176270476Y-89875219D02*
X176080000Y-89875219D01*
X176080000Y-89875219D02*
X175984762Y-89922838D01*
X175984762Y-89922838D02*
X175937143Y-89970457D01*
X175937143Y-89970457D02*
X175841905Y-90113314D01*
X175841905Y-90113314D02*
X175794286Y-90303790D01*
X175794286Y-90303790D02*
X175794286Y-90684742D01*
X175794286Y-90684742D02*
X175841905Y-90779980D01*
X175841905Y-90779980D02*
X175889524Y-90827600D01*
X175889524Y-90827600D02*
X175984762Y-90875219D01*
X175984762Y-90875219D02*
X176175238Y-90875219D01*
X176175238Y-90875219D02*
X176270476Y-90827600D01*
X176270476Y-90827600D02*
X176318095Y-90779980D01*
X176318095Y-90779980D02*
X176365714Y-90684742D01*
X176365714Y-90684742D02*
X176365714Y-90446647D01*
X176365714Y-90446647D02*
X176318095Y-90351409D01*
X176318095Y-90351409D02*
X176270476Y-90303790D01*
X176270476Y-90303790D02*
X176175238Y-90256171D01*
X176175238Y-90256171D02*
X175984762Y-90256171D01*
X175984762Y-90256171D02*
X175889524Y-90303790D01*
X175889524Y-90303790D02*
X175841905Y-90351409D01*
X175841905Y-90351409D02*
X175794286Y-90446647D01*
X186260542Y-82093180D02*
X186212923Y-82140800D01*
X186212923Y-82140800D02*
X186070066Y-82188419D01*
X186070066Y-82188419D02*
X185974828Y-82188419D01*
X185974828Y-82188419D02*
X185831971Y-82140800D01*
X185831971Y-82140800D02*
X185736733Y-82045561D01*
X185736733Y-82045561D02*
X185689114Y-81950323D01*
X185689114Y-81950323D02*
X185641495Y-81759847D01*
X185641495Y-81759847D02*
X185641495Y-81616990D01*
X185641495Y-81616990D02*
X185689114Y-81426514D01*
X185689114Y-81426514D02*
X185736733Y-81331276D01*
X185736733Y-81331276D02*
X185831971Y-81236038D01*
X185831971Y-81236038D02*
X185974828Y-81188419D01*
X185974828Y-81188419D02*
X186070066Y-81188419D01*
X186070066Y-81188419D02*
X186212923Y-81236038D01*
X186212923Y-81236038D02*
X186260542Y-81283657D01*
X187212923Y-82188419D02*
X186641495Y-82188419D01*
X186927209Y-82188419D02*
X186927209Y-81188419D01*
X186927209Y-81188419D02*
X186831971Y-81331276D01*
X186831971Y-81331276D02*
X186736733Y-81426514D01*
X186736733Y-81426514D02*
X186641495Y-81474133D01*
X188165304Y-82188419D02*
X187593876Y-82188419D01*
X187879590Y-82188419D02*
X187879590Y-81188419D01*
X187879590Y-81188419D02*
X187784352Y-81331276D01*
X187784352Y-81331276D02*
X187689114Y-81426514D01*
X187689114Y-81426514D02*
X187593876Y-81474133D01*
X201003233Y-86892019D02*
X200669900Y-86415828D01*
X200431805Y-86892019D02*
X200431805Y-85892019D01*
X200431805Y-85892019D02*
X200812757Y-85892019D01*
X200812757Y-85892019D02*
X200907995Y-85939638D01*
X200907995Y-85939638D02*
X200955614Y-85987257D01*
X200955614Y-85987257D02*
X201003233Y-86082495D01*
X201003233Y-86082495D02*
X201003233Y-86225352D01*
X201003233Y-86225352D02*
X200955614Y-86320590D01*
X200955614Y-86320590D02*
X200907995Y-86368209D01*
X200907995Y-86368209D02*
X200812757Y-86415828D01*
X200812757Y-86415828D02*
X200431805Y-86415828D01*
X201860376Y-85892019D02*
X201669900Y-85892019D01*
X201669900Y-85892019D02*
X201574662Y-85939638D01*
X201574662Y-85939638D02*
X201527043Y-85987257D01*
X201527043Y-85987257D02*
X201431805Y-86130114D01*
X201431805Y-86130114D02*
X201384186Y-86320590D01*
X201384186Y-86320590D02*
X201384186Y-86701542D01*
X201384186Y-86701542D02*
X201431805Y-86796780D01*
X201431805Y-86796780D02*
X201479424Y-86844400D01*
X201479424Y-86844400D02*
X201574662Y-86892019D01*
X201574662Y-86892019D02*
X201765138Y-86892019D01*
X201765138Y-86892019D02*
X201860376Y-86844400D01*
X201860376Y-86844400D02*
X201907995Y-86796780D01*
X201907995Y-86796780D02*
X201955614Y-86701542D01*
X201955614Y-86701542D02*
X201955614Y-86463447D01*
X201955614Y-86463447D02*
X201907995Y-86368209D01*
X201907995Y-86368209D02*
X201860376Y-86320590D01*
X201860376Y-86320590D02*
X201765138Y-86272971D01*
X201765138Y-86272971D02*
X201574662Y-86272971D01*
X201574662Y-86272971D02*
X201479424Y-86320590D01*
X201479424Y-86320590D02*
X201431805Y-86368209D01*
X201431805Y-86368209D02*
X201384186Y-86463447D01*
X173518533Y-80542019D02*
X173185200Y-80065828D01*
X172947105Y-80542019D02*
X172947105Y-79542019D01*
X172947105Y-79542019D02*
X173328057Y-79542019D01*
X173328057Y-79542019D02*
X173423295Y-79589638D01*
X173423295Y-79589638D02*
X173470914Y-79637257D01*
X173470914Y-79637257D02*
X173518533Y-79732495D01*
X173518533Y-79732495D02*
X173518533Y-79875352D01*
X173518533Y-79875352D02*
X173470914Y-79970590D01*
X173470914Y-79970590D02*
X173423295Y-80018209D01*
X173423295Y-80018209D02*
X173328057Y-80065828D01*
X173328057Y-80065828D02*
X172947105Y-80065828D01*
X174375676Y-79875352D02*
X174375676Y-80542019D01*
X174137581Y-79494400D02*
X173899486Y-80208685D01*
X173899486Y-80208685D02*
X174518533Y-80208685D01*
X168808495Y-93638019D02*
X168808495Y-94447542D01*
X168808495Y-94447542D02*
X168856114Y-94542780D01*
X168856114Y-94542780D02*
X168903733Y-94590400D01*
X168903733Y-94590400D02*
X168998971Y-94638019D01*
X168998971Y-94638019D02*
X169189447Y-94638019D01*
X169189447Y-94638019D02*
X169284685Y-94590400D01*
X169284685Y-94590400D02*
X169332304Y-94542780D01*
X169332304Y-94542780D02*
X169379923Y-94447542D01*
X169379923Y-94447542D02*
X169379923Y-93638019D01*
X170284685Y-93971352D02*
X170284685Y-94638019D01*
X170046590Y-93590400D02*
X169808495Y-94304685D01*
X169808495Y-94304685D02*
X170427542Y-94304685D01*
X166290666Y-76162819D02*
X166290666Y-76877104D01*
X166290666Y-76877104D02*
X166243047Y-77019961D01*
X166243047Y-77019961D02*
X166147809Y-77115200D01*
X166147809Y-77115200D02*
X166004952Y-77162819D01*
X166004952Y-77162819D02*
X165909714Y-77162819D01*
X166719238Y-76258057D02*
X166766857Y-76210438D01*
X166766857Y-76210438D02*
X166862095Y-76162819D01*
X166862095Y-76162819D02*
X167100190Y-76162819D01*
X167100190Y-76162819D02*
X167195428Y-76210438D01*
X167195428Y-76210438D02*
X167243047Y-76258057D01*
X167243047Y-76258057D02*
X167290666Y-76353295D01*
X167290666Y-76353295D02*
X167290666Y-76448533D01*
X167290666Y-76448533D02*
X167243047Y-76591390D01*
X167243047Y-76591390D02*
X166671619Y-77162819D01*
X166671619Y-77162819D02*
X167290666Y-77162819D01*
X177620705Y-103194019D02*
X177620705Y-102194019D01*
X177620705Y-102194019D02*
X177858800Y-102194019D01*
X177858800Y-102194019D02*
X178001657Y-102241638D01*
X178001657Y-102241638D02*
X178096895Y-102336876D01*
X178096895Y-102336876D02*
X178144514Y-102432114D01*
X178144514Y-102432114D02*
X178192133Y-102622590D01*
X178192133Y-102622590D02*
X178192133Y-102765447D01*
X178192133Y-102765447D02*
X178144514Y-102955923D01*
X178144514Y-102955923D02*
X178096895Y-103051161D01*
X178096895Y-103051161D02*
X178001657Y-103146400D01*
X178001657Y-103146400D02*
X177858800Y-103194019D01*
X177858800Y-103194019D02*
X177620705Y-103194019D01*
X178525467Y-102194019D02*
X179144514Y-102194019D01*
X179144514Y-102194019D02*
X178811181Y-102574971D01*
X178811181Y-102574971D02*
X178954038Y-102574971D01*
X178954038Y-102574971D02*
X179049276Y-102622590D01*
X179049276Y-102622590D02*
X179096895Y-102670209D01*
X179096895Y-102670209D02*
X179144514Y-102765447D01*
X179144514Y-102765447D02*
X179144514Y-103003542D01*
X179144514Y-103003542D02*
X179096895Y-103098780D01*
X179096895Y-103098780D02*
X179049276Y-103146400D01*
X179049276Y-103146400D02*
X178954038Y-103194019D01*
X178954038Y-103194019D02*
X178668324Y-103194019D01*
X178668324Y-103194019D02*
X178573086Y-103146400D01*
X178573086Y-103146400D02*
X178525467Y-103098780D01*
X175311733Y-97438380D02*
X175264114Y-97486000D01*
X175264114Y-97486000D02*
X175121257Y-97533619D01*
X175121257Y-97533619D02*
X175026019Y-97533619D01*
X175026019Y-97533619D02*
X174883162Y-97486000D01*
X174883162Y-97486000D02*
X174787924Y-97390761D01*
X174787924Y-97390761D02*
X174740305Y-97295523D01*
X174740305Y-97295523D02*
X174692686Y-97105047D01*
X174692686Y-97105047D02*
X174692686Y-96962190D01*
X174692686Y-96962190D02*
X174740305Y-96771714D01*
X174740305Y-96771714D02*
X174787924Y-96676476D01*
X174787924Y-96676476D02*
X174883162Y-96581238D01*
X174883162Y-96581238D02*
X175026019Y-96533619D01*
X175026019Y-96533619D02*
X175121257Y-96533619D01*
X175121257Y-96533619D02*
X175264114Y-96581238D01*
X175264114Y-96581238D02*
X175311733Y-96628857D01*
X175883162Y-96962190D02*
X175787924Y-96914571D01*
X175787924Y-96914571D02*
X175740305Y-96866952D01*
X175740305Y-96866952D02*
X175692686Y-96771714D01*
X175692686Y-96771714D02*
X175692686Y-96724095D01*
X175692686Y-96724095D02*
X175740305Y-96628857D01*
X175740305Y-96628857D02*
X175787924Y-96581238D01*
X175787924Y-96581238D02*
X175883162Y-96533619D01*
X175883162Y-96533619D02*
X176073638Y-96533619D01*
X176073638Y-96533619D02*
X176168876Y-96581238D01*
X176168876Y-96581238D02*
X176216495Y-96628857D01*
X176216495Y-96628857D02*
X176264114Y-96724095D01*
X176264114Y-96724095D02*
X176264114Y-96771714D01*
X176264114Y-96771714D02*
X176216495Y-96866952D01*
X176216495Y-96866952D02*
X176168876Y-96914571D01*
X176168876Y-96914571D02*
X176073638Y-96962190D01*
X176073638Y-96962190D02*
X175883162Y-96962190D01*
X175883162Y-96962190D02*
X175787924Y-97009809D01*
X175787924Y-97009809D02*
X175740305Y-97057428D01*
X175740305Y-97057428D02*
X175692686Y-97152666D01*
X175692686Y-97152666D02*
X175692686Y-97343142D01*
X175692686Y-97343142D02*
X175740305Y-97438380D01*
X175740305Y-97438380D02*
X175787924Y-97486000D01*
X175787924Y-97486000D02*
X175883162Y-97533619D01*
X175883162Y-97533619D02*
X176073638Y-97533619D01*
X176073638Y-97533619D02*
X176168876Y-97486000D01*
X176168876Y-97486000D02*
X176216495Y-97438380D01*
X176216495Y-97438380D02*
X176264114Y-97343142D01*
X176264114Y-97343142D02*
X176264114Y-97152666D01*
X176264114Y-97152666D02*
X176216495Y-97057428D01*
X176216495Y-97057428D02*
X176168876Y-97009809D01*
X176168876Y-97009809D02*
X176073638Y-96962190D01*
X175499733Y-94183580D02*
X175452114Y-94231200D01*
X175452114Y-94231200D02*
X175309257Y-94278819D01*
X175309257Y-94278819D02*
X175214019Y-94278819D01*
X175214019Y-94278819D02*
X175071162Y-94231200D01*
X175071162Y-94231200D02*
X174975924Y-94135961D01*
X174975924Y-94135961D02*
X174928305Y-94040723D01*
X174928305Y-94040723D02*
X174880686Y-93850247D01*
X174880686Y-93850247D02*
X174880686Y-93707390D01*
X174880686Y-93707390D02*
X174928305Y-93516914D01*
X174928305Y-93516914D02*
X174975924Y-93421676D01*
X174975924Y-93421676D02*
X175071162Y-93326438D01*
X175071162Y-93326438D02*
X175214019Y-93278819D01*
X175214019Y-93278819D02*
X175309257Y-93278819D01*
X175309257Y-93278819D02*
X175452114Y-93326438D01*
X175452114Y-93326438D02*
X175499733Y-93374057D01*
X175833067Y-93278819D02*
X176499733Y-93278819D01*
X176499733Y-93278819D02*
X176071162Y-94278819D01*
X175283905Y-102744419D02*
X175283905Y-101744419D01*
X175283905Y-101744419D02*
X175522000Y-101744419D01*
X175522000Y-101744419D02*
X175664857Y-101792038D01*
X175664857Y-101792038D02*
X175760095Y-101887276D01*
X175760095Y-101887276D02*
X175807714Y-101982514D01*
X175807714Y-101982514D02*
X175855333Y-102172990D01*
X175855333Y-102172990D02*
X175855333Y-102315847D01*
X175855333Y-102315847D02*
X175807714Y-102506323D01*
X175807714Y-102506323D02*
X175760095Y-102601561D01*
X175760095Y-102601561D02*
X175664857Y-102696800D01*
X175664857Y-102696800D02*
X175522000Y-102744419D01*
X175522000Y-102744419D02*
X175283905Y-102744419D01*
X176236286Y-101839657D02*
X176283905Y-101792038D01*
X176283905Y-101792038D02*
X176379143Y-101744419D01*
X176379143Y-101744419D02*
X176617238Y-101744419D01*
X176617238Y-101744419D02*
X176712476Y-101792038D01*
X176712476Y-101792038D02*
X176760095Y-101839657D01*
X176760095Y-101839657D02*
X176807714Y-101934895D01*
X176807714Y-101934895D02*
X176807714Y-102030133D01*
X176807714Y-102030133D02*
X176760095Y-102172990D01*
X176760095Y-102172990D02*
X176188667Y-102744419D01*
X176188667Y-102744419D02*
X176807714Y-102744419D01*
X167480405Y-80617219D02*
X167480405Y-79617219D01*
X167480405Y-79617219D02*
X167718500Y-79617219D01*
X167718500Y-79617219D02*
X167861357Y-79664838D01*
X167861357Y-79664838D02*
X167956595Y-79760076D01*
X167956595Y-79760076D02*
X168004214Y-79855314D01*
X168004214Y-79855314D02*
X168051833Y-80045790D01*
X168051833Y-80045790D02*
X168051833Y-80188647D01*
X168051833Y-80188647D02*
X168004214Y-80379123D01*
X168004214Y-80379123D02*
X167956595Y-80474361D01*
X167956595Y-80474361D02*
X167861357Y-80569600D01*
X167861357Y-80569600D02*
X167718500Y-80617219D01*
X167718500Y-80617219D02*
X167480405Y-80617219D01*
X168908976Y-79617219D02*
X168718500Y-79617219D01*
X168718500Y-79617219D02*
X168623262Y-79664838D01*
X168623262Y-79664838D02*
X168575643Y-79712457D01*
X168575643Y-79712457D02*
X168480405Y-79855314D01*
X168480405Y-79855314D02*
X168432786Y-80045790D01*
X168432786Y-80045790D02*
X168432786Y-80426742D01*
X168432786Y-80426742D02*
X168480405Y-80521980D01*
X168480405Y-80521980D02*
X168528024Y-80569600D01*
X168528024Y-80569600D02*
X168623262Y-80617219D01*
X168623262Y-80617219D02*
X168813738Y-80617219D01*
X168813738Y-80617219D02*
X168908976Y-80569600D01*
X168908976Y-80569600D02*
X168956595Y-80521980D01*
X168956595Y-80521980D02*
X169004214Y-80426742D01*
X169004214Y-80426742D02*
X169004214Y-80188647D01*
X169004214Y-80188647D02*
X168956595Y-80093409D01*
X168956595Y-80093409D02*
X168908976Y-80045790D01*
X168908976Y-80045790D02*
X168813738Y-79998171D01*
X168813738Y-79998171D02*
X168623262Y-79998171D01*
X168623262Y-79998171D02*
X168528024Y-80045790D01*
X168528024Y-80045790D02*
X168480405Y-80093409D01*
X168480405Y-80093409D02*
X168432786Y-80188647D01*
X195232295Y-98232419D02*
X195232295Y-99041942D01*
X195232295Y-99041942D02*
X195279914Y-99137180D01*
X195279914Y-99137180D02*
X195327533Y-99184800D01*
X195327533Y-99184800D02*
X195422771Y-99232419D01*
X195422771Y-99232419D02*
X195613247Y-99232419D01*
X195613247Y-99232419D02*
X195708485Y-99184800D01*
X195708485Y-99184800D02*
X195756104Y-99137180D01*
X195756104Y-99137180D02*
X195803723Y-99041942D01*
X195803723Y-99041942D02*
X195803723Y-98232419D01*
X196232295Y-98327657D02*
X196279914Y-98280038D01*
X196279914Y-98280038D02*
X196375152Y-98232419D01*
X196375152Y-98232419D02*
X196613247Y-98232419D01*
X196613247Y-98232419D02*
X196708485Y-98280038D01*
X196708485Y-98280038D02*
X196756104Y-98327657D01*
X196756104Y-98327657D02*
X196803723Y-98422895D01*
X196803723Y-98422895D02*
X196803723Y-98518133D01*
X196803723Y-98518133D02*
X196756104Y-98660990D01*
X196756104Y-98660990D02*
X196184676Y-99232419D01*
X196184676Y-99232419D02*
X196803723Y-99232419D01*
X195415233Y-86892019D02*
X195081900Y-86415828D01*
X194843805Y-86892019D02*
X194843805Y-85892019D01*
X194843805Y-85892019D02*
X195224757Y-85892019D01*
X195224757Y-85892019D02*
X195319995Y-85939638D01*
X195319995Y-85939638D02*
X195367614Y-85987257D01*
X195367614Y-85987257D02*
X195415233Y-86082495D01*
X195415233Y-86082495D02*
X195415233Y-86225352D01*
X195415233Y-86225352D02*
X195367614Y-86320590D01*
X195367614Y-86320590D02*
X195319995Y-86368209D01*
X195319995Y-86368209D02*
X195224757Y-86415828D01*
X195224757Y-86415828D02*
X194843805Y-86415828D01*
X196367614Y-86892019D02*
X195796186Y-86892019D01*
X196081900Y-86892019D02*
X196081900Y-85892019D01*
X196081900Y-85892019D02*
X195986662Y-86034876D01*
X195986662Y-86034876D02*
X195891424Y-86130114D01*
X195891424Y-86130114D02*
X195796186Y-86177733D01*
X186155105Y-96568419D02*
X186155105Y-95568419D01*
X186155105Y-95568419D02*
X186393200Y-95568419D01*
X186393200Y-95568419D02*
X186536057Y-95616038D01*
X186536057Y-95616038D02*
X186631295Y-95711276D01*
X186631295Y-95711276D02*
X186678914Y-95806514D01*
X186678914Y-95806514D02*
X186726533Y-95996990D01*
X186726533Y-95996990D02*
X186726533Y-96139847D01*
X186726533Y-96139847D02*
X186678914Y-96330323D01*
X186678914Y-96330323D02*
X186631295Y-96425561D01*
X186631295Y-96425561D02*
X186536057Y-96520800D01*
X186536057Y-96520800D02*
X186393200Y-96568419D01*
X186393200Y-96568419D02*
X186155105Y-96568419D01*
X187631295Y-95568419D02*
X187155105Y-95568419D01*
X187155105Y-95568419D02*
X187107486Y-96044609D01*
X187107486Y-96044609D02*
X187155105Y-95996990D01*
X187155105Y-95996990D02*
X187250343Y-95949371D01*
X187250343Y-95949371D02*
X187488438Y-95949371D01*
X187488438Y-95949371D02*
X187583676Y-95996990D01*
X187583676Y-95996990D02*
X187631295Y-96044609D01*
X187631295Y-96044609D02*
X187678914Y-96139847D01*
X187678914Y-96139847D02*
X187678914Y-96377942D01*
X187678914Y-96377942D02*
X187631295Y-96473180D01*
X187631295Y-96473180D02*
X187583676Y-96520800D01*
X187583676Y-96520800D02*
X187488438Y-96568419D01*
X187488438Y-96568419D02*
X187250343Y-96568419D01*
X187250343Y-96568419D02*
X187155105Y-96520800D01*
X187155105Y-96520800D02*
X187107486Y-96473180D01*
X168764819Y-105538933D02*
X169479104Y-105538933D01*
X169479104Y-105538933D02*
X169621961Y-105586552D01*
X169621961Y-105586552D02*
X169717200Y-105681790D01*
X169717200Y-105681790D02*
X169764819Y-105824647D01*
X169764819Y-105824647D02*
X169764819Y-105919885D01*
X169764819Y-104538933D02*
X169764819Y-105110361D01*
X169764819Y-104824647D02*
X168764819Y-104824647D01*
X168764819Y-104824647D02*
X168907676Y-104919885D01*
X168907676Y-104919885D02*
X169002914Y-105015123D01*
X169002914Y-105015123D02*
X169050533Y-105110361D01*
X199694895Y-97905219D02*
X199694895Y-98714742D01*
X199694895Y-98714742D02*
X199742514Y-98809980D01*
X199742514Y-98809980D02*
X199790133Y-98857600D01*
X199790133Y-98857600D02*
X199885371Y-98905219D01*
X199885371Y-98905219D02*
X200075847Y-98905219D01*
X200075847Y-98905219D02*
X200171085Y-98857600D01*
X200171085Y-98857600D02*
X200218704Y-98809980D01*
X200218704Y-98809980D02*
X200266323Y-98714742D01*
X200266323Y-98714742D02*
X200266323Y-97905219D01*
X200647276Y-97905219D02*
X201266323Y-97905219D01*
X201266323Y-97905219D02*
X200932990Y-98286171D01*
X200932990Y-98286171D02*
X201075847Y-98286171D01*
X201075847Y-98286171D02*
X201171085Y-98333790D01*
X201171085Y-98333790D02*
X201218704Y-98381409D01*
X201218704Y-98381409D02*
X201266323Y-98476647D01*
X201266323Y-98476647D02*
X201266323Y-98714742D01*
X201266323Y-98714742D02*
X201218704Y-98809980D01*
X201218704Y-98809980D02*
X201171085Y-98857600D01*
X201171085Y-98857600D02*
X201075847Y-98905219D01*
X201075847Y-98905219D02*
X200790133Y-98905219D01*
X200790133Y-98905219D02*
X200694895Y-98857600D01*
X200694895Y-98857600D02*
X200647276Y-98809980D01*
X186685933Y-80728780D02*
X186638314Y-80776400D01*
X186638314Y-80776400D02*
X186495457Y-80824019D01*
X186495457Y-80824019D02*
X186400219Y-80824019D01*
X186400219Y-80824019D02*
X186257362Y-80776400D01*
X186257362Y-80776400D02*
X186162124Y-80681161D01*
X186162124Y-80681161D02*
X186114505Y-80585923D01*
X186114505Y-80585923D02*
X186066886Y-80395447D01*
X186066886Y-80395447D02*
X186066886Y-80252590D01*
X186066886Y-80252590D02*
X186114505Y-80062114D01*
X186114505Y-80062114D02*
X186162124Y-79966876D01*
X186162124Y-79966876D02*
X186257362Y-79871638D01*
X186257362Y-79871638D02*
X186400219Y-79824019D01*
X186400219Y-79824019D02*
X186495457Y-79824019D01*
X186495457Y-79824019D02*
X186638314Y-79871638D01*
X186638314Y-79871638D02*
X186685933Y-79919257D01*
X187019267Y-79824019D02*
X187638314Y-79824019D01*
X187638314Y-79824019D02*
X187304981Y-80204971D01*
X187304981Y-80204971D02*
X187447838Y-80204971D01*
X187447838Y-80204971D02*
X187543076Y-80252590D01*
X187543076Y-80252590D02*
X187590695Y-80300209D01*
X187590695Y-80300209D02*
X187638314Y-80395447D01*
X187638314Y-80395447D02*
X187638314Y-80633542D01*
X187638314Y-80633542D02*
X187590695Y-80728780D01*
X187590695Y-80728780D02*
X187543076Y-80776400D01*
X187543076Y-80776400D02*
X187447838Y-80824019D01*
X187447838Y-80824019D02*
X187162124Y-80824019D01*
X187162124Y-80824019D02*
X187066886Y-80776400D01*
X187066886Y-80776400D02*
X187019267Y-80728780D01*
X195363467Y-70123800D02*
X195506324Y-70171419D01*
X195506324Y-70171419D02*
X195744419Y-70171419D01*
X195744419Y-70171419D02*
X195839657Y-70123800D01*
X195839657Y-70123800D02*
X195887276Y-70076180D01*
X195887276Y-70076180D02*
X195934895Y-69980942D01*
X195934895Y-69980942D02*
X195934895Y-69885704D01*
X195934895Y-69885704D02*
X195887276Y-69790466D01*
X195887276Y-69790466D02*
X195839657Y-69742847D01*
X195839657Y-69742847D02*
X195744419Y-69695228D01*
X195744419Y-69695228D02*
X195553943Y-69647609D01*
X195553943Y-69647609D02*
X195458705Y-69599990D01*
X195458705Y-69599990D02*
X195411086Y-69552371D01*
X195411086Y-69552371D02*
X195363467Y-69457133D01*
X195363467Y-69457133D02*
X195363467Y-69361895D01*
X195363467Y-69361895D02*
X195411086Y-69266657D01*
X195411086Y-69266657D02*
X195458705Y-69219038D01*
X195458705Y-69219038D02*
X195553943Y-69171419D01*
X195553943Y-69171419D02*
X195792038Y-69171419D01*
X195792038Y-69171419D02*
X195934895Y-69219038D01*
X196268229Y-69171419D02*
X196506324Y-70171419D01*
X196506324Y-70171419D02*
X196696800Y-69457133D01*
X196696800Y-69457133D02*
X196887276Y-70171419D01*
X196887276Y-70171419D02*
X197125372Y-69171419D01*
X197411086Y-69171419D02*
X198030133Y-69171419D01*
X198030133Y-69171419D02*
X197696800Y-69552371D01*
X197696800Y-69552371D02*
X197839657Y-69552371D01*
X197839657Y-69552371D02*
X197934895Y-69599990D01*
X197934895Y-69599990D02*
X197982514Y-69647609D01*
X197982514Y-69647609D02*
X198030133Y-69742847D01*
X198030133Y-69742847D02*
X198030133Y-69980942D01*
X198030133Y-69980942D02*
X197982514Y-70076180D01*
X197982514Y-70076180D02*
X197934895Y-70123800D01*
X197934895Y-70123800D02*
X197839657Y-70171419D01*
X197839657Y-70171419D02*
X197553943Y-70171419D01*
X197553943Y-70171419D02*
X197458705Y-70123800D01*
X197458705Y-70123800D02*
X197411086Y-70076180D01*
X195309467Y-77080600D02*
X195452324Y-77128219D01*
X195452324Y-77128219D02*
X195690419Y-77128219D01*
X195690419Y-77128219D02*
X195785657Y-77080600D01*
X195785657Y-77080600D02*
X195833276Y-77032980D01*
X195833276Y-77032980D02*
X195880895Y-76937742D01*
X195880895Y-76937742D02*
X195880895Y-76842504D01*
X195880895Y-76842504D02*
X195833276Y-76747266D01*
X195833276Y-76747266D02*
X195785657Y-76699647D01*
X195785657Y-76699647D02*
X195690419Y-76652028D01*
X195690419Y-76652028D02*
X195499943Y-76604409D01*
X195499943Y-76604409D02*
X195404705Y-76556790D01*
X195404705Y-76556790D02*
X195357086Y-76509171D01*
X195357086Y-76509171D02*
X195309467Y-76413933D01*
X195309467Y-76413933D02*
X195309467Y-76318695D01*
X195309467Y-76318695D02*
X195357086Y-76223457D01*
X195357086Y-76223457D02*
X195404705Y-76175838D01*
X195404705Y-76175838D02*
X195499943Y-76128219D01*
X195499943Y-76128219D02*
X195738038Y-76128219D01*
X195738038Y-76128219D02*
X195880895Y-76175838D01*
X196214229Y-76128219D02*
X196452324Y-77128219D01*
X196452324Y-77128219D02*
X196642800Y-76413933D01*
X196642800Y-76413933D02*
X196833276Y-77128219D01*
X196833276Y-77128219D02*
X197071372Y-76128219D01*
X197880895Y-76461552D02*
X197880895Y-77128219D01*
X197642800Y-76080600D02*
X197404705Y-76794885D01*
X197404705Y-76794885D02*
X198023752Y-76794885D01*
X195313467Y-63223800D02*
X195456324Y-63271419D01*
X195456324Y-63271419D02*
X195694419Y-63271419D01*
X195694419Y-63271419D02*
X195789657Y-63223800D01*
X195789657Y-63223800D02*
X195837276Y-63176180D01*
X195837276Y-63176180D02*
X195884895Y-63080942D01*
X195884895Y-63080942D02*
X195884895Y-62985704D01*
X195884895Y-62985704D02*
X195837276Y-62890466D01*
X195837276Y-62890466D02*
X195789657Y-62842847D01*
X195789657Y-62842847D02*
X195694419Y-62795228D01*
X195694419Y-62795228D02*
X195503943Y-62747609D01*
X195503943Y-62747609D02*
X195408705Y-62699990D01*
X195408705Y-62699990D02*
X195361086Y-62652371D01*
X195361086Y-62652371D02*
X195313467Y-62557133D01*
X195313467Y-62557133D02*
X195313467Y-62461895D01*
X195313467Y-62461895D02*
X195361086Y-62366657D01*
X195361086Y-62366657D02*
X195408705Y-62319038D01*
X195408705Y-62319038D02*
X195503943Y-62271419D01*
X195503943Y-62271419D02*
X195742038Y-62271419D01*
X195742038Y-62271419D02*
X195884895Y-62319038D01*
X196218229Y-62271419D02*
X196456324Y-63271419D01*
X196456324Y-63271419D02*
X196646800Y-62557133D01*
X196646800Y-62557133D02*
X196837276Y-63271419D01*
X196837276Y-63271419D02*
X197075372Y-62271419D01*
X197408705Y-62366657D02*
X197456324Y-62319038D01*
X197456324Y-62319038D02*
X197551562Y-62271419D01*
X197551562Y-62271419D02*
X197789657Y-62271419D01*
X197789657Y-62271419D02*
X197884895Y-62319038D01*
X197884895Y-62319038D02*
X197932514Y-62366657D01*
X197932514Y-62366657D02*
X197980133Y-62461895D01*
X197980133Y-62461895D02*
X197980133Y-62557133D01*
X197980133Y-62557133D02*
X197932514Y-62699990D01*
X197932514Y-62699990D02*
X197361086Y-63271419D01*
X197361086Y-63271419D02*
X197980133Y-63271419D01*
X195313467Y-56623800D02*
X195456324Y-56671419D01*
X195456324Y-56671419D02*
X195694419Y-56671419D01*
X195694419Y-56671419D02*
X195789657Y-56623800D01*
X195789657Y-56623800D02*
X195837276Y-56576180D01*
X195837276Y-56576180D02*
X195884895Y-56480942D01*
X195884895Y-56480942D02*
X195884895Y-56385704D01*
X195884895Y-56385704D02*
X195837276Y-56290466D01*
X195837276Y-56290466D02*
X195789657Y-56242847D01*
X195789657Y-56242847D02*
X195694419Y-56195228D01*
X195694419Y-56195228D02*
X195503943Y-56147609D01*
X195503943Y-56147609D02*
X195408705Y-56099990D01*
X195408705Y-56099990D02*
X195361086Y-56052371D01*
X195361086Y-56052371D02*
X195313467Y-55957133D01*
X195313467Y-55957133D02*
X195313467Y-55861895D01*
X195313467Y-55861895D02*
X195361086Y-55766657D01*
X195361086Y-55766657D02*
X195408705Y-55719038D01*
X195408705Y-55719038D02*
X195503943Y-55671419D01*
X195503943Y-55671419D02*
X195742038Y-55671419D01*
X195742038Y-55671419D02*
X195884895Y-55719038D01*
X196218229Y-55671419D02*
X196456324Y-56671419D01*
X196456324Y-56671419D02*
X196646800Y-55957133D01*
X196646800Y-55957133D02*
X196837276Y-56671419D01*
X196837276Y-56671419D02*
X197075372Y-55671419D01*
X197980133Y-56671419D02*
X197408705Y-56671419D01*
X197694419Y-56671419D02*
X197694419Y-55671419D01*
X197694419Y-55671419D02*
X197599181Y-55814276D01*
X197599181Y-55814276D02*
X197503943Y-55909514D01*
X197503943Y-55909514D02*
X197408705Y-55957133D01*
D11*
%TO.C,U6*%
X189226200Y-105656200D02*
X188866200Y-105656200D01*
X189226200Y-105296200D01*
X189226200Y-105656200D01*
G36*
X189226200Y-105656200D02*
G01*
X188866200Y-105656200D01*
X189226200Y-105296200D01*
X189226200Y-105656200D01*
G37*
X191926200Y-107856200D02*
X191926200Y-107216200D01*
X191926200Y-106296200D02*
X191926200Y-105656200D01*
X191776200Y-105656200D02*
X191926200Y-105656200D01*
X191776200Y-107856200D02*
X191926200Y-107856200D01*
X189226200Y-107856200D02*
X189376200Y-107856200D01*
X189226200Y-107856200D02*
X189226200Y-107216200D01*
X189226200Y-106296200D02*
X189226200Y-105856200D01*
D12*
%TO.C,U1*%
X166174600Y-51736800D02*
X165674600Y-51736800D01*
X166174600Y-51236800D01*
X166174600Y-51736800D01*
G36*
X166174600Y-51736800D02*
G01*
X165674600Y-51736800D01*
X166174600Y-51236800D01*
X166174600Y-51736800D01*
G37*
X184574600Y-70711800D02*
X184574600Y-69711800D01*
X184574600Y-70711800D02*
X183074600Y-70711800D01*
X184574600Y-44861800D02*
X184574600Y-51061800D01*
X166174600Y-70711800D02*
X167674600Y-70711800D01*
X166174600Y-69711800D02*
X166174600Y-70711800D01*
X166174600Y-44861800D02*
X184574600Y-44861800D01*
X166174600Y-44861800D02*
X166174600Y-51061800D01*
%TO.C,R3*%
X191085736Y-88822200D02*
X191539864Y-88822200D01*
X191085736Y-87352200D02*
X191539864Y-87352200D01*
%TO.C,R2*%
X195354836Y-93902200D02*
X195808964Y-93902200D01*
X195354836Y-92432200D02*
X195808964Y-92432200D01*
%TO.C,D1*%
X179797200Y-110056000D02*
X181797200Y-110056000D01*
X179797200Y-110056000D02*
X179797200Y-106046000D01*
X181797200Y-110056000D02*
X181797200Y-106046000D01*
%TO.C,D4*%
X175324800Y-104546000D02*
X175324800Y-105766000D01*
X175324800Y-104546000D02*
X176634800Y-104546000D01*
X175324800Y-105766000D02*
X176634800Y-105766000D01*
%TO.C,R5*%
X183039136Y-88466600D02*
X183493264Y-88466600D01*
X183039136Y-86996600D02*
X183493264Y-86996600D01*
%TO.C,C5*%
X175318748Y-88012600D02*
X175841252Y-88012600D01*
X175318748Y-89482600D02*
X175841252Y-89482600D01*
%TO.C,C4*%
X176430000Y-108526252D02*
X176430000Y-108003748D01*
X177900000Y-108526252D02*
X177900000Y-108003748D01*
%TO.C,C2*%
X183507052Y-77954200D02*
X182984548Y-77954200D01*
X183507052Y-79424200D02*
X182984548Y-79424200D01*
%TO.C,C1*%
X182994748Y-84148600D02*
X183517252Y-84148600D01*
X182994748Y-82678600D02*
X183517252Y-82678600D01*
%TO.C,R7*%
X200942836Y-93902200D02*
X201396964Y-93902200D01*
X200942836Y-92432200D02*
X201396964Y-92432200D01*
%TO.C,C10*%
X186677748Y-88517400D02*
X187200252Y-88517400D01*
X186677748Y-87047400D02*
X187200252Y-87047400D01*
%TO.C,C6*%
X175318748Y-91365400D02*
X175841252Y-91365400D01*
X175318748Y-92835400D02*
X175841252Y-92835400D01*
%TO.C,C11*%
X186642148Y-82678600D02*
X187164652Y-82678600D01*
X186642148Y-84148600D02*
X187164652Y-84148600D01*
%TO.C,R6*%
X200942836Y-87352200D02*
X201396964Y-87352200D01*
X200942836Y-88822200D02*
X201396964Y-88822200D01*
%TO.C,R4*%
X173458136Y-81002200D02*
X173912264Y-81002200D01*
X173458136Y-82472200D02*
X173912264Y-82472200D01*
%TO.C,U4*%
X166145200Y-96033200D02*
X166145200Y-92273200D01*
X172965200Y-96033200D02*
X172965200Y-92273200D01*
X166145200Y-92273200D02*
X167405200Y-92273200D01*
X172965200Y-92273200D02*
X171705200Y-92273200D01*
X166245200Y-97313200D02*
X165915200Y-97553200D01*
X165915200Y-97073200D01*
X166245200Y-97313200D01*
G36*
X166245200Y-97313200D02*
G01*
X165915200Y-97553200D01*
X165915200Y-97073200D01*
X166245200Y-97313200D01*
G37*
%TO.C,J2*%
X168610000Y-72788000D02*
X186500000Y-72788000D01*
X186500000Y-75548000D02*
X186500000Y-72788000D01*
X168610000Y-75548000D02*
X168610000Y-72788000D01*
X168610000Y-75548000D02*
X186500000Y-75548000D01*
X167340000Y-75548000D02*
X165960000Y-75548000D01*
X165960000Y-75548000D02*
X165960000Y-74168000D01*
%TO.C,D3*%
X177548800Y-103479200D02*
X177548800Y-104699200D01*
X177548800Y-103479200D02*
X178858800Y-103479200D01*
X177548800Y-104699200D02*
X178858800Y-104699200D01*
%TO.C,C8*%
X175333948Y-99287000D02*
X175856452Y-99287000D01*
X175333948Y-97817000D02*
X175856452Y-97817000D01*
%TO.C,C7*%
X175405148Y-96239000D02*
X175927652Y-96239000D01*
X175405148Y-94769000D02*
X175927652Y-94769000D01*
%TO.C,D2*%
X176832000Y-101549600D02*
X176832000Y-100329600D01*
X176832000Y-101549600D02*
X175522000Y-101549600D01*
X176832000Y-100329600D02*
X175522000Y-100329600D01*
%TO.C,D6*%
X166536900Y-80777200D02*
X166536900Y-82697200D01*
X166536900Y-82697200D02*
X169221900Y-82697200D01*
X169221900Y-80777200D02*
X166536900Y-80777200D01*
%TO.C,U2*%
D13*
X193319200Y-100717600D02*
G75*
G02*
X193119200Y-100717600I-100000J0D01*
G01*
X193119200Y-100717600D02*
G75*
G02*
X193319200Y-100717600I100000J0D01*
G01*
D14*
X194104200Y-105362600D02*
X196954200Y-105362600D01*
X194104200Y-100072600D02*
X196954200Y-100072600D01*
%TO.C,R1*%
D12*
X195354836Y-88822200D02*
X195808964Y-88822200D01*
X195354836Y-87352200D02*
X195808964Y-87352200D01*
%TO.C,D5*%
X190393200Y-98413600D02*
X190393200Y-93363600D01*
X189943200Y-98863600D02*
X190393200Y-98413600D01*
X189593200Y-97013600D02*
X189593200Y-95213600D01*
X184193200Y-97013600D02*
X184193200Y-95213600D01*
X183393200Y-98863600D02*
X189943200Y-98863600D01*
X183393200Y-93363600D02*
X190393200Y-93363600D01*
X183393200Y-93363600D02*
X183393200Y-98863600D01*
%TO.C,J1*%
X167310000Y-109677000D02*
X165410000Y-109677000D01*
X171210000Y-109677000D02*
X169210000Y-109677000D01*
X165410000Y-100277000D02*
X165410000Y-109677000D01*
X167310000Y-100277000D02*
X165410000Y-100277000D01*
X171210000Y-100277000D02*
X169210000Y-100277000D01*
%TO.C,U3*%
X197550800Y-97272800D02*
X197550800Y-99272800D01*
X197550800Y-97272800D02*
X199160800Y-97272800D01*
X197830800Y-109812800D02*
X197830800Y-97562800D01*
X197840800Y-97552800D02*
X203580800Y-97552800D01*
X203590800Y-97552800D02*
X203590800Y-109812800D01*
X203590800Y-109812800D02*
X197830800Y-109812800D01*
%TO.C,C3*%
X187113852Y-77954200D02*
X186591348Y-77954200D01*
X187113852Y-79424200D02*
X186591348Y-79424200D01*
%TO.C,SW3*%
X199796800Y-72816600D02*
X199796800Y-72716600D01*
X199796800Y-68216600D02*
X199796800Y-71216600D01*
X199796800Y-66716600D02*
X199796800Y-66616600D01*
X193596800Y-72816600D02*
X199796800Y-72816600D01*
X193596800Y-72816600D02*
X193596800Y-72716600D01*
X193596800Y-68216600D02*
X193596800Y-71216600D01*
X193596800Y-66616600D02*
X199796800Y-66616600D01*
X193596800Y-66616600D02*
X193596800Y-66716600D01*
%TO.C,SW4*%
X193492800Y-73323400D02*
X193492800Y-73423400D01*
X193492800Y-73323400D02*
X199692800Y-73323400D01*
X193492800Y-74923400D02*
X193492800Y-77923400D01*
X193492800Y-79523400D02*
X193492800Y-79423400D01*
X193492800Y-79523400D02*
X199692800Y-79523400D01*
X199692800Y-73423400D02*
X199692800Y-73323400D01*
X199692800Y-74923400D02*
X199692800Y-77923400D01*
X199692800Y-79523400D02*
X199692800Y-79423400D01*
%TO.C,SW2*%
X193546800Y-59866600D02*
X193546800Y-59966600D01*
X193546800Y-59866600D02*
X199746800Y-59866600D01*
X193546800Y-61466600D02*
X193546800Y-64466600D01*
X193546800Y-66066600D02*
X193546800Y-65966600D01*
X193546800Y-66066600D02*
X199746800Y-66066600D01*
X199746800Y-59966600D02*
X199746800Y-59866600D01*
X199746800Y-61466600D02*
X199746800Y-64466600D01*
X199746800Y-66066600D02*
X199746800Y-65966600D01*
%TO.C,SW1*%
X193546800Y-53366600D02*
X193546800Y-53466600D01*
X193546800Y-53366600D02*
X199746800Y-53366600D01*
X193546800Y-54966600D02*
X193546800Y-57966600D01*
X193546800Y-59566600D02*
X193546800Y-59466600D01*
X193546800Y-59566600D02*
X199746800Y-59566600D01*
X199746800Y-53466600D02*
X199746800Y-53366600D01*
X199746800Y-54966600D02*
X199746800Y-57966600D01*
X199746800Y-59566600D02*
X199746800Y-59466600D01*
%TD*%
M02*
