M48
; DRILL file KiCad 10.0.0 date 2026-03-31T14:32:09
; FORMAT={-:-/ absolute / metric / decimal}
; #@! TF.CreationDate,2026-03-31T14:32:09+05:30
; #@! TF.GenerationSoftware,Kicad,Pcbnew,10.0.0
; #@! TF.FileFunction,Plated,1,4,PTH
FMAT,2
METRIC
; #@! TA.AperFunction,Plated,PTH,ViaDrill
T1C0.300
; #@! TA.AperFunction,Plated,PTH,ComponentDrill
T2C0.300
; #@! TA.AperFunction,Plated,PTH,ComponentDrill
T3C0.600
; #@! TA.AperFunction,Plated,PTH,ComponentDrill
T4C0.800
; #@! TA.AperFunction,Plated,PTH,ComponentDrill
T5C1.000
%
G90
G05
T1
X165.372Y-56.552
X165.372Y-62.661
X165.8Y-69.98
X168.144Y-67.028
X168.727Y-59.079
X169.303Y-68.031
X169.54Y-65.534
X171.354Y-103.617
X171.534Y-104.952
X174.393Y-99.81
X174.646Y-109.421
X175.056Y-105.507
X175.434Y-108.564
X176.747Y-102.725
X181.903Y-77.439
X185.398Y-68.874
X185.398Y-85.764
X187.772Y-65.8
X188.194Y-64.886
X189.05Y-93.417
X189.076Y-62.443
X190.744Y-63.027
X191.177Y-105.131
X191.541Y-55.845
X191.945Y-108.902
X192.986Y-63.998
X193.163Y-102.198
X193.312Y-103.998
X194.403Y-94.811
X199.198Y-99.23
X199.421Y-54.818
T2
X172.475Y-59.522
X172.475Y-60.922
X173.175Y-58.822
X173.175Y-60.222
X173.175Y-61.622
X173.875Y-59.522
X173.875Y-60.922
X174.575Y-58.822
X174.575Y-60.222
X174.575Y-61.622
X175.275Y-59.522
X175.275Y-60.922
T4
X200.711Y-99.873
X200.711Y-102.413
X200.711Y-104.953
X200.711Y-107.493
T5
X167.34Y-74.168
X169.88Y-74.168
X172.42Y-74.168
X174.96Y-74.168
X177.5Y-74.168
X180.04Y-74.168
X182.58Y-74.168
X185.12Y-74.168
T3
G00X168.56Y-100.657
M15
G01X167.96Y-100.657
M16
G05
G00X168.56Y-109.297
M15
G01X167.96Y-109.297
M16
G05
G00X172.99Y-100.657
M15
G01X171.89Y-100.657
M16
G05
G00X172.99Y-109.297
M15
G01X171.89Y-109.297
M16
G05
M30
