M48
; DRILL file KiCad 10.0.0 date 2026-03-22T18:45:17
; FORMAT={-:-/ absolute / metric / decimal}
; #@! TF.CreationDate,2026-03-22T18:45:17+05:30
; #@! TF.GenerationSoftware,Kicad,Pcbnew,10.0.0
; #@! TF.FileFunction,Plated,1,2,PTH
FMAT,2
METRIC
; #@! TA.AperFunction,Plated,PTH,ViaDrill
T1C0.300
; #@! TA.AperFunction,Plated,PTH,ComponentDrill
T2C0.800
; #@! TA.AperFunction,Plated,PTH,ComponentDrill
T3C0.900
; #@! TA.AperFunction,Plated,PTH,ComponentDrill
T4C1.000
; #@! TA.AperFunction,Plated,PTH,ComponentDrill
T5C1.100
%
G90
G05
T1
X106.172Y-103.262
X114.817Y-100.052
X127.544Y-97.869
X135.702Y-99.099
T2
X104.947Y-83.5
X104.947Y-85.5
X105.26Y-116.88
X105.26Y-132.12
X107.8Y-116.88
X107.8Y-132.12
X110.34Y-116.88
X110.34Y-132.12
X112.5Y-83.5
X112.5Y-85.5
X112.88Y-116.88
X112.88Y-132.12
X115.42Y-116.88
X115.42Y-132.12
X117.96Y-116.88
X117.96Y-132.12
X118.0Y-83.5
X118.0Y-85.5
X120.5Y-116.88
X120.5Y-132.12
X122.5Y-96.0
X122.5Y-103.62
X123.04Y-116.88
X123.04Y-132.12
X124.0Y-84.0
X124.0Y-86.5
X125.58Y-116.88
X125.58Y-132.12
X127.5Y-96.0
X127.5Y-103.62
X128.12Y-116.88
X128.12Y-132.12
X129.5Y-84.0
X129.5Y-86.5
X130.66Y-116.88
X130.66Y-132.12
X132.0Y-96.0
X132.0Y-103.62
X133.2Y-116.88
X133.2Y-132.12
X135.0Y-84.0
X135.0Y-86.5
X135.74Y-116.88
X135.74Y-132.12
X136.0Y-96.0
X136.0Y-103.62
X138.28Y-116.88
X138.28Y-132.12
X140.0Y-96.0
X140.0Y-103.62
X140.82Y-116.88
X140.82Y-132.12
X141.0Y-84.0
X141.0Y-86.5
X143.36Y-116.88
X143.36Y-132.12
X145.9Y-116.88
X145.9Y-132.12
X146.5Y-84.0
X146.5Y-86.5
X148.44Y-116.88
X148.44Y-132.12
X150.98Y-116.88
X150.98Y-132.12
X152.5Y-85.06
X152.5Y-89.94
X153.52Y-116.88
X153.52Y-132.12
T3
X104.46Y-96.0
X107.0Y-96.0
T4
X123.19Y-113.0
X124.46Y-109.0
X125.73Y-113.0
X127.0Y-109.0
X128.27Y-113.0
X129.54Y-109.0
X130.81Y-113.0
X138.0Y-113.0
X139.27Y-109.0
X140.54Y-113.0
X141.81Y-109.0
X143.08Y-113.0
X144.35Y-109.0
X145.62Y-113.0
X153.0Y-107.42
X153.0Y-109.96
X153.0Y-112.5
T5
X111.0Y-93.5
X111.0Y-98.0
X117.5Y-93.5
X117.5Y-98.0
T4
G00X110.0Y-107.0
M15
G01X110.0Y-109.0
M16
G05
G00X112.0Y-112.7
M15
G01X114.0Y-112.7
M16
G05
G00X116.0Y-107.0
M15
G01X116.0Y-109.0
M16
G05
M30
